<?xml version="1.0" encoding="utf-8"?>
<!-- Generator: Adobe Illustrator 23.0.2, SVG Export Plug-In . SVG Version: 6.00 Build 0)  -->
<!DOCTYPE svg PUBLIC "-//W3C//DTD SVG 1.1//EN" "http://www.w3.org/Graphics/SVG/1.1/DTD/svg11.dtd" [
	<!ENTITY ns_extend "http://ns.adobe.com/Extensibility/1.0/">
	<!ENTITY ns_ai "http://ns.adobe.com/AdobeIllustrator/10.0/">
	<!ENTITY ns_graphs "http://ns.adobe.com/Graphs/1.0/">
	<!ENTITY ns_vars "http://ns.adobe.com/Variables/1.0/">
	<!ENTITY ns_imrep "http://ns.adobe.com/ImageReplacement/1.0/">
	<!ENTITY ns_sfw "http://ns.adobe.com/SaveForWeb/1.0/">
	<!ENTITY ns_custom "http://ns.adobe.com/GenericCustomNamespace/1.0/">
	<!ENTITY ns_adobe_xpath "http://ns.adobe.com/XPath/1.0/">
]>
<svg version="1.1" xmlns:x="&ns_extend;" xmlns:i="&ns_ai;" xmlns:graph="&ns_graphs;"
	 xmlns="http://www.w3.org/2000/svg" xmlns:xlink="http://www.w3.org/1999/xlink" x="0px" y="0px" viewBox="0 0 1500 450"
	 enable-background="new 0 0 1500 450" xml:space="preserve">
<metadata>
	<sfw  xmlns="&ns_sfw;">
		<slices></slices>
		<sliceSourceBounds  bottomLeftOrigin="true" height="5118.356" width="7237.366" x="-6056.366" y="-503.534"></sliceSourceBounds>
	</sfw>
</metadata>
<g id="FILL-BACKGROUND">
	<rect fill="#FFFFFF" width="1500" height="450"/>
</g>
<g id="N-DIMENSIONS">
</g>
<g id="N-TEXT">
</g>
<g id="AG-DIAGRAM">
	<g id="POLYLINE_433_">
		<g>
			<g>
				
					<line fill="none" stroke="#FF6B6B" stroke-width="2.75" stroke-linecap="round" stroke-linejoin="round" x1="1432.094" y1="369.518" x2="1430.094" y2="369.518"/>
				
					<line fill="none" stroke="#FF6B6B" stroke-width="2.75" stroke-linecap="round" stroke-linejoin="round" stroke-dasharray="4.0006,7.001" x1="1423.094" y1="369.518" x2="73.406" y2="369.518"/>
				
					<line fill="none" stroke="#FF6B6B" stroke-width="2.75" stroke-linecap="round" stroke-linejoin="round" x1="69.906" y1="369.518" x2="67.906" y2="369.518"/>
			</g>
		</g>
	</g>
	<g id="POLYLINE_432_">
		<g>
			<g>
				
					<line fill="none" stroke="#FF6B6B" stroke-width="2.75" stroke-linecap="round" stroke-linejoin="round" x1="1432.094" y1="159.658" x2="1430.094" y2="159.658"/>
				
					<line fill="none" stroke="#FF6B6B" stroke-width="2.75" stroke-linecap="round" stroke-linejoin="round" stroke-dasharray="4.0006,7.001" x1="1423.094" y1="159.658" x2="73.406" y2="159.658"/>
				
					<line fill="none" stroke="#FF6B6B" stroke-width="2.75" stroke-linecap="round" stroke-linejoin="round" x1="69.906" y1="159.658" x2="67.906" y2="159.658"/>
			</g>
		</g>
	</g>
</g>
<g id="AG-PEOPLE">
	<g id="POLYLINE_431_">
		
			<path fill="none" stroke="#FF6B6B" stroke-width="2.75" stroke-linecap="round" stroke-linejoin="round" stroke-miterlimit="10" d="
			M290.118,113.36c3.048-0.368,5.975-0.858,8.958-1.58c2.658-0.643,5.249-0.911,7.975-0.635c2.921,0.295,5.805,0.923,8.685,1.478
			c3.029,0.584,6.052,1.168,9.023,2.01c5.849,1.657,11.462,3.624,17.536,4.32c5.795,0.664,11.516,1.158,17.212,2.473
			c3.177,0.734,6.346,1.545,9.561,2.099c3.033,0.523,6.11,0.799,9.129,1.397c2.359,0.467,4.666,1.25,6.759,2.445
			c2.204,1.259,4.011,3.096,6.303,4.218c2.296,1.124,4.829,1.756,7.304,2.35c3.055,0.733,6.116,1.462,9.191,2.103
			c6.068,1.264,12.253,1.971,18.436,2.356c6.122,0.381,12.262,0.228,18.392,0.314c3.189,0.045,6.402,0.039,9.582,0.322
			c1.029,0.091,2.257,0.153,2.801,1.173c0.326,0.611,0.415,1.372,0.528,2.041c0.27,1.599,0.536,3.199,0.767,4.804
			c0.341,2.369,0.677,4.807,0.43,7.203c-0.227,2.198-0.763,4.505-3.16,5.055c-2.291,0.526-4.833,0.369-7.165,0.388
			c-1.849,0.015-3.7,0.002-5.549,0.003c-8.726,0.005-17.452,0.011-26.178,0.016c-5.356,0.003-10.713,0.046-16.069,0.005
			c-3.213-0.024-6.429-0.034-9.637-0.24c-2.097-0.135-4.337-0.241-6.336-0.955c-1.441-0.515-2.608-1.496-4.105-1.894
			c-1.09-0.29-2.219-0.43-3.295-0.771c-0.718-0.228-1.389-0.585-2.116-0.785c-2.077-0.571-4.441-0.281-6.549-0.103
			c-2.455,0.207-4.89,0.539-7.326,0.898c-6.939,1.023-13.88,2.265-20.857,2.999c-6.044,0.635-12.231,0.835-18.304,0.61
			c-2.908-0.108-5.797-0.413-8.677-0.822"/>
	</g>
	<g id="POLYLINE_356_">
		
			<path fill="none" stroke="#FF6B6B" stroke-width="2.75" stroke-linecap="round" stroke-linejoin="round" stroke-miterlimit="10" d="
			M154.255,154.933c2.379-0.509,4.761-0.837,7.185-1.039"/>
	</g>
	<g id="POLYLINE_355_">
		
			<path fill="none" stroke="#FF6B6B" stroke-width="2.75" stroke-linecap="round" stroke-linejoin="round" stroke-miterlimit="10" d="
			M143.654,142.697c0.678,0.998,1.525,1.846,2.535,2.505c1.436,0.938,3.254,1.281,4.576,2.381c0.739,0.614,0.966,1.422,1.128,2.346
			c0.144,0.818,0.248,1.624,0.623,2.376c0.408,0.818,1.028,1.499,1.519,2.264c1.382,2.155-0.316,4.078-2.544,4.625
			c-2.439,0.599-5.254,0.401-7.749,0.445c-2.759,0.048-5.522,0.04-8.279-0.091c-5.326-0.252-10.454-1.06-15.39-3.141
			c-2.201-0.928-4.638-1.772-6.658-3.075c-0.751-0.484-1.369-1.103-1.897-1.822c-1.492-2.034-2.505-4.477-3.599-6.736
			c-1.104-2.28-2.18-4.614-2.609-7.13c-0.459-2.692-0.046-5.421-0.256-8.128c-0.143-1.839-0.821-3.62-0.813-5.471
			c0.008-1.641,0.666-3.614,1.947-4.709c0.563-0.481,1.194-0.623,1.927-0.594c2.487,0.098,5.057,0.685,7.518,1.07
			c0.75,0.117,1.549,0.275,1.855,1.053c0.447,1.138,0.018,2.48,0.294,3.671c0.374,1.615,1.454,4.162,3.363,4.369
			c1.359,0.147,2.671-0.488,4.016-0.549c1.029-0.047,1.815,0.394,2.582,1.039c0.957,0.805,1.884,1.825,3.118,2.213
			c0.949,0.298,1.938,0.086,2.862-0.198c1.768-0.544,3.34-1.238,5.21-1.288c1.139-0.031,3.025-0.35,3.869,0.664
			c0.454,0.545,1.185,1.781,0.91,2.544c-0.357,0.99-2.357,1.042-3.126,1.297c-1.222,0.405-2.257,1.15-3.231,1.979
			c-1.576,1.341-3.426,2.668-4.701,4.314c-1.258,1.623-1.071,4.015,0.7,5.22c2.024,1.377,5.08,0.168,6.944-0.867
			c2.326-1.291,4.22-2.856,4.504-5.59c0.104-1,0.024-1.739-0.632-2.512"/>
	</g>
	<g id="POLYLINE_354_">
		
			<path fill="none" stroke="#FF6B6B" stroke-width="2.75" stroke-linecap="round" stroke-linejoin="round" stroke-miterlimit="10" d="
			M117.475,120.826c3.083-2.015,6.3-4.499,9.859-5.599c1.076-0.333,2.173-0.476,3.297-0.499c0.967-0.019,1.956,0.04,2.882-0.289
			c2.272-0.807,3.601-3.084,5.637-4.246c0.826-0.471,1.96-0.465,2.738,0.132c0.934,0.717,0.583,2.125,1.891,2.421
			c1.091,0.247,1.745,0.394,2.738,0.883c0.543,0.268,1.096,0.37,1.7,0.388c1.01,0.03,2.005-0.286,3.007-0.233
			c0.96,0.051,1.848,0.453,2.822,0.478c1.455,0.037,3.311,0.128,4.305,1.386c0.438,0.554,0.548,1.27,0.594,1.954
			c0.107,1.58-0.06,3.165,0.115,4.744c0.3,2.706,1.49,5.049,3.153,7.169c0.615,0.783,1.262,1.541,1.898,2.307"/>
	</g>
	<g id="POLYLINE_353_">
		
			<path fill="none" stroke="#FF6B6B" stroke-width="2.75" stroke-linecap="round" stroke-linejoin="round" stroke-miterlimit="10" d="
			M190.582,128.245c2.521,0.93,4.89,2.222,7.42,3.132c1.499,0.539,3.409,0.911,4.646,2.009c1.705,1.514-0.375,3.94-1.433,5.147
			c-1.053,1.201-2.382,2.206-3.219,3.583c-0.8,1.316-1.159,2.884-1.462,4.374c-0.515,2.531-0.81,5.143-0.833,7.726
			c-0.011,1.197,0.432,2.875-0.183,4c-0.361,0.66-1.139,0.931-1.825,1.107c-2.066,0.531-4.324,0.453-6.439,0.428
			c-3.055-0.036-6.107-0.173-9.16-0.282c-2.566-0.092-5.148-0.042-7.708-0.246c-2.841-0.226-5.074-1.1-7.108-3.138
			c-2.84-2.846-4.362-6.543-4.533-10.535c-0.184-4.303,1.197-8.177,3.72-11.628c1.568-2.145,3.327-4.106,4.819-6.309
			c1.071-1.581,2.603-2.779,4.095-3.941c2.194-1.708,4.446-3.343,6.547-5.167c1.886-1.637,3.706-3.362,5.833-4.691
			c4.16-2.6,9.085-3.71,13.917-4.168c5.671-0.537,11.383-0.337,17.066-0.179c5.491,0.153,10.982,0.444,16.471,0.67
			c5.689,0.233,11.378,0.512,17.069,0.7c5.439,0.18,10.886,0.266,16.327,0.073c5.572-0.198,11.296-0.808,16.864-0.24
			c2.248,0.229,4.629,0.495,6.752,1.314c0.763,0.294,1.644,0.706,1.983,1.507c0.332,0.781,0.061,1.678-0.232,2.424
			c-0.863,2.191-2.18,4.153-2.909,6.407c-1.629,5.031-1.68,10.596-2.038,15.83c-0.187,2.723-0.325,5.45-0.711,8.154"/>
	</g>
	<g id="POLYLINE_352_">
		
			<path fill="none" stroke="#FF6B6B" stroke-width="2.75" stroke-linecap="round" stroke-linejoin="round" stroke-miterlimit="10" d="
			M203.251,135.209c4.512,0.776,9.119,1.089,13.572,2.187c4.431,1.093,8.416,3.297,12.751,4.631
			c4.131,1.272,8.696,0.549,12.929,0.335c4.255-0.215,8.453-0.15,12.679,0.419c4.708,0.634,9.35,1.667,14.065,2.258
			c4.638,0.581,9.33,0.965,13.998,1.214c4.227,0.225,8.712,0.386,12.815-0.826c3.477-1.027,6.539-3.135,10.191-3.57
			c2.03-0.242,4.094-0.157,6.127-0.002c2.183,0.167,4.456,0.239,6.606,0.688c1.382,0.289,2.738,0.854,2.672,2.468
			c-0.038,0.924-0.413,1.841-0.779,2.674c-0.966,2.202-2.255,4.255-3.433,6.346c-0.959,1.704-1.633,3.542-3.511,4.399
			c-3.098,1.416-7.11,1.197-10.424,1.11c-4.655-0.122-9.25-0.819-13.887-1.169c-3.76-0.283-7.55-0.3-11.319-0.215
			c-5.024,0.113-10.049,0.225-15.073,0.338c-6.99,0.157-13.98,0.313-20.97,0.47c-3.362,0.075-6.726,0.184-10.089,0.218
			c-4.952,0.049-9.901,0.075-14.852-0.073c-5.019-0.151-10.033-0.404-15.042-0.751c-2.205-0.153-4.408-0.348-6.612-0.523"/>
	</g>
	<g id="POLYLINE_351_">
		
			<path fill="none" stroke="#FF6B6B" stroke-width="2.75" stroke-linecap="round" stroke-linejoin="round" stroke-miterlimit="10" d="
			M389.62,130.651c5.925,0.936,11.88,1.661,17.874,1.95c6.456,0.311,12.929,0.043,19.386-0.074
			c5.387-0.098,10.794-0.218,16.129-1.04c2.851-0.439,5.7-1.061,8.579-1.289c1.215-0.096,2.561-0.15,3.693,0.39
			c0.705,0.337,1.226,0.9,1.513,1.626c0.206,0.523,0.273,1.082,0.33,1.637c0.148,1.451,0.353,2.893,0.504,4.343
			c0.071,0.688,0.125,1.377,0.175,2.067"/>
	</g>
	<g id="POLYLINE_350_">
		
			<path fill="none" stroke="#FF6B6B" stroke-width="2.75" stroke-linecap="round" stroke-linejoin="round" stroke-miterlimit="10" d="
			M456.973,132.804c3.24-0.199,6.638-0.791,9.339-2.713c2.84-2.021,4.157-5.259,5.8-8.21c1.042-1.872,2.603-4.888,5.067-5.094
			c1.417-0.119,2.819,0.711,3.748,1.721c2.067,2.247,2.131,5.847,2.707,8.659c0.125,0.608,0.246,1.216,0.364,1.825"/>
	</g>
	<g id="POLYLINE_349_">
		
			<path fill="none" stroke="#FF6B6B" stroke-width="2.75" stroke-linecap="round" stroke-linejoin="round" stroke-miterlimit="10" d="
			M446.349,159.644c-0.322,0.031-0.646,0.044-0.969,0.045"/>
	</g>
	<g id="POLYLINE_348_">
		
			<path fill="none" stroke="#FF6B6B" stroke-width="2.75" stroke-linecap="round" stroke-linejoin="round" stroke-miterlimit="10" d="
			M457.06,140.414c2.492-0.51,5.013-0.913,7.457-1.631c2.256-0.663,4.402-1.64,6.487-2.718c4.876-2.52,9.713-5.215,14.498-7.904
			c2.31-1.299,4.597-2.686,6.625-4.403c1.904-1.613,3.354-3.632,5.13-5.367c1.438-1.405,3.118-2.126,4.983-1.085
			c1.93,1.078,2.309,3.084,2.204,5.14c-0.138,2.701-0.188,5.333-0.17,8.039c0.013,1.949-0.151,3.868-0.711,5.742
			c-1.306,4.366-4.227,7.712-6.951,11.253c-1.516,1.971-2.692,4.213-4.397,6.033c-1.714,1.829-3.908,3.187-6.031,4.484
			c-2.705,1.653-5.073,1.901-8.223,1.444c-2.693-0.39-5.318-1.123-7.995-1.594c-2.49-0.438-5.02-0.386-7.539-0.366
			c-1.511,0.012-3.022,0.025-4.532,0.038"/>
	</g>
	<g id="POLYLINE_73_">
		
			<path fill="none" stroke="#FF6B6B" stroke-width="2.75" stroke-linecap="round" stroke-linejoin="round" stroke-miterlimit="10" d="
			M361.395,331.64c2.236,0.336,4.337,0.788,6.254,2.031c2.651,1.719,4.973,3.767,7.885,5.066c5.738,2.56,12.204,3.539,18.422,4.038
			c6.786,0.545,13.554,0.758,20.304,1.721c6.911,0.987,13.759,2.371,20.666,3.383c6.294,0.922,12.45,0.691,18.711-0.376
			c3.575-0.609,7.098-1.448,10.632-2.259c2.985-0.685,6.077-1.196,8.874-2.492c2.793-1.295,5.27-3.224,7.667-5.132
			c2.817-2.242,5.588-4.544,8.38-6.817c2.428-1.977,4.999-3.871,7.179-6.13c2.061-2.135,3.654-4.636,4.917-7.311
			c1.152-2.441,2.633-7.685,6.311-7.057c3.161,0.54,3.253,4.171,3.309,6.698c0.141,6.388,1.239,12.845,0.244,19.21
			c-0.986,6.306-4.017,12.334-7.528,17.598c-1.816,2.722-3.793,5.269-4.925,8.371c-0.617,1.692-1.053,3.676-2.273,5.073
			c-0.668,0.765-1.562,1.237-2.52,1.537c-2.375,0.744-5.023,0.769-7.487,0.732c-2.969-0.045-5.978-0.306-8.835-1.149
			c-2.914-0.859-5.605-1.646-8.658-1.806c-6.088-0.32-12.237,0.161-18.3,0.697c-7.574,0.669-15.152,1.508-22.744,1.938
			c-7.127,0.403-14.257,0.521-21.394,0.446c-6.685-0.071-13.388-0.357-20.042-1.018c-7.033-0.698-13.758-2.231-20.571-4.057
			c-2.967-0.795-5.976-1.312-8.997-1.854"/>
	</g>
	<g id="POLYLINE_72_">
		
			<path fill="none" stroke="#FF6B6B" stroke-width="2.75" stroke-linecap="round" stroke-linejoin="round" stroke-miterlimit="10" d="
			M350.256,329.835c0.111-8.71,0.408-17.391,0.749-26.096c0.301-7.684-0.033-15.255-0.588-22.919
			c-0.119-1.638-0.223-3.279-0.226-4.922c-0.004-1.856,0.059-3.716-0.269-5.551c-0.604-3.379-2.136-6.676-3.821-9.642
			c-1.039-1.83-2.24-3.743-4.038-4.919c-2.142-1.4-4.936-1.643-7.384-2.123c-2.784-0.546-5.509-0.838-8.183,0.303
			c-2.758,1.176-5.322,3.161-7.272,5.426c-0.378,0.439-0.734,0.898-1.059,1.378"/>
	</g>
	<g id="POLYLINE_71_">
		
			<path fill="none" stroke="#FF6B6B" stroke-width="2.75" stroke-linecap="round" stroke-linejoin="round" stroke-miterlimit="10" d="
			M275.473,322.216c1.983-1.443,4.055-2.83,6.41-3.584c1.607-0.514,3.135-0.719,4.546-1.732c0.66-0.474,1.148-1.069,1.659-1.694
			c0.524-0.64,1.128-1.12,1.719-1.696c1.149-1.119,1.051-2.602,1.538-4.043c0.606-1.789,2.288-3.09,3.225-4.72
			c1.63-2.835,2.643-5.983,3.763-9.039c2.139-5.832,5.134-11.122,8.294-16.445c2.093-3.525,4.214-7.035,6.278-10.576
			c0.824-1.413,1.619-2.843,2.428-4.265c0.617-1.084,1.174-2.328,1.949-3.315c0.271-0.344,0.504-0.631,0.892-0.324
			c0.184,0.146,0.289,0.505,0.379,0.707c0.284,0.634,0.524,1.284,0.839,1.904c1.26,2.476,3.434,4.375,5.39,6.289
			c2.869,2.809,5.859,5.974,5.337,10.329c-0.196,1.632-1.308,2.272-2.229,3.512c-1.077,1.451-1.507,3.368-1.842,5.105
			c-0.568,2.944-0.758,5.977-0.721,8.972c0.037,2.997,0.205,6.131,0.88,9.06c0.633,2.744,2.066,5.188,3.128,7.773
			c1.193,2.905,1.618,6.092,2.215,9.156c0.285,1.461,0.53,2.928,0.746,4.4"/>
	</g>
	<g id="POLYLINE_70_">
		
			<path fill="none" stroke="#FF6B6B" stroke-width="2.75" stroke-linecap="round" stroke-linejoin="round" stroke-miterlimit="10" d="
			M287.868,320.468c3.664,0.241,7.499,0.303,11.073,1.23c1.871,0.485,3.667,1.302,5.49,1.942c1.74,0.611,3.498,1.172,5.275,1.666
			c7.678,2.133,15.511,2.013,23.381,2.757c3.994,0.378,7.963,0.975,11.953,1.39c3.995,0.415,7.922,0.298,11.927,0.37
			c0.97,0.017,4.045-0.078,4.487,1.254c0.14,0.423-0.17,0.755-0.441,1.045c-0.808,0.865-1.776,1.551-2.499,2.5
			c-1.401,1.838-1.864,4.247-2.144,6.486c-0.492,3.93-0.52,7.943-0.686,11.896c-0.139,3.292,0.153,6.408,1.14,9.559
			c0.521,1.661,1.274,3.25,1.776,4.913c0.134,0.443,0.226,0.875-0.14,1.225c-0.454,0.434-1.332,0.491-1.908,0.569
			c-1.786,0.242-3.612,0.244-5.411,0.235c-3.919-0.019-7.844-0.222-11.747-0.562c-3.792-0.33-7.503-0.838-11.175-1.848
			c-3.367-0.926-6.931-0.796-10.391-0.695c-3.975,0.116-7.961,0.36-11.912,0.824c-3.871,0.455-7.675,1.306-11.562,1.641
			c-7.864,0.678-15.814,0.751-23.678,0.09c-2.033-0.171-4.063-0.367-6.095-0.551"/>
	</g>
	<g id="POLYLINE_69_">
		
			<path fill="none" stroke="#FF6B6B" stroke-width="2.75" stroke-linecap="round" stroke-linejoin="round" stroke-miterlimit="10" d="
			M324.762,327.51c0.851-4.676,2.347-9.196,4.405-13.48"/>
	</g>
	<g id="POLYLINE_68_">
		
			<path fill="none" stroke="#FF6B6B" stroke-width="2.75" stroke-linecap="round" stroke-linejoin="round" stroke-miterlimit="10" d="
			M195.698,268.111c-1.58,3.987,0.565,8.133,3.594,10.813c2.295,2.03,5.284,2.973,7.736,4.774c2.294,1.685,3.734,4.157,4.952,6.679
			c1.577,3.267,3.092,6.547,4.765,9.767c1.011,1.946,2.042,3.883,3.013,5.849c0.458,0.927,0.828,1.9,1.512,2.691
			c2.326,2.689,7.186,2.238,10.149,1.245c2.109-0.707,4.634-2.983,3.31-5.439c-0.884-1.64-2.269-3.129-3.357-4.654
			c-0.994-1.394-1.934-2.822-2.883-4.246c-2.258-3.391-4.444-6.848-6.956-10.06c-1.818-2.325-4.195-4.499-5.454-7.207
			c-0.893-1.92-0.703-4.103-1.277-6.113c-0.548-1.921-1.561-3.652-2.955-5.077c-2.099-2.144-4.851-3.633-6.566-6.141
			c-1.064-1.557-1.939-3.623-4.041-3.924c-1.367-0.196-2.852,0.327-4.046,0.955c-1.157,0.609-2.313,1.494-2.532,2.865
			c-0.144,0.9,0.112,1.816,0.314,2.685c0.259,1.113,0.288,2.128,0.379,3.261C195.389,267.278,195.456,267.726,195.698,268.111z"/>
	</g>
	<g id="POLYLINE_67_">
		
			<path fill="none" stroke="#FF6B6B" stroke-width="2.75" stroke-linecap="round" stroke-linejoin="round" stroke-miterlimit="10" d="
			M145.92,343.743c8.127,2.118,16.387,3.508,24.779,3.952c2.348,0.124,4.695,0.164,7.046,0.17"/>
	</g>
	<g id="POLYLINE_66_">
		
			<path fill="none" stroke="#FF6B6B" stroke-width="2.75" stroke-linecap="round" stroke-linejoin="round" stroke-miterlimit="10" d="
			M234.309,303.892c0.421-0.09,0.927,0.135,1.312,0.274c1.148,0.414,2.314,0.904,3.394,1.472c1.067,0.561,1.926,1.346,2.544,2.383
			c0.407,0.683,0.713,1.439,0.862,2.222c0.315,1.652-0.245,3.306-0.077,4.968c0.132,1.305,0.499,2.576,0.706,3.87
			c0.252,1.581,0.381,3.179,0.538,4.772"/>
	</g>
	<g id="POLYLINE_65_">
		
			<path fill="none" stroke="#FF6B6B" stroke-width="2.75" stroke-linecap="round" stroke-linejoin="round" stroke-miterlimit="10" d="
			M220.365,319.282c-0.365-2.595-0.484-5.217-0.842-7.817c-0.135-0.98-0.358-2.344,0.178-3.247c0.181-0.305,0.471-0.536,0.778-0.706
			"/>
	</g>
	<g id="POLYLINE_64_">
		
			<path fill="none" stroke="#FF6B6B" stroke-width="2.75" stroke-linecap="round" stroke-linejoin="round" stroke-miterlimit="10" d="
			M187.862,255.704c0.736,0.04,1.472,0.079,2.208,0.119c0.805,0.043,1.939-0.102,2.711,0.146c0.506,0.163,1.009,0.762,1.422,1.102
			c0.648,0.534,1.297,1.067,1.945,1.601"/>
	</g>
	<g id="POLYLINE_63_">
		
			<path fill="none" stroke="#FF6B6B" stroke-width="2.75" stroke-linecap="round" stroke-linejoin="round" stroke-miterlimit="10" d="
			M195.217,264.715c-1.964-1.567-3.928-3.134-5.892-4.702c-0.573-0.458-1.147-0.915-1.72-1.373
			c-0.283-0.226-0.899-0.548-1.083-0.864c-0.179-0.307-0.222-0.115,0.12-0.544c0.407-0.51,0.813-1.019,1.22-1.529
			c2.257,1.801,4.514,3.602,6.772,5.404"/>
	</g>
	<g id="POLYLINE_62_">
		
			<path fill="none" stroke="#FF6B6B" stroke-width="2.75" stroke-linecap="round" stroke-linejoin="round" stroke-miterlimit="10" d="
			M123.509,326.867c2.391-1.164,5.293-2.123,7.967-2.235c2.142-0.09,4.239,0.793,6.376,0.53c2.495-0.307,4.705-1.947,7.029-2.794
			c0.876-0.319,2.154-0.66,2.653,0.424c0.409,0.888-0.233,2.048,0.382,2.878c0.661,0.892,2.217,0.327,3.084,0.332
			c1.235,0.008,2.056,0.994,3.202,1.3c1.194,0.319,2.07-0.644,3.215-0.771c1.036-0.115,2.427,0.197,3.2,0.938
			c1.144,1.095,1.237,3.359,1.377,4.786c0.061,0.624,0.089,1.249,0.086,1.876"/>
	</g>
	<g id="POLYLINE_61_">
		
			<path fill="none" stroke="#FF6B6B" stroke-width="2.75" stroke-linecap="round" stroke-linejoin="round" stroke-miterlimit="10" d="
			M107.799,337.456c0.26-3.98,1.559-8.471,4.06-11.628c1.486-1.876,3.377-3.084,5.82-2.991c1.866,0.071,3.733,0.875,5.01,2.251
			c0.425,0.458,0.941,1.112,0.819,1.785c-0.2,1.098-1.721,1.863-2.4,2.623c-0.754,0.843-1.202,1.737-1.183,2.877
			c0.026,1.519,0.353,2.887,0.082,4.407c-0.111,0.62-0.27,1.23-0.421,1.841"/>
	</g>
	<g id="POLYLINE_60_">
		
			<path fill="none" stroke="#FF6B6B" stroke-width="2.75" stroke-linecap="round" stroke-linejoin="round" stroke-miterlimit="10" d="
			M275.473,322.216c0.816,0.906-1.64,2.693-2.186,3.075c-2.961,2.07-6.578,2.974-9.506,5.119
			c-5.392,3.948-4.803,11.089-4.594,17.079c0.124,3.565,0.839,6.876,2.121,10.204c0.855,2.22,1.844,4.391,2.78,6.578
			c0.392,0.915,0.924,1.935,0.94,2.954c0.017,1.08-0.84,1.564-1.782,1.837c-1.471,0.426-3.066,0.489-4.585,0.571
			c-2.184,0.118-4.37,0.134-6.557,0.146c-8.284,0.045-16.568-0.28-24.851-0.273c-10.554,0.009-21.108,0.101-31.661,0.151
			c-7.837,0.037-15.665-0.063-23.499-0.323c-8.541-0.284-17.072-0.847-25.614-1.108c-8.76-0.267-17.402-0.071-26.133,0.692
			c-4.077,0.356-8.385,1.049-12.458,0.32c-3.646-0.653-6.993-2.594-10.008-4.667c-3.243-2.23-6.351-4.843-8.817-7.929
			c-1.526-1.91-2.943-4.179-3.168-6.671c-0.388-4.305,2.958-7.959,6.509-9.861c3.18-1.704,6.819-2.33,10.384-2.565
			c4.173-0.275,8.379-0.02,12.525,0.483c4.12,0.5,8.211,1.241,12.299,1.948c4.391,0.76,8.878,1.359,13.168,2.601
			c2.053,0.594,4.137,1.606,6.295,0.943c1.197-0.368,2.289-1.057,3.323-1.745c1.814-1.207,3.547-2.531,5.366-3.732
			c3.521-2.324,7.177-4.44,10.845-6.521c3.744-2.124,7.509-4.044,11.617-5.369c4.099-1.323,8.303-2.318,12.468-3.405
			c4.225-1.102,8.444-2.308,12.708-3.255c3.796-0.843,7.609-1.289,11.495-0.979c3.906,0.311,7.725,1.213,11.525,2.126
			c4.297,1.032,8.595,2.18,12.973,2.822c3.334,0.489,6.709,0.649,9.965-0.34c1.572-0.477,3.12-1.087,4.76-1.288
			c1.224-0.15,2.456-0.049,3.671,0.135c3.364,0.511,6.412,1.617,9.83,0.985c1.976-0.366,3.959-0.88,5.971-1.013
			C274.124,321.905,275.055,321.784,275.473,322.216z"/>
	</g>
	<g id="POLYLINE_59_">
		
			<path fill="none" stroke="#FF6B6B" stroke-width="2.75" stroke-linecap="round" stroke-linejoin="round" stroke-miterlimit="10" d="
			M1057.415,158.628c-1.247-1.079-1.458-2.972-1.483-4.515c-0.048-2.892,0.608-5.792,1.313-8.579
			c0.902-3.562,1.913-7.083,2.419-10.729c0.47-3.388,0.92-6.726,2.01-9.985c2.221-6.644,5.964-12.852,9.696-18.742
			c3.485-5.5,7.275-11.355,12.562-15.303c5.741-4.287,12.796-4.249,19.569-3.013c7.582,1.384,14.921,4.038,22.259,6.328
			c6.667,2.081,13.344,4.135,20.136,5.776c3.52,0.85,7.091,1.537,10.568,2.553c1.575,0.46,3.042,1.07,4.512,1.792
			c0.735,0.361,1.479,0.725,2.282,0.91c2.065,0.477,4.234-0.405,6.188-0.959c2.616-0.741,4.903-0.932,7.599-0.549
			c1.623,0.23,3.279,0.593,4.743-0.33c0.924-0.583,1.712-1.351,2.66-1.904c0.795-0.464,1.654-0.82,2.528-1.106
			c1.363-0.446,3.317-1.028,4.725-0.443c1.111,0.461,0.961,1.715,0.792,2.699c-0.269,1.57-0.75,3.095-0.978,4.674
			c-0.225,1.561-0.201,3.141-0.041,4.707c0.369,3.604,1.411,7.085,2.054,10.64c1.242,6.877-0.243,13.963-0.867,20.831
			c-0.303,3.333-0.716,6.725-0.338,10.068c0.159,1.402,0.618,3.169-0.639,4.217c-1.62,1.351-4.439,1.349-6.401,1.475
			c-3.083,0.198-6.184,0.204-9.272,0.187c-9.062-0.051-18.124-0.138-27.186-0.206c-4.955-0.038-9.905,0.017-14.86,0.07
			c-10.538,0.111-21.075,0.222-31.613,0.333c-5.49,0.058-10.973,0.095-16.463,0.061c-7.886-0.049-15.759-0.119-23.642,0.051
			C1060.687,159.672,1058.687,159.721,1057.415,158.628z"/>
	</g>
	<g id="POLYLINE_58_">
		
			<path fill="none" stroke="#FF6B6B" stroke-width="2.75" stroke-linecap="round" stroke-linejoin="round" stroke-miterlimit="10" d="
			M1190.421,100.152c4.72-2.412,9.548-3.837,14.807-4.493c5.409-0.676,10.845-0.634,16.271-0.195
			c6.261,0.506,12.509,1.263,18.757,1.905c4.899,0.504,9.916,0.794,14.701,2.019c2.745,0.702,5.364,1.774,8.017,2.752
			c2.149,0.793,4.3,1.214,6.561,1.523c6.019,0.824,12.026,1.708,18.028,2.647c5.372,0.84,10.812,1.607,16.102,2.873
			c1.807,0.432,3.729,0.925,5.302,1.959c1.095,0.72,1.848,1.807,2.857,2.625c0.98,0.795,2.196,1.176,3.409,1.458
			c2.505,0.584,5.095,0.746,7.566,1.486c2.609,0.781,5.014,2.112,7.455,3.291c2.44,1.178,4.926,2.251,7.46,3.212
			c1.261,0.478,2.534,0.924,3.81,1.361"/>
	</g>
	<g id="POLYLINE_57_">
		
			<path fill="none" stroke="#FF6B6B" stroke-width="2.75" stroke-linecap="round" stroke-linejoin="round" stroke-miterlimit="10" d="
			M1336.872,125.613c-3.286,0.785-7.677,2.184-9.252,5.533c-1.068,2.273-0.618,5.008,1.125,6.809
			c3.147,3.252,8.318,3.715,12.566,3.668c3.434-0.039,6.86-0.331,10.295-0.361c3.287-0.029,6.579,0.083,9.858,0.321
			c6.486,0.471,13.064,1.995,19.566,1.052c3.1-0.45,6.258-1.209,9.165-2.388c0.991-0.402,2.158-0.931,2.691-1.924
			c0.245-0.456,0.32-0.976,0.343-1.487c0.061-1.339-0.039-2.721-0.061-4.062c-0.035-2.124-0.5-4.255-1.507-6.136
			c-2.257-4.217-7.17-5.899-11.566-6.889c-6.494-1.462-13.09-1.144-19.629-0.138c-3.217,0.495-6.397,1.188-9.528,2.074
			c-3.258,0.922-6.449,2.072-9.712,2.973C1339.789,125.056,1338.319,125.273,1336.872,125.613z"/>
	</g>
	<g id="POLYLINE_56_">
		
			<path fill="none" stroke="#FF6B6B" stroke-width="2.75" stroke-linecap="round" stroke-linejoin="round" stroke-miterlimit="10" d="
			M1049.081,120.464c-0.251-0.674-0.684-1.541,0.298-1.723c0.543-0.101,1.177,0.027,1.709,0.111c1.586,0.25,3.16,0.598,4.736,0.901
			c1.192,0.23,2.391,0.442,3.565,0.753c0.442,0.117,1.219,0.242,1.576,0.579c0.644,0.608-0.622,0.853-0.452,1.567
			c0.145,0.608,1.057,0.916,1.605,0.912"/>
	</g>
	<g id="POLYLINE_55_">
		
			<path fill="none" stroke="#FF6B6B" stroke-width="2.75" stroke-linecap="round" stroke-linejoin="round" stroke-miterlimit="10" d="
			M1053.881,157.011c0.912,0.162,1.818,0.347,2.722,0.543"/>
	</g>
	<g id="POLYLINE_54_">
		
			<path fill="none" stroke="#FF6B6B" stroke-width="2.75" stroke-linecap="round" stroke-linejoin="round" stroke-miterlimit="10" d="
			M1352.73,158.832c-5.479-0.115-10.942-0.168-16.422-0.145c-4.536,0.019-9.073,0.047-13.609-0.036
			c-6.598-0.12-13.196-0.24-19.794-0.36c-4.662-0.085-9.337,0.055-13.994,0.262c-5.53,0.245-11.055,0.599-16.587,0.815
			c-4.89,0.192-9.792,0.287-14.685,0.296c-5.22,0.01-10.443,0.069-15.663,0.02c-5.61-0.053-11.222-0.055-16.831-0.163
			c-5.432-0.104-10.867-0.192-16.296-0.418c-4.947-0.206-10.196-0.108-15.037-1.261c-0.593-0.141-1.183-0.314-1.732-0.584"/>
	</g>
	<g id="POLYLINE_53_">
		
			<path fill="none" stroke="#FF6B6B" stroke-width="2.75" stroke-linecap="round" stroke-linejoin="round" stroke-miterlimit="10" d="
			M1393.083,137.831c3.218,0.107,7.26,0.389,9.766,2.714c1.876,1.74,1.968,4.442,1.613,6.819c-0.352,2.359-1.141,4.824-2.936,6.486
			c-3.314,3.068-8.233,4.358-12.581,4.98c-5.074,0.726-10.231,0.728-15.346,0.733c-5.942,0.006-11.922,0.214-17.847-0.361
			c-3.193-0.31-7.384-0.522-9.905-2.823c-1.491-1.361-2.251-3.49-2.418-5.463c-0.171-2.016,0.454-3.822,2.097-5.06
			c1.233-0.93,2.735-1.486,4.193-1.944c2.406-0.756,4.895-1.252,7.377-1.689c1.349-0.237,2.702-0.45,4.055-0.664"/>
	</g>
	<g id="POLYLINE_52_">
		
			<path fill="none" stroke="#FF6B6B" stroke-width="2.75" stroke-linecap="round" stroke-linejoin="round" stroke-miterlimit="10" d="
			M1235.11,138.185c4.919-0.53,9.957-0.919,14.749-2.217c4.84-1.312,9.341-3.655,14.062-5.318c2.296-0.809,4.694-1.243,6.994-2.021
			c0.759-0.257,1.415-0.904,2.193-1.032c2.307-0.381,4.586,2.39,6.271,3.429c1.944,1.199,4.176,1.944,6.291,2.775
			c2.363,0.928,4.68,1.971,7.052,2.876c3.057,1.167,6.118,1.863,9.291,0.825c2.385-0.78,5.16-2.763,7.68-1.389
			c2.204,1.201,3.658,3.394,6.15,4.137c2.867,0.856,5.9-0.244,8.809,0.315c1.862,0.358,3.965,1.738,5.527,0.033
			c0.282-0.308,0.517-0.661,0.722-1.025"/>
	</g>
	<g id="POLYLINE_51_">
		
			<path fill="none" stroke="#FF6B6B" stroke-width="2.75" stroke-linecap="round" stroke-linejoin="round" stroke-miterlimit="10" d="
			M1053.11,157.903c0.868-0.61,1.062-1.584,1.073-2.586c0.03-2.696-0.574-5.305-0.102-8c0.49-2.797,1.549-5.491,2.271-8.235
			c0.804-3.056,1.751-6.132,2.213-9.264c0.171-1.157,0.255-2.452-0.43-3.467c-0.7-1.037-1.977-1.641-3.064-2.155
			c-1.113-0.527-2.263-0.992-3.295-1.674c-0.735-0.486-1.366-1.103-2.071-1.63c-1.077-0.804-2.25-1.182-3.57-1.359
			c-2.778-0.371-5.793-0.437-8.588-0.196c-2.769,0.239-5.258,1.37-7.805,2.403c-4.122,1.671-8.674,3.324-11.025,7.371
			c-1.327,2.284-1.953,4.915-2.402,7.494c-0.456,2.62-1.08,5.366-0.871,8.039c0.3,3.84,2.452,7.674,5.232,10.276
			c3.851,3.605,9.396,4.335,14.443,4.667c3.032,0.2,6.079,0.204,9.113,0.032c2.514-0.143,5.219-0.257,7.614-1.101
			C1052.288,158.362,1052.724,158.173,1053.11,157.903z"/>
	</g>
	<g id="POLYLINE_50_">
		
			<path fill="none" stroke="#FF6B6B" stroke-width="2.75" stroke-linecap="round" stroke-linejoin="round" stroke-miterlimit="10" d="
			M779.088,134.483c7.055,0.214,14.113,0.405,21.16,0.814c7.669,0.446,15.336,0.904,22.989,1.578
			c7.951,0.7,15.881,1.602,23.816,2.462c6.781,0.735,13.554,1.343,20.376,1.535c6.843,0.193,13.676-0.012,20.515-0.235
			c7.864-0.257,15.701-0.588,23.569-0.421c2.588,0.055,5.322,0.195,7.819-0.621c2.104-0.688,3.973-2.057,6.185-2.42
			c1.471-0.242,2.591,0.252,3.889,0.921c1.554,0.8,2.381,0.5,4.048,0.139c1.599-0.346,3.255,0.027,4.724,0.691
			c0.242,0.109,1.252,0.483,1.279,0.822c0.035,0.44-1.267,0.462-1.598,0.561c-3.097,0.922-3.239,5.934-2.937,8.451
			c0.208,1.736,0.919,3.27,1.862,4.729c0.865,1.339,1.897,2.573,2.701,3.95c0.231,0.396,0.592,0.947,0.574,1.43
			c-0.05,1.337-3.098,0.412-3.651,0.327c-1.245-0.191-2.461-0.308-3.72-0.216c-1.404,0.103-2.796,0.41-4.208,0.4
			c-1.979-0.014-3.914-1.049-5.885-0.752c-0.993,0.15-1.936,0.509-2.938,0.626c-1.274,0.148-2.572,0.138-3.851,0.099
			c-3.848-0.116-7.693-0.316-11.544-0.316c-3.642,0-7.284,0.133-10.925,0.226c-5.216,0.134-10.408,0.198-15.625,0.193
			c-10.068-0.009-20.135-0.018-30.203-0.027c-8.711-0.008-17.423-0.015-26.134-0.023c-3.889-0.003-7.777-0.002-11.666-0.001
			c-10.436,0.001-20.873,0.002-31.309,0.003c-6.018,0.001-12.049,0.115-18.066-0.04c-3.389-0.088-6.777-0.324-10.109-0.97"/>
	</g>
	<g id="POLYLINE_49_">
		
			<path fill="none" stroke="#FF6B6B" stroke-width="2.75" stroke-linecap="round" stroke-linejoin="round" stroke-miterlimit="10" d="
			M605.037,124.001c1.702-0.201,3.396-0.491,5.106-0.612c1.138-0.08,2.413-0.035,3.497-0.463c1.069-0.422,1.681-1.411,2.042-2.457
			c0.223-0.647,0.346-1.334,0.328-2.02"/>
	</g>
	<g id="POLYLINE_48_">
		
			<path fill="none" stroke="#FF6B6B" stroke-width="2.75" stroke-linecap="round" stroke-linejoin="round" stroke-miterlimit="10" d="
			M634.232,125.12c-1.244-2.411-1.726-4.286-1.227-7.009c0.617-3.37,2.061-7.166,4.684-9.492c2.255-1.999,5.328-2.511,8.252-2.455
			c2.203,0.042,4.115,0.289,5.321,2.246c2.617,4.247,4.505,8.825,6.595,13.336c0.879,1.898,2.111,3.638,2.919,5.56
			c0.317,0.755,0.501,1.545,0.469,2.367c-0.075,1.948-1.079,3.868-2.32,5.329c-1.23,1.448-2.83,2.456-4.373,3.531
			c-1.953,1.36-3.815,2.836-5.805,4.145c-3.849,2.533-7.901,4.88-12.194,6.578c-4.654,1.841-9.564,2.869-14.419,4.019
			c-2.087,0.495-4.181,1.06-6.173,1.862c-2.219,0.894-4.169,2.324-6.389,3.208c-3.77,1.501-8.104,1.294-12.089,1.249
			c-5.35-0.061-10.687,0.035-16.036,0.045c-1.888,0.004-3.882,0.039-5.721-0.457c-0.565-0.152-1.607-0.43-1.868-1.049
			c-0.6-1.426,2.397-2.007,3.254-2.085c4.745-0.432,9.607-0.54,14.255-1.678c4.065-0.995,7.861-3.006,11.262-5.411
			c1.781-1.259,3.499-2.673,5.535-3.505c2.105-0.861,4.259-1.46,6.277-2.537c4.326-2.307,8.388-5.304,12.197-8.376
			c1.523-1.228,3.049-2.531,4.252-4.086c1.067-1.379,1.675-3.026,2.66-4.454c0.947-1.373,2.224-2.498,3.538-3.507"/>
	</g>
	<g id="POLYLINE_47_">
		
			<path fill="none" stroke="#FF6B6B" stroke-width="2.75" stroke-linecap="round" stroke-linejoin="round" stroke-miterlimit="10" d="
			M584.752,122.512c-0.607-0.343-1.297-1.219-0.933-1.95c0.53-1.064,2.698-1.261,3.656-1.403c2.492-0.37,5.385-0.443,7.837,0.24
			c0.897,0.25,1.652,0.753,1.716,1.751c0.057,0.877-0.641,1.61,0.585,1.745c1.878,0.207,3.634-0.208,5.489,0.353
			c3.935,1.191,7.879,4.057,9.342,8.01c0.711,1.92,1.015,4.082,0.704,6.114c-0.325,2.121-1.409,4.059-2.518,5.861
			c-0.37,0.601-0.764,1.186-1.189,1.749"/>
	</g>
	<g id="POLYLINE_46_">
		
			<path fill="none" stroke="#FF6B6B" stroke-width="2.75" stroke-linecap="round" stroke-linejoin="round" stroke-miterlimit="10" d="
			M574.132,158.509c-1.507,0.224-3.053,0.211-4.48-0.382c-1.929-0.801-3.556-2.328-5.045-3.747c-1.173-1.118-2.44-2.375-3.057-3.911
			c-0.316-0.786-0.385-1.618-0.44-2.455c-0.099-1.493-0.359-2.93-0.625-4.402c-0.721-4.001-0.424-8.407,1.846-11.905
			c1.157-1.783,2.891-2.918,4.553-4.186c1.168-0.891,1.983-2.207,3.326-2.856c2.049-0.99,4.524-1.163,6.751-1.422
			c1.565-0.182,3.133-0.348,4.702-0.495c1-0.094,2.296-0.447,3.29-0.224c1.659,0.372-1.821,1.491-1.983,1.548
			c-2.894,1.019-5.779,2.227-8.429,3.785c-1.066,0.627-2.339,1.395-2.961,2.523c-0.583,1.056-0.238,2.312-0.492,3.451
			c-0.313,1.406-1.009,2.696-0.569,4.148c0.45,1.485,1.514,2.702,2.007,4.174c0.637,1.902,0.573,3.941,1.316,5.825
			c0.697,1.769,1.699,3.792,3.104,5.114c1.029,0.968,2.432,1.17,3.794,1.186c2.878,0.033,5.725-0.618,8.603-0.684
			c1.468-0.034,2.935,0.011,4.402,0.076"/>
	</g>
	<g id="POLYLINE_45_">
		
			<path fill="none" stroke="#FF6B6B" stroke-width="2.75" stroke-linecap="round" stroke-linejoin="round" stroke-miterlimit="10" d="
			M651.204,108.315c0.703-1.764-0.789-3.087-1.794-4.457c-0.961-1.311-1.805-2.686-2.562-4.125c-0.746-1.418-1.451-2.874-2.513-4.09
			c-1.5-1.72-3.627-2.74-5.78-3.389c-3.276-0.987-6.707-1.051-10.1-0.95c-3.336,0.099-7.068-0.111-10.159,1.387
			c-1.503,0.728-2.683,1.911-3.564,3.32c-1.581,2.527-2.244,5.6-2.218,8.556c0.034,3.877,1.227,7.484,2.385,11.138
			c0.31,0.977,0.553,1.967,1.158,2.811c1.004,1.401,2.488,2.435,3.69,3.654c2.598,2.635,4.782,5.787,7.962,7.778
			c0.795,0.498,1.63,0.924,2.46,1.361"/>
	</g>
	<g id="POLYLINE_44_">
		
			<path fill="none" stroke="#FF6B6B" stroke-width="2.75" stroke-linecap="round" stroke-linejoin="round" stroke-miterlimit="10" d="
			M642.047,93.751c4.971,0.029,9.898,0.296,14.703,1.669c5.434,1.552,10.609,3.892,16.045,5.449
			c5.348,1.531,10.855,2.596,16.387,3.187c5.193,0.555,10.238,0.329,15.416-0.242c5.751-0.635,11.508-1.181,17.282-1.553
			c5.686-0.366,11.405-0.713,17.105-0.544c2.808,0.083,5.565,0.445,8.342,0.845c2.477,0.357,5.043,0.352,7.483,0.913
			c1.885,0.433,3.082,1.429,3.06,3.437c-0.019,1.696-0.611,3.389-1.166,4.969c-0.939,2.671-2.002,5.295-2.777,8.022
			c-1.457,5.13-2.159,10.475-2.465,15.789c-0.324,5.622-0.046,11.258-0.349,16.879c-0.066,1.219-0.166,2.433-0.425,3.629
			c-0.156,0.718-0.206,1.625-0.503,2.304c-0.328,0.751-1.188,0.875-1.92,0.953c-2.153,0.227-4.386-0.052-6.53-0.256
			c-3.155-0.299-6.309-0.625-9.469-0.866c-5.377-0.409-10.769-0.485-16.156-0.227c-5.901,0.283-11.795,0.703-17.696,0.998
			c-5.817,0.291-11.632,0.333-17.454,0.291c-6.325-0.046-12.651-0.218-18.975-0.332c-4.961-0.089-9.926-0.126-14.887-0.017
			c-5.977,0.131-11.951,0.449-17.929,0.51c-2.654,0.027-5.33,0.029-7.972-0.263c-1.513-0.167-3.334-0.366-4.588-1.331
			c-0.81-0.623-1.182-1.536-1.402-2.505"/>
	</g>
	<g id="POLYLINE_43_">
		
			<path fill="none" stroke="#FF6B6B" stroke-width="2.75" stroke-linecap="round" stroke-linejoin="round" stroke-miterlimit="10" d="
			M939.467,139.862c1.75-0.131,3.657-0.103,5.364-0.557c1.827-0.486,3.443-1.323,5.351-1.509c1.634-0.16,3.429-0.143,5.023,0.299
			c0.773,0.214,1.435,0.607,1.742,1.378c0.461,1.159,0.239,2.643,0.091,3.827c-0.323,2.576-0.766,5.171-1.297,7.712
			c-0.597,2.855-1.626,6.25-4.335,7.813c-2.931,1.692-6.882,0.466-9.915-0.157c-0.509-0.105-1.02-0.198-1.535-0.263"/>
	</g>
	<g id="POLYLINE_42_">
		
			<path fill="none" stroke="#FF6B6B" stroke-width="2.75" stroke-linecap="round" stroke-linejoin="round" stroke-miterlimit="10" d="
			M921.115,125.831c6.477-2.087,13.854-2.279,20.57-1.407c1.735,0.225,3.057,0.736,4.027,2.256c0.382,0.599,0.661,1.238,0.861,1.919
			c0.356,1.209,0.908,2.35,1.246,3.562c0.264,0.947,0.143,1.756,0.105,2.725c-0.044,1.099,0.297,2.137,0.496,3.209"/>
	</g>
	<g id="POLYLINE_41_">
		
			<path fill="none" stroke="#FF6B6B" stroke-width="2.75" stroke-linecap="round" stroke-linejoin="round" stroke-miterlimit="10" d="
			M757.682,105.525c3.415-0.697,6.723-1.036,10.211-0.895c3.549,0.143,7.093,0.546,10.605,1.068
			c7.881,1.171,15.669,2.875,23.471,4.475c7.007,1.438,14.048,2.812,20.987,4.561c3.344,0.843,6.608,2.206,9.987,2.866
			c2.547,0.498,5.158-0.183,7.72-0.233c3.423-0.067,6.792,0.041,10.186-0.49c3.257-0.509,6.395-0.838,9.694-0.56
			c3.446,0.29,6.93,0.917,10.194,2.08c2.712,0.967,5.079,2.777,7.846,3.573c2.498,0.719,5.185,0.55,7.734,0.252
			c2.587-0.303,5.371-1.03,7.973-0.452c1.65,0.366,3.063,1.498,4.744,1.722c1.745,0.233,3.404-0.629,5.158-0.167
			c1.39,0.366,2.69,0.988,4.106,1.272c1.424,0.286,2.885,0.307,4.333,0.331c2.87,0.049,5.941-0.084,8.658,1.001
			c3.242,1.294,3.75,4.366,3.643,7.553c-0.045,1.336-0.214,2.671-0.541,3.968"/>
	</g>
	<g id="POLYLINE_40_">
		
			<path fill="none" stroke="#FF6B6B" stroke-width="2.75" stroke-linecap="round" stroke-linejoin="round" stroke-miterlimit="10" d="
			M657.409,367.988c4.129,0.753,8.312,1.067,12.5,1.282c4.344,0.224,8.71,0.39,13.061,0.288c2.907-0.068,6.089-0.217,8.669-1.717
			c2.415-1.404,4.051-3.81,5.385-6.199c1.896-3.395,3.44-7.192,4.292-10.992c0.906-4.038,0.826-8.228,0.953-12.341
			c0.061-1.963,0.139-3.936,0.379-5.887c0.143-1.163,0.313-2.415,0.823-3.487c0.299-0.629,0.714-1.068,1.387-1.275
			c1.331-0.41,2.786-0.629,4.14-0.98c1.784-0.462,3.64-0.68,5.381-1.298c0.794-0.282,1.67-0.663,2.181-1.367
			c0.779-1.072,0.299-2.566-0.338-3.584c-0.583-0.933-1.417-1.421-2.326-1.991c-0.792-0.497-1.314-1.217-2.033-1.798
			c-1.306-1.055-3.277-0.51-4.823-1.021c-1.122-0.371-2.2-0.922-3.378-1.105c-1.055-0.164-2.132-0.023-3.16,0.238
			c-1.787,0.454-3.586,1.135-5.32,1.762c-1.642,0.593-3.123,1.499-4.816,1.97c-1.397,0.389-4.045,0.514-4.467,2.311
			c-0.392,1.67,0.762,2.614,2.044,3.353c1.172,0.675,2.603,1.798,2.75,3.257c0.092,0.912-0.379,1.868-0.695,2.687
			c-0.801,2.081-1.647,4.145-2.562,6.178c-1.611,3.58-3.372,7.238-5.829,10.325c-1.635,2.054-3.946,4.387-6.575,5.088
			c-0.785,0.209-1.605,0.066-2.383-0.105"/>
	</g>
	<g id="POLYLINE_39_">
		
			<path fill="none" stroke="#FF6B6B" stroke-width="2.75" stroke-linecap="round" stroke-linejoin="round" stroke-miterlimit="10" d="
			M689.684,368.7c6.161,0.555,12.32,0.801,18.504,0.859c6.579,0.062,13.16,0.038,19.74,0.057c5.564,0.016,11.135,0.094,16.697-0.077
			c1.431-0.044,2.87-0.079,4.294-0.24c0.533-0.06,1.15-0.106,1.628-0.379c0.416-0.237,0.628-0.627,0.84-1.041
			c0.614-1.205,1.085-2.495,1.546-3.765c2.008-5.526,3.629-11.224,4.6-17.026c0.966-5.772,1.413-11.72,1.06-17.568
			c-0.211-3.495-0.615-7.311-3.113-9.976c-1.816-1.938-4.032-3.657-6.139-5.265c-0.874-0.667-1.88-1.379-2.996-1.555
			c-1.34-0.211-2.584,0.462-3.647,1.203c-1.831,1.276-3.454,2.779-5.558,3.607c-1.965,0.774-4.075,1.119-6.146,1.476
			c-3.58,0.618-7.157,1.253-10.739,1.853c-1.184,0.198-2.373,0.358-3.562,0.522"/>
	</g>
	<g id="POLYLINE_38_">
		
			<path fill="none" stroke="#FF6B6B" stroke-width="2.75" stroke-linecap="round" stroke-linejoin="round" stroke-miterlimit="10" d="
			M685.926,322.066c-8.132-0.162-16.281-0.484-24.415-0.3c-7.811,0.176-15.768,0.929-23.269,3.226
			c-3.404,1.042-6.597,2.504-9.376,4.753c-2.966,2.401-5.747,5.266-8.137,8.238c-1.885,2.345-3.476,4.947-4.06,7.933
			c-0.596,3.048-0.195,6.209,0.506,9.203c1.246,5.319,3.652,11.337,9.212,13.288c3.104,1.089,6.56,1.216,9.819,1.177
			c4.013-0.049,8.022-0.323,12.036-0.166c1.854,0.072,3.716,0.276,5.573,0.22c0.757-0.023,1.544-0.088,2.236-0.422
			c1.255-0.606,1.777-1.888,2.145-3.148c0.709-2.426,1.415-4.581,3.159-6.454c1.342-1.441,2.83-2.767,4.268-4.111
			c0.934-0.872,1.922-1.694,3.043-2.316c1.187-0.659,2.499-0.972,3.742-1.499c0.483-0.205,1.018-0.434,0.499-0.913
			c-0.815-0.753-2.435-1.001-3.45-1.335c-2.026-0.666-4.059-1.313-6.058-2.058c-3.738-1.393-7.177-3.255-10.655-5.189
			c-2.976-1.654-5.972-3.151-9.31-3.915c-1.674-0.383-3.373-0.61-5.076-0.82"/>
	</g>
	<g id="POLYLINE_37_">
		
			<path fill="none" stroke="#FF6B6B" stroke-width="2.75" stroke-linecap="round" stroke-linejoin="round" stroke-miterlimit="10" d="
			M770.008,321.066c6.673,0.523,13.105,1.533,19.504,3.539c6.632,2.08,13.145,4.549,19.839,6.429
			c6.126,1.72,12.235,2.693,18.606,2.516c3.321-0.092,6.719-0.36,10.026,0.099c3.175,0.441,6.129,1.701,9.111,2.811
			c6.688,2.49,13.808,3.919,20.712,5.657c6.395,1.609,12.732,3.164,19.284,3.998c6.755,0.86,13.596,1.559,20.404,1.784
			c3.474,0.115,6.957-0.01,10.417-0.351c3.102-0.305,6.197-1.115,9.323-1.082c3.024,0.032,5.982,0.833,8.997,1.003
			c1.327,0.075,2.657-0.069,3.982,0.015c0.41,0.026,0.908,0.053,1.263,0.287c0.864,0.571,0.324,1.918,0.061,2.68
			c-0.582,1.685-1.436,3.308-1.505,5.122c-0.092,2.423,0.811,4.831,1.173,7.206c0.214,1.405,0.481,3.304-0.515,4.501
			c-1.068,1.283-3.364,1.137-4.817,1.306c-3.22,0.375-6.404,0.853-9.649,0.944c-7.546,0.212-15.138-0.265-22.679-0.46
			c-6.408-0.166-12.817-0.287-19.228-0.219c-6.944,0.075-13.869,0.577-20.81,0.728c-3.479,0.076-6.926-0.242-10.397-0.392
			c-3.547-0.154-7.083,0.021-10.628,0.152c-2.948,0.109-5.888,0.173-8.828-0.119c-3.404-0.338-6.769-0.609-10.194-0.544
			c-6.981,0.132-13.951,0.647-20.933,0.766c-6.941,0.119-13.886,0.09-20.828,0.039c-3.636-0.026-7.274-0.027-10.907-0.172
			c-3.349-0.133-6.672-0.579-10.019-0.735c-3.238-0.151-6.484-0.108-9.725-0.101"/>
	</g>
	<g id="POLYLINE_36_">
		
			<path fill="none" stroke="#FF6B6B" stroke-width="2.75" stroke-linecap="round" stroke-linejoin="round" stroke-miterlimit="10" d="
			M748.514,314.131c1.013-2.391,2.024-4.761,3.392-6.975c1.471-2.383,3.211-4.595,4.982-6.76c3.584-4.38,7.422-8.562,11.364-12.621
			c3.896-4.011,7.908-7.912,12.138-11.571c4.611-3.987,9.182-8.107,14.037-11.798c3.654-2.778,7.822-5.463,12.544-5.674
			c4.459-0.199,8.571,1.956,11.751,4.95c3.931,3.701,6.421,8.566,8.073,13.647c1.755,5.397,2.719,11.047,3.449,16.664
			c0.763,5.869,1.328,11.761,1.689,17.668c0.361,5.895,0.585,11.8,0.614,17.706c0.006,1.352-0.006,2.703-0.009,4.055"/>
	</g>
	<g id="POLYLINE_35_">
		
			<path fill="none" stroke="#FF6B6B" stroke-width="2.75" stroke-linecap="round" stroke-linejoin="round" stroke-miterlimit="10" d="
			M794.35,326.17c1.998-4.288,3.875-8.633,5.692-13.001c0.97-2.332,1.964-4.655,2.786-7.045c0.751-2.183,1.267-4.419,1.785-6.666
			c0.559-2.425,1.326-4.755,2.182-7.09"/>
	</g>
	<g id="POLYLINE_34_">
		
			<path fill="none" stroke="#FF6B6B" stroke-width="2.75" stroke-linecap="round" stroke-linejoin="round" stroke-miterlimit="10" d="
			M803.533,303.893c0.463,3.387,0.882,6.772,0.932,10.195c0.05,3.443-0.122,6.897,0.288,10.325c0.223,1.869,0.595,3.712,0.992,5.55"
			/>
	</g>
	<g id="POLYLINE_33_">
		
			<path fill="none" stroke="#FF6B6B" stroke-width="2.75" stroke-linecap="round" stroke-linejoin="round" stroke-miterlimit="10" d="
			M941.928,348.857c2.555-0.41,5.097-0.827,7.58-1.573c2.407-0.723,4.741-1.677,7.035-2.701c4.849-2.164,9.614-4.615,14.121-7.426
			c2.12-1.322,4.202-2.707,6.3-4.064c2.339-1.513,4.79-2.944,6.953-4.709c1.099-0.897,3.239-2.66,4.542-0.986
			c0.54,0.693,0.598,1.736,0.613,2.575c0.043,2.346-0.5,4.715-1.109,6.966c-0.681,2.517-1.447,5.004-2.027,7.548
			c-0.43,1.883-0.782,3.862-1.724,5.573c-1.659,3.012-5.091,4.814-7.914,6.537c-2.518,1.538-5.057,3.044-7.559,4.609
			c-2.155,1.348-4.072,2.908-6.04,4.507c-2.524,2.051-5.694,3.867-9.062,3.703c-3.423-0.167-5.874-2.985-8.842-4.34
			c-1.131-0.516-2.309-0.926-3.471-1.364"/>
	</g>
	<g id="POLYLINE_32_">
		
			<path fill="none" stroke="#FF6B6B" stroke-width="2.75" stroke-linecap="round" stroke-linejoin="round" stroke-miterlimit="10" d="
			M590.291,350.978c-2.543,1.658-4.977,4.893-3.163,7.929c1.995,3.34,6.061,1.54,8.428-0.329c2.263-1.786,4.082-4.005,4.76-6.823"/>
	</g>
	<g id="POLYLINE_31_">
		
			<path fill="none" stroke="#FF6B6B" stroke-width="2.75" stroke-linecap="round" stroke-linejoin="round" stroke-miterlimit="10" d="
			M576.482,327.335c3.173-1.479,6.784-3.112,10.299-3.513c0.861-0.098,1.732-0.061,2.571,0.165c0.823,0.221,1.543,0.765,2.373,0.931
			c1.67,0.334,3.142-1.302,4.708-1.644c0.99-0.216,1.874,0.122,2.359,1.027c0.319,0.595,0.406,1.197,1.074,1.488
			c0.718,0.313,1.654,0.198,2.405,0.136c1.665-0.139,4.253-0.846,5.732,0.383c0.529,0.439,0.823,0.971,1.566,0.957
			c0.94-0.018,1.813-0.526,2.768-0.539c1.511-0.02,2.634,0.756,3.102,2.178c0.392,1.191,0.437,2.501,0.509,3.74
			c0.089,1.547,0.104,3.133-0.242,4.653c-0.64,2.808-2.613,5.3-4.555,7.34c-0.563,0.591-1.158,1.153-1.789,1.672"/>
	</g>
	<g id="POLYLINE_30_">
		
			<path fill="none" stroke="#FF6B6B" stroke-width="2.75" stroke-linecap="round" stroke-linejoin="round" stroke-miterlimit="10" d="
			M608.691,363.019c1.662-0.106,3.288,0.038,4.935,0.26c2.679,0.361,5.359,0.723,8.038,1.084"/>
	</g>
	<g id="POLYLINE_29_">
		
			<line fill="none" stroke="#FF6B6B" stroke-width="2.75" stroke-linecap="round" stroke-linejoin="round" stroke-miterlimit="10" x1="615.374" y1="338.418" x2="620.129" y2="338.752"/>
	</g>
	<g id="POLYLINE_28_">
		
			<path fill="none" stroke="#FF6B6B" stroke-width="2.75" stroke-linecap="round" stroke-linejoin="round" stroke-miterlimit="10" d="
			M590.291,350.978c1.18-0.935,0.643-2.168-0.707-2.611c-1.242-0.408-2.728,0.026-4.023-0.09c-0.951-0.085-1.862-0.439-2.563-1.099
			c-1.576-1.483-0.567-3.995-2.266-5.403c-0.446-0.369-0.822-0.382-1.336-0.136c-0.404,0.194-0.747,0.482-1.178,0.621
			c-0.448,0.144-0.928,0.152-1.376,0.304c-0.697,0.235-1.358,0.65-1.844,1.202c-0.529,0.601-0.779,0.962-1.555,0.496
			c-0.466-0.28-0.822-0.689-0.978-1.21c-0.302-1.006-0.336-2.143-0.487-3.177c-0.151-1.036-0.294-2.074-0.359-3.119
			c-0.171-2.711,0.574-5.182,2.492-7.156c0.524-0.539,1.128-0.945,1.72-1.403c0.199-0.154,0.582-0.384,0.64-0.655
			c0.15-0.708-1.092-0.958-1.573-1.046c-2.162-0.392-5.026-0.102-6.716,1.431c-0.528,0.479-0.949,1.059-1.369,1.631
			c-0.725,0.987-1.525,1.907-2.269,2.878c-0.693,0.904-1.267,1.872-1.624,2.957c-0.699,2.122-0.58,4.326,0.055,6.446
			c0.496,1.657,1.25,3.281,1.431,5.017c0.149,1.43-0.144,2.802-0.491,4.18c-0.66,2.62,0.138,5.596,1.425,7.912
			c0.606,1.09,1.414,1.983,2.458,2.667c1.257,0.823,2.763,1.258,3.945,2.194c1.606,1.273,1.936,3.503,3.781,4.573
			c3.217,1.867,7.11,1.212,10.604,0.85c2.049-0.212,3.96,0.222,5.996,0.28c0.873,0.025,1.702-0.106,2.517-0.426
			c1.688-0.662,3.182-1.724,4.921-2.276c2.194-0.696,4.527-0.767,6.731-1.41c1.74-0.508,3.352-1.73,1.702-3.378
			c-1.741-1.74-4.597-1.875-6.895-2.049c-2.447-0.185-4.908-0.09-7.36-0.177"/>
	</g>
	<g id="POLYLINE_27_">
		
			<path fill="none" stroke="#FF6B6B" stroke-width="2.75" stroke-linecap="round" stroke-linejoin="round" stroke-miterlimit="10" d="
			M1383.978,369.149c7.558,0.211,15.097,0.501,22.654,0.108c3.378-0.175,7.01-0.192,10.299-1.038c1.244-0.32,2.465-0.862,3.259-1.91
			c1.616-2.133,0.5-4.414-1.604-5.607c-1.991-1.129-4.397-1.291-6.608-1.635c-3.326-0.517-6.371-1.554-9.404-3.002
			c-3.263-1.558-6.394-3.383-9.769-4.697c-3.168-1.233-6.17-2.452-9.016-4.342c-0.652-0.433-1.29-0.884-1.921-1.348"/>
	</g>
	<g id="POLYLINE_26_">
		
			<path fill="none" stroke="#FF6B6B" stroke-width="2.75" stroke-linecap="round" stroke-linejoin="round" stroke-miterlimit="10" d="
			M1334.408,353.199c0.102,2.182,0.082,4.435-0.388,6.578c-0.4,1.822-1.481,3.489-1.557,5.373c-0.105,2.592,1.616,3.934,4.003,4.266
			c2.493,0.347,5.065,0.085,7.564-0.061c3.121-0.183,6.23-0.358,9.358-0.357c6.067,0.001,12.127,0.397,18.192,0.511
			c5.767,0.108,11.565-0.183,17.302-0.77c2.605-0.266,6.241-0.69,7.166-3.663c0.52-1.671-0.391-3.139-1.756-4.07
			c-0.988-0.674-2.133-1.055-3.293-1.312c-2.617-0.579-5.304-0.73-7.885-1.492c-5.38-1.589-10.052-4.887-15.262-6.9
			c-4.877-1.884-9.566-4.106-13.379-7.793c-1.163-1.125-2.327-2.25-3.49-3.374"/>
	</g>
	<g id="POLYLINE_25_">
		
			<path fill="none" stroke="#FF6B6B" stroke-width="2.75" stroke-linecap="round" stroke-linejoin="round" stroke-miterlimit="10" d="
			M1217.527,367.69c7.655,1.404,15.284,1.799,23.058,1.766c3.874-0.017,7.766-0.051,11.628-0.385c2.692-0.233,5.468-0.61,7.891-1.88
			c2.868-1.502,5.057-4.088,7.161-6.484c2.611-2.972,4.977-6.135,7.455-9.216c0.866-1.077,1.732-2.173,2.349-3.417
			c0.579-1.168,0.924-2.453,1.619-3.563c0.749-1.196,1.851-2.155,2.803-3.18c1.226-1.319,2.332-2.749,3.389-4.205
			c1.159-1.597,2.19-3.267,3.227-4.943c0.913-1.476,1.976-2.801,3.01-4.192c2.207-2.968,3.863-6.334,5.729-9.514
			c0.498-0.849,1.011-1.689,1.524-2.529"/>
	</g>
	<g id="POLYLINE_24_">
		
			<path fill="none" stroke="#FF6B6B" stroke-width="2.75" stroke-linecap="round" stroke-linejoin="round" stroke-miterlimit="10" d="
			M1162.469,318.225c5.646-0.004,11.298,0.175,16.918,0.747c6.509,0.663,13.007,1.479,19.527,2.035
			c2.898,0.247,5.797,0.376,8.705,0.424c2.128,0.036,4.628-0.201,6.672,0.539c0.803,0.29,1.258,0.826,1.27,1.692
			c0.011,0.847-0.251,1.708-0.458,2.518c-0.38,1.488-0.783,2.971-1.103,4.473c-1.163,5.448-0.889,10.968-0.22,16.464
			c0.358,2.939,0.836,5.864,1.36,8.777c0.489,2.721,0.943,5.498,1.9,8.102c0.366,0.997,1.078,2.266,0.653,3.365
			c-0.337,0.872-1.233,1.369-2.08,1.631c-2.014,0.623-4.278,0.474-6.359,0.481c-1.764,0.006-3.528,0.002-5.292-0.002
			c-8.367-0.019-16.734-0.037-25.1-0.056c-5.285-0.012-10.587,0.101-15.869-0.11c-1.499-0.06-2.997-0.142-4.495-0.223"/>
	</g>
	<g id="POLYLINE_23_">
		
			<path fill="none" stroke="#FF6B6B" stroke-width="2.75" stroke-linecap="round" stroke-linejoin="round" stroke-miterlimit="10" d="
			M1119.991,333.953c2.787,0.84,5.497,1.745,8.057,3.152c2.477,1.362,4.813,3.014,7.391,4.186c1.148,0.522,2.364,0.871,3.521,1.369
			c0.853,0.367,1.582,0.882,2.371,1.368c0.837,0.515,1.306,0.586,1.535-0.459c0.622-2.839,1.018-5.839,1.239-8.736
			c0.215-2.819-0.016-5.605-0.173-8.42c-0.152-2.741,0.414-5.432,0.484-8.166c0.067-2.583-0.272-5.139-0.703-7.68
			c-0.313-1.849-0.649-3.696-0.94-5.548c-0.116-0.74-0.239-1.528-0.168-2.282c0.1-1.064,0.744-1.525,1.663-1.973
			c1.729-0.844,3.739-1.059,5.621-1.311c1.405-0.188,2.816-0.338,4.229-0.438c0.858-0.06,1.794-0.184,2.652-0.031
			c0.99,0.177,1.282,0.92,1.463,1.832c0.537,2.719,0.826,5.454,1.482,8.157c1.411,5.822,3.714,11.385,5.025,17.235
			c1.323,5.907,1.742,11.979,2.128,18.005c0.387,6.035,0.809,12.127,0.737,18.178c-0.029,2.46-0.45,4.467-2.901,5.483
			c-2.204,0.914-4.739,1.096-7.092,1.284c-3.081,0.246-6.176,0.308-9.266,0.306c-6.174-0.005-12.335-0.523-18.507-0.536
			c-6.045-0.013-12.084,0.797-18.126,0.626c-3.151-0.089-6.306-0.575-8.466-3.064c-1.591-1.833-2.624-4.156-3.593-6.358
			c-1.237-2.81-2.323-5.683-3.534-8.505c-0.922-2.148-2.044-4.284-2.377-6.625c-0.255-1.793-0.052-3.644,0.432-5.382
			c1.068-3.832,3.481-6.586,7.115-8.148c2.739-1.177,5.687-1.763,8.526-2.638c3.16-0.974,6.251-2.176,9.357-3.305
			c5.484-1.994,11.085-3.932,16.805-5.13c2.778-0.582,5.585-0.945,8.404-1.255"/>
	</g>
	<g id="POLYLINE_22_">
		
			<path fill="none" stroke="#FF6B6B" stroke-width="2.75" stroke-linecap="round" stroke-linejoin="round" stroke-miterlimit="10" d="
			M1270.871,343.795c1.03-3.422,2.037-6.856,2.795-10.351c0.727-3.355,0.874-6.704,1.254-10.103
			c0.771-6.891,4.281-12.81,6.113-19.401c0.43-1.548,0.687-3.117,0.889-4.708c0.138-1.088,0.165-2.372,0.625-3.393
			c0.392-0.871,1.034-0.828,1.73-0.311c2.002,1.488,3.434,4.003,4.718,6.086c1.914,3.105,3.696,6.277,5.747,9.296
			c1.979,2.914,4.088,5.751,6.358,8.446c2.174,2.581,4.618,5.041,6.321,7.978c1.662,2.867,2.48,6.107,4.003,9.037
			c1.439,2.768,3.587,4.83,5.882,6.888c2.572,2.306,5.051,4.642,7.326,7.248c1.136,1.301,2.191,2.664,3.299,3.987
			c0.334,0.399,0.703,0.855,1.187,1.08c1.182,0.551,2.639-0.542,3.557-1.148c3-1.982,5.695-4.42,8.429-6.742
			c2.656-2.256,5.341-4.406,8.208-6.39c1.899-1.314,4.514-2.606,5.899-4.547c1.951-2.735-1.958-6.274-3.568-8.001
			c-4.836-5.184-9.977-10.01-14.374-15.594c-4.19-5.32-7.977-10.994-11.473-16.79c-3.847-6.378-7.604-12.801-11.9-18.892
			c-4.422-6.269-8.91-12.495-13.401-18.716c-3.487-4.83-7.406-10.14-13.14-12.42c-3.955-1.573-7.305,0.121-10.701,2.301
			c-5.737,3.683-10.637,8.501-15.124,13.596c-4.597,5.22-8.987,10.635-13.332,16.066c-4.425,5.53-8.89,11.033-13.206,16.648
			c-4.839,6.297-9.924,12.474-14.448,19.006c-1.949,2.814-3.608,5.79-5.163,8.837"/>
	</g>
	<g id="POLYLINE_21_">
		
			<path fill="none" stroke="#FF6B6B" stroke-width="2.75" stroke-linecap="round" stroke-linejoin="round" stroke-miterlimit="10" d="
			M1299.593,257.514c3.862-2.217,8.579-3.194,12.979-2.277c3.503,0.73,5.932,3.005,8.175,5.673
			c4.338,5.163,8.616,10.378,12.924,15.566c2.526,3.042,4.985,6.139,7.46,9.223c5.14,6.403,10.279,12.806,15.419,19.21
			c2.83,3.525,5.689,7.03,8.396,10.651c1.705,2.281,3.389,4.585,4.887,7.01c1.452,2.35,2.651,4.849,4.141,7.175
			c2.899,4.527,7.376,7.559,11.271,11.141c0.614,0.564,1.818,1.516,1.899,2.466c0.061,0.719-0.659,1.044-1.229,1.266
			c-2.006,0.781-4.2,0.998-6.23,1.733c-2.44,0.884-4.753,2.115-7.027,3.357c-1.227,0.67-2.44,1.363-3.656,2.051"/>
	</g>
	<g id="POLYLINE_20_">
		
			<path fill="none" stroke="#FF6B6B" stroke-width="2.75" stroke-linecap="round" stroke-linejoin="round" stroke-miterlimit="10" d="
			M1155.231,281.802c1.688-1.656,3.376-3.311,5.064-4.967c0.961-0.942,1.921-1.884,2.882-2.826c0.267-0.261,0.568-0.513,0.775-0.828
			c0.764-1.168,0.126-2.232-0.716-3.09c-3.257-3.321-6.514-6.642-9.771-9.963c-4.465-4.553-8.929-9.105-13.394-13.658
			c-1.395-1.423-2.79-2.845-4.186-4.268c-0.416-0.425-0.83-0.963-1.378-1.228c-1.666-0.805-2.868,0.864-3.907,1.883
			c-4.067,3.988-8.134,7.977-12.201,11.965c-0.942,0.924-1.779,2.057-0.852,3.351c0.59,0.824,1.457,1.518,2.162,2.237
			c1.96,1.999,3.921,3.998,5.881,5.997c3.94,4.017,7.88,8.035,11.82,12.052c0.246,0.25,0.491,0.501,0.737,0.751"/>
	</g>
	<g id="POLYLINE_19_">
		
			<path fill="none" stroke="#FF6B6B" stroke-width="2.75" stroke-linecap="round" stroke-linejoin="round" stroke-miterlimit="10" d="
			M1158.147,264.901c1.269-0.627,2.298-0.73,3.654-0.274c1.403,0.472,2.893,1.262,3.738,2.522c0.492,0.734,0.808,1.489,1.476,2.088
			c0.909,0.816,1.993,1.416,2.866,2.278c1.455,1.436,2.071,3.444,2.516,5.388c0.584,2.55,0.893,4.904,2.618,6.936"/>
	</g>
	<g id="POLYLINE_18_">
		
			<path fill="none" stroke="#FF6B6B" stroke-width="2.75" stroke-linecap="round" stroke-linejoin="round" stroke-miterlimit="10" d="
			M1156.023,284.16c1.479,0.482,2.84,1.171,4.046,2.153c2.013,1.639,3.948,3.392,5.937,5.063"/>
	</g>
	<g id="POLYLINE_17_">
		
			<path fill="none" stroke="#FF6B6B" stroke-width="2.75" stroke-linecap="round" stroke-linejoin="round" stroke-miterlimit="10" d="
			M1178.07,318.85c0.518-2.742,0.916-6.311-0.695-8.794c-0.712-1.097-1.814-1.846-2.58-2.895c-0.743-1.017-0.896-2.301-1.516-3.38
			c-0.618-1.073-1.615-1.877-2.099-3.034c-0.494-1.181-0.599-2.478-1.245-3.602c-0.852-1.483-2.304-2.421-3.572-3.512
			c-0.377-0.325-1.305-0.999-1.143-1.616c0.236-0.899,2.436-1.221,3.079-1.508c0.83-0.37,1.584-0.872,2.251-1.488
			c1.409-1.3,2.312-3.016,3.604-4.416c0.421-0.456,0.947-0.985,1.598-1.056c0.563-0.062,1.079,0.239,1.506,0.574
			c1.37,1.076,2.246,2.672,3.462,3.903c1.709,1.729,3.71,3.15,5.436,4.87c1.81,1.804,3.332,3.75,4.667,5.924
			c1.18,1.923,2.433,3.532,4.12,5.038c1.687,1.505,3.363,2.97,4.592,4.888c1.379,2.154,2.326,4.549,3.632,6.746
			c0.743,1.249,1.865,2.658,2.05,4.161c0.072,0.58-0.042,1.155-0.138,1.725"/>
	</g>
	<g id="POLYLINE_16_">
		
			<path fill="none" stroke="#FF6B6B" stroke-width="2.75" stroke-linecap="round" stroke-linejoin="round" stroke-miterlimit="10" d="
			M1138.149,279.21c0.395-1.634,1.164-3.148,1.891-4.653c0.385-0.798,0.793-1.799,1.572-2.302c0.379-0.245,0.807-0.318,1.252-0.308
			c1.628,0.035,3.344,0.836,4.858,1.33c1.92,0.626,4.233,1.319,5.368,3.147c0.641,1.033,0.886,2.28,1.335,3.399
			c0.732,1.822,1.499,3.611,1.881,5.547c0.791,4.007,0.562,8.191,0.898,12.251c0.042,0.511,0.085,1.021,0.127,1.532"/>
	</g>
	<g id="POLYLINE_15_">
		
			<path fill="none" stroke="#FF6B6B" stroke-width="2.75" stroke-linecap="round" stroke-linejoin="round" stroke-miterlimit="10" d="
			M1143.854,300.982c-0.291-1.53-0.746-3.039-1.595-4.358c-1.251-1.946-3.1-3.468-4.679-5.134c-2.295-2.422-4.198-4.82-4.547-8.196
			c-0.31-3.008-0.397-6.16,0.15-9.145"/>
	</g>
	<g id="POLYLINE_14_">
		
			<path fill="none" stroke="#FF6B6B" stroke-width="2.75" stroke-linecap="round" stroke-linejoin="round" stroke-miterlimit="10" d="
			M1071.333,298.858c3.782-0.776,7.699-0.989,11.539-0.555c1.297,0.147,2.642,0.346,3.849,0.871
			c0.918,0.399,1.529,1.029,2.266,1.686c1.618,1.443,3.959,1.393,5.996,1.622c0.741,0.083,1.888,0.063,2.416,0.714
			c0.481,0.593,0.523,1.395,1.126,1.923c0.767,0.671,1.823,0.908,2.587,1.596c0.92,0.829,1.329,2.056,2.115,2.993
			c1.675,2,4.546,2.145,6.69,3.397c1.461,0.853,2.653,2.183,3.047,3.857c0.324,1.376,0.144,2.887-0.372,4.195
			c-0.575,1.459-1.623,2.527-2.96,3.322c-1.604,0.954-3.391,1.598-5.104,2.328c-2.096,0.894-4.18,1.822-6.321,2.606
			c-0.855,0.313-1.719,0.604-2.592,0.861"/>
	</g>
	<g id="POLYLINE_13_">
		
			<path fill="none" stroke="#FF6B6B" stroke-width="2.75" stroke-linecap="round" stroke-linejoin="round" stroke-miterlimit="10" d="
			M1076.136,329.432c-1.75-0.351-3.439-0.071-4.88,1.025c-1.149,0.874-2.233,2.313-1.788,3.837c0.4,1.371,1.86,2.006,3.14,2.296
			c2.613,0.592,5.855,0.587,8.445-0.16c1.401-0.404,2.534-1.383,3.274-2.628"/>
	</g>
	<g id="POLYLINE_12_">
		
			<path fill="none" stroke="#FF6B6B" stroke-width="2.75" stroke-linecap="round" stroke-linejoin="round" stroke-miterlimit="10" d="
			M1081.855,336.135c0.966,0.456,1.894,0.906,2.966,1.02c0.675,0.072,1.737-0.061,2.168,0.621c0.621,0.982-0.066,2.735-1.003,3.262
			c-0.657,0.369-1.482,0.35-2.21,0.324c-1.534-0.055-3.082-0.336-4.617-0.143c-1.855,0.233-3.527,1.227-5.42,0.753
			c-1.493-0.374-2.847-1.218-4.207-1.902c-2.129-1.07-4.399-1.846-6.62-2.698c-3.43-1.315-6.521-3.033-8.916-5.867
			c-1.381-1.634-2.509-3.452-3.614-5.278c-0.597-0.987-1.255-1.985-1.586-3.101c-0.699-2.354,0.525-4.809,1.337-6.962
			c0.623-1.651,1.003-3.206,1.255-4.946c0.168-1.159,0.512-2.136,1.075-3.159c0.608-1.105,1.283-2.137,1.521-3.39
			c0.16-0.839,0.222-1.663,0.751-2.366c1.382-1.838,3.698-2.688,5.035-4.622c1.042-1.507,1.835-2.354,3.734-2.384
			c2.141-0.034,4.953,0.433,6.734,1.733c1.095,0.799,1.28,1.978,0.937,3.247c-0.343,1.269-1.083,2.408-1.816,3.482
			c-1.25,1.829-2.533,3.611-3.625,5.542c-0.849,1.503-1.782,3.1-2.312,4.752c-0.16,0.5-0.281,1.015,0.255,1.299
			c0.886,0.47,2.315,0.108,3.263,0.163c0.751,0.044,1.512,0.199,2.07,0.741c0.73,0.709,0.879,1.816,1.217,2.725
			c0.295,0.794,0.722,1.464,1.323,2.057c0.958,0.945,2.15,1.639,3.037,2.657c0.686,0.788,1.11,1.789,1.915,2.474
			c0.682,0.58,3.517,1.701,1.785,2.774c-0.61,0.378-1.438,0.561-2.15,0.492"/>
	</g>
	<g id="POLYLINE_11_">
		
			<path fill="none" stroke="#FF6B6B" stroke-width="2.75" stroke-linecap="round" stroke-linejoin="round" stroke-miterlimit="10" d="
			M1086.944,339.871c0.841,0.025,1.75,0.047,2.541,0.362c1.456,0.58,2.83,1.571,4.176,2.359"/>
	</g>
	<g id="POLYLINE_10_">
		
			<path fill="none" stroke="#FF6B6B" stroke-width="2.75" stroke-linecap="round" stroke-linejoin="round" stroke-miterlimit="10" d="
			M1111.785,322.632c1.842,1.326,3.774,2.464,5.816,3.455"/>
	</g>
</g>
<g id="AG-OUTLINE">
	<g id="POLYLINE_9_">
		
			<path fill="none" stroke="#FF6B6B" stroke-width="3.5" stroke-linecap="round" stroke-linejoin="round" stroke-miterlimit="10" d="
			M948.421,138.094c1.543-0.387,3.174-0.443,4.754-0.315c0.947,0.077,2.087,0.16,2.921,0.675c1.597,0.986,1.11,3.587,0.909,5.089
			c-0.494,3.695-0.907,7.835-2.391,11.294c-0.849,1.978-2.283,3.891-4.438,4.506c-2.873,0.821-6.049-0.15-8.867-0.713
			c-0.449-0.09-0.9-0.169-1.354-0.226c0.257,0.703-0.038,1.086-0.76,1.129c-1.884,0.111-3.764-0.628-5.667-0.596
			c-1.947,0.033-3.875,0.587-5.826,0.4c-1.729-0.166-3.455-0.992-5.206-0.695c-0.827,0.14-1.619,0.432-2.451,0.558
			c-1.039,0.157-2.099,0.17-3.147,0.169c-3.088-0.003-6.176-0.22-9.263-0.3c-6.151-0.159-12.317,0.141-18.464,0.299
			c-3.475,0.089-6.942,0.09-10.419,0.087c-7.757-0.007-15.514-0.014-23.27-0.021c-8.464-0.007-16.927-0.015-25.391-0.022
			c-3.816-0.003-7.633-0.009-11.449-0.01c-4.798-0.002-9.596,0.001-14.393,0.002c-8.677,0.001-17.354,0.002-26.031,0.003
			c-5.023,0.001-10.048,0.024-15.071,0.002c-2.587-0.011-5.179-0.082-7.757-0.302c-1.385-0.118-2.767-0.282-4.137-0.518
			c-0.185-0.032-0.841-0.253-1-0.186c-0.076,0.032-0.051,0.163-0.123,0.223c-0.134,0.111-0.207,0.296-0.36,0.409
			c-1.03,0.765-3.011,0.501-4.171,0.452c-3.164-0.134-6.324-0.521-9.475-0.819c-5.512-0.523-11.037-0.815-16.575-0.682
			c-6.422,0.154-12.841,0.639-19.252,1.01c-5.263,0.304-10.538,0.463-15.81,0.425c-6.637-0.048-13.272-0.191-19.908-0.31
			c-5.661-0.102-11.314-0.137-16.977-0.07c-5.822,0.069-11.64,0.409-17.462,0.501c-2.827,0.045-5.673,0.069-8.49-0.201
			c-1.616-0.155-3.581-0.324-4.949-1.31c-0.866-0.625-1.265-1.562-1.493-2.573c-2.004,0.901-3.808,2.2-5.87,2.979
			c-1.647,0.622-3.398,0.877-5.145,1.017c-4.675,0.375-9.387,0.039-14.07,0.069c-2.645,0.017-5.29,0.069-7.934,0.11
			c-1.854,0.029-3.759,0.046-5.593-0.265c-0.816-0.138-1.478-0.438-2.233-0.729c-0.842-0.324-2.133,0.07-3.105-0.071
			c-2.799-0.407-5.093-2.649-7.012-4.542c-0.925-0.912-1.852-1.898-2.46-3.059c-0.612-1.169-0.623-2.422-0.722-3.71
			c-0.158-2.048-0.749-4.034-0.907-6.084c-0.12-1.553-0.016-3.115,0.296-4.641c0.51-2.491,1.556-4.898,3.428-6.663
			c1.233-1.162,2.752-1.976,3.961-3.159c0.806-0.788,1.433-1.616,2.479-2.096c1.464-0.671,3.135-0.904,4.714-1.128
			c2.321-0.33,4.661-0.554,6.994-0.773c0.902-0.085,1.818-0.213,2.725-0.202c-0.943-0.533-1.469-1.783-0.401-2.46
			c0.861-0.546,2.013-0.72,2.994-0.873c1.877-0.292,3.783-0.314,5.671-0.133c1.36,0.131,3.8,0.2,4.003,2.01
			c0.052,0.459-0.383,1.2-0.16,1.566c0.346,0.57,1.983,0.265,2.435,0.244c1.164-0.054,2.293-0.026,3.425,0.272
			c0.694,0.183,1.332,0.499,2.009,0.721c0.972,0.319,2.342-0.128,3.355-0.258c1.674-0.216,3.454-0.108,5.092-0.531
			c0.71-0.183,1.301-0.541,1.75-1.125c0.427-0.555,0.709-1.236,0.888-1.909c0.22-0.827,0.257-1.389-0.13-2.132
			c-0.681-1.307-1.006-2.856-1.459-4.249c-0.613-1.888-1.129-3.813-1.43-5.777c-0.506-3.312-0.351-6.734,0.923-9.865
			c0.783-1.923,2.004-3.761,3.787-4.886c2.464-1.554,5.548-1.649,8.367-1.748c3.909-0.137,7.892-0.342,11.723,0.608
			c0.867,0.215,1.721,0.484,2.548,0.82c0.806,0.328,1.575,0.939,2.442,0.944c2.069,0.012,4.137,0.061,6.2,0.235
			c4.087,0.344,7.984,1.326,11.847,2.685c4.198,1.478,8.335,3.129,12.627,4.325c4.311,1.201,8.71,2.101,13.143,2.715
			c4.168,0.577,8.374,0.892,12.58,0.635c4.442-0.271,8.858-0.931,13.29-1.337c4.512-0.413,9.033-0.757,13.558-0.989
			c4.596-0.235,9.213-0.469,13.815-0.283c4.359,0.176,8.699,0.936,13.034,1.404c1.216,0.131,2.563,0.273,3.666,0.857
			c0.354,0.188,0.677,0.425,0.926,0.743c0.14,0.18,0.302,0.705,0.443,0.775c0.307,0.153,1.39-0.284,1.788-0.36
			c0.552-0.104,1.106-0.199,1.662-0.277c0.941-0.132,1.887-0.22,2.836-0.263c2.153-0.097,4.316,0,6.464,0.162
			c4.524,0.341,9.016,1.02,13.482,1.802c4.576,0.801,9.12,1.763,13.67,2.696c4.617,0.947,9.229,1.912,13.842,2.881
			c4.28,0.899,8.563,1.793,12.794,2.907c2.182,0.575,4.319,1.275,6.473,1.945c1.265,0.394,2.557,0.749,3.89,0.773
			c1.901,0.035,3.792-0.358,5.694-0.409c2.159-0.058,4.32,0.017,6.479-0.072c3.958-0.162,7.785-1.233,11.768-1.105
			c4.12,0.133,8.362,0.822,12.248,2.221c3.092,1.113,5.783,3.287,9.066,3.839c3.82,0.642,7.57-0.378,11.366-0.638
			c1.109-0.076,2.241-0.069,3.323,0.215c1.231,0.323,2.321,1.005,3.518,1.417c1.954,0.671,3.875-0.427,5.844,0.006
			c1.529,0.337,2.939,1.065,4.486,1.361c2.067,0.396,4.225,0.31,6.318,0.346c1.714,0.029,3.44,0.115,5.115,0.509
			c0.271,0.064,0.541,0.135,0.807,0.217c0.476,0.147,0.658,0.086,1.159-0.078c0.882-0.289,1.773-0.526,2.684-0.701
			c4.051-0.777,8.265-1.02,12.383-0.872c1.957,0.07,4.008,0.142,5.926,0.565c0.88,0.194,1.654,0.556,2.272,1.225
			c0.565,0.611,1.005,1.37,1.302,2.145c0.499,1.301,0.997,2.687,1.399,4.019c0.297,0.982,0.211,1.802,0.159,2.812
			C947.871,135.936,948.219,136.992,948.421,138.094z"/>
	</g>
	<g id="POLYLINE_8_">
		
			<path fill="none" stroke="#FF6B6B" stroke-width="3.5" stroke-linecap="round" stroke-linejoin="round" stroke-miterlimit="10" d="
			M1393.083,137.831c2.952,0.098,6.256,0.374,8.821,1.995c1.476,0.933,2.374,2.339,2.625,4.066c0.359,2.476-0.179,5.262-1.235,7.51
			c-0.789,1.679-2.072,2.854-3.632,3.836c-3.219,2.026-6.981,3.057-10.717,3.591c-4.199,0.601-8.47,0.701-12.706,0.731
			c-4.705,0.034-9.422,0.09-14.127,0.002c-4.401-0.082-8.74-0.717-13.136-0.809c-4.985-0.105-9.963-0.078-14.949-0.057
			c-3.538,0.015-7.077,0.032-10.614-0.032c-6.016-0.109-12.031-0.219-18.047-0.328c-3.805-0.069-7.608-0.075-11.413,0.035
			c-4.823,0.139-9.64,0.419-14.458,0.667c-4.41,0.227-8.818,0.394-13.232,0.506c-4.003,0.101-8.007,0.12-12.011,0.128
			c-4.393,0.008-8.786,0.046-13.179,0.005c-5.17-0.049-10.342-0.07-15.512-0.146c-4.654-0.068-9.306-0.195-13.957-0.337
			c-4.286-0.131-8.581-0.285-12.853-0.661c-1.797-0.158-3.638-0.32-5.382-0.803c-0.325-0.09-1.072-0.493-1.333-0.413
			c-0.169,0.052-0.437,0.426-0.606,0.538c-0.658,0.438-1.462,0.652-2.226,0.816c-1.961,0.421-3.998,0.499-5.996,0.573
			c-3.395,0.126-6.794,0.09-10.191,0.064c-6.259-0.048-12.517-0.095-18.776-0.143c-3.45-0.026-6.903-0.09-10.353-0.076
			c-3.637,0.015-7.275,0.077-10.911,0.115c-6.574,0.069-13.147,0.138-19.721,0.208c-5.606,0.059-11.212,0.118-16.818,0.177
			c-2.283,0.024-4.561,0.036-6.844,0.022c-5.967-0.037-11.935-0.074-17.902-0.111c-1.544-0.01-3.087-0.013-4.631,0.006
			c-2.183,0.026-4.39,0.254-6.57,0.106c-0.857-0.058-1.756-0.186-2.521-0.604c-0.326-0.178-0.616-0.406-0.861-0.686
			c-0.439-0.502-0.402-0.748-1.127-0.902c-0.524-0.111-1.049-0.218-1.576-0.315c-0.515-0.094-0.39-0.081-0.676,0.173
			c-0.24,0.213-0.401,0.474-0.677,0.664c-0.666,0.46-1.493,0.695-2.269,0.883c-4.019,0.973-8.411,0.986-12.522,0.898
			c-4.101-0.088-8.403-0.348-12.307-1.702c-2.893-1.003-5.321-2.763-7.159-5.213c-1.635-2.18-2.924-4.8-3.285-7.524
			c-0.198-1.494-0.078-2.996,0.131-4.482c0.309-2.198,0.643-4.421,1.158-6.582c0.666-2.793,1.752-5.598,3.876-7.609
			c2.843-2.692,6.812-3.959,10.363-5.401c1.606-0.652,3.216-1.334,4.926-1.66c1.767-0.337,3.583-0.32,5.373-0.27
			c2.496,0.069,5.506-0.181,7.743,1.185c-0.225,0-0.415-1.259-0.237-1.494c0.262-0.345,0.959-0.258,1.319-0.233
			c1.777,0.124,3.564,0.613,5.305,0.948c1.538,0.296,3.122,0.531,4.613,1.02c0.343,0.113,1.127,0.295,1.107,0.761
			c-0.019,0.437-0.759,0.574-0.696,1.108c0.047,0.397,0.51,0.688,0.842,0.83c0.139,0.059,0.343,0.15,0.497,0.141
			c0.481-0.027,0.452-0.427,0.636-0.891c2.771-6.963,6.809-13.513,10.957-19.728c3.608-5.406,7.854-11.407,13.934-14.221
			c6.994-3.237,15.456-1.409,22.561,0.52c7.557,2.051,14.953,4.687,22.458,6.918c3.824,1.137,7.655,2.25,11.523,3.231
			c3.787,0.96,7.627,1.711,11.4,2.723c1.607,0.431,3.195,0.921,4.7,1.636c1.001,0.476,1.98,1.05,3.058,1.338
			c2.154,0.576,4.412-0.349,6.46-0.929c1.265-0.358,2.551-0.688,3.867-0.773c1.498-0.097,2.978,0.155,4.456,0.357
			c1.68,0.229,2.99,0.271,4.394-0.756c2.171-1.587,4.195-2.816,6.934-3.232c0.705-0.107,1.491,0.067,2.155-0.048
			c0.707-0.122,1.573-0.771,2.241-1.064c0.776-0.34,1.564-0.651,2.363-0.931c6.846-2.389,14.49-2.824,21.678-2.483
			c8.733,0.414,17.451,1.621,26.143,2.515c3.068,0.316,6.146,0.597,9.174,1.2c3.703,0.737,7.122,2.186,10.666,3.435
			c3.606,1.271,7.514,1.502,11.275,2.029c3.865,0.542,7.721,1.139,11.577,1.743c3.94,0.616,7.871,1.274,11.798,1.973
			c3.201,0.57,6.604,1.031,9.58,2.408c1.731,0.801,2.678,2.248,4.158,3.372c1.981,1.505,4.877,1.66,7.228,2.05
			c3.75,0.622,6.961,2.063,10.352,3.723c3.346,1.638,6.77,3.088,10.283,4.331c0.841,0.298,1.489,0.649,2.362,0.383
			c1.082-0.329,2.159-0.676,3.239-1.014c1.899-0.595,3.796-1.19,5.71-1.733c3.619-1.026,7.316-1.772,11.045-2.265
			c7.24-0.956,14.602-0.986,21.583,1.421c2.423,0.835,4.902,2.005,6.605,3.982c1.404,1.629,2.238,3.702,2.591,5.809
			c0.248,1.48,0.153,2.964,0.202,4.456C1393.207,135.953,1393.341,136.926,1393.083,137.831z"/>
	</g>
	<g id="POLYLINE_7_">
		
			<path fill="none" stroke="#FF6B6B" stroke-width="3.5" stroke-linecap="round" stroke-linejoin="round" stroke-miterlimit="10" d="
			M483.997,128.992c3.115-1.711,6.277-3.478,8.896-5.913c1.375-1.278,2.533-2.753,3.813-4.121c0.688-0.735,1.447-1.509,2.387-1.916
			c2.384-1.032,4.916,1.032,5.287,3.369c0.196,1.239,0.034,2.515-0.064,3.754c-0.158,1.99-0.076,3.965-0.046,5.959
			c0.042,2.836-0.331,5.535-1.455,8.157c-1.347,3.142-3.488,5.759-5.59,8.418c-2.126,2.689-3.701,5.871-6.368,8.089
			c-1.468,1.221-3.1,2.256-4.729,3.246c-0.844,0.513-1.71,1.002-2.657,1.298c-2.273,0.712-4.8,0.272-7.082-0.15
			c-3.794-0.701-7.398-1.671-11.281-1.707c-2.238-0.021-4.503-0.068-6.736,0.043c-0.592,0.029-0.486,0.138-0.813,0.592
			c-0.182,0.253-0.4,0.474-0.657,0.651c-1.662,1.147-4.327,0.865-6.2,0.902c-2.608,0.051-5.219,0.04-7.828,0.041
			c-10.7,0.006-21.4,0.011-32.1,0.017c-6.835,0.004-13.733,0.216-20.553-0.289c-2.264-0.168-4.721-0.315-6.762-1.417
			c-1.016-0.548-1.876-1.095-3.003-1.392c-1.26-0.333-2.568-0.483-3.79-0.949c-0.942-0.359-1.775-0.707-2.785-0.81
			c-1.601-0.165-3.233-0.053-4.833,0.068c-3.463,0.263-6.888,0.798-10.321,1.304c-8.552,1.26-17.075,2.794-25.726,3.139
			c-3.903,0.156-7.834,0.258-11.737,0.071c-1.912-0.091-3.821-0.26-5.721-0.493c-0.8-0.098-1.695-0.358-2.475-0.197
			c-0.688,0.142-1.352,0.344-2.05,0.452c-7.542,1.166-15.154-0.485-22.677-0.921c-6.828-0.396-13.706-0.047-20.536,0.106
			c-10.727,0.24-21.455,0.481-32.182,0.721c-6.822,0.153-13.646,0.168-20.466-0.069c-4.184-0.145-8.359-0.402-12.536-0.665
			c-2.064-0.13-4.124-0.319-6.186-0.483c-0.69-0.055-0.572-0.125-0.89,0.272c-0.136,0.17-0.217,0.346-0.386,0.496
			c-1.402,1.249-4.205,1.055-5.877,1.085c-4.251,0.076-8.512-0.182-12.758-0.333c-2.99-0.107-6.214,0.191-9.115-0.695
			c-1.669-0.51-3.066-1.538-4.274-2.779c-0.463-0.475-0.898-0.977-1.299-1.505c-0.351-0.461-0.322-0.547-0.929-0.495
			c-0.416,0.035-0.831,0.073-1.246,0.116c-1.821,0.189-3.613,0.495-5.403,0.878c0.913,1.636-0.206,3.129-1.712,3.874
			c-1.487,0.736-3.307,0.651-4.923,0.721c-2.26,0.097-4.525,0.143-6.787,0.134c-4.506-0.016-9.063-0.137-13.5-0.994
			c-4.345-0.84-8.37-2.689-12.37-4.519c-2.035-0.931-3.282-2.168-4.385-4.123c-1.148-2.035-2.157-4.172-3.153-6.286
			c-0.852-1.81-1.631-3.67-2.029-5.639c-0.442-2.183-0.297-4.416-0.285-6.628c0.011-2.055-0.412-3.915-0.735-5.93
			c-0.261-1.63-0.085-3.211,0.683-4.688c0.557-1.072,1.369-2.044,2.647-2.116c1.801-0.101,3.752,0.48,5.515,0.747
			c1.115,0.169,2.701,0.065,3.709,0.695c0.252,0.157,0.439,0.364,0.545,0.645c3.083-2.015,6.3-4.499,9.859-5.599
			c1.076-0.333,2.173-0.476,3.297-0.499c0.967-0.019,1.956,0.04,2.882-0.289c2.272-0.807,3.601-3.084,5.637-4.246
			c0.826-0.471,1.96-0.465,2.738,0.132c0.934,0.717,0.583,2.125,1.891,2.421c1.091,0.247,1.745,0.394,2.738,0.883
			c0.543,0.268,1.096,0.37,1.7,0.388c1.01,0.03,2.005-0.286,3.007-0.233c0.96,0.051,1.848,0.453,2.822,0.478
			c1.455,0.037,3.311,0.128,4.305,1.386c0.438,0.554,0.548,1.27,0.594,1.954c0.107,1.58-0.06,3.165,0.115,4.744
			c0.3,2.706,1.49,5.049,3.153,7.169c0.615,0.783,1.262,1.541,1.898,2.307c1.019-1.228,2.013-2.433,2.886-3.771
			c0.493-0.756,1.015-1.442,1.662-2.074c2.281-2.228,5.005-3.992,7.485-5.983c2.457-1.972,4.665-4.271,7.319-5.99
			c2.475-1.603,5.267-2.663,8.122-3.364c6.004-1.474,12.353-1.435,18.494-1.297c6.981,0.157,13.958,0.501,20.934,0.787
			c7.083,0.291,14.164,0.627,21.25,0.811c7.032,0.183,14.038-0.096,21.064-0.365c2.798-0.107,5.592-0.179,8.382,0.119
			c2.368,0.253,5.057,0.482,7.209,1.595c0.47,0.243,0.755,0.711,1.162,0.956c0.463,0.278,1.646-0.08,2.221-0.149
			c0.78-0.093,1.558-0.193,2.333-0.321c3.097-0.514,6.079-1.642,9.24-1.756c3.056-0.11,6.095,0.507,9.082,1.072
			c3.231,0.61,6.477,1.182,9.669,1.975c6.315,1.569,12.311,3.951,18.805,4.782c3.33,0.426,6.683,0.651,10.013,1.083
			c2.996,0.389,5.946,1.007,8.888,1.686c3.455,0.798,6.891,1.638,10.397,2.18c3.089,0.478,6.255,0.72,9.279,1.547
			c2.403,0.657,4.698,1.699,6.709,3.177c1.123,0.825,2.23,2.024,3.634,2.246c1.656,0.262,3.313,0.51,4.976,0.723
			c6.483,0.832,13.011,1.324,19.551,1.254c6.948-0.073,13.942-0.078,20.88-0.511c3.289-0.205,6.531-0.629,9.781-1.16
			c2.604-0.425,5.396-1.135,8.052-0.902c0.97,0.085,1.979,0.37,2.648,1.12c0.339,0.38,0.402,0.84,0.665,1.245
			c0.185,0.286,0.013,0.21,0.454,0.243c0.347,0.025,0.745-0.058,1.091-0.094c0.754-0.079,1.505-0.186,2.249-0.333
			c4.162-0.824,7.268-2.967,9.369-6.656c1.355-2.379,2.416-5.011,4.217-7.108c0.814-0.949,1.867-1.821,3.179-1.812
			c2.274,0.015,4.057,2.002,4.786,3.982C483.204,123.352,483.472,126.285,483.997,128.992z"/>
	</g>
	<g id="POLYLINE_6_">
		
			<path fill="none" stroke="#FF6B6B" stroke-width="3.5" stroke-linecap="round" stroke-linejoin="round" stroke-miterlimit="10" d="
			M361.395,331.64c2.236,0.336,4.337,0.788,6.254,2.031c2.651,1.719,4.973,3.767,7.885,5.066c5.738,2.56,12.204,3.539,18.422,4.038
			c6.786,0.545,13.554,0.758,20.304,1.721c6.911,0.987,13.759,2.371,20.666,3.383c6.294,0.922,12.45,0.691,18.711-0.376
			c3.575-0.609,7.098-1.448,10.632-2.259c2.985-0.685,6.077-1.196,8.874-2.492c2.793-1.295,5.27-3.224,7.667-5.132
			c2.817-2.242,5.588-4.544,8.38-6.817c2.428-1.977,4.999-3.871,7.179-6.13c2.061-2.135,3.654-4.636,4.917-7.311
			c1.152-2.441,2.633-7.685,6.311-7.057c3.161,0.54,3.253,4.171,3.309,6.698c0.141,6.388,1.239,12.845,0.244,19.21
			c-0.986,6.306-4.017,12.334-7.528,17.598c-1.816,2.722-3.793,5.269-4.925,8.371c-0.617,1.692-1.053,3.676-2.273,5.073
			c-0.668,0.765-1.562,1.237-2.52,1.537c-2.375,0.744-5.023,0.769-7.487,0.732c-2.969-0.045-5.978-0.306-8.835-1.149
			c-2.914-0.859-5.605-1.646-8.658-1.806c-6.088-0.32-12.237,0.161-18.3,0.697c-7.574,0.669-15.152,1.508-22.744,1.938
			c-7.127,0.403-14.257,0.521-21.394,0.446c-6.685-0.071-13.388-0.357-20.042-1.018c-7.033-0.698-13.758-2.231-20.571-4.057
			c-2.967-0.795-5.976-1.312-8.997-1.854c0.5,1.53,1.125,3.01,1.649,4.53c0.125,0.364,0.317,0.83,0.131,1.207
			c-0.544,1.102-3.3,0.941-4.205,0.985c-6.524,0.313-13.235-0.146-19.703-1.005c-1.511-0.201-3.024-0.43-4.506-0.793
			c-1.371-0.336-2.705-0.798-4.104-1.015c-3.057-0.473-6.245-0.314-9.324-0.201c-3.302,0.121-6.608,0.329-9.894,0.679
			c-3.303,0.352-6.547,1.057-9.84,1.469c-6.552,0.819-13.319,0.996-19.915,0.78c-3.534-0.116-7.055-0.457-10.575-0.775
			c-0.558-0.05-1.505-0.319-2.039-0.153c-0.154,0.048-0.352,0.253-0.506,0.333c-0.826,0.426-1.829,0.544-2.738,0.653
			c-6.354,0.765-12.934,0.34-19.317,0.263c-6.065-0.074-12.13-0.187-18.196-0.158c-9.3,0.044-18.6,0.089-27.901,0.133
			c-5.983,0.029-11.959-0.017-17.941-0.137c-6.951-0.139-13.899-0.533-20.843-0.841c-6.58-0.292-13.162-0.634-19.751-0.638
			c-7.092-0.005-14.122,0.626-21.181,1.243c-2.843,0.248-5.782,0.457-8.602-0.104c-2.773-0.553-5.347-1.865-7.738-3.335
			c-4.863-2.991-10.114-7.079-12.794-12.249c-1.489-2.872-1.547-5.944,0.16-8.741c2.164-3.546,6.072-5.586,10.007-6.518
			c3.026-0.717,6.166-0.908,9.267-0.897c0.197,0.001,1.204,0.13,1.324,0.019c0.098-0.09,0.063-0.737,0.08-0.886
			c0.07-0.606,0.169-1.209,0.29-1.807c0.259-1.285,0.611-2.552,1.038-3.791c1.119-3.247,3.153-7.316,6.894-8.022
			c2.241-0.423,4.633,0.289,6.296,1.846c0.532,0.498,1.251,1.271,1.112,2.072c2.391-1.164,5.293-2.123,7.967-2.235
			c2.142-0.09,4.239,0.793,6.376,0.53c2.495-0.307,4.705-1.947,7.029-2.794c0.876-0.319,2.154-0.66,2.653,0.424
			c0.409,0.888-0.233,2.048,0.382,2.878c0.661,0.892,2.217,0.327,3.084,0.332c1.235,0.008,2.056,0.994,3.202,1.3
			c1.194,0.319,2.07-0.644,3.215-0.771c1.036-0.115,2.427,0.197,3.2,0.938c1.144,1.095,1.237,3.359,1.377,4.786
			c0.061,0.624,0.089,1.249,0.086,1.876c3.591-2.07,7.152-4.272,10.933-5.985c3.171-1.436,6.516-2.476,9.878-3.363
			c4.87-1.285,9.747-2.543,14.62-3.814c3.43-0.895,6.862-1.832,10.385-2.29c4.186-0.545,8.337-0.169,12.47,0.603
			c-0.221-1.566-0.255-3.149-0.415-4.721c-0.14-1.376-0.462-2.741-0.54-4.122c-0.07-1.232,0.063-1.874,0.797-2.754
			c0.046-0.055,0.223-0.098,0.245-0.158c0.064-0.177-0.322-0.767-0.424-0.979c-0.298-0.622-0.607-1.239-0.921-1.853
			c-0.952-1.861-1.928-3.711-2.891-5.567c-1.477-2.843-2.801-5.751-4.184-8.64c-1.062-2.218-2.297-4.478-4.169-6.122
			c-1.922-1.686-4.333-2.625-6.499-3.936c-3.278-1.983-6.582-5.913-6.237-10.009c0.054-0.645,0.219-1.253,0.406-1.869
			c0.153-0.504,0.01-0.634-0.103-1.123c-0.184-0.797,0.065-1.687-0.175-2.46c-0.131-0.421-0.435-0.57-0.801-0.863
			c-0.818-0.653-1.637-1.306-2.455-1.959c-1.733-1.383-3.466-2.766-5.198-4.148c-0.564-0.45-0.477-0.367,0-0.966
			c0.507-0.635,0.742-1.348,1.571-1.303c1.161,0.063,2.321,0.125,3.482,0.188c0.755,0.041,0.961,0.01,1.528,0.476
			c0.478,0.393,0.955,0.786,1.433,1.179c0.314,0.258,0.803,0.853,1.192,0.982c0.272,0.09,0.334-0.03,0.617-0.208
			c2.008-1.262,4.872-2.064,6.733-0.143c1.397,1.441,2.122,3.356,3.62,4.743c1.915,1.772,4.199,3.178,5.813,5.26
			c1.175,1.516,1.948,3.32,2.29,5.204c0.31,1.705,0.286,3.452,1.059,5.037c1.157,2.374,3.178,4.324,4.818,6.357
			c1.99,2.467,3.747,5.098,5.501,7.734c1.908,2.866,3.781,5.755,5.805,8.541c0.32,0.44,0.641,0.88,0.961,1.32
			c0.28,0.384,0.595,1.041,0.973,1.337c0.208,0.163,0.252,0.112,0.539,0.166c0.995,0.186,1.945,0.685,2.864,1.083
			c2.403,1.04,4.319,2.587,4.823,5.271c0.341,1.815-0.287,3.641-0.013,5.474c0.211,1.414,0.574,2.798,0.764,4.218
			c0.108,0.811,0.187,1.625,0.268,2.439c0.025,0.255-0.034,1.204,0.138,1.392c0.144,0.157,0.678,0.08,0.937,0.077
			c1.451-0.017,2.882-0.19,4.281-0.575c1.472-0.404,2.894-0.986,4.392-1.296c1.919-0.398,3.834-0.185,5.743,0.177
			c2.585,0.491,5.102,1.313,7.755,0.943c2.552-0.357,5.209-1.36,7.813-1.184c0.256,0.017,0.483,0.094,0.729,0.135
			c0.062,0.01,0.157,0.125,0.208,0.123c0.242-0.01,0.697-0.447,0.926-0.609c1.067-0.751,2.167-1.458,3.335-2.042
			c1.676-0.838,3.507-1.023,5.19-1.767c1.568-0.694,2.429-1.713,3.539-2.966c0.899-1.015,1.985-1.593,2.374-2.961
			c0.253-0.889,0.301-1.837,0.665-2.694c0.335-0.788,0.928-1.416,1.472-2.062c1.672-1.983,2.761-4.376,3.699-6.775
			c1.214-3.107,2.23-6.286,3.583-9.338c1.228-2.77,2.699-5.434,4.234-8.045c3.733-6.348,7.547-12.644,11.188-19.045
			c0.185-0.325,1.841-3.895,2.508-3.122c-0.26-0.295,3.099-3.393,3.366-3.618c1.377-1.162,2.895-2.201,4.528-2.97
			c3.398-1.601,6.809-0.873,10.349-0.166c2.309,0.461,4.713,0.847,6.537,2.448c2.541,2.231,4.133,5.768,5.402,8.828
			c0.764,1.844,1.428,3.762,1.695,5.748c0.288,2.143,0.113,4.316,0.192,6.471c0.174,4.684,0.723,9.347,0.887,14.032
			c0.146,4.161,0.049,8.325-0.114,12.485c-0.203,5.188-0.484,10.38-0.608,15.571c-0.068,2.853-0.073,5.708-0.109,8.561
			c-0.005,0.374-0.162,1.134-0.019,1.485c0.139,0.341,0.37,0.216,0.826,0.223c1.317,0.021,2.635-0.012,3.951-0.024
			c1.531-0.015,3.121-0.098,4.626,0.242c0.547,0.123,1.513,0.357,1.765,0.947C361.517,331.231,361.518,331.438,361.395,331.64z"/>
	</g>
	<g id="POLYLINE_5_">
		
			<path fill="none" stroke="#FF6B6B" stroke-width="3.5" stroke-linecap="round" stroke-linejoin="round" stroke-miterlimit="10" d="
			M332.298,327.99c-0.388-2.643-0.915-5.259-1.43-7.88c-0.41-2.087-0.861-4.118-1.7-6.081c-2.059,4.284-3.555,8.805-4.405,13.48
			C327.276,327.651,329.788,327.795,332.298,327.99z"/>
	</g>
	<g id="POLYLINE_4_">
		
			<path fill="none" stroke="#FF6B6B" stroke-width="3.5" stroke-linecap="round" stroke-linejoin="round" stroke-miterlimit="10" d="
			M941.928,348.857c2.555-0.41,5.097-0.827,7.58-1.573c2.407-0.723,4.741-1.677,7.035-2.701c4.849-2.164,9.614-4.615,14.121-7.426
			c2.12-1.322,4.202-2.707,6.3-4.064c2.339-1.513,4.79-2.944,6.953-4.709c1.099-0.897,3.239-2.66,4.542-0.986
			c0.54,0.693,0.598,1.736,0.613,2.575c0.043,2.346-0.5,4.715-1.109,6.966c-0.681,2.517-1.447,5.004-2.027,7.548
			c-0.43,1.883-0.782,3.862-1.724,5.573c-1.659,3.012-5.091,4.814-7.914,6.537c-2.518,1.538-5.057,3.044-7.559,4.609
			c-2.155,1.348-4.072,2.908-6.04,4.507c-2.524,2.051-5.694,3.867-9.062,3.703c-3.423-0.167-5.874-2.985-8.842-4.34
			c-1.131-0.516-2.309-0.926-3.471-1.364c0.118,1.163,0.167,2.569-0.609,3.536c-0.743,0.925-2.038,1.03-3.131,1.152
			c-5.483,0.612-10.825,1.273-16.357,1.13c-7.543-0.196-15.085-0.391-22.628-0.587c-5.523-0.143-11.057-0.144-16.581-0.053
			c-6.124,0.101-12.236,0.543-18.358,0.688c-5.866,0.138-11.694-0.588-17.567-0.371c-3.175,0.117-6.365,0.319-9.543,0.21
			c-2.84-0.097-5.653-0.543-8.491-0.688c-6.596-0.337-13.291,0.269-19.877,0.538c-5.7,0.233-11.402,0.247-17.106,0.244
			c-6.214-0.004-12.432,0.025-18.644-0.145c-5.935-0.162-11.806-0.89-17.753-0.899c-1.096-0.002-2.88-0.331-3.784,0.191
			c-0.336,0.194-0.562,0.379-0.96,0.48c-2.43,0.617-5.214,0.405-7.701,0.451c-6.679,0.124-13.368,0.011-20.048,0.003
			c-5.885-0.007-11.771-0.003-17.656-0.081c-2.875-0.038-5.75-0.15-8.62-0.33c-1.546-0.097-3.092-0.198-4.635-0.337
			c-0.689-0.062-1.324-0.186-1.989-0.025c-0.609,0.148-1.212,0.295-1.832,0.393c-2.805,0.445-5.677,0.38-8.507,0.354
			c-3.03-0.027-6.061-0.141-9.086-0.298c-2.929-0.151-5.863-0.342-8.774-0.705c-0.747-0.093-1.493-0.2-2.236-0.321
			c-0.497-0.081-1.177-0.342-1.553-0.094c-0.356,0.235-0.582,0.679-0.972,0.918c-1.205,0.74-2.841,0.605-4.18,0.55
			c-2.862-0.117-5.704-0.29-8.57-0.232c-5.554,0.112-11.619,0.887-17.005-0.914c-1.515-0.507-2.927-1.296-4.083-2.407
			c-0.493-0.474-0.999-1.483-1.553-1.798c-0.448-0.255-1.437-0.193-1.939-0.261c-1.134-0.153-2.268-0.305-3.403-0.458
			c-2.3-0.309-4.576-0.674-6.902-0.525c0.956,2.658-6.14,3.103-7.184,3.31c-2.273,0.452-4.085,1.454-6.159,2.443
			c-0.942,0.45-1.888,0.738-2.938,0.744c-2.104,0.011-4.104-0.504-6.223-0.29c-2.591,0.262-5.087,0.682-7.682,0.187
			c-1.182-0.226-2.408-0.591-3.4-1.295c-1.053-0.747-1.543-1.873-2.206-2.942c-1.452-2.342-4.419-2.64-6.305-4.518
			c-2.03-2.023-3.219-5.762-2.896-8.574c0.173-1.508,0.757-2.899,0.746-4.442c-0.011-1.649-0.612-3.193-1.129-4.737
			c-0.834-2.489-1.237-4.966-0.399-7.511c0.42-1.277,1.149-2.378,1.989-3.418c1.176-1.457,2.234-3.405,3.811-4.475
			c1.787-1.213,5.089-1.649,7.089-0.747c0.273,0.123,0.567,0.279,0.675,0.576c-0.062-0.251,4.861-1.982,5.28-2.132
			c1.444-0.52,2.915-1.029,4.432-1.289c1.779-0.305,3.202,0.035,4.818,0.751c1.6,0.709,2.799-0.299,4.268-0.969
			c0.893-0.408,1.984-0.772,2.87-0.153c0.838,0.586,0.76,1.848,1.737,2.26c0.622,0.262,1.399,0.197,2.054,0.154
			c1.399-0.092,2.809-0.368,4.216-0.279c0.488,0.031,0.996,0.101,1.431,0.339c0.531,0.291,0.838,0.894,1.382,1.146
			c0.665,0.309,1.518-0.097,2.157-0.253c0.741-0.181,1.501-0.255,2.249-0.059c1.218,0.321,1.86,1.238,2.168,2.416
			c0.646,2.47,0.732,5.563,0.158,8.056c-0.086,0.373-0.195,0.741-0.326,1.1c1.438,0.101,2.903,0.301,4.344,0.305
			c0.584,0.002,0.638-0.276,1.017-0.747c0.398-0.495,0.81-0.98,1.231-1.456c1.592-1.804,3.3-3.524,5.06-5.163
			c3.351-3.12,7.139-5.146,11.52-6.457c4.797-1.435,9.798-2.225,14.776-2.687c5.171-0.48,10.355-0.501,15.543-0.472
			c5.477,0.03,10.955,0.205,16.43,0.314c0.21,0.004,0.421,0.008,0.631,0.013c-0.248-1.012,0.036-2.003,0.966-2.539
			c1.053-0.607,2.376-0.73,3.526-1.053c1.537-0.432,2.887-1.217,4.361-1.804c1.598-0.637,3.295-1.175,4.937-1.689
			c0.964-0.302,1.965-0.531,2.98-0.534c1.962-0.005,3.599,1.163,5.494,1.471c1.791,0.291,2.949-0.063,4.268,1.302
			c1.242,1.286,3.043,1.862,3.926,3.487c0.073,0.135,0.176,0.537,0.287,0.62c0.257,0.193,1.228-0.106,1.582-0.157
			c0.648-0.093,1.296-0.19,1.942-0.297c2.41-0.4,4.816-0.831,7.224-1.246c3.164-0.546,6.517-0.883,9.538-2.022
			c2.601-0.981,4.413-3.095,6.835-4.353c1.292-0.671,2.573-0.723,3.864-0.072c0.349,0.176,0.682,0.384,1.004,0.605
			c1.003-2.354,2.018-4.674,3.382-6.847c1.468-2.339,3.185-4.519,4.935-6.651c3.624-4.415,7.502-8.627,11.481-12.723
			c3.844-3.957,7.81-7.807,11.99-11.409c4.627-3.986,9.195-8.121,14.064-11.814c3.652-2.77,7.828-5.432,12.546-5.613
			c4.469-0.171,8.583,2.02,11.752,5.036c3.902,3.712,6.36,8.561,8.007,13.629c1.756,5.405,2.709,11.066,3.44,16.689
			c0.759,5.841,1.321,11.706,1.678,17.586c0.358,5.893,0.585,11.794,0.613,17.698c0.006,1.352-0.006,2.703-0.009,4.055
			c3.665-0.052,7.075,0.318,10.548,1.541c3.767,1.326,7.438,2.737,11.304,3.767c4.364,1.162,8.758,2.217,13.137,3.319
			c3.77,0.949,7.531,1.954,11.339,2.742c8.098,1.676,16.447,2.315,24.683,2.902c3.968,0.283,7.939,0.328,11.909,0.058
			c1.918-0.13,3.835-0.318,5.736-0.606c1.895-0.288,3.788-0.66,5.711-0.677c3.543-0.032,6.997,1.039,10.542,1.037
			c0.888-0.001,3.979-0.588,4.438,0.796C941.943,348.473,941.944,348.678,941.928,348.857z"/>
	</g>
	<g id="POLYLINE_3_">
		
			<path fill="none" stroke="#FF6B6B" stroke-width="3.5" stroke-linecap="round" stroke-linejoin="round" stroke-miterlimit="10" d="
			M805.746,329.963c-0.702-3.246-1.211-6.48-1.263-9.808c-0.054-3.503,0.056-6.994-0.252-10.488
			c-0.171-1.932-0.435-3.852-0.697-5.774c-1.675,5.92-4.426,11.643-6.907,17.257c-0.743,1.681-1.5,3.355-2.276,5.021
			C798.145,327.442,801.93,328.753,805.746,329.963z"/>
	</g>
	<g id="POLYLINE_2_">
		
			<path fill="none" stroke="#FF6B6B" stroke-width="3.5" stroke-linecap="round" stroke-linejoin="round" stroke-miterlimit="10" d="
			M1381.867,345.677c2.252,1.656,4.633,3.162,7.215,4.251c2.629,1.109,5.314,2,7.863,3.298c2.952,1.503,5.883,3.115,8.983,4.301
			c2.791,1.067,5.663,1.442,8.592,1.927c2.224,0.369,5.215,1.098,6.224,3.421c0.874,2.012-0.647,4.082-2.459,4.887
			c-2.152,0.957-4.682,0.99-6.99,1.179c-3.184,0.261-6.373,0.424-9.567,0.506c-2.849,0.073-5.699,0.038-8.547-0.042
			c-3.635-0.101-7.297-0.375-10.929-0.15c-6.555,0.407-13.081,0.201-19.638-0.027c-6.68-0.233-13.266-0.185-19.94,0.206
			c-2.291,0.134-4.729,0.354-6.99-0.157c-0.965-0.218-1.91-0.641-2.514-1.455c-0.913-1.229-0.849-2.967-0.406-4.362
			c0.358-1.129,0.886-2.164,1.173-3.331c0.254-1.033,0.383-2.09,0.451-3.151c0.08-1.258,0.08-2.522,0.02-3.781
			c-1.172,0.867-3.724,3.283-5.43,2.301c-1.001-0.576-1.706-1.835-2.401-2.689c-1.412-1.736-2.89-3.423-4.445-5.032
			c-2.867-2.965-6.376-5.378-8.933-8.629c-2.668-3.392-3.496-7.689-5.55-11.412c-2.16-3.915-5.552-7.054-8.307-10.54
			c-0.327-0.414-0.648-0.834-0.971-1.251c-1.944,3.181-3.689,6.481-5.644,9.654c-0.933,1.515-2.016,2.892-3.091,4.306
			c-0.964,1.268-1.751,2.655-2.592,4.005c-1.929,3.096-4.151,5.953-6.668,8.59c-0.76,0.796-1.5,1.586-2.005,2.573
			c-0.586,1.146-0.943,2.394-1.576,3.519c-0.748,1.327-1.752,2.496-2.703,3.679c-1.115,1.387-2.185,2.81-3.295,4.201
			c-2.245,2.815-4.57,5.646-7.187,8.127c-1.778,1.686-3.783,2.96-6.146,3.623c-3.148,0.883-6.509,0.983-9.756,1.102
			c-7.378,0.271-14.886,0.336-22.237-0.42c-1.856-0.191-3.7-0.466-5.539-0.782c-0.643-0.111-1.969-0.595-2.465-0.343
			c-0.241,0.123-0.472,0.524-0.722,0.693c-1.664,1.127-4.155,0.975-6.045,0.995c-7.539,0.08-15.083-0.016-22.622-0.033
			c-7.829-0.018-15.673,0.105-23.501-0.078c-1.949-0.045-3.9-0.241-5.848-0.263c-1.743-0.02-3.522,0.23-5.269,0.293
			c-3.336,0.121-6.688,0.119-10.024-0.005c-4.062-0.151-8.126-0.385-12.191-0.441c-3.886-0.053-7.756,0.169-11.635,0.365
			c-3.383,0.171-6.829,0.485-10.207,0.092c-1.745-0.203-3.489-0.642-4.908-1.722c-1.764-1.342-2.866-3.399-3.823-5.346
			c-1.667-3.39-2.962-6.95-4.437-10.425c-1.049-2.472-2.376-4.925-2.574-7.652c-0.031-0.427,0.134-1.165-0.008-1.546
			c-0.215-0.574-1.757-1.154-2.332-1.485c-0.808-0.465-1.613-1.013-2.541-1.185c-0.444-0.082-1.127-0.255-1.573-0.158
			c-0.384,0.083-0.317,0.214-0.55,0.546c-0.284,0.404-0.682,0.67-1.153,0.808c-1.962,0.578-4.162-0.243-6.178-0.035
			c-1.574,0.163-3.054,1.002-4.653,0.921c-2.238-0.114-4.269-1.686-6.238-2.573c-3.234-1.457-6.707-2.371-9.801-4.139
			c-2.658-1.518-4.688-3.724-6.397-6.237c-0.983-1.446-1.928-2.949-2.762-4.487c-0.314-0.58-0.597-1.184-0.753-1.828
			c-0.405-1.669,0.172-3.37,0.745-4.928c0.576-1.566,1.279-3.118,1.623-4.759c0.244-1.163,0.255-2.377,0.629-3.511
			c0.619-1.875,1.987-3.339,2.321-5.325c0.264-1.573,0.852-2.37,2.112-3.336c0.961-0.737,2.01-1.398,2.832-2.299
			c0.656-0.718,1.08-1.613,1.73-2.333c0.739-0.818,1.737-1.056,2.81-1.07c2.018-0.026,4.396,0.432,6.183,1.405
			c0.855,0.465,1.539,1.144,1.624,2.159c3.218-0.662,6.497-0.892,9.776-0.702c2.083,0.121,4.53,0.261,6.357,1.405
			c1.141,0.714,1.847,1.834,3.171,2.266c0.974,0.318,2.018,0.406,3.031,0.516c1.001,0.109,2.28,0.054,3.225,0.478
			c0.65,0.292,0.735,0.909,1.036,1.499c0.275,0.538,0.649,0.882,1.169,1.188c0.781,0.461,1.625,0.771,2.255,1.447
			c0.734,0.787,1.127,1.821,1.796,2.658c1.454,1.821,3.935,2.165,5.942,3.071c1.236,0.558,2.375,1.397,3.126,2.541
			c1.304,1.987,1.119,4.732-0.015,6.758c-0.126,0.224-0.264,0.441-0.417,0.648c0.964,0.693,1.939,1.357,2.968,1.952
			c0.793,0.459,2.186,1.525,3.069,1.424c0.823-0.093,1.755-0.633,2.541-0.911c0.613-0.217,1.228-0.426,1.842-0.637
			c1.373-0.472,2.749-0.935,4.131-1.38c5.083-1.637,10.185-2.973,15.491-3.643c0.648-0.082,1.785,0.012,2.341-0.267
			c0.29-0.146,0.224-0.202,0.238-0.6c0.011-0.314,0.018-0.629,0.019-0.944c0.006-1.179-0.071-2.355-0.2-3.527
			c-0.324-2.921-0.905-5.812-1.389-8.709c-0.169-1.013-0.503-2.393-0.067-3.398c0.153-0.352,0.401-0.552,0.692-0.783
			c0.087-0.069,0.352-0.135,0.393-0.227c0.066-0.148-0.135-0.659-0.173-0.822c-0.09-0.386-0.193-0.769-0.315-1.147
			c-1.32-4.101-5.256-6.595-7.832-9.863c-0.818-1.039-1.577-2.155-2.009-3.415c-0.651-1.9-0.657-4.044-0.7-6.028
			c-0.031-1.429,0.001-2.864,0.167-4.285c0.043-0.366,0.27-1.021,0.132-1.335c-0.107-0.242-0.498-0.508-0.682-0.696
			c-2.511-2.561-5.023-5.121-7.534-7.682c-2.283-2.328-4.568-4.655-6.85-6.984c-0.442-0.451-0.819-0.885-0.897-1.539
			c-0.069-0.573,0.107-1.136,0.463-1.586c0.389-0.491,0.909-0.909,1.355-1.346c1.24-1.216,2.48-2.432,3.72-3.648
			c2.75-2.697,5.5-5.394,8.251-8.092c0.595-0.584,1.208-1.417,2.05-1.664c1.825-0.536,3.223,1.696,4.272,2.766
			c5.437,5.544,10.875,11.088,16.312,16.633c1.031,1.051,2.062,2.103,3.093,3.154c0.299,0.305,1.006,1.354,1.435,1.463
			c0.23,0.059,0.882-0.378,1.189-0.463c0.388-0.108,0.782-0.129,1.182-0.088c1.851,0.19,4.041,1.292,5.08,2.872
			c0.346,0.525,0.592,1.112,1,1.596c0.54,0.64,1.28,1.101,1.943,1.595c0.964,0.718,1.844,1.483,2.46,2.528
			c1.726,2.926,1.335,6.607,3.021,9.514c0.199,0.344,0.716,1.349,1.053,1.401c0.15,0.023,0.531-0.255,0.74-0.274
			c0.637-0.058,1.209,0.338,1.667,0.736c1.475,1.281,2.457,3.035,3.911,4.351c2.029,1.837,4.156,3.504,6.016,5.527
			c1.821,1.98,3.062,4.226,4.568,6.429c1.394,2.039,3.358,3.487,5.121,5.181c1.659,1.594,2.844,3.444,3.88,5.493
			c0.672,1.329,1.312,2.675,2.065,3.96c0.601,1.025,1.283,2.022,1.786,3.102c0.491,1.055,0.479,1.916,0.287,3.052
			c2.539,0.049,5.141-0.048,7.667,0.268c0.871,0.109,2.175,0.254,2.634,1.143c2.155-4.224,4.601-8.177,7.44-11.975
			c3.215-4.301,6.53-8.528,9.802-12.785c2.566-3.339,5.15-6.655,7.776-9.948c3.089-3.874,6.153-7.768,9.282-11.61
			c3.311-4.065,6.591-8.158,10.012-12.132c3.05-3.543,6.2-7.015,9.692-10.131c3.287-2.933,6.914-5.742,10.928-7.607
			c1.947-0.904,3.887-1.237,5.98-0.633c3.5,1.01,6.54,3.546,8.966,6.169c0.783,0.847,1.523,1.732,2.241,2.634
			c0.322,0.405,0.639,0.813,0.953,1.224c0.207,0.271,0.832,1.408,1.115,1.488c0.242,0.068,1.11-0.556,1.385-0.688
			c0.497-0.239,1.003-0.457,1.519-0.653c1.048-0.398,2.131-0.701,3.234-0.905c2.981-0.552,6.276-0.507,9.106,0.688
			c2.686,1.134,4.619,3.404,6.44,5.597c4.02,4.842,8.04,9.684,12.061,14.527c1.862,2.243,3.69,4.511,5.515,6.785
			c4.299,5.356,8.598,10.712,12.897,16.068c3.045,3.793,6.103,7.576,9.134,11.38c2.706,3.395,5.376,6.845,7.79,10.456
			c2.506,3.749,4.232,8.071,7.171,11.515c2.988,3.501,6.87,6.012,10.083,9.268c0.881,0.893,1.944,2.161,0.395,2.935
			C1384.946,345.13,1383.313,345.301,1381.867,345.677z"/>
	</g>
	<g id="POLYLINE_1_">
		
			<path fill="none" stroke="#FF6B6B" stroke-width="3.5" stroke-linecap="round" stroke-linejoin="round" stroke-miterlimit="10" d="
			M1157.331,299.153c0.443,0.226,0.641,0.67,0.777,1.123c0.383,1.281,0.414,2.678,0.635,3.993c0.558,3.325,1.382,6.611,2.391,9.827
			c0.266,0.85,0.548,1.695,0.822,2.542c0.114,0.352,0.209,1.143,0.46,1.421c0.225,0.249,0.425,0.166,0.858,0.165
			c1.716-0.001,3.432,0.013,5.148,0.063c1.776,0.052,3.552,0.129,5.326,0.242c0.894,0.057,1.787,0.117,2.68,0.186
			c0.408,0.032,0.874,0.151,1.278,0.105c0.501-0.057,0.402-0.132,0.484-0.672c0.32-2.118,0.552-4.582-0.128-6.66
			c-0.536-1.638-1.747-2.589-2.861-3.835c-1.106-1.237-1.242-2.895-2.154-4.237c-0.518-0.761-1.207-1.401-1.65-2.214
			c-0.44-0.808-0.587-1.724-0.849-2.596c-0.537-1.784-1.717-2.964-3.135-4.116c-0.46-0.374-2.708-1.746-2.075-2.679
			c0.14-0.206,0.451-0.34,0.669-0.435c-1.989-1.671-3.924-3.424-5.937-5.063c-1.206-0.982-2.567-1.671-4.046-2.153
			c0.594,2.187,0.727,4.47,0.817,6.725C1156.95,293.652,1157.103,296.392,1157.331,299.153z"/>
	</g>
</g>
</svg>
