<?xml version="1.0" encoding="utf-8"?>
<!-- Generator: Adobe Illustrator 23.0.2, SVG Export Plug-In . SVG Version: 6.00 Build 0)  -->
<!DOCTYPE svg PUBLIC "-//W3C//DTD SVG 1.1//EN" "http://www.w3.org/Graphics/SVG/1.1/DTD/svg11.dtd" [
	<!ENTITY ns_extend "http://ns.adobe.com/Extensibility/1.0/">
	<!ENTITY ns_ai "http://ns.adobe.com/AdobeIllustrator/10.0/">
	<!ENTITY ns_graphs "http://ns.adobe.com/Graphs/1.0/">
	<!ENTITY ns_vars "http://ns.adobe.com/Variables/1.0/">
	<!ENTITY ns_imrep "http://ns.adobe.com/ImageReplacement/1.0/">
	<!ENTITY ns_sfw "http://ns.adobe.com/SaveForWeb/1.0/">
	<!ENTITY ns_custom "http://ns.adobe.com/GenericCustomNamespace/1.0/">
	<!ENTITY ns_adobe_xpath "http://ns.adobe.com/XPath/1.0/">
]>
<svg version="1.1" xmlns:x="&ns_extend;" xmlns:i="&ns_ai;" xmlns:graph="&ns_graphs;"
	 xmlns="http://www.w3.org/2000/svg" xmlns:xlink="http://www.w3.org/1999/xlink" x="0px" y="0px" viewBox="0 0 1500 450"
	 enable-background="new 0 0 1500 450" xml:space="preserve">
<metadata>
	<sfw  xmlns="&ns_sfw;">
		<slices></slices>
		<sliceSourceBounds  bottomLeftOrigin="true" height="5118.356" width="7237.366" x="-6056.366" y="-503.534"></sliceSourceBounds>
	</sfw>
</metadata>
<g id="FILL-BACKGROUND">
	<rect fill="#FFFFFF" width="1500" height="450"/>
</g>
<g id="N-DIMENSIONS">
</g>
<g id="N-TEXT">
</g>
<g id="AG-DIAGRAM">
	<g id="POLYLINE_347_">
		<g>
			<g>
				
					<line fill="none" stroke="#FF6B6B" stroke-width="2.75" stroke-linecap="round" stroke-linejoin="round" x1="1432.094" y1="369.518" x2="1430.094" y2="369.518"/>
				
					<line fill="none" stroke="#FF6B6B" stroke-width="2.75" stroke-linecap="round" stroke-linejoin="round" stroke-dasharray="4.0006,7.001" x1="1423.094" y1="369.518" x2="73.406" y2="369.518"/>
				
					<line fill="none" stroke="#FF6B6B" stroke-width="2.75" stroke-linecap="round" stroke-linejoin="round" x1="69.906" y1="369.518" x2="67.906" y2="369.518"/>
			</g>
		</g>
	</g>
	<g id="POLYLINE_346_">
		<g>
			<g>
				
					<line fill="none" stroke="#FF6B6B" stroke-width="2.75" stroke-linecap="round" stroke-linejoin="round" x1="1432.094" y1="159.658" x2="1430.094" y2="159.658"/>
				
					<line fill="none" stroke="#FF6B6B" stroke-width="2.75" stroke-linecap="round" stroke-linejoin="round" stroke-dasharray="4.0006,7.001" x1="1423.094" y1="159.658" x2="73.406" y2="159.658"/>
				
					<line fill="none" stroke="#FF6B6B" stroke-width="2.75" stroke-linecap="round" stroke-linejoin="round" x1="69.906" y1="159.658" x2="67.906" y2="159.658"/>
			</g>
		</g>
	</g>
</g>
<g id="AG-PEOPLE">
	<g id="POLYLINE_345_">
		
			<path fill="none" stroke="#FF6B6B" stroke-width="2.75" stroke-linecap="round" stroke-linejoin="round" stroke-miterlimit="10" d="
			M1140.206,103.87c2.392-1.214,4.781-2.435,7.098-3.786c2.054-1.198,4.131-2.63,6.421-3.351c2.761-0.869,5.366,0.166,7.936,1.236
			c2.63,1.095,5.244,2.219,7.954,3.109c2.443,0.802,4.903,1.255,7.437,1.662c2.353,0.378,4.68,1.133,7.064,1.27
			c1.017,0.058,2.015-0.05,2.95-0.47c1.459-0.657,2.583-1.856,3.79-2.868c1.395-1.17,2.885-1.983,4.613-2.56
			c2.625-0.877,5.089-1.679,7.502-3.061c1.158-0.663,2.296-1.37,3.483-1.982c0.434-0.224,1.061-0.641,1.571-0.642
			c1.024-0.003-0.061,1.875-0.197,2.376c-0.363,1.342-0.08,2.741-0.372,4.087c-0.34,1.569-1.661,2.898-2.608,4.12
			c-1.668,2.15-3.175,4.359-4.217,6.887c-1.87,4.534-2.706,9.644-2.467,14.537c0.187,3.835,1.077,8.15,3.933,10.936
			c0.659,0.642,1.399,1.193,2.156,1.714"/>
	</g>
	<g id="POLYLINE_344_">
		
			<path fill="none" stroke="#FF6B6B" stroke-width="2.75" stroke-linecap="round" stroke-linejoin="round" stroke-miterlimit="10" d="
			M1224.894,114.901c6.477-0.819,13.424-0.955,19.867,0.207c6.584,1.187,11.903,5.08,17.776,8.011
			c6.072,3.03,12.497,5.267,18.669,8.074c3.047,1.386,6.053,2.972,9.222,4.072c1.464,0.509,3.406,0.779,4.441,2.079
			c0.706,0.887,0.952,2.096,1.086,3.191c0.314,2.571,0.167,5.388-0.673,7.85c-0.417,1.222-1.096,2.618-2.278,3.265
			c-1.339,0.733-3.137,0.166-4.525-0.048c-6.618-1.02-13.314-1.366-19.913-2.554c-6.884-1.24-13.423-3.641-20.017-5.907
			c-6.204-2.132-12.532-2.925-19.02-3.648c-6.718-0.749-13.441-1.529-20.18-2.058c-1.697-0.133-3.395-0.245-5.094-0.354"/>
	</g>
	<g id="POLYLINE_343_">
		
			<path fill="none" stroke="#FF6B6B" stroke-width="2.75" stroke-linecap="round" stroke-linejoin="round" stroke-miterlimit="10" d="
			M1208.432,92.512c1.61-1.406,3.199-2.648,5.159-3.534c2.232-1.008,4.605-1.729,6.989-2.276c4.538-1.042,9.354-1.454,13.848,0.008
			c4.197,1.365,7.789,4.206,10.71,7.453c2.854,3.172,5.413,7.006,6.299,11.241c0.669,3.199,0.08,6.342-1.477,9.201
			c-0.297,0.546-0.623,1.075-0.971,1.589"/>
	</g>
	<g id="POLYLINE_342_">
		
			<path fill="none" stroke="#FF6B6B" stroke-width="2.75" stroke-linecap="round" stroke-linejoin="round" stroke-miterlimit="10" d="
			M1139.93,158.766c3.434,0.385,6.854,0.777,10.312,0.857c3.666,0.084,7.335-0.037,10.999-0.163
			c7.448-0.257,14.88-0.774,22.312-1.297c2.959-0.208,5.873-0.234,8.834-0.055c1.913,0.116,3.827,0.259,5.743,0.337
			c0.806,0.033,1.877,0.209,2.672-0.071c1.343-0.473-0.479-2.861-0.762-3.459c-0.845-1.783-1.327-3.725-1.446-5.694
			c-0.242-4.009,1.268-8.851,4.531-11.39c0.356-0.277,0.744-0.511,1.127-0.75"/>
	</g>
	<g id="POLYLINE_341_">
		
			<path fill="none" stroke="#FF6B6B" stroke-width="2.75" stroke-linecap="round" stroke-linejoin="round" stroke-miterlimit="10" d="
			M1101.579,110.422c1.548-0.087,3.452-0.861,4.431-2.104c0.379-0.481,0.559-1.053,0.724-1.635"/>
	</g>
	<g id="POLYLINE_340_">
		
			<path fill="none" stroke="#FF6B6B" stroke-width="2.75" stroke-linecap="round" stroke-linejoin="round" stroke-miterlimit="10" d="
			M1044.974,156.275c-1.139,0.257-1.856,1.951-0.743,2.743c0.835,0.594,2.332,0.409,3.27,0.427c2.274,0.044,4.549,0.093,6.823,0.104
			c4.159,0.021,8.32-0.004,12.479-0.007c7.55-0.004,15.099-0.008,22.649-0.012c6.271-0.003,12.542-0.007,18.812-0.01
			c3.472-0.002,6.943,0.031,10.416,0.067c5.13,0.054,10.294,0.245,15.42-0.066c3.288-0.2,7.253-0.432,9.954-2.569
			c1.871-1.48,2.565-3.798,2.716-6.099c0.149-2.262-0.084-4.843-1.413-6.761c-0.436-0.63-0.978-1.171-1.518-1.711"/>
	</g>
	<g id="POLYLINE_339_">
		
			<path fill="none" stroke="#FF6B6B" stroke-width="2.75" stroke-linecap="round" stroke-linejoin="round" stroke-miterlimit="10" d="
			M1099.255,137.305c4.712-0.933,9.34-1.988,13.927-3.428c4.422-1.388,8.804-2.894,13.263-4.16c1.37-0.389,3.049-0.648,4.273-1.437
			c0.457-0.295,0.63-0.572,0.45-1.091c-0.227-0.652-0.707-1.264-1.007-1.892c-0.422-0.885-0.792-1.793-1.172-2.696
			c-0.952-2.262-1.891-4.529-2.92-6.757c-1.357-2.939-2.83-6.473-5.358-8.62c-1.03-0.874-2.292-1.394-3.487-1.995
			c-1.941-0.976-3.825-2.117-5.859-2.896c-1.556-0.596-2.695-0.627-3.703,0.803c-0.46,0.653-1.983,2.986-0.858,3.578
			c0.751,0.395,1.914,0.111,2.753,0.265c1.55,0.284,3,0.997,4.411,1.669c2.571,1.224,5.331,2.822,8.285,2.584
			c0.452-0.036,0.9-0.112,1.342-0.211"/>
	</g>
	<g id="POLYLINE_338_">
		
			<path fill="none" stroke="#FF6B6B" stroke-width="2.75" stroke-linecap="round" stroke-linejoin="round" stroke-miterlimit="10" d="
			M1131.445,88.404c2.835,1.196,5.669,2.115,8.648,2.884c3.339,0.862,6.729,1.627,9.948,2.889c1.691,0.663,3.317,1.466,4.948,2.262"
			/>
	</g>
	<g id="POLYLINE_337_">
		
			<path fill="none" stroke="#FF6B6B" stroke-width="2.75" stroke-linecap="round" stroke-linejoin="round" stroke-miterlimit="10" d="
			M1109.741,101.898c-1.102-4.107-0.864-8.33,0.88-12.221c1.014-2.263,2.528-4.499,4.733-5.744c2.366-1.336,5.151-1.193,7.703-0.522
			c3.168,0.833,6.442,2.465,8.477,5.107c1.067,1.385,1.765,2.995,2.485,4.577c0.932,2.046,1.976,4.023,3.147,5.943
			c2.541,4.164,5.305,8.194,7.692,12.451c2.204,3.931,4.001,8.038,5.314,12.352c0.67,2.203,1.24,4.435,1.754,6.679
			c0.473,2.07,0.979,4.169,1.098,6.296c0.122,2.158-0.302,4.279-2.371,5.326c-1.659,0.839-3.615,0.895-5.408,0.552
			c-2.121-0.405-4.153-0.897-6.314-1.062c-2.194-0.167-4.402-0.18-6.598-0.051c-5.151,0.303-10.274,1.45-15.347,2.319
			c-4.504,0.771-8.937,1.849-13.344,3.048c-4.666,1.27-9.315,2.635-13.912,4.133c-2.341,0.763-4.64,1.617-6.962,2.431
			c-1.736,0.609-3.53,0.857-5.355,1.039c-4.97,0.495-9.954,0.909-14.927,1.378c-4.889,0.461-9.804,0.279-14.705,0.501
			c-1.077,0.049-3.934,0.382-3.523-1.537c0.377-1.76,2.636-2.024,4.073-2.221c1.979-0.271,3.899-0.565,5.813-1.154
			c2.17-0.668,4.267-1.552,6.354-2.439c2.149-0.913,4.263-1.9,6.322-3.003"/>
	</g>
	<g id="POLYLINE_336_">
		
			<path fill="none" stroke="#FF6B6B" stroke-width="2.75" stroke-linecap="round" stroke-linejoin="round" stroke-miterlimit="10" d="
			M1076.495,105.864c-0.22-1.389,0.351-1.91,1.74-2.01c1.391-0.1,2.813,0.174,4.163,0.473c1.651,0.365,3.411,0.646,5.023,1.155
			c0.538,0.17,0.82,0.38,1,0.918c0.193,0.578,0.251,0.923,0.873,1.145c1.09,0.39,2.406,0.186,3.537,0.295
			c1.619,0.155,3.2,0.588,4.743,1.087c6.491,2.1,13.91,5.632,15.447,13.036c0.817,3.937-2.6,7.45-5.199,9.914
			c-2.726,2.584-5.974,4.305-9.394,5.796c-3.657,1.594-7.426,2.952-11.318,3.845c-0.945,0.217-1.895,0.404-2.846,0.587"/>
	</g>
	<g id="POLYLINE_335_">
		
			<path fill="none" stroke="#FF6B6B" stroke-width="2.75" stroke-linecap="round" stroke-linejoin="round" stroke-miterlimit="10" d="
			M1054.608,117.142c1.388-2.326,2.89-4.41,5.136-5.986c2.037-1.429,4.325-2.522,6.638-3.422c4.475-1.741,9.621-2.892,14.208-0.84
			c0.643,0.288,1.669,0.852,0.813,1.533c-0.882,0.702-2.412,0.626-3.438,0.694c-4.079,0.268-7.188,2.187-9.736,5.418
			c-1.66,2.105-2.511,4.454-1.426,7.026c0.769,1.822,2.143,3.387,2.636,5.322c0.534,2.097,0.151,4.449,0.027,6.569
			c-0.164,2.784-0.543,6.585,2.227,8.315c1.012,0.632,2.225,0.808,3.397,0.844c2.788,0.086,5.512-0.57,8.284-0.66
			c0.32-0.01,0.937-0.114,0.833,0.317c-0.07,0.292-0.772,0.611-1.001,0.743c-2.177,1.256-4.711,2.058-7.145,2.641
			c-4.198,1.007-8.751,1.219-12.676-0.825c-1.126-0.587-2.167-1.317-3.16-2.105"/>
	</g>
	<g id="POLYLINE_334_">
		
			<path fill="none" stroke="#FF6B6B" stroke-width="2.75" stroke-linecap="round" stroke-linejoin="round" stroke-miterlimit="10" d="
			M1060.227,142.727c-0.128-1.08-1.464-1.984-2.055-2.809c-0.675-0.942-1.139-2.018-1.437-3.135
			c-0.589-2.211-0.459-4.502-0.604-6.764c-0.104-1.617-0.712-3.103-0.891-4.698c-0.216-1.921,0.147-3.866-0.036-5.798
			c-0.08-0.847-0.162-2.064-0.846-2.681c-0.909-0.82-3.349-0.777-4.061,0.266c-0.476,0.697-0.591,1.219-1.34,1.691
			c-1.13,0.713-2.418,1.162-3.304,2.21c-1.487,1.76-1.779,4.775-1.276,6.952c0.295,1.276,0.867,2.518,1.578,3.614
			c0.596,0.918,1.381,1.621,1.461,2.757c0.184,2.621-0.94,6.05,0.686,8.429c0.605,0.885,1.66,1.43,2.6,1.877
			c1.617,0.769,3.444,1.488,5.237,1.694c2.079,0.239,3.136-1.265,4.086-2.954C1060.152,143.158,1060.227,142.984,1060.227,142.727z"
			/>
	</g>
	<g id="POLYLINE_333_">
		
			<path fill="none" stroke="#FF6B6B" stroke-width="2.75" stroke-linecap="round" stroke-linejoin="round" stroke-miterlimit="10" d="
			M1294.847,137.319c0.419-0.236,1.196-0.129,1.634-0.124c1.288,0.014,2.577,0.097,3.862,0.182c2.295,0.153,4.592,0.331,6.882,0.553
			c6.9,0.669,13.8,1.348,20.699,2.022c4.637,0.453,9.281,0.991,13.938,1.183c3.041,0.125,6.086,0.204,9.126,0.359
			c1.626,0.083,3.604,0.051,5.123,0.748c0.816,0.375,1.178,1.074,1.381,1.918c0.455,1.888,0.436,4.035,0.336,5.961
			c-0.135,2.597-1.357,4.474-3.361,6.094c-1.515,1.224-3.284,2.359-5.135,2.991c-1.419,0.485-2.949,0.377-4.427,0.38
			c-5.909,0.009-11.816,0.071-17.721-0.165c-5.293-0.211-10.633-0.639-15.779-1.963c-2.359-0.607-4.647-1.421-6.828-2.508
			c-2.351-1.172-4.65-2.243-7.192-2.946c-1.229-0.34-2.473-0.616-3.728-0.841"/>
	</g>
	<g id="POLYLINE_332_">
		
			<path fill="none" stroke="#FF6B6B" stroke-width="2.75" stroke-linecap="round" stroke-linejoin="round" stroke-miterlimit="10" d="
			M1201.311,157.857c2.215,1.104,4.5,1.274,6.957,1.397c3.862,0.193,7.734,0.2,11.599,0.269c7.388,0.133,14.785,0.059,22.173-0.001
			c7.159-0.058,14.29-0.513,21.442-0.774c7.182-0.262,14.374,0.08,21.559-0.06c7.263-0.141,14.536-0.574,21.759-1.361
			c0.99-0.108,1.979-0.216,2.969-0.324"/>
	</g>
	<g id="POLYLINE_331_">
		
			<path fill="none" stroke="#FF6B6B" stroke-width="2.75" stroke-linecap="round" stroke-linejoin="round" stroke-miterlimit="10" d="
			M1118.433,356.674c0.812,0.647,1.619,1.419,1.796,2.49c0.218,1.32-0.491,2.676-1.145,3.77c-1.895,3.168-4.519,5.671-8.362,5.541
			c-1.569-0.053-3.119-0.283-4.692-0.259c-1.351,0.021-2.702,0.132-4.044,0.288c-3.572,0.414-7.141,0.947-10.74,1.061
			c-3.585,0.114-7.169-0.11-10.753-0.149c-3.007-0.033-6.092,0.469-9.084,0.081c-1.113-0.144-2.287-0.507-2.909-1.512
			c-0.797-1.287-0.265-2.847-0.413-4.258c-0.131-1.245-0.863-2.046-1.906-2.688c-2.467-1.517-5.358-2.112-7.679-3.915
			c-4.28-3.325-5.707-9.713-5.339-14.87c0.123-1.729,0.682-3.452,1.062-5.144c0.378-1.682,0.772-3.362,1.283-5.009
			c0.944-3.045,2.363-5.878,4.105-8.542c1.796-2.746,3.873-5.317,6.133-7.694c1.942-2.042,4.077-4.054,6.573-5.406
			c1.255-0.68,2.605-1.125,4.033-1.222c0.984-0.067,1.978,0.013,2.948,0.18c0.542,0.094,1.725,0.191,2.122,0.657
			c0.405,0.476-0.291,0.698-0.684,0.918c-0.534,0.298-1.057,0.593-1.395,1.122c-0.71,1.111-0.61,2.853-0.416,4.091
			c0.18,1.152,0.625,2.023,1.695,2.525c1.381,0.649,2.512,0.856,3.195,2.314c0.674,1.437,0.838,3.297,2.087,4.407
			c0.964,0.857,2.457,0.99,3.297,1.978c0.81,0.953,0.566,2.466,0.38,3.588c-0.175,1.051-0.379,1.931-1.456,2.319
			c-1.49,0.537-2.858,1.089-3.566,2.652c-0.418,0.924-0.204,1.848,0.643,2.436c1.205,0.836,2.949,0.959,4.352,1.031
			c1.941,0.1,3.675-0.224,5.411-1.116c0.778-0.4,1.444-0.805,2.295-1.062c1.22-0.369,2.49-0.578,3.758-0.692
			c1.972-0.177,3.381,0.168,4.979,1.317c0.453,0.326,0.89,0.639,1.452,0.727c0.648,0.102,1.292,0.027,1.937,0.177
			c1.287,0.299,2.508,0.906,3.715,1.424c0.577,0.248,1.167,0.551,1.805,0.586c1.287,0.071,2.622-0.315,3.905-0.428
			c0.469-0.041,1.536-0.264,2.007,0.005c0.476,0.272,0.091,0.583-0.208,0.897c-0.675,0.708-1.389,1.288-1.822,2.184
			c-0.451,0.934-0.583,1.979-0.889,2.962c-0.453,1.455-1.23,2.74-1.877,4.108c-0.449,0.949-0.931,2.109-0.551,3.162
			C1115.944,355.018,1117.419,355.868,1118.433,356.674z"/>
	</g>
	<g id="POLYLINE_330_">
		
			<path fill="none" stroke="#FF6B6B" stroke-width="2.75" stroke-linecap="round" stroke-linejoin="round" stroke-miterlimit="10" d="
			M1175.165,323.556c3.566,1.081,7.311,1.197,11.001,1.463c3.366,0.243,6.629,0.96,10.021,0.788
			c1.898-0.096,3.818-0.321,5.721-0.241c1.18,0.05,2.317,0.366,3.486,0.498c3.237,0.364,6.444-0.37,9.645-0.702
			c1.225-0.127,3.032-0.346,3.917,0.75c0.326,0.404,0.478,0.923,0.584,1.422c0.306,1.441,0.293,2.952,0.432,4.414
			c0.679,7.139,2.139,14.184,4.195,21.05c1.105,3.692,2.369,7.331,3.512,11.01c0.312,1.006,1.333,3.088,0.312,4.022
			c-0.476,0.436-1.218,0.619-1.825,0.771c-1.381,0.347-2.819,0.482-4.235,0.585c-3.828,0.278-7.678,0.185-11.511,0.069
			c-7.661-0.232-15.315-0.762-22.973-1.071c-7.543-0.305-15.104-0.352-22.648-0.045c-7.593,0.309-15.153,1.222-22.759,1.235
			c-3.567,0.006-7.133-0.168-10.68-0.554c-3.164-0.344-6.489-0.82-9.55-1.705c-1.578-0.456-3.131-1.06-4.545-1.903"/>
	</g>
	<g id="POLYLINE_329_">
		
			<path fill="none" stroke="#FF6B6B" stroke-width="2.75" stroke-linecap="round" stroke-linejoin="round" stroke-miterlimit="10" d="
			M1118.482,340.42c2.109-1.561,4.338-2.926,6.378-4.583c2.175-1.766,4.257-3.644,6.4-5.447c4.146-3.488,8.625-6.678,13.56-8.954
			c2.334-1.077,4.775-1.939,7.304-2.421"/>
	</g>
	<g id="POLYLINE_328_">
		
			<path fill="none" stroke="#FF6B6B" stroke-width="2.75" stroke-linecap="round" stroke-linejoin="round" stroke-miterlimit="10" d="
			M1262.497,287.987c4.429-4.276,8.87-8.541,13.333-12.781c3.74-3.553,7.675-7.004,12.114-9.667
			c4.201-2.52,9.265-4.686,14.267-4.134c4.582,0.506,8.316,3.515,11.399,6.732c4.009,4.182,7.253,9.012,10.887,13.507
			c3.629,4.488,7.453,8.823,10.772,13.552c3.201,4.56,5.848,9.438,8.473,14.343c2.833,5.294,5.494,10.782,9.042,15.649
			c3.248,4.456,7.488,8.229,10.411,12.915c0.498,0.798,1.078,1.726,0.714,2.683c-0.353,0.93-0.995,1.789-1.489,2.647
			c-0.688,1.193-1.391,2.375-2.15,3.525c-3.101,4.696-7.251,8.401-11.925,11.491c-2.176,1.439-4.445,2.859-6.847,3.892
			c-1.039,0.447-2.339,0.979-3.496,0.726c-0.744-0.163-1.275-0.701-1.704-1.304c-1.445-2.031-2.472-4.389-3.694-6.556
			c-2.943-5.216-6.005-10.362-9.119-15.477c-2.832-4.652-5.709-9.27-8.727-13.804c-3.516-5.283-7.261-10.484-10.448-15.978
			c-1.203-2.074-1.995-4.419-3.317-6.415c-0.739-1.116-1.828-1.971-2.675-3.008c-0.49-0.601-0.938-1.026-1.674-0.53
			c-0.547,0.368-0.966,0.959-1.388,1.453c-1.225,1.436-2.451,2.872-3.675,4.309c-3.344,3.923-6.255,8.17-9.152,12.427
			c-3.678,5.404-7.361,10.799-10.925,16.278c-1.454,2.236-2.863,4.501-4.273,6.764"/>
	</g>
	<g id="POLYLINE_327_">
		
			<path fill="none" stroke="#FF6B6B" stroke-width="2.75" stroke-linecap="round" stroke-linejoin="round" stroke-miterlimit="10" d="
			M1340.666,362.67c-0.891,1.571-1.202,4.016,0.235,5.376c1.924,1.823,5.729,1.214,8.06,1.083c4.847-0.272,9.655-0.463,14.51-0.251
			c5.305,0.231,10.616,0.561,15.929,0.517c2.355-0.02,4.712-0.109,7.062-0.256c2.261-0.141,4.609-0.205,6.824-0.713
			c1.78-0.409,3.637-1.416,3.896-3.424c0.169-1.313-0.643-2.399-1.682-3.112c-2.422-1.664-5.694-1.53-8.459-2.125
			c-4.304-0.927-8.131-3.248-12.037-5.174c-2.082-1.027-4.274-1.744-6.411-2.639c-2.018-0.845-3.9-1.976-5.688-3.23
			c-0.868-0.609-1.708-1.254-2.533-1.919"/>
	</g>
	<g id="POLYLINE_326_">
		
			<path fill="none" stroke="#FF6B6B" stroke-width="2.75" stroke-linecap="round" stroke-linejoin="round" stroke-miterlimit="10" d="
			M1227.353,368.412c5.234,1.026,10.438,1.311,15.762,1.003c4.389-0.255,9.266-0.645,13.176-2.836
			c3.394-1.902,5.692-5.342,7.396-8.744c2.237-4.468,3.373-9.307,3.527-14.291c0.156-5.046-0.483-10.076-1.028-15.082
			c-0.545-5.012-1.156-10.02-1.584-15.044c-0.637-7.466-1.273-14.931-1.91-22.397c-0.411-4.82-0.957-9.657-1.2-14.49
			c-0.068-1.349-0.405-5.343,1.72-5.678c1.063-0.167,2.285,0.759,3.215,1.101c2.041,0.752,4.232,1.012,6.371,1.331
			c1.461,0.218,2.922,0.436,4.384,0.654"/>
	</g>
	<g id="POLYLINE_276_">
		
			<path fill="none" stroke="#FF6B6B" stroke-width="2.75" stroke-linecap="round" stroke-linejoin="round" stroke-miterlimit="10" d="
			M1334.429,278.872c1.046,1.555,2.226,2.733,4.2,2.292c2.052-0.458,3.91-1.9,5.285-3.435c1.458-1.628,2.608-3.505,4.048-5.15
			c1.317-1.505,2.791-2.879,4.289-4.201c3.697-3.26,7.575-6.345,10.835-10.062c2.651-3.023,5.416-6.292,7.037-10.009
			c1.075-2.465,1.831-5.513,1.076-8.178c-0.48-1.694-1.789-3.137-3.528-3.571c-2.255-0.563-3.812,1.254-5.249,2.697
			c-3.041,3.054-6.793,5.058-10.653,6.897c-4.452,2.12-8.919,4.235-13.509,6.041c-0.985,0.387-1.976,0.756-2.971,1.116"/>
	</g>
	<g id="POLYLINE_275_">
		
			<path fill="none" stroke="#FF6B6B" stroke-width="2.75" stroke-linecap="round" stroke-linejoin="round" stroke-miterlimit="10" d="
			M1219.093,326.306c2.235-1.098,4.406-2.84,5.584-5.082c1.302-2.478,1.444-5.521,1.885-8.24c1.353-8.344,2.654-16.689,3.52-25.1
			c0.926-8.99,1.571-18.036,2.847-26.986c0.53-3.715,1.175-7.528,2.893-10.904c1.437-2.823,3.545-5.428,6.037-7.387
			c4.555-3.58,10.395-2.571,15.75-1.719c8.455,1.346,16.77,3.438,25.101,5.381c8.404,1.961,16.807,4.151,25.347,5.455
			c3.74,0.571,7.521,0.928,11.305,0.703c1.934-0.115,3.853-0.383,5.751-0.768c1.819-0.369,3.628-0.923,5.483-1.095
			c1.802-0.167,3.355,0.342,4.311,1.972c1.651,2.818,1.74,6.668,2.051,9.829c0.694,7.048-0.992,14.512-4.437,20.706
			c-0.892,1.604-2.015,3.035-3.184,4.444"/>
	</g>
	<g id="POLYLINE_274_">
		
			<path fill="none" stroke="#FF6B6B" stroke-width="2.75" stroke-linecap="round" stroke-linejoin="round" stroke-miterlimit="10" d="
			M1131.13,271.468c3.519,1.826,7.041,3.83,10.238,6.183c1.67,1.229,3.216,2.613,4.078,4.53c1.494,3.326,1.765,7.274,2.261,10.843
			c0.593,4.263,1.237,8.525,1.723,12.802c0.527,4.639,0.564,9.139,0.192,13.79"/>
	</g>
	<g id="POLYLINE_273_">
		
			<path fill="none" stroke="#FF6B6B" stroke-width="2.75" stroke-linecap="round" stroke-linejoin="round" stroke-miterlimit="10" d="
			M1103.512,266.085c-0.466,0.551-0.765,1.153-1.007,1.828c-0.149,0.415-0.467,1.01-0.334,1.486
			c0.148,0.528,0.789,0.804,1.224,1.037c1.253,0.674,2.569,1.28,3.725,2.118c0.806,0.584,1.5,1.311,2.356,1.827
			c1.12,0.675,2.384,1.097,3.569,1.639c2.759,1.263,5.267,3.156,7.266,5.44c1.093,1.248,2.043,2.613,3.134,3.864
			c1.16,1.33,2.381,2.607,3.555,3.925c1.643,1.845,2.582,3.551,3.518,5.806c0.286,0.689,0.435,1.372,0.495,2.114
			c0.151,1.849,0.238,3.698,0.405,5.547c0.333,3.689,0.318,7.378,0.347,11.079c0.018,2.28,0.275,4.714-0.482,6.91
			c-0.405,1.173-1.054,2.254-1.416,3.441c-0.206,0.677-0.318,1.321-0.647,1.953c-0.36,0.691-0.784,1.352-1.182,2.021"/>
	</g>
	<g id="POLYLINE_272_">
		
			<path fill="none" stroke="#FF6B6B" stroke-width="2.75" stroke-linecap="round" stroke-linejoin="round" stroke-miterlimit="10" d="
			M1117.839,326.48c1.402,0.284,2.816,0.553,4.181,0.986c0.751,0.238,1.481,0.587,2.262,0.719c0.754,0.128,1.523,0.02,2.279-0.033
			c1.242-0.086,2.477,0.051,3.72,0.039c1.45-0.014,2.89-0.218,4.315-0.473"/>
	</g>
	<g id="POLYLINE_271_">
		
			<path fill="none" stroke="#FF6B6B" stroke-width="2.75" stroke-linecap="round" stroke-linejoin="round" stroke-miterlimit="10" d="
			M1098.699,264.509c0.971,1.455,2.249,2.682,3.736,3.605"/>
	</g>
	<g id="POLYLINE_270_">
		
			<path fill="none" stroke="#FF6B6B" stroke-width="2.75" stroke-linecap="round" stroke-linejoin="round" stroke-miterlimit="10" d="
			M1101.787,248.908c6.245,1.925,12.469,3.93,18.756,5.712c1.987,0.563,3.973,1.126,5.96,1.689"/>
	</g>
	<g id="POLYLINE_269_">
		
			<path fill="none" stroke="#FF6B6B" stroke-width="2.75" stroke-linecap="round" stroke-linejoin="round" stroke-miterlimit="10" d="
			M1130.8,269.361c1.392-2.044,2.697-4.131,3.932-6.274"/>
	</g>
	<g id="POLYLINE_268_">
		
			<path fill="none" stroke="#FF6B6B" stroke-width="2.75" stroke-linecap="round" stroke-linejoin="round" stroke-miterlimit="10" d="
			M1129.452,274.042c2.255-3.367,4.348-6.853,6.153-10.483"/>
	</g>
	<g id="POLYLINE_267_">
		
			<path fill="none" stroke="#FF6B6B" stroke-width="2.75" stroke-linecap="round" stroke-linejoin="round" stroke-miterlimit="10" d="
			M1135.605,263.559c-2.347-1.25-4.665-2.677-6.703-4.393c-0.759-0.639-2.484-1.937-2.427-3.13c0.036-0.744,0.883-1.365,1.553-1.514
			c1.188-0.264,2.268,0.65,3.442,0.585c1.049-0.058,1.627-1.159,2.485-1.635c0.634-0.351,1.346-0.538,1.978-0.896
			c0.676-0.383,1.229-0.935,1.791-1.463c1.073-1.009,2.25-1.995,3.783-2.107c1.223-0.089,2.458,0.311,3.554,0.809
			c2.507,1.14,4.742,2.992,6.459,5.133c1.824,2.274,3.099,4.925,4.832,7.265c0.534,0.721,1.072,1.441,1.607,2.161"/>
	</g>
	<g id="POLYLINE_266_">
		
			<path fill="none" stroke="#FF6B6B" stroke-width="2.75" stroke-linecap="round" stroke-linejoin="round" stroke-miterlimit="10" d="
			M1132.941,268.486c2.434,0.816,4.976,0.983,7.513,0.629c1.325-0.185,2.622-0.662,3.95-0.788c0.427-0.04,0.77,0.019,1.134,0.256
			c0.968,0.629,1.749,1.75,2.467,2.624"/>
	</g>
	<g id="POLYLINE_265_">
		
			<path fill="none" stroke="#FF6B6B" stroke-width="2.75" stroke-linecap="round" stroke-linejoin="round" stroke-miterlimit="10" d="
			M1087.643,255.571c1.937-1.93,3.914-3.824,5.766-5.837"/>
	</g>
	<g id="POLYLINE_264_">
		
			<path fill="none" stroke="#FF6B6B" stroke-width="2.75" stroke-linecap="round" stroke-linejoin="round" stroke-miterlimit="10" d="
			M1090.022,253.2c-0.905-1.386-1.458-3.588-0.464-5.064c1.327-1.971,4.333-2.835,6.561-3.029c1.877-0.163,5.228,0.093,6.267,2.013
			c0.343,0.633,0.146,1.215-0.404,1.652c-0.919,0.73-1.839,0.523-2.911,0.549c-0.877,0.022-1.085,0.695-1.804,1.069
			c-0.876,0.455-2.079,0.156-2.935-0.181c-0.323-0.127-0.634-0.281-0.924-0.473"/>
	</g>
	<g id="POLYLINE_263_">
		
			<line fill="none" stroke="#FF6B6B" stroke-width="2.75" stroke-linecap="round" stroke-linejoin="round" stroke-miterlimit="10" x1="1086.026" y1="260.167" x2="1087.643" y2="255.571"/>
	</g>
	<g id="POLYLINE_262_">
		
			<line fill="none" stroke="#FF6B6B" stroke-width="2.75" stroke-linecap="round" stroke-linejoin="round" stroke-miterlimit="10" x1="1129.452" y1="274.042" x2="1130.8" y2="269.361"/>
	</g>
	<g id="POLYLINE_261_">
		
			<path fill="none" stroke="#FF6B6B" stroke-width="2.75" stroke-linecap="round" stroke-linejoin="round" stroke-miterlimit="10" d="
			M1087.643,255.571c5.421,1.88,10.839,3.765,16.298,5.531c5.902,1.91,11.824,3.758,17.759,5.562
			c3.027,0.92,6.064,1.804,9.099,2.696"/>
	</g>
	<g id="POLYLINE_260_">
		
			<path fill="none" stroke="#FF6B6B" stroke-width="2.75" stroke-linecap="round" stroke-linejoin="round" stroke-miterlimit="10" d="
			M1086.026,260.167c5.457,1.892,10.913,3.789,16.408,5.568c5.957,1.929,11.937,3.793,17.927,5.614
			c3.024,0.919,6.058,1.802,9.09,2.693"/>
	</g>
	<g id="POLYLINE_259_">
		
			<path fill="none" stroke="#FF6B6B" stroke-width="2.75" stroke-linecap="round" stroke-linejoin="round" stroke-miterlimit="10" d="
			M1129.017,332.302c-2.094,0.147-4.198-0.184-6.231-0.669c-1.441-0.344-3.087-0.664-4.362-1.469
			c-1.642-1.037-0.719-2.786-0.461-4.347c0.311-1.884,0.683-4.896-0.933-6.363c-0.944-0.857-2.255-1.079-3.411-1.504
			c-0.849-0.312-1.281-0.803-1.891-1.45c-0.431-0.456-0.814-0.757-1.46-0.734c-0.748,0.026-1.104,0.193-1.661-0.364
			c-0.652-0.653-0.964-0.957-1.895-1.134c-0.606-0.115-1.507-0.18-1.724-0.887c-0.347-1.128,0.905-3.134-0.703-3.79
			c-0.504-0.205-1.113-0.101-1.625,0.008c-1.791,0.378-3.487,1.095-5.306,1.375c-0.734,0.113-1.544,0.21-2.261-0.042
			c-0.773-0.271-1.345-0.916-2.076-1.276c-0.844-0.416-1.782-0.551-2.712-0.61c-1.92-0.121-3.914,0.013-5.801,0.393
			c-0.999,0.201-1.956,0.525-2.907,0.886"/>
	</g>
	<g id="POLYLINE_253_">
		
			<path fill="none" stroke="#FF6B6B" stroke-width="2.75" stroke-linecap="round" stroke-linejoin="round" stroke-miterlimit="10" d="
			M1127.055,338.176c7.146-4.655,13.939-9.664,20.455-15.17c3.183-2.689,6.367-5.417,9.344-8.336
			c1.541-1.511,3.146-3.218,3.554-5.418c0.479-2.584-0.374-5.323-1.015-7.8c-1.072-4.144-1.897-8.523-3.545-12.491
			c-1.417-3.413-3.906-6.278-5.805-9.422c-1.128-1.867-2.508-4.092-2.481-6.368c0.052-4.365,5.32-7.339,8.901-8.441
			c1.272-0.391,2.864-0.802,3.9,0.286c0.844,0.887,1.385,2.145,1.941,3.217c1.007,1.944,1.969,3.912,2.979,5.855
			c1.864,3.585,4.137,6.902,6.299,10.309c2.235,3.523,4.246,7.192,6.181,10.886c1.116,2.13,2.206,4.274,3.308,6.411
			c0.647,1.254,1.362,2.504,1.837,3.836c0.77,2.16-0.024,4.198-0.874,6.22c-3.099,7.37-8.014,13.489-13.197,19.488
			c-5.527,6.397-11.193,12.724-17.342,18.535c-1.447,1.368-2.95,2.646-4.502,3.892"/>
	</g>
	<g id="POLYLINE_252_">
		
			<path fill="none" stroke="#FF6B6B" stroke-width="2.75" stroke-linecap="round" stroke-linejoin="round" stroke-miterlimit="10" d="
			M934.501,352.779c3.253-1.039,6.656-1.285,10.053-1.265c3.402,0.02,6.814,0.162,10.199,0.495c2.848,0.281,5.966,0.559,8.595,1.781
			c1.029,0.478,2.024,1.189,2.457,2.278c1.204,3.025-1.736,6.862-3.554,8.903c-1.382,1.552-3.03,3.068-4.988,3.845
			c-1.668,0.662-3.512,0.738-5.285,0.697c-3.051-0.07-6.285-0.303-9.227-1.153c-3.052-0.881-6.046-1.142-9.219-1.083
			c-0.88,0.016-1.759,0.057-2.638,0.097"/>
	</g>
	<g id="POLYLINE_251_">
		
			<path fill="none" stroke="#FF6B6B" stroke-width="2.75" stroke-linecap="round" stroke-linejoin="round" stroke-miterlimit="10" d="
			M640.669,332.026c-0.969-2.701-3.407-5.09-5.791-6.589c-2.972-1.869-6.648-2.666-10.086-3.105
			c-4.226-0.539-8.366-0.013-12.408,1.289c-4.246,1.368-8.366,3.344-12.028,5.899c-3.339,2.329-6.355,5.236-7.957,9.042
			c-1.646,3.908-1.792,8.293-1.171,12.441c0.397,2.649,1.128,5.462,2.925,7.532c1.144,1.318,2.677,2.154,4.364,2.556
			c1.764,0.421,3.6,0.365,5.373,0.726c0.711,0.145,1.559,0.357,1.994,0.994c0.966,1.418-0.19,3.4,0.681,4.906
			c0.904,1.563,3.128,1.663,4.716,1.724c2.197,0.084,4.4-0.075,6.596-0.13c2.308-0.058,4.612-0.012,6.919,0.047
			c4.566,0.116,9.035,0.072,13.574-0.487c2.384-0.294,4.77-0.649,7.168-0.808c2.1-0.139,4.141,0.176,6.233,0.175
			c2.224-0.001,3.993-0.983,5.528-2.545c1.552-1.58,3.068-3.754,3.26-6.039c0.174-2.068-1.355-3.458-2.923-4.553
			c-1.393-0.973-2.835-1.828-4.029-3.051c-1.094-1.122-1.974-2.458-3.173-3.477c-0.997-0.847-2.181-1.441-3.388-1.927
			c-1.144-0.461-2.551-0.773-3.438-1.705c-0.452-0.475-0.717-1.088-0.907-1.707c-0.591-1.92-0.685-4.028-0.95-6.006
			C641.517,335.481,641.264,333.691,640.669,332.026z"/>
	</g>
	<g id="POLYLINE_220_">
		
			<path fill="none" stroke="#FF6B6B" stroke-width="2.75" stroke-linecap="round" stroke-linejoin="round" stroke-miterlimit="10" d="
			M651.874,350.069c2.966-1.912,5.714-5.393,5.477-9.089c-0.206-3.221-1.579-6.564-2.717-9.553c-0.57-1.497-1.181-2.999-1.987-4.388
			c-0.671-1.156-1.57-2.189-2.095-3.426c-1.081-2.544-1.145-5.745-1.142-8.466c0.003-2.622,0.585-4.966,1.929-7.219
			c1.818-3.048,4.278-5.855,6.821-8.316c1.615-1.562,3.532-3.335,5.784-3.886c1.466-0.359,2.896,0.007,4.233,0.632
			c3.371,1.574,6.318,3.919,9.737,5.423c3.514,1.546,7.293,2.372,11.018,3.231c3.835,0.885,7.538,2.005,11.229,3.372
			c3.807,1.41,7.602,2.865,11.345,4.437c1.763,0.74,3.489,1.546,5.202,2.395c1.038,0.514,2.09,1.018,3.227,1.272
			c1.409,0.315,2.882,0.277,4.315,0.338c1.625,0.069,3.169,0.311,4.734,0.754c1.8,0.51,3.587,1.171,5.451,0.648
			c1.122-0.314,2.162-0.89,3.336-1.006c1.137-0.112,2.297,0.123,3.419-0.153c2.234-0.548,3.902-2.82,5.422-4.345
			c2.438-2.446,5.188-4.454,8.411-5.739c3.306-1.319,6.854-2.024,10.359-2.573c3.844-0.602,7.728-0.971,11.615-1.149
			c2.946-0.135,5.979-0.183,8.815,0.739c6.431,2.091,11.159,8.147,14.27,13.869c3.648,6.71,5.214,14.112,4.715,21.727
			c-0.493,7.524-2.516,15.436-6.223,22.04c-1.232,2.194-2.78,4.492-4.999,5.795c-2.163,1.27-4.864,1.475-7.306,1.681
			c-7.986,0.673-16.058,0.19-24.022-0.534c-7.735-0.703-15.412-1.923-23.196-1.318c-8.11,0.63-16.169,1.661-24.303,2.024
			c-7.585,0.339-15.187,0.259-22.776,0.08c-8.448-0.199-16.939-0.233-25.358-1.036c-3.414-0.326-6.749-0.835-9.984-2.004"/>
	</g>
	<g id="POLYLINE_219_">
		
			<path fill="none" stroke="#FF6B6B" stroke-width="2.75" stroke-linecap="round" stroke-linejoin="round" stroke-miterlimit="10" d="
			M901.998,350.343c-2.104-1.147-1.807-4.339-1.504-6.323c0.368-2.407,1.625-4.207,4.135-4.495
			c4.239-0.485,8.918,1.504,12.669,3.259c2.411,1.128,4.69,2.496,7.025,3.769c2.484,1.355,5.059,2.581,7.447,4.106
			c1.969,1.258,4.144,2.865,4.279,5.404c0.181,3.411-2.19,7.056-3.986,9.747c-1.186,1.777-2.857,3.91-5.256,3.604
			c-2.709-0.346-4.866-3.017-6.343-5.055c-1.495-2.063-2.524-4.334-3.728-6.565c-0.674-1.249-1.467-2.453-2.567-3.368
			c-2.83-2.354-6.948-2.462-10.344-3.403C903.198,350.85,902.569,350.654,901.998,350.343z"/>
	</g>
	<g id="POLYLINE_218_">
		
			<path fill="none" stroke="#FF6B6B" stroke-width="2.75" stroke-linecap="round" stroke-linejoin="round" stroke-miterlimit="10" d="
			M804.81,339.425c6.392,0.498,12.682,1.286,18.868,3.026c6.229,1.752,12.35,4.098,18.822,4.8
			c6.416,0.696,12.882-0.055,19.273-0.669c6.399-0.614,12.842-1.367,19.273-0.772c6.425,0.595,12.656,2.531,18.907,4.02
			c0.632,0.151,1.268,0.288,1.903,0.431"/>
	</g>
	<g id="POLYLINE_217_">
		
			<path fill="none" stroke="#FF6B6B" stroke-width="2.75" stroke-linecap="round" stroke-linejoin="round" stroke-miterlimit="10" d="
			M786.586,304.276c4.338-0.611,8.703-0.89,13.032-0.05c4.193,0.814,8.158,2.57,11.883,4.62c3.919,2.157,7.628,4.705,11.141,7.472
			c3.492,2.751,6.816,5.707,10.04,8.766c1.946,1.846,3.869,3.719,5.844,5.534c1.303,1.198,2.67,2.407,4.257,3.22
			c1.558,0.797,3.148,0.961,4.849,0.507c1.828-0.489,3.503-1.416,5.26-2.097c2.013-0.779,4.124-1.123,6.272-1.244
			c4.572-0.257,9.215,0.033,13.748,0.649c4.414,0.599,8.749,1.618,12.991,2.971c4.362,1.392,8.77,2.997,12.787,5.217
			c0.905,0.5,1.776,1.054,2.648,1.611"/>
	</g>
	<g id="POLYLINE_216_">
		
			<path fill="none" stroke="#FF6B6B" stroke-width="2.75" stroke-linecap="round" stroke-linejoin="round" stroke-miterlimit="10" d="
			M639.539,329.88c1.558-0.077,3.093-0.362,4.628-0.623c1.071-0.182,2.193-0.284,3.221-0.654c1.102-0.397,1.972-1.192,2.653-2.126
			c0.42-0.576,0.772-1.207,1.026-1.874"/>
	</g>
	<g id="POLYLINE_215_">
		
			<path fill="none" stroke="#FF6B6B" stroke-width="2.75" stroke-linecap="round" stroke-linejoin="round" stroke-miterlimit="10" d="
			M792.613,367.912c8.712,0.389,17.418,0.695,26.138,0.851c8.275,0.148,16.584,0.279,24.855-0.107
			c3.995-0.186,7.992-0.774,11.997-0.603c4.153,0.177,8.279,0.797,12.423,1.105c8.303,0.618,16.654,0.192,24.927-0.65
			c4.154-0.423,8.299-0.969,12.412-1.685c4.097-0.714,8.168-1.597,12.294-2.139c0.932-0.122,1.867-0.223,2.802-0.325"/>
	</g>
	<g id="POLYLINE_214_">
		
			<path fill="none" stroke="#FF6B6B" stroke-width="2.75" stroke-linecap="round" stroke-linejoin="round" stroke-miterlimit="10" d="
			M770.811,158.152c1.351,0.737,2.993,0.925,4.494,1.096c2.817,0.32,5.662,0.4,8.494,0.46c2.747,0.058,5.51,0.077,8.252-0.132
			c0.464-0.035,3.173-0.014,3.377-0.82c0.093-0.368-0.476-0.725-0.709-0.904c-0.724-0.556-1.51-1.029-2.181-1.654
			c-0.812-0.757-1.431-1.685-1.877-2.697c-1.576-3.577-1.839-8.156-0.784-11.911c1.372-4.883,5.356-8.122,7.849-12.357
			c0.334-0.568,0.649-1.148,0.982-1.717"/>
	</g>
	<g id="POLYLINE_213_">
		
			<path fill="none" stroke="#FF6B6B" stroke-width="2.75" stroke-linecap="round" stroke-linejoin="round" stroke-miterlimit="10" d="
			M685.83,122.834c2.815,2.933,5.527,5.923,8.166,9.014c3.154,3.695,6.257,7.442,9.508,11.053c1.53,1.699,3.117,3.29,4.852,4.778"/>
	</g>
	<g id="POLYLINE_212_">
		
			<path fill="none" stroke="#FF6B6B" stroke-width="2.75" stroke-linecap="round" stroke-linejoin="round" stroke-miterlimit="10" d="
			M799.359,127.393c5.949,2.873,11.948,5.068,18.411,6.47c3.432,0.745,6.884,1.423,10.265,2.381
			c3.559,1.008,7.108,2.111,10.741,2.827c6.459,1.272,13.145,1.487,19.682,0.761c7.011-0.778,13.948-2.051,20.978-2.708
			c7.83-0.732,15.671-1.355,23.506-2.032c6.532-0.565,13.078-1.336,19.569-2.26c3.377-0.481,6.523-1.238,9.711-2.453
			c1.895-0.723,3.824-1.316,5.869-1.057c5.384,0.684,9.696,4.758,15.02,5.778c4.147,0.794,8.869-0.961,12.755,1.077
			c3.097,1.625,5.126,5.273,5.137,8.732c0.008,2.47-0.9,4.845-1.759,7.123c-0.815,2.162-1.694,4.535-3.271,6.278
			c-1.519,1.68-3.597,1.873-5.637,1.085c-2.312-0.893-3.892-2.483-5.577-4.215c-1.612-1.657-3.844-2.615-5.923-3.536
			c-5.806-2.571-11.885-5.598-18.346-5.781c-6.45-0.183-12.81,1.561-18.863,3.618c-6.888,2.34-13.686,4.863-20.76,6.603
			c-6.648,1.634-13.448,2.696-20.278,3.157c-5.877,0.396-11.768,0.399-17.656,0.323c-8.955-0.115-17.91-0.23-26.865-0.345
			c-6.735-0.086-13.471-0.147-20.206-0.259c-3.475-0.058-6.949-0.162-10.423-0.269"/>
	</g>
	<g id="POLYLINE_211_">
		
			<path fill="none" stroke="#FF6B6B" stroke-width="2.75" stroke-linecap="round" stroke-linejoin="round" stroke-miterlimit="10" d="
			M674.817,147.374c-3.731-0.674-7.457-1.285-11.249-1.468c-3.95-0.191-7.907-0.189-11.859-0.312
			c-7.421-0.23-14.941-0.8-22.186-2.497c-6.916-1.62-13.054-4.737-17.733-10.179c-1.37-1.593-3.029-3.514-3.353-5.685
			c-0.277-1.852,1.1-3.221,1.246-4.974c0.16-1.924-2.876-4.159-4.678-3.223c-1.681,0.873-2.314,3.611-3.062,5.121
			c-1.181,2.386-2.655,4.792-2.797,7.522c-0.135,2.591,0.779,5.179,1.808,7.513c1.014,2.299,2.161,4.664,4.095,6.335
			c2.215,1.915,5.125,2.893,7.818,3.92c1.626,0.62,3.298,1.188,4.849,1.983c1.185,0.607,2.234,1.449,3.437,2.021
			c2.774,1.319,6.105,1.609,9.106,2.044c3.861,0.56,7.717,1.123,11.571,1.735c7.74,1.23,15.529,2.772,23.399,2.65
			c1.921-0.03,3.839-0.13,5.758-0.222"/>
	</g>
	<g id="POLYLINE_210_">
		
			<path fill="none" stroke="#FF6B6B" stroke-width="2.75" stroke-linecap="round" stroke-linejoin="round" stroke-miterlimit="10" d="
			M600.067,136.955c-2.426,1.884-5.167,3.348-7.811,4.894c-2.311,1.352-4.452,2.841-6.548,4.506c-4.13,3.281-8.785,5.45-13.85,6.905
			c-2.563,0.736-5.174,1.239-7.819,1.57c-2.865,0.358-5.793,0.458-8.622,1.059c-0.749,0.159-4.69,1.294-3.643,2.805
			c0.194,0.28,0.645,0.366,0.949,0.435c1.131,0.255,2.331,0.285,3.485,0.344c1.976,0.101,3.957,0.142,5.936,0.144
			c6.807,0.005,13.614,0.01,20.421,0.016c7.836,0.006,15.672,0.012,23.509,0.018c3.025,0.002,6.05-0.013,9.074-0.027
			c8.323-0.04,16.645-0.08,24.968-0.12c6.704-0.032,13.408-0.065,20.112-0.097c0.359-0.002,0.717-0.003,1.076-0.005"/>
	</g>
	<g id="POLYLINE_209_">
		
			<path fill="none" stroke="#FF6B6B" stroke-width="2.75" stroke-linecap="round" stroke-linejoin="round" stroke-miterlimit="10" d="
			M653.692,145.652c2.485-0.391,5.124-1.101,7.299-2.406c0.907-0.544,1.677-1.272,2.16-2.223c0.745-1.467,0.814-3.239,0.776-4.85
			c-0.06-2.602-0.474-5.341-1.438-7.769c-1.665-4.195-5.742-7.382-9.518-9.606c-1.157-0.682-2.362-1.239-3.619-1.71
			c-0.811-0.304-1.82-0.549-2.524-1.091c-0.698-0.537-0.505-1.408-0.939-2.107c-0.891-1.434-2.78-2.331-4.145-3.186
			c-1.119-0.701-2.324-1.503-3.668-1.679c-0.655-0.086-2.255-0.049-2.589,0.707c-0.32,0.726,1.078,1.215,1.545,1.409
			c0.771,0.321,3.019,0.771,3.201,1.915c0.126,0.793-0.656,0.924-1.252,0.863c-1.09-0.111-2.143-0.456-3.238-0.557
			c-1.468-0.135-2.962-0.068-4.417,0.169c-1.537,0.251-3.11,0.693-4.426,1.554c-2.614,1.71-2.989,4.716-3.024,7.624
			c-0.034,2.842,0.246,5.714-0.233,8.534c-0.418,2.459-1.657,4.679-2.099,7.129c-0.119,0.658-0.173,1.328-0.146,1.997"/>
	</g>
	<g id="POLYLINE_208_">
		
			<path fill="none" stroke="#FF6B6B" stroke-width="2.75" stroke-linecap="round" stroke-linejoin="round" stroke-miterlimit="10" d="
			M609.172,120.647c2.286-2.985,5.012-5.677,8.298-7.544c3.606-2.05,7.771-3.062,11.894-3.288c2.06-0.113,4.155-0.028,6.174,0.423"
			/>
	</g>
	<g id="POLYLINE_207_">
		
			<path fill="none" stroke="#FF6B6B" stroke-width="2.75" stroke-linecap="round" stroke-linejoin="round" stroke-miterlimit="10" d="
			M716.148,145.219c-2.598,0.973-5.256,1.766-7.93,2.498c-2.573,0.704-5.166,1.395-7.832,1.615c-1.21,0.1-2.433,0.124-3.633,0.315
			c-0.92,0.146-1.786,0.477-2.691,0.685c-1.159,0.266-2.263,0.18-3.404-0.128c-2.598-0.7-4.889-2.105-7.31-3.226
			c-0.99-0.458-2.013-0.781-3.11-0.806c-1.819-0.041-3.66,0.554-5.345,1.175c-2.219,0.817-4.459,1.826-6.417,3.164
			c-1.362,0.93-2.439,2.125-3.297,3.529c-0.612,1.001-1.428,2.313-1.515,3.52c-0.066,0.922,0.665,1.299,1.451,1.532
			c2.2,0.654,4.684,0.564,6.952,0.577c6.111,0.037,12.226-0.16,18.337-0.191c6.039-0.031,12.082,0.072,18.122,0.11
			c5.345,0.033,10.701,0.149,16.045,0.005c2.206-0.06,4.559-0.026,6.705-0.615c0.907-0.249,1.631-0.696,2.013-1.583
			c1.246-2.889,0.074-7.01-1.253-9.639c-0.925-1.832-2.382-3.159-3.844-4.563c-2.031-1.951-3.981-3.979-5.867-6.069
			c-3.37-3.736-6.423-7.755-9.355-11.84c-3.596-5.009-7.102-10.095-10.819-15.015c-1.226-1.623-2.453-3.246-3.679-4.87
			c-0.657-0.87-1.333-1.607-1.68-2.631c-0.402-1.188-1.039-2.247-1.927-3.134c-1.356-1.356-3.409-2.678-5.416-2.306
			c-1.738,0.322-3.185,1.774-3.996,3.281c-0.725,1.346-0.952,2.891-1.172,4.384c-0.409,2.776-0.741,5.586-0.704,8.397
			c0.03,2.278,0.395,4.405,1.244,6.524c0.346,0.862,1.354,2.478,0.935,3.517c-0.316,0.785-1.392,0.975-2.127,1.101
			c-2.273,0.387-4.723,0.184-6.96-0.322c-1.462-0.331-2.944-0.831-4.181-1.702"/>
	</g>
	<g id="POLYLINE_206_">
		
			<path fill="none" stroke="#FF6B6B" stroke-width="2.75" stroke-linecap="round" stroke-linejoin="round" stroke-miterlimit="10" d="
			M691.801,93.195c8.257,1.658,15.878,5.234,23.871,7.762c6.891,2.179,13.977,3.153,20.763,0.122
			c7.408-3.309,12.929-9.451,19.789-13.62c3.456-2.1,7.266-3.467,11.136-4.591c4.117-1.195,8.226-2.485,12.358-3.62
			c1.068-0.294,3.064-0.997,3.606,0.44c0.356,0.944,0.245,2.142,0.209,3.116c-0.073,1.967-0.308,3.931-0.573,5.88
			c-0.523,3.846-1.22,7.678-2.069,11.465c-0.99,4.418-2.149,8.832-2.852,13.309c-0.61,3.881-0.548,7.783-0.268,11.69
			c0.163,2.28-0.379,4.219-1.373,6.262c-1.774,3.648-4.405,6.949-5.595,10.863c-1.025,3.368-0.974,7.165-0.453,10.62
			c0.193,1.281,0.761,2.484,0.939,3.75c0.077,0.548-0.057,1.034-0.424,1.452c-1.455,1.659-4.81,1.365-6.728,1.348
			c-8.418-0.073-16.823-0.807-25.245-0.895c-2.185-0.023-4.368-0.02-6.553-0.015"/>
	</g>
	<g id="POLYLINE_205_">
		
			<path fill="none" stroke="#FF6B6B" stroke-width="2.75" stroke-linecap="round" stroke-linejoin="round" stroke-miterlimit="10" d="
			M698.199,105.037c-0.051-4.347-1.767-8.37-5.264-11.071c-1.273-0.983-2.724-1.681-4.339-1.828
			c-3.041-0.277-6.163-0.269-9.198,0.057c-4.873,0.524-9.2,2.1-12.348,5.988c-1.711,2.114-2.856,4.661-4.651,6.697
			c-1.097,1.244-2.448,2.131-3.24,3.624c-1.027,1.935-1.198,3.851-1.222,5.994c-0.022,1.92-0.846,3.473-1.429,5.268
			c-0.13,0.399-0.238,0.806-0.329,1.215"/>
	</g>
	<g id="POLYLINE_204_">
		
			<path fill="none" stroke="#FF6B6B" stroke-width="2.75" stroke-linecap="round" stroke-linejoin="round" stroke-miterlimit="10" d="
			M662.999,129.92c3.424,1.37,7.366,3.874,9.077,7.275c0.973,1.934,0.971,4.185-0.33,5.973c-0.987,1.355-2.48,2.306-3.932,3.089"/>
	</g>
	<g id="POLYLINE_203_">
		
			<path fill="none" stroke="#FF6B6B" stroke-width="2.75" stroke-linecap="round" stroke-linejoin="round" stroke-miterlimit="10" d="
			M940.523,148.159c-4.337,5.295-9.323,10.009-16.326,11.144c-7.517,1.218-15.007-1.401-22.379-2.466
			c-4.027-0.581-8.081-0.707-12.14-0.469"/>
	</g>
	<g id="POLYLINE_202_">
		
			<path fill="none" stroke="#FF6B6B" stroke-width="2.75" stroke-linecap="round" stroke-linejoin="round" stroke-miterlimit="10" d="
			M782.357,124.534c3.947,0.487,7.818,1.36,11.706,2.182c0.584,0.123,5.265,1.433,5.352,0.496c0.015-0.163-0.244-0.394-0.334-0.502
			c-0.457-0.545-0.997-1.024-1.483-1.544c-1.114-1.191-2.136-2.47-3.072-3.805c-1.964-2.801-3.607-5.922-4.373-9.276
			c-1.218-5.339-0.053-11.107,2.577-15.852c2.672-4.82,7.464-9.374,13.049-10.42c3.847-0.72,6.69,1.63,9.286,4.209
			c0.242,0.24,0.55,0.666,0.881,0.776c0.119-0.4-0.696-1.386-0.888-1.68c-0.626-0.963-1.325-1.886-2.112-2.724
			c-1.253-1.333-2.735-2.434-4.354-3.284c-4.614-2.422-10.13-2.93-15.254-3.105c-3.302-0.113-6.579,0.025-9.862,0.398"/>
	</g>
	<g id="POLYLINE_201_">
		
			<path fill="none" stroke="#FF6B6B" stroke-width="2.75" stroke-linecap="round" stroke-linejoin="round" stroke-miterlimit="10" d="
			M815.887,90.721c3.854,4.172,7.925,8.138,12.108,11.979c3.959,3.636,8.122,7.129,12.693,9.976
			c4.612,2.872,9.642,4.799,14.728,6.643c2.475,0.897,4.95,1.776,7.333,2.904c2.389,1.131,4.687,2.451,6.956,3.804
			c4.731,2.821,9.518,5.748,13.783,9.248c0.549,0.451,1.093,0.908,1.639,1.362"/>
	</g>
	<g id="POLYLINE_200_">
		
			<path fill="none" stroke="#FF6B6B" stroke-width="2.75" stroke-linecap="round" stroke-linejoin="round" stroke-miterlimit="10" d="
			M471.117,354.767c3.588-1.914,6.903-4.21,9.853-7.015c2.787-2.65,5.268-5.615,7.518-8.729c1.263-1.748,2.454-3.592,3.86-5.232
			c0.419-0.488,0.948-1.127,1.607-1.298c1.076-0.279,1.764,0.986,2.122,1.796c1.012,2.294,0.949,4.915,0.77,7.363
			c-0.038,0.521-0.084,1.042-0.129,1.562"/>
	</g>
	<g id="POLYLINE_199_">
		
			<path fill="none" stroke="#FF6B6B" stroke-width="2.75" stroke-linecap="round" stroke-linejoin="round" stroke-miterlimit="10" d="
			M306.186,329.897c4.878,0.687,9.756,1.381,14.635,2.061c4.545,0.634,9.098,1.211,13.649,1.804
			c3.581,0.466,7.18,0.823,10.768,1.231c6.332,0.72,12.663,1.439,18.995,2.159c3.525,0.401,7.044,0.816,10.551,1.355
			c4.364,0.67,8.692,1.556,12.986,2.581c4.987,1.191,9.95,2.486,14.921,3.74c3.876,0.978,7.792,1.853,11.759,2.372
			c2.181,0.286,4.372,0.382,6.562,0.569c0.816,0.07,2.232,0.067,2.924,0.657c0.512,0.437,0.294,1.078,0.145,1.645
			c-0.508,1.934-0.726,3.889-0.834,5.884c-0.11,2.025-0.119,4.052-0.088,6.079c0.027,1.754,0.2,3.612-0.112,5.351
			c-0.333,1.855-1.901,1.807-3.537,1.92c-4.14,0.286-8.325,0.145-12.464-0.086c-4.822-0.269-9.632-0.539-14.462-0.585
			c-5.137-0.049-10.275-0.037-15.412-0.055c-4.137-0.015-8.272-0.129-12.408-0.218c-4.679-0.101-9.356-0.19-14.035-0.238
			c-4.232-0.044-8.471,0.068-12.703,0.106c-5.105,0.046-10.211,0.103-15.316,0.139c-4.23,0.03-8.46,0.06-12.689-0.07
			c-2.159-0.066-4.316-0.18-6.474-0.278"/>
	</g>
	<g id="POLYLINE_198_">
		
			<path fill="none" stroke="#FF6B6B" stroke-width="2.75" stroke-linecap="round" stroke-linejoin="round" stroke-miterlimit="10" d="
			M424.232,349.438c7.361,0.862,14.695,1.734,21.992,3.043c7.364,1.321,14.655,2.711,22.175,2.441
			c6.338-0.228,12.946-1.26,18.596-4.289c3.109-1.666,5.803-3.958,8.435-6.28c2.27-2.003,4.434-3.914,7.26-5.088
			c0.939-0.39,2.567-1.096,3.584-0.506c1.325,0.768,0.993,3.387,0.965,4.562c-0.092,3.737,0.032,7.441,0.036,11.176
			c0.002,1.796,0.075,4.098-1.165,5.57c-1.385,1.644-3.938,2.353-5.855,3.074c-3.673,1.381-7.305,2.764-10.896,4.346
			c-2.264,0.998-4.535,1.94-7.043,1.946c-3.083,0.008-6.047-0.995-9.145-0.981c-8.383,0.037-16.769,0.223-25.152,0.335
			c-7.171,0.096-14.32,0.135-21.491,0.069c-1.59-0.015-3.181-0.029-4.771-0.044"/>
	</g>
	<g id="POLYLINE_197_">
		
			<path fill="none" stroke="#FF6B6B" stroke-width="2.75" stroke-linecap="round" stroke-linejoin="round" stroke-miterlimit="10" d="
			M200.842,346.561c3.487,0.877,6.956,1.929,10.362,3.081c0.182,0.062,2.146,0.608,1.972,0.974
			c-0.085,0.179-0.981,0.155-1.107,0.166c-0.653,0.058-1.308,0.113-1.952,0.24c-2.568,0.508-4.28,2.467-4.658,5.033
			c-0.297,2.019,0.153,4.119,0.892,5.994c0.576,1.462,1.368,2.846,2.371,4.058c0.441,0.533,0.925,1.019,1.438,1.481
			c0.351,0.316,0.895,0.663,1.142,1.087c0.697,1.197-3.018,0.786-3.386,0.767c-3.253-0.169-6.644-0.499-9.761-1.488
			c-2.53-0.803-4.396-2.317-6.499-3.885c-1.476-1.101-3.073-2.019-3.993-3.67c-0.972-1.744-1.196-3.876-1.178-5.836
			c0.03-3.212,0.829-6.425,2.355-9.253c1.529-2.833,3.719-5.343,6.292-7.275c2.527-1.898,5.402-2.713,8.274-3.925
			c6.167-2.602,10.124-8.354,15.704-11.82c4.961-3.082,10.719-1.973,16.107-0.775c3.731,0.83,7.447,1.753,11.25,2.188
			c3.546,0.405,7.118,0.462,10.672,0.77c1.824,0.158,3.641,0.372,5.46,0.581"/>
	</g>
	<g id="POLYLINE_196_">
		
			<path fill="none" stroke="#FF6B6B" stroke-width="2.75" stroke-linecap="round" stroke-linejoin="round" stroke-miterlimit="10" d="
			M213.129,350.64c4.197,0.382,8.285,1.193,12.383,2.165c1.877,0.445,3.741,1.156,5.63,1.517c0.577,0.111,1.072-0.018,1.595-0.279
			c1.418-0.71,2.672-1.828,3.891-2.826c1.624-1.33,3.228-2.685,4.843-4.025c3.263-2.707,6.523-5.366,9.259-8.626
			c2.602-3.101,4.907-6.383,7.811-9.222c1.398-1.367,2.849-2.684,4.032-4.25c0.716-0.948,1.4-2.155,2.451-2.787
			c0.83-0.499,1.841-0.5,2.766-0.666c1.319-0.236,2.533-0.851,3.846-1.1c1.034-0.196,1.847,0.117,2.835,0.403
			c1.361,0.394,2.798,0.424,4.203,0.521c3.283,0.225,6.362,1.076,9.209,2.78c1.006,0.602,2.392,1.627,2.195,2.984
			c-0.246,1.687-3.33,1.143-4.402,1.312c-2.337,0.369-4.127,2.088-6.356,2.763c-2.512,0.761-5.04-0.233-7.575-0.02
			c-2.09,0.175-3.134,2.075-3.997,3.763c-1.867,3.65-3.295,7.502-5.248,11.115c-1.995,3.689-4.433,7.054-7.158,10.235
			c-1.519,1.773-3.082,3.507-4.626,5.258c-1.115,1.264-2.084,2.683-3.276,3.874c-1.346,1.345-3.144,1.943-4.967,2.354
			c-4.024,0.906-8.226,1.092-12.332,1.323c-4.236,0.238-8.497,0.377-12.74,0.322c-1.999-0.026-3.983-0.171-5.969-0.388"/>
	</g>
	<g id="POLYLINE_195_">
		
			<path fill="none" stroke="#FF6B6B" stroke-width="2.75" stroke-linecap="round" stroke-linejoin="round" stroke-miterlimit="10" d="
			M289.907,327.72c2.39,0.108,4.78,0.212,7.173,0.255c2.249,0.04,4.569-0.123,6.806,0.176c1.568,0.21,2.414,0.833,2.289,2.468
			c-0.153,1.993-0.587,3.993-0.842,5.98c-0.327,2.552-0.644,5.106-1.008,7.653c-0.644,4.497-1.159,8.94-0.843,13.49
			c0.158,2.272,0.429,4.543,0.47,6.821c0.02,1.093,0.045,2.32-0.367,3.36c-0.619,1.564-2.308,1.5-3.753,1.437
			c-4.69-0.205-9.361-0.604-14.057-0.703c-5.519-0.116-11.037-0.145-16.556-0.186c-4.467-0.034-8.934,0.001-13.402,0.019
			c-4.975,0.019-9.949,0.018-14.924,0.109c-1.199,0.022-2.398,0.044-3.598,0.066"/>
	</g>
	<g id="POLYLINE_194_">
		
			<path fill="none" stroke="#FF6B6B" stroke-width="2.75" stroke-linecap="round" stroke-linejoin="round" stroke-miterlimit="10" d="
			M155.143,349.364c-2.47,1.143-4.323,4.831-1.678,6.867c1.183,0.91,2.835,0.79,4.19,0.397c2.163-0.627,4.582-1.984,6.134-3.625
			c1.035-1.095,1.082-2.414,0.63-3.799"/>
	</g>
	<g id="POLYLINE_193_">
		
			<path fill="none" stroke="#FF6B6B" stroke-width="2.75" stroke-linecap="round" stroke-linejoin="round" stroke-miterlimit="10" d="
			M155.143,349.364c1.021-0.681,1.636-1.894,1.286-3.105c-0.581-2.01-2.634-2.747-4.135-3.922c-0.874-0.684-1.53-1.543-2.076-2.503
			c-0.576-1.012-0.968-2.225-1.806-3.068c-1.382-1.389-3.287-0.859-4.947-1.492c-1.303-0.497-2.322-2.245-2.704-3.508
			c-0.208-0.687-0.157-1.368-0.029-2.065c0.107-0.585,0.472-1.447-0.027-1.962c-1.19-1.227-3.634-0.206-4.621,0.721
			c-1.158,1.088-1.961,2.531-2.824,3.846c-1.023,1.558-2.314,2.894-3.357,4.43c-1.334,1.964-1.745,4.372-1.817,6.707
			c-0.041,1.334,0.019,2.712,0.385,4.003c0.249,0.878,0.78,1.698,0.89,2.609c0.052,0.434-0.017,0.875-0.084,1.303"/>
	</g>
	<g id="POLYLINE_192_">
		
			<path fill="none" stroke="#FF6B6B" stroke-width="2.75" stroke-linecap="round" stroke-linejoin="round" stroke-miterlimit="10" d="
			M129.275,351.358c-0.776,0.17-0.943,1.509-1.24,2.07c-0.336,0.635-0.818,0.986-0.825,1.737c-0.011,1.167,0.127,1.759-0.244,2.881
			c-0.264,0.798-0.286,1.614-0.038,2.423c0.285,0.929,1.027,1.515,1.436,2.365c0.34,0.707,0.058,1.473,0.172,2.223
			c0.114,0.753,0.458,1.611,1.103,2.061c0.719,0.502,1.681,0.494,2.451,0.929c1.103,0.623,1.988,1.114,3.287,1.2
			c1.658,0.11,3.158-0.354,4.736-0.792c1.351-0.375,2.392-0.249,3.751-0.013c0.988,0.171,2.044,0.185,2.973-0.251
			c1.433-0.672,0.896-2.09-0.125-2.891c-2.258-1.77-5.676-1.594-7.756-3.677c-0.833-0.834-1.005-1.979-1.339-3.062
			c-0.319-1.035-0.893-1.964-1.685-2.705c-0.739-0.691-1.69-1.033-2.501-1.621c-1.153-0.836-2.098-2.092-3.403-2.708
			C129.788,351.414,129.544,351.318,129.275,351.358z"/>
	</g>
	<g id="POLYLINE_191_">
		
			<path fill="none" stroke="#FF6B6B" stroke-width="2.75" stroke-linecap="round" stroke-linejoin="round" stroke-miterlimit="10" d="
			M147.025,368.097c1.528,0.451,3.004,0.827,4.606,0.802c2.381-0.036,4.74-0.495,7.113-0.66c3.483-0.243,7.706,0.467,10.915-1.237
			c1.307-0.694,2.047-1.875,2.949-3.001c0.717-0.896,1.841-1.523,2.427-2.503c1.18-1.974-2.198-2.978-3.399-3.372
			c-1.579-0.518-2.776-1.376-4.186-2.242c-1.158-0.712-2.435-1.145-3.759-1.432c-0.453-0.098-0.911-0.179-1.369-0.248"/>
	</g>
	<g id="POLYLINE_190_">
		
			<path fill="none" stroke="#FF6B6B" stroke-width="2.75" stroke-linecap="round" stroke-linejoin="round" stroke-miterlimit="10" d="
			M140.944,328.206c2.123-0.664,4.301-1.149,6.463-1.667c1.637-0.392,3.264-0.728,4.956-0.658c2.784,0.116,5.145,0.735,7.758-0.442
			c1.584-0.714,3.3-1.663,5.029-1.956c0.471-0.08,0.839,0.007,1.199,0.333c0.45,0.407,0.72,1.021,0.839,1.606
			c0.132,0.65-0.023,1.458,0.382,2.026c0.964,1.353,3.628,0.228,4.949,0.407c0.71,0.096,1.485,0.364,1.995,0.889
			c0.432,0.445,0.506,1.124,1.085,1.424c1.413,0.733,3.34-0.118,4.646,0.959c1.188,0.979,1.36,2.872,1.182,4.283
			c-0.18,1.424-1.325,3.885-0.189,5.229c0.407,0.481,1.021,0.662,1.623,0.752c1.711,0.255,3.491,0.03,5.216,0.108
			c1.071,0.048,2.14,0.137,3.209,0.213"/>
	</g>
	<g id="POLYLINE_189_">
		
			<path fill="none" stroke="#FF6B6B" stroke-width="2.75" stroke-linecap="round" stroke-linejoin="round" stroke-miterlimit="10" d="
			M175.219,360.481c3.176-0.753,6.165-0.272,9.341,0.392c1.367,0.286,2.73,0.589,4.098,0.868"/>
	</g>
	<g id="POLYLINE_188_">
		
			<path fill="none" stroke="#FF6B6B" stroke-width="2.75" stroke-linecap="round" stroke-linejoin="round" stroke-miterlimit="10" d="
			M476.492,147.956c3.59,0.158,7.189-0.016,10.695-0.848c2.035-0.482,4.023-1.137,6.041-1.683c1.946-0.527,3.922-0.942,5.854-1.519
			c3.572-1.066,6.732-2.92,9.983-4.696c1.108-0.605,2.667-1.583,3.913-0.774c0.617,0.401,1.043,1.09,1.416,1.705
			c0.757,1.248,1.67,2.57,2.153,3.965c0.627,1.813-0.282,3.625-1.211,5.156c-3.397,5.601-9.006,9.736-15.606,10.261
			c-3.705,0.294-7.439-0.007-11.149,0.023c-5.155,0.041-10.311,0.084-15.466,0.126c-0.473,0.004-0.945,0.008-1.418,0.012"/>
	</g>
	<g id="POLYLINE_187_">
		
			<path fill="none" stroke="#FF6B6B" stroke-width="2.75" stroke-linecap="round" stroke-linejoin="round" stroke-miterlimit="10" d="
			M309.491,157.715c0.256,0.903,2.513,1.021,3.165,1.11c2.784,0.384,5.615,0.476,8.421,0.567c3.447,0.113,6.896,0.184,10.345,0.187
			c4.163,0.003,8.326,0.006,12.489,0.009c6.973,0.005,13.945,0.01,20.918,0.015c8.633,0.006,17.266,0.013,25.898,0.019
			c9.035,0.007,18.071,0.013,27.106,0.02c8.276,0.006,16.553,0.012,24.829,0.018c6.344,0.005,12.689,0.009,19.033,0.014
			c3.174,0.002,6.355,0.066,9.528,0.007c0.097-0.002,0.387,0.055,0.473,0c0.369-0.234,0.691-1.516,0.874-1.923
			c0.278-0.619,0.553-1.239,0.823-1.861c1.039-2.394,2.183-4.872,2.952-7.366c0.2-0.65,0.368-1.408-0.288-1.842
			c-1.114-0.736-3.138-0.447-4.348-0.473c-5.63-0.124-11.237-0.798-16.836-1.347c-6.173-0.606-12.361-1.133-18.521-1.862
			c-5.818-0.689-11.72-1.37-17.347-3.071c-2.484-0.751-4.864-1.759-7.212-2.855c-2.52-1.177-5.061-2.531-7.829-3.015
			c-4.269-0.746-8.111,1.513-12.269,1.981c-2.357,0.265-4.754,0.054-7.113-0.092c-3.531-0.219-7.063-0.419-10.592-0.656
			c-6.435-0.431-12.866-0.927-19.299-1.391c-5.329-0.384-10.684-0.763-16.029-0.522c-5.726,0.259-11.264,0.752-16.91-0.559
			c-2.393-0.556-4.725-1.327-7.019-2.2"/>
	</g>
	<g id="POLYLINE_186_">
		
			<path fill="none" stroke="#FF6B6B" stroke-width="2.75" stroke-linecap="round" stroke-linejoin="round" stroke-miterlimit="10" d="
			M107.395,144.374c-1.408,0.299-2.757,0.447-4.188,0.238c-1.531-0.224-3.136-1.102-4.708-0.848c-2.49,0.403-4.117,3.583-4.59,5.783
			c-0.465,2.166,0.125,4.365,1.403,6.157c1.569,2.202,3.872,3.397,6.52,3.729c1.664,0.208,3.609,0.341,5.235-0.193
			c1.064-0.349,1.654-1.115,2.232-2.027c0.434-0.685,0.866-1.372,1.299-2.058"/>
	</g>
	<g id="POLYLINE_185_">
		
			<path fill="none" stroke="#FF6B6B" stroke-width="2.75" stroke-linecap="round" stroke-linejoin="round" stroke-miterlimit="10" d="
			M197.751,141.66c-4.239,0.574-8.502,0.925-12.774,1.121c-4.168,0.191-8.303,0.125-12.421-0.597
			c-4.384-0.768-8.696-1.93-13.046-2.863c-4.572-0.98-9.182-1.803-13.789-2.598c-4.337-0.749-8.693-1.469-13.058-2.037
			c-2.851-0.371-5.201-0.383-7.789,0.936c-1.766,0.9-3.421,1.999-5.199,2.878c-1.934,0.956-3.943,1.718-5.962,2.471
			c-2.347,0.875-5.256,1.772-6.754,3.953c-0.762,1.109-1.059,2.476-1.001,3.807c0.054,1.236,0.41,2.457,1.037,3.523
			c0.869,1.479,2.368,2.881,4.16,2.975c0.786,0.041,1.559-0.191,2.29-0.453c1.656-0.594,3.217-1.283,4.958-1.601
			c4.083-0.746,8.262-0.374,12.359-1.05c3.831-0.632,7.446,0.005,11.151,1.052c4.196,1.187,8.347,2.511,12.605,3.47
			c4.211,0.949,8.463,1.619,12.76,2.033c4.418,0.426,8.855,0.647,13.29,0.779c2.999,0.089,6.002,0.144,9.002,0.146
			c2.608,0.002,5.216,0.004,7.824,0.006c4.78,0.004,9.56,0.008,14.34,0.012c6.169,0.005,12.339,0.01,18.508,0.015
			c6.803,0.006,13.606,0.011,20.409,0.017c6.578,0.005,13.157,0.011,19.735,0.016c5.597,0.005,11.194,0.009,16.791,0.014
			c3.827,0.003,7.654,0.006,11.48,0.009c1.619,0.001,3.24,0.022,4.859-0.013c1.55-0.033,4.957,0.204,5.792-1.61
			c0.73-1.585,0.077-4.265-0.706-5.713c-1.936-3.582-4.13-7.182-5.586-10.993c-1.458-3.814-2.178-7.949-2.392-12.017
			c-0.064-1.222,0.283-4.479-1.431-4.989c-0.789-0.235-1.764,0.034-2.533,0.19c-1.908,0.387-3.784,0.748-5.729,0.896
			c-4.272,0.325-8.597,0.113-12.856-0.295c-4.36-0.417-8.663-1.153-12.966-1.953c-4.313-0.802-8.616-1.674-13.015-1.802
			c-4.117-0.12-8.223,0.112-12.29-0.676c-3.921-0.759-7.836-2.14-11.87-2.119c-3.232,0.017-6.355,1.08-9.209,2.533
			c-4.207,2.141-7.926,5.304-11.711,8.084c-3.287,2.414-6.669,4.668-10.182,6.742c-3.484,2.057-7.006,3.864-9.92,6.716"/>
	</g>
	<g id="POLYLINE_184_">
		
			<path fill="none" stroke="#FF6B6B" stroke-width="2.75" stroke-linecap="round" stroke-linejoin="round" stroke-miterlimit="10" d="
			M131.418,152.018c0.636,1.317,1.502,2.466,2.786,3.204c2.289,1.315,5.14,1.759,7.671,2.38c6.387,1.567,12.981,1.814,19.532,1.798
			c4.007-0.01,8.009-0.109,12.013-0.247"/>
	</g>
	<g id="POLYLINE_183_">
		
			<path fill="none" stroke="#FF6B6B" stroke-width="2.75" stroke-linecap="round" stroke-linejoin="round" stroke-miterlimit="10" d="
			M142.67,124.647c1.9-0.863,3.766-1.296,5.809-1.68c1.183-0.222,2.362-0.765,3.565-0.824c0.874-0.043,1.706,0.306,2.587,0.234
			c1.436-0.117,2.917-0.232,4.348-0.396c2.336-0.268,4.111-2.322,6.418-2.475c0.527-0.035,1.028,0.103,1.369,0.529
			c0.348,0.434,0.379,1.562,0.961,1.704c0.566,0.138,1.276-0.667,1.858-0.77c0.661-0.117,1.013,0.361,1.618,0.494
			c0.607,0.133,1.072-0.338,1.654-0.39c0.63-0.057,1.083,0.436,1.601,0.715c1.902,1.028,4.343,0.069,6.157,1.276
			c1.288,0.856,1.516,2.504,1.371,3.93c-0.168,1.645-0.76,3.213-1.113,4.82c-0.201,0.916-0.366,1.918-0.046,2.828
			c0.26,0.739,0.827,1.316,1.42,1.804c1.364,1.122,2.986,2.025,4.558,2.82c0.866,0.438,1.757,0.822,2.665,1.165"/>
	</g>
	<g id="POLYLINE_182_">
		
			<path fill="none" stroke="#FF6B6B" stroke-width="2.75" stroke-linecap="round" stroke-linejoin="round" stroke-miterlimit="10" d="
			M128.963,134.402c1.518-2.973,3.432-5.158,6.294-6.885c1.736-1.048,3.628-1.908,5.526-2.615c0.335-0.125,1.818-0.842,1.876-0.153
			c0.027,0.328-0.579,0.994-0.72,1.204c-0.283,0.421-0.569,0.848-0.757,1.322c-0.207,0.521-0.285,1.061-0.166,1.611
			c0.543,2.523,2.938,2.9,5.057,3.252c2.247,0.373,3.174,2.105,4.289,3.928c0.338,0.552,0.676,1.105,1.013,1.657"/>
	</g>
	<g id="POLYLINE_181_">
		
			<path fill="none" stroke="#FF6B6B" stroke-width="2.75" stroke-linecap="round" stroke-linejoin="round" stroke-miterlimit="10" d="
			M345.144,133.362c0.772-3.197,1.633-6.371,2.443-9.558c0.718-2.823,1.268-5.682,1.957-8.511c0.585-2.401,1.34-4.758,2.653-6.867
			c0.742-1.192,1.617-2.29,2.511-3.369c0.805-0.971,1.553-2.091,2.48-2.955c1.106-1.031,1.421,1.275,1.728,2.006
			c0.962,2.291,2.566,4.308,4.18,6.172c1.806,2.085,3.78,4.047,5.924,5.785c2.382,1.931,5.026,3.505,7.41,5.433
			c4.705,3.803,8.89,8.381,12.813,12.969c0.471,0.551,0.932,1.11,1.395,1.667"/>
	</g>
	<g id="POLYLINE_180_">
		
			<path fill="none" stroke="#FF6B6B" stroke-width="2.75" stroke-linecap="round" stroke-linejoin="round" stroke-miterlimit="10" d="
			M300.558,128.04c4.082-0.181,7.1-1.792,9.848-4.772c4.077-4.422,6.963-9.926,10.022-15.059c2.992-5.021,6.098-9.938,9.592-14.63
			c3.751-5.037,7.433-10.198,11.704-14.814c2.604-2.814,5.513-5.319,9.406-5.934c4.728-0.747,9.581,0.763,13.544,3.307
			c2.609,1.675,4.893,3.808,6.749,6.29c1.898,2.539,3.444,5.334,5.128,8.014c2.939,4.677,6.373,9.026,9.764,13.378
			c3.976,5.105,7.962,10.195,11.833,15.379c3.869,5.181,7.589,10.551,11.961,15.329c0.992,1.084,2.018,2.134,3.044,3.185"/>
	</g>
</g>
<g id="AG-OUTLINE">
	<g id="POLYLINE_179_">
		
			<path fill="none" stroke="#FF6B6B" stroke-width="3.5" stroke-linecap="round" stroke-linejoin="round" stroke-miterlimit="10" d="
			M1277.182,273.939c-3.035-0.453-6.142-0.752-9.125-1.494c-1.036-0.258-2.002-0.628-2.979-1.057
			c-0.496-0.218-1.061-0.531-1.62-0.543c-2.563-0.057-2.007,5.085-1.925,6.399c0.226,3.587,0.631,7.166,0.964,10.744
			c4.119-3.977,8.262-7.928,12.397-11.889C1275.652,275.373,1276.418,274.657,1277.182,273.939z"/>
	</g>
	<g id="POLYLINE_178_">
		
			<path fill="none" stroke="#FF6B6B" stroke-width="3.5" stroke-linecap="round" stroke-linejoin="round" stroke-miterlimit="10" d="
			M1360.374,346.803c1.673,1.348,3.42,2.606,5.281,3.683c2.013,1.165,4.163,1.925,6.321,2.769c4.229,1.654,8.047,4.211,12.333,5.734
			c2.039,0.725,4.152,1.049,6.283,1.372c1.361,0.206,2.758,0.419,4.013,1.016c1.162,0.553,2.375,1.505,2.576,2.858
			c0.255,1.718-1.08,3.175-2.573,3.787c-1.426,0.585-3.02,0.712-4.538,0.846c-2.36,0.209-4.727,0.358-7.094,0.444
			c-5.005,0.181-9.989-0.019-14.989-0.237c-4.782-0.208-9.576-0.471-14.362-0.207c-2.57,0.142-5.15,0.368-7.725,0.366
			c-1.252-0.001-2.598-0.022-3.79-0.465c-1.928-0.716-2.474-2.667-2.036-4.56c0.124-0.537,0.321-1.059,0.593-1.539
			c-1.072,0.387-2.404,0.748-3.434,0.067c-0.796-0.527-1.281-1.486-1.738-2.287c-1.035-1.811-1.997-3.663-3.022-5.48
			c-4.344-7.698-8.903-15.288-13.625-22.76c-4.645-7.349-9.844-14.363-14.285-21.838c-1.056-1.777-1.905-3.638-2.819-5.489
			c-0.409-0.828-0.852-1.605-1.49-2.277c-0.746-0.785-1.453-1.645-2.208-2.413c-0.354-0.36-0.669-0.564-1.16-0.35
			c-1.025,0.446-1.917,1.943-2.593,2.735c-1.457,1.708-2.939,3.398-4.348,5.146c-2.413,2.993-4.594,6.171-6.756,9.347
			c-5.242,7.702-10.494,15.39-15.422,23.299c-0.246,0.394-0.471,0.673-0.53,1.113c-0.074,0.553,0.003,1.165-0.011,1.725
			c-0.025,1.046-0.083,2.092-0.187,3.133c-0.206,2.069-0.604,4.113-1.204,6.104c-1.091,3.621-2.778,7.14-5.094,10.142
			c-1.595,2.068-3.543,3.721-5.969,4.726c-3.407,1.411-7.246,1.8-10.894,2.053c-4.036,0.28-8.142,0.31-12.16-0.207
			c-1.095-0.141-2.183-0.326-3.268-0.532c-0.69-0.131-1.023-0.212-1.648-0.005c-1.478,0.489-3.084,0.628-4.627,0.747
			c-8.949,0.696-18.09-0.204-27.029-0.623c-8.35-0.392-16.689-0.712-25.051-0.562c-8.707,0.156-17.365,1.202-26.068,1.365
			c-4.146,0.077-8.291-0.065-12.416-0.501c-1.719-0.182-3.394-0.497-5.09-0.79c-1.996-0.346-3.953-0.647-5.879-1.312
			c-0.92-0.318-1.823-0.692-2.685-1.147c-0.133-0.07-0.451-0.332-0.593-0.33c-0.198,0.003-0.169,0.073-0.349,0.221
			c-0.239,0.197-0.44,0.46-0.667,0.673c-0.567,0.532-1.186,1.014-1.877,1.374c-2.251,1.173-4.725,0.589-7.14,0.492
			c-4.012-0.162-8.027,0.65-12.002,1.055c-4.38,0.446-8.756,0.277-13.149,0.17c-1.883-0.046-3.755-0.022-5.638,0.049
			c-1.707,0.065-3.46,0.217-5.162-0.01c-1.267-0.169-2.561-0.651-3.083-1.908c-0.675-1.628,0.315-3.535-0.575-5.114
			c-0.381-0.676-1.052-1.148-1.708-1.532c-1.576-0.922-3.349-1.449-4.982-2.257c-2.981-1.473-5.124-3.75-6.339-6.847
			c-1.241-3.164-2.024-6.887-1.464-10.286c0.366-2.218,0.974-4.454,1.509-6.638c0.495-2.024,1.09-4.028,1.917-5.943
			c1.505-3.49,3.668-6.691,6.053-9.636c2.355-2.908,4.973-5.774,8.066-7.915c1.643-1.138,3.452-2.01,5.464-2.172
			c1.153-0.093,2.328,0.015,3.46,0.247c0.485,0.099,1.716,0.243,1.903,0.832c2.946-1.124,6.276-1.595,9.422-1.215
			c0.665,0.08,1.322,0.225,1.93,0.514c0.651,0.309,1.162,0.831,1.798,1.158c1.379,0.707,3.269,0.112,4.643-0.25
			c1.285-0.339,3.531-1.556,4.94-0.921c1.258,0.566,0.687,2.263,0.64,3.267c-0.068,1.437,1.48,1.193,2.467,1.562
			c1.003,0.376,1.206,1.476,2.386,1.381c0.609-0.049,1.001-0.109,1.506,0.288c0.509,0.402,0.839,0.991,1.364,1.377
			c1.353,0.992,3.281,0.845,4.494,2.121c1.156,1.215,1.053,3.27,0.941,4.807c-0.05,0.694-0.147,1.385-0.29,2.066
			c1.969,0.399,3.826,0.934,5.74,1.527c0.88,0.273,1.705,0.243,2.619,0.173c0.405-0.031,0.809-0.064,1.216-0.068
			c0.692-0.007,0.67-0.067,1.037-0.686c0.34-0.572,0.717-1.141,0.98-1.755c0.197-0.46,0.269-0.945,0.407-1.423
			c0.235-0.815,0.635-1.58,0.971-2.355c1.415-3.255,0.969-6.797,0.948-10.271c-0.027-4.475-0.451-8.877-0.682-13.339
			c-0.126-2.424-0.881-4.804-2.279-6.821c-1.296-1.87-2.971-3.507-4.496-5.184c-1.346-1.481-2.516-3.092-3.812-4.612
			c-1.263-1.481-2.747-2.783-4.346-3.89c-1.773-1.227-3.72-1.974-5.663-2.875c-1.17-0.543-2.027-1.31-3.038-2.103
			c-1.332-1.045-2.905-1.687-4.361-2.531c-0.491-0.284-0.952-0.586-0.928-1.201c0.004-0.103,0.036-0.205,0.059-0.304
			c0.093-0.398,0.257-0.487,0-0.791c-0.484-0.572-1.344-0.977-1.899-1.515c-0.491-0.476-0.936-0.995-1.337-1.549
			c-0.545-0.755-1.685-0.874-2.55-1.166c-2.331-0.787-4.66-1.578-6.984-2.387c-1.138-0.396-2.277-0.792-3.415-1.188
			c0.433-1.231,0.866-2.463,1.299-3.694c0.393-1.118,1.055-1.637,1.911-2.49c0.262-0.261,0.743-0.574,0.718-0.889
			c-0.011-0.135-0.213-0.373-0.275-0.5c-0.165-0.338-0.296-0.692-0.397-1.053c-0.385-1.373-0.359-2.808,0.672-3.889
			c1.337-1.4,3.447-2.134,5.312-2.438c1.949-0.318,4.144-0.167,5.899,0.812c0.994,0.554,1.916,1.581,0.978,2.608
			c-0.099,0.108-0.235,0.198-0.358,0.275c6.245,1.925,12.469,3.93,18.756,5.712c1.987,0.563,3.973,1.126,5.96,1.689
			c-0.15-0.665,0.418-1.263,0.957-1.566c0.913-0.514,1.857-0.129,2.787,0.137c0.777,0.223,1.444,0.374,2.138-0.122
			c0.423-0.303,0.743-0.729,1.165-1.034c0.512-0.369,1.114-0.568,1.688-0.817c2.244-0.972,3.507-3.579,6.076-3.883
			c2.974-0.351,6.072,1.879,8.126,3.727c1.807,1.627,3.146,3.585,4.409,5.644c0.719,1.171,1.429,2.343,2.236,3.457
			c0.422,0.583,0.859,1.156,1.288,1.733c0.355,0.477,0.395,0.704,0.907,0.752c0.857,0.08,1.449,0.004,2.095,0.692
			c1.226,1.306,1.949,3.242,2.747,4.819c1.224,2.416,2.418,4.851,3.783,7.192c1.446,2.477,3.075,4.844,4.614,7.263
			c2.815,4.424,5.258,9.072,7.66,13.728c1.192,2.31,2.542,4.611,3.539,7.017c0.445,1.075,0.65,2.143,0.448,3.298
			c-0.345,1.967-1.292,3.864-2.15,5.648c-1.078,2.241-2.286,4.425-3.662,6.497c-0.696,1.047-1.434,2.061-2.19,3.065
			c3.229,0.979,6.603,1.158,9.948,1.39c3.151,0.219,6.29,0.923,9.449,0.909c2.915-0.013,5.901-0.613,8.8-0.135
			c2.728,0.45,5.289,0.483,8.046,0.132c1.987-0.253,4.474-1.017,6.486-0.417c0.464,0.138,0.669,0.435,1.047,0.656
			c0.055,0.032,0.099,0.203,0.153,0.214c0.189,0.041,0.792-0.42,0.963-0.522c0.642-0.381,1.256-0.812,1.833-1.286
			c1.258-1.035,2.371-2.288,3.036-3.789c0.933-2.107,1.116-4.514,1.481-6.766c1.159-7.145,2.333-14.288,3.167-21.479
			c0.907-7.818,1.62-15.66,2.406-23.491c0.582-5.797,0.93-12.033,3.156-17.476c1.696-4.146,5.041-8.52,9.195-10.445
			c1.652-0.766,3.452-0.977,5.258-0.969c3.126,0.014,6.262,0.499,9.338,1.019c6.41,1.083,12.727,2.588,19.054,4.065
			c7.552,1.762,15.087,3.612,22.676,5.208c6.16,1.296,12.526,2.442,18.844,2.046c3.251-0.204,6.334-0.998,9.517-1.614
			c1.454-0.281,3.17-0.57,4.511,0.254c0.679,0.417,1.172,1.063,1.534,1.763c0.04,0.077,0.157,0.455,0.227,0.486
			c0.164,0.071,0.832-0.301,1.04-0.378c0.804-0.297,1.604-0.604,2.4-0.923c3.329-1.334,6.578-2.84,9.834-4.341
			c2.847-1.312,5.708-2.637,8.413-4.227c1.291-0.759,2.551-1.584,3.7-2.546c1.191-0.997,2.19-2.195,3.361-3.211
			c1.91-1.657,4.318-1.564,6.041,0.362c2.493,2.786,1.304,7.488-0.062,10.501c-1.221,2.694-3.059,5.024-4.891,7.322
			c-1.938,2.429-4.029,4.703-6.332,6.792c-2.602,2.36-5.341,4.568-7.912,6.963c-2.286,2.13-4.1,4.474-6.004,6.937
			c-1.603,2.073-4.713,5.238-7.705,4.672c-1.256-0.237-2.075-1.365-2.744-2.359c-0.907,2.362-1.995,4.634-3.511,6.67
			c-0.381,0.512-1.254,1.223-1.451,1.816c-0.151,0.457,0.637,1.091,0.984,1.517c0.931,1.144,1.85,2.297,2.741,3.473
			c3.295,4.35,6.161,8.986,8.734,13.795c2.971,5.551,5.75,11.292,9.173,16.587c3.176,4.914,7.367,8.991,10.884,13.64
			c0.74,0.978,2.113,2.497,2.059,3.846c-0.015,0.366-0.177,0.677-0.346,0.993c-0.711,1.331-1.494,2.638-2.276,3.929
			C1361.08,345.698,1360.731,346.253,1360.374,346.803z"/>
	</g>
	<g id="POLYLINE_177_">
		
			<path fill="none" stroke="#FF6B6B" stroke-width="3.5" stroke-linecap="round" stroke-linejoin="round" stroke-miterlimit="10" d="
			M390.64,136.133c-3.896-4.679-8.038-9.244-12.608-13.278c-2.257-1.992-4.743-3.623-7.174-5.386c-2.318-1.681-4.439-3.6-6.4-5.685
			c-1.809-1.923-3.574-3.991-4.868-6.303c-0.545-0.973-0.866-2.004-1.298-3.026c-0.141-0.334-0.262-0.741-0.68-0.671
			c-0.387,0.065-0.802,0.741-1.023,1.007c-1.055,1.266-2.136,2.517-3.134,3.829c-1.546,2.031-2.639,4.211-3.369,6.654
			c-0.866,2.9-1.371,5.898-2.079,8.839c-0.765,3.178-1.637,6.329-2.437,9.498c-0.147,0.583-0.285,1.168-0.426,1.752
			c5.914,0.22,11.815,0.715,17.716,1.139c6.15,0.442,12.298,0.872,18.452,1.253C384.399,135.944,387.544,136.285,390.64,136.133z"/>
	</g>
	<g id="POLYLINE_176_">
		
			<path fill="none" stroke="#FF6B6B" stroke-width="3.5" stroke-linecap="round" stroke-linejoin="round" stroke-miterlimit="10" d="
			M476.492,147.956c4.245,0.187,8.383-0.174,12.484-1.313c2.258-0.627,4.498-1.293,6.773-1.859c2.161-0.537,4.317-1.085,6.371-1.96
			c1.994-0.849,3.883-1.912,5.774-2.964c1.144-0.637,2.438-1.57,3.782-1.716c1.64-0.178,2.477,1.568,3.164,2.764
			c0.714,1.243,1.781,2.639,1.919,4.127c0.08,0.868-0.182,1.732-0.521,2.52c-1.548,3.595-4.591,6.752-7.781,8.948
			c-2.848,1.962-5.958,2.863-9.395,3.063c-4.213,0.245-8.457-0.038-12.677-0.004c-4.91,0.04-9.821,0.104-14.732,0.119
			c-1.649,0.005-3.298-0.002-4.946-0.004c-3.972-0.003-7.944-0.006-11.915-0.009c-5.65-0.004-11.299-0.008-16.949-0.012
			c-6.767-0.005-13.534-0.01-20.301-0.015c-7.214-0.005-14.428-0.011-21.642-0.016c-7.114-0.005-14.229-0.01-21.343-0.016
			c-6.368-0.005-12.735-0.009-19.103-0.014c-4.987-0.004-9.975-0.007-14.962-0.011c-3.04-0.002-6.08-0.004-9.12-0.007
			c-2.46-0.002-4.918-0.059-7.378-0.106c-4.192-0.08-8.653,0.017-12.766-0.893c-0.537-0.119-1.528-0.275-1.763-0.871
			c-0.7,2.455-5.254,1.984-7.058,1.992c-3.301,0.015-6.602-0.005-9.903-0.008c-7.253-0.006-14.506-0.012-21.759-0.017
			c-9.135-0.007-18.269-0.015-27.404-0.022c-8.944-0.007-17.887-0.014-26.831-0.021c-6.697-0.005-13.394-0.011-20.091-0.016
			c-2.813-0.002-5.627,0.01-8.44-0.021c-6.103-0.066-12.202-0.473-18.3-0.319c-6.121,0.154-12.269,0.264-18.38-0.198
			c-2.865-0.217-5.707-0.622-8.508-1.262c-2.594-0.593-5.392-1.112-7.829-2.212c-1.09-0.492-2.016-1.184-2.716-2.163
			c-0.183-0.256-0.348-0.523-0.502-0.798c-0.066-0.117-0.123-0.312-0.216-0.407c-0.298-0.305-0.535-0.149-1.029-0.067
			c-1.281,0.213-2.563,0.37-3.861,0.425c-2.846,0.121-5.714,0.08-8.521,0.636c-2.022,0.4-3.819,1.463-5.818,1.89
			c-0.456,0.097-0.877,0.071-1.333,0.093c-0.493,0.024-0.421,0.03-0.747,0.547c-0.408,0.647-0.799,1.309-1.23,1.942
			c-0.648,0.951-1.453,1.485-2.591,1.704c-2.909,0.561-6.555,0.177-9.014-1.602c-2.123-1.536-3.662-4.115-3.641-6.774
			c0.02-2.52,1.436-5.597,3.686-6.878c0.937-0.533,1.925-0.482,2.948-0.223c1.683,0.426,3.295,0.911,5.049,0.768
			c0.911-0.074,1.741-0.157,2.417-0.766c0.528-0.475,1.13-0.864,1.751-1.206c2.569-1.417,5.466-2.17,8.152-3.333
			c2.551-1.105,4.839-2.636,7.32-3.866c0.715-0.354,1.455-0.667,2.228-0.868c0.253-0.066,0.509-0.121,0.768-0.161
			c0.571-0.09,0.819,0.02,1.118-0.504c0.984-1.72,1.992-3.383,3.523-4.675c1.818-1.534,3.948-2.64,6.109-3.601
			c0.397-0.176,3.521-1.832,3.86-1.085c-0.012-0.211,2.349-0.927,2.648-1.012c0.983-0.282,1.998-0.438,3.002-0.625
			c1.22-0.226,2.435-0.77,3.672-0.85c0.863-0.056,1.688,0.294,2.556,0.237c1.4-0.092,2.831-0.257,4.231-0.383
			c2.378-0.215,4.109-2.132,6.408-2.47c0.51-0.075,1.047-0.023,1.44,0.347c0.474,0.446,0.428,1.517,0.963,1.807
			c0.506,0.274,1.272-0.487,1.747-0.643c0.725-0.237,1.011,0.109,1.673,0.349c0.641,0.233,1.002-0.12,1.632-0.269
			c0.475-0.112,0.78,0.018,1.187,0.266c0.846,0.513,1.599,0.843,2.593,0.933c1.228,0.111,2.615-0.015,3.77,0.51
			c1.373,0.625,1.856,2.091,1.834,3.508c-0.041,2.566-1.629,5.009-1.357,7.574c0.239,2.258,2.892,3.525,4.603,4.518
			c0.795,0.461,1.607,0.892,2.444,1.273c0.439,0.2,0.888,0.418,1.347,0.57c0.56,0.185,0.753-0.103,1.235-0.428
			c1.933-1.302,4-2.411,6.013-3.58c3.377-1.962,6.655-4.084,9.809-6.388c3.734-2.728,7.365-5.806,11.399-8.094
			c2.887-1.637,6.093-2.913,9.432-3.144c3.966-0.274,7.923,1.005,11.747,1.852c4.022,0.891,8.039,0.839,12.136,0.881
			c3.909,0.04,7.73,0.609,11.565,1.322c4.502,0.837,8.997,1.719,13.55,2.233c4.313,0.487,8.67,0.782,13.011,0.626
			c1.925-0.069,3.851-0.228,5.743-0.597c1.264-0.247,2.621-0.714,3.928-0.668c0.594,0.021,1.079,0.201,1.394,0.731
			c0.505,0.85,0.214,1.85,0.514,2.722c0.124,0.36-0.001,0.272,0.446,0.275c0.237,0.002,0.481-0.032,0.716-0.054
			c0.351-0.033,0.701-0.075,1.05-0.132c0.719-0.116,1.429-0.29,2.115-0.538c0.96-0.348,1.854-0.847,2.683-1.441
			c2.947-2.114,5.128-5.199,7.108-8.186c2.596-3.916,4.912-8.02,7.316-12.055c2.115-3.548,4.389-6.992,6.803-10.343
			c2.576-3.576,5.237-7.108,7.963-10.571c2.45-3.113,4.964-6.343,8.03-8.882c1.899-1.572,4.052-2.646,6.5-3.007
			c3.117-0.46,6.362,0.061,9.279,1.205c4.063,1.593,7.691,4.373,10.393,7.789c2.684,3.393,4.644,7.305,7.074,10.875
			c2.166,3.182,4.488,6.252,6.853,9.288c3.27,4.198,6.576,8.372,9.812,12.596c2.927,3.821,5.764,7.713,8.643,11.569
			c2.342,3.136,4.74,6.217,7.415,9.08c0.737,0.789,1.505,1.83,2.372,2.461c0.744,0.542,1.867,0.835,2.728,1.17
			c1.864,0.723,3.773,1.314,5.716,1.786c4.006,0.973,8.109,1.588,12.201,2.072c4.31,0.51,8.628,0.925,12.946,1.358
			c4.802,0.482,9.601,0.987,14.405,1.445c4.268,0.407,8.517,0.548,12.793,0.772C475.01,146.333,476.788,146.395,476.492,147.956z"/>
	</g>
	<g id="POLYLINE_175_">
		
			<path fill="none" stroke="#FF6B6B" stroke-width="3.5" stroke-linecap="round" stroke-linejoin="round" stroke-miterlimit="10" d="
			M496.717,343.213c2.281-1.993,5.131-4.284,8.27-4.624c2.139-0.232,2.241,1.879,2.262,3.531c0.031,2.419-0.177,4.833-0.111,7.254
			c0.067,2.46,0.277,4.955,0.055,7.412c-0.095,1.049-0.269,2.157-0.893,3.036c-0.68,0.959-1.798,1.517-2.834,2
			c-2.37,1.105-4.875,1.932-7.322,2.845c-2.288,0.854-4.515,1.817-6.748,2.802c-1.705,0.752-3.444,1.534-5.299,1.826
			c-1.727,0.272-3.474,0.089-5.185-0.212c-1.94-0.341-3.799-0.643-5.775-0.633c-1.682,0.008-3.364,0.045-5.046,0.068
			c-7.317,0.098-14.635,0.197-21.952,0.295c-3.91,0.053-7.82,0.147-11.731,0.112c-3.525-0.031-7.049-0.062-10.574-0.094
			c-0.593-0.005-1.182-0.059-1.741,0.08c-0.39,0.097-0.758,0.203-1.161,0.258c-4.648,0.635-9.538,0.293-14.204,0.033
			c-4.962-0.276-9.912-0.553-14.883-0.57c-5.807-0.021-11.617,0.011-17.424-0.062c-5.631-0.07-11.262-0.243-16.892-0.365
			c-3.937-0.085-7.871-0.081-11.808-0.046c-6.977,0.063-13.954,0.126-20.931,0.189c-4.353,0.039-8.71,0.097-13.063,0.001
			c-1.083-0.024-2.167-0.057-3.249-0.105c-0.851-0.038-1.701-0.077-2.552-0.116c-0.584-0.027-1.642-0.29-2.2-0.1
			c-0.392,0.133-0.648,0.795-1.133,1.042c-1.015,0.517-2.377,0.316-3.459,0.255c-2.53-0.144-5.057-0.349-7.588-0.472
			c-4.938-0.239-9.882-0.288-14.825-0.326c-4.939-0.038-9.877-0.081-14.816-0.062c-5.814,0.022-11.63,0-17.444,0.067
			c-2.701,0.031-5.441-0.031-8.132,0.225c-2.441,0.233-4.892,0.391-7.342,0.504c-5.099,0.234-10.278,0.505-15.374,0.093
			c-0.594-0.048-1.224-0.184-1.818-0.178c-0.368,0.004-0.307,0.053-0.589,0.126c-0.333,0.086-0.65,0.141-0.996,0.164
			c-2.239,0.146-4.56-0.154-6.777-0.44c-3.737-0.481-7.125-1.382-10.138-3.695c-1.02-0.783-2.046-1.542-3.09-2.293
			c-0.497-0.357-0.961-0.906-1.475-1.22c-0.394-0.241-0.983-0.261-1.453-0.362c-0.853-0.181-1.705-0.369-2.558-0.549
			c-1.107-0.234-2.221-0.443-3.34-0.611c-1.507-0.227-3.048-0.406-4.563-0.162c-0.397,0.064-0.95,0.099-1.306,0.278
			c-0.418,0.21-0.149,0.015-0.256,0.296c-0.089,0.233-0.043,0.472-0.178,0.722c-0.559,1.036-1.772,1.694-2.507,2.62
			c-0.956,1.204-1.739,2.406-3.168,3.082c-1.464,0.693-3.132,0.835-4.727,0.911c-2.43,0.116-4.858,0.073-7.281,0.315
			c-2.22,0.222-4.489,0.666-6.728,0.521c-0.686-0.045-1.363-0.161-2.031-0.325c-0.479-0.118-1.184-0.481-1.648-0.435
			c-0.143,0.014-0.357,0.161-0.496,0.208c-0.793,0.269-1.63,0.276-2.45,0.146c-1.363-0.215-2.412-0.425-3.771-0.06
			c-1.591,0.427-3.087,0.926-4.757,0.843c-1.308-0.065-2.236-0.52-3.341-1.161c-0.778-0.451-1.735-0.458-2.477-0.94
			c-0.66-0.43-1.013-1.268-1.144-2.018c-0.131-0.749,0.159-1.535-0.157-2.246c-0.377-0.849-1.14-1.434-1.439-2.34
			c-0.259-0.784-0.27-1.607-0.026-2.393c0.144-0.464,0.357-0.895,0.394-1.384c0.04-0.523-0.105-1.039-0.111-1.56
			c-0.008-0.764,0.443-1.089,0.796-1.732c0.257-0.468,0.367-1.004,0.619-1.474c0.156-0.291,0.453-0.417,0.603-0.637
			c0.48-0.707-0.021-1.953-0.306-2.658c-0.525-1.3-0.783-2.59-0.836-3.994c-0.101-2.685,0.242-5.627,1.767-7.911
			c1.21-1.813,2.696-3.41,3.89-5.248c0.816-1.256,1.65-2.675,2.897-3.563c0.793-0.564,4.075-1.495,4.302,0.21
			c2.243-0.701,4.547-1.208,6.83-1.755c1.64-0.393,3.267-0.657,4.958-0.549c1.61,0.103,3.242,0.457,4.86,0.29
			c1.261-0.131,2.378-0.687,3.513-1.214c0.964-0.447,1.954-0.805,2.957-1.151c0.416-0.144,0.871-0.359,1.321-0.378
			c0.529-0.021,0.913,0.253,1.229,0.663c0.403,0.524,0.572,1.149,0.641,1.796c0.075,0.698,0.014,1.457,0.682,1.874
			c0.59,0.368,1.385,0.258,2.035,0.192c1.159-0.117,2.328-0.316,3.452,0.104c1.381,0.516,1.48,2.057,2.943,2.289
			c1.645,0.262,3.532-0.149,4.493,1.52c1.194,2.075,0.323,4.304,0.003,6.477c-0.175,1.191-0.012,2.386,1.247,2.851
			c1.368,0.506,3.065,0.236,4.48,0.242c0.991,0.005,1.981,0.06,2.97,0.13c0.571,0.041,1.403,0.271,1.855-0.027
			c0.433-0.285,0.802-0.909,1.172-1.286c1.432-1.458,3.056-2.755,4.857-3.729c1.821-0.984,3.812-1.552,5.72-2.333
			c3.835-1.571,6.929-4.426,10.005-7.123c2.819-2.472,5.656-5.284,9.357-6.346c3.575-1.026,7.475-0.3,11.037,0.421
			c4.503,0.911,8.93,2.129,13.512,2.607c4.632,0.483,9.289,0.568,13.919,1.1c0.422,0.049,1.294,0.319,1.652,0.126
			c0.412-0.221,0.76-1.044,1.069-1.432c0.312-0.391,0.645-0.781,1.048-1.081c0.854-0.636,1.908-0.655,2.92-0.827
			c1.397-0.237,2.678-0.908,4.072-1.14c1.082-0.18,1.966,0.236,3,0.504c1.718,0.445,3.544,0.374,5.299,0.549
			c1.633,0.163,3.193,0.56,4.713,1.177c1.663,0.674,4.415,1.621,5.164,3.513c0.182,0.46,0.248,1.018-0.022,1.459
			c2.411,0.109,4.822,0.215,7.235,0.256c2.277,0.039,4.654-0.149,6.915,0.199c0.665,0.102,1.48,0.27,1.876,0.875
			c0.129,0.197,0.141,0.735,0.266,0.849c0.123,0.113,0.68,0.096,0.836,0.118c0.622,0.088,1.245,0.175,1.867,0.263
			c5.056,0.712,10.11,1.443,15.173,2.111c4.399,0.58,8.795,1.197,13.204,1.698c6.707,0.762,13.413,1.524,20.12,2.287
			c4.524,0.514,9.051,1,13.567,1.586c4.846,0.629,9.651,1.501,14.418,2.575c5.309,1.197,10.573,2.593,15.85,3.923
			c4.408,1.112,8.836,2.177,13.351,2.758c2.411,0.31,4.846,0.34,7.257,0.635c0.656,0.08,1.917,0.141,2.31,0.806
			c0.137,0.232,0.13,0.523,0.079,0.779c7.425,0.87,14.819,1.756,22.179,3.076c7.147,1.282,14.224,2.623,21.52,2.423
			c0.841-0.023,1.681-0.064,2.52-0.122c0.88-0.061,1.543-0.513,2.303-0.949c1.535-0.88,3.021-1.846,4.436-2.907
			c2.795-2.094,5.289-4.564,7.569-7.203c2.326-2.692,4.318-5.62,6.429-8.478c0.63-0.854,1.807-2.923,3.145-2.834
			c0.953,0.064,1.523,1.291,1.83,2.044c0.806,1.979,0.852,4.176,0.741,6.28C496.86,341.586,496.788,342.4,496.717,343.213z"/>
	</g>
	<g id="POLYLINE_174_">
		
			<path fill="none" stroke="#FF6B6B" stroke-width="3.5" stroke-linecap="round" stroke-linejoin="round" stroke-miterlimit="10" d="
			M885.127,136.636c6.162-0.505,12.324-0.986,18.476-1.601c6.048-0.604,12.09-1.288,18.114-2.093
			c2.656-0.355,5.336-0.752,7.889-1.593c2.134-0.703,4.186-1.78,6.444-2.042c4.151-0.481,8.1,2.225,11.669,3.902
			c1.958,0.92,3.997,1.717,6.152,2.015c2.431,0.337,4.882-0.031,7.321-0.007c2.669,0.027,4.994,0.681,6.871,2.638
			c2.282,2.378,3.318,5.667,2.783,8.911c-0.406,2.462-1.389,4.88-2.357,7.166c-0.672,1.587-1.44,3.264-2.65,4.523
			c-1.251,1.302-2.926,1.67-4.65,1.218c-1.559-0.409-3.011-1.29-4.251-2.3c-1.376-1.121-2.362-2.602-3.872-3.571
			c-2.14-1.374-4.558-2.319-6.895-3.298c-1.454-0.609-2.909-1.216-4.366-1.817c-0.276-0.114-0.868-0.51-1.168-0.482
			c-0.283,0.026-0.439,0.353-0.655,0.613c-0.411,0.495-0.829,0.984-1.255,1.466c-3.416,3.865-7.434,7.308-12.537,8.605
			c-5.349,1.359-10.794,0.49-16.117-0.539c-5.985-1.158-11.872-2.25-17.998-2.09c-2.846,0.074-5.547,0.834-8.341,1.34
			c-2.911,0.528-5.84,0.946-8.782,1.257c-5.741,0.608-11.523,0.77-17.294,0.741c-4.931-0.025-9.862-0.103-14.793-0.166
			c-8.728-0.112-17.456-0.224-26.183-0.336c-4.889-0.063-9.778-0.117-14.667-0.219c-1.427-0.03-2.854-0.074-4.281-0.118
			c-0.558-0.017-1.76-0.296-2.286-0.071c-0.046,0.02-0.172,0.262-0.268,0.321c-0.358,0.218-0.833,0.28-1.238,0.35
			c-1.238,0.215-2.508,0.269-3.761,0.316c-2.934,0.111-5.874,0.07-8.807-0.036c-2.734-0.099-5.528-0.172-8.216-0.719
			c-0.683-0.139-1.316-0.344-1.967-0.582c-0.535-0.196-0.544,0.03-1.039,0.306c-1.516,0.844-3.585,0.788-5.253,0.798
			c-5.793,0.036-11.589-0.51-17.377-0.685c-3.129-0.094-6.257-0.19-9.387-0.218c-1.646-0.015-3.291-0.014-4.938-0.01
			c-0.798,0.002-1.246,0.271-1.997,0.468c-2.292,0.601-4.801,0.56-7.151,0.61c-2.236,0.047-4.475,0.049-6.712,0.035
			c-7.738-0.048-15.477-0.096-23.215-0.144c-5.68-0.035-11.358,0.062-17.037,0.124c-2.623,0.028-5.254-0.006-7.873,0.12
			c-2.904,0.14-5.808,0.207-8.713,0.037c-1.525-0.089-3.035-0.314-4.562-0.311c-1.877,0.004-3.753,0.008-5.63,0.011
			c-7.266,0.015-14.532,0.029-21.798,0.044c-9.037,0.018-18.075,0.036-27.112,0.054c-7.207,0.014-14.414,0.029-21.621,0.043
			c-3.263,0.007-6.526,0.012-9.79,0.007c-3.291-0.005-6.585,0.026-9.876-0.036c-2.439-0.046-5.218,0.155-7.589-0.51
			c-2.05-0.575,0.178-2.283,1.137-2.68c1.844-0.764,3.951-0.882,5.914-1.089c2.993-0.315,5.992-0.591,8.941-1.217
			c5.036-1.07,10.199-2.84,14.499-5.721c2.215-1.484,4.168-3.32,6.396-4.789c2.419-1.596,5-2.93,7.464-4.454
			c0.596-0.369,1.187-0.746,1.766-1.141c0.285-0.195,0.568-0.393,0.847-0.597c0.11-0.081,0.285-0.167,0.369-0.276
			c0.234-0.303,0.131-0.094,0.098-0.502c-0.083-1.022-0.602-2.076-0.732-3.12c-0.185-1.494-0.042-2.951,0.427-4.382
			c0.794-2.423,2.174-4.641,3.223-6.959c0.47-1.039,1.012-2.497,2.086-3.093c1.412-0.782,3.35,0.492,4.214,1.584
			c2.286-2.985,5.012-5.677,8.298-7.544c3.606-2.05,7.771-3.062,11.894-3.288c2.06-0.113,4.155-0.028,6.174,0.423
			c-0.649-0.881,1.506-1.236,1.969-1.244c1.303-0.022,2.508,0.656,3.587,1.309c1.556,0.942,3.822,1.977,4.812,3.615
			c0.516,0.853,0.244,1.704,1.21,2.262c1.294,0.747,2.822,1.07,4.171,1.717c1.74,0.835,3.364,1.911,4.892,3.086
			c0-0.611,0.375-1.386,0.595-1.947c0.345-0.881,0.731-1.746,0.955-2.669c0.348-1.436,0.094-2.909,0.291-4.361
			c0.193-1.417,0.697-2.85,1.463-4.06c0.755-1.193,1.938-1.97,2.868-3.009c1.455-1.626,2.436-3.645,3.694-5.419
			c1.195-1.684,2.572-3.274,4.289-4.445c3.208-2.186,7.305-2.833,11.102-3.041c2.402-0.132,4.858-0.12,7.254,0.114
			c1.161,0.113,2.01,0.622,3.065,1.024c1.07,0.407,2.348,0.511,3.465,0.8c1.25,0.323,2.491,0.681,3.723,1.069
			c2.445,0.77,4.843,1.662,7.248,2.548c4.933,1.816,9.861,3.784,15.03,4.832c4.437,0.899,8.939,0.973,13.247-0.551
			c4.327-1.53,8.166-4.199,11.757-7.002c4.223-3.296,8.358-6.865,13.247-9.153c4.935-2.309,10.324-3.469,15.522-5.015
			c2.074-0.617,4.175-1.509,6.33-1.809c0.643-0.09,1.414-0.147,1.832,0.447c0.169,0.24,0.147,0.871,0.314,1.024
			c0.183,0.168,1.605-0.132,1.923-0.161c0.613-0.056,1.226-0.103,1.84-0.14c2.556-0.151,5.125-0.126,7.68,0.016
			c4.59,0.256,9.432,0.844,13.571,2.979c3.027,1.561,5.743,4.146,7.262,7.221c0.872,1.765,2.772,3.272,4.167,4.672
			c1.968,1.974,3.975,3.909,6.003,5.821c3.815,3.597,7.763,7.089,12.058,10.107c4.089,2.874,8.524,5.083,13.18,6.882
			c4.878,1.885,9.82,3.416,14.437,5.914c4.667,2.525,9.188,5.383,13.565,8.379C881.235,133.473,883.19,135.027,885.127,136.636z"/>
	</g>
	<g id="POLYLINE_173_">
		
			<path fill="none" stroke="#FF6B6B" stroke-width="3.5" stroke-linecap="round" stroke-linejoin="round" stroke-miterlimit="10" d="
			M934.501,352.779c3.83-1.222,7.833-1.322,11.818-1.239c3.902,0.081,7.833,0.276,11.695,0.87c2.985,0.459,8.376,1.294,8.014,5.427
			c-0.183,2.082-1.407,4.072-2.616,5.708c-1.526,2.065-3.537,4.156-5.937,5.186c-1.928,0.827-4.106,0.85-6.167,0.761
			c-1.972-0.085-3.965-0.276-5.919-0.557c-1.669-0.24-3.228-0.835-4.871-1.179c-1.726-0.361-3.499-0.462-5.258-0.484
			c-0.96-0.012-1.921,0.002-2.88,0.038c-0.4,0.015-1.132-0.106-1.482,0.065c-0.196,0.096-0.423,0.474-0.585,0.634
			c-0.808,0.796-1.786,1.415-2.951,1.437c-1.257,0.024-2.427-0.602-3.403-1.342c-1.236-0.938-2.278-2.124-3.209-3.358
			c-0.348-0.461-0.446-0.37-1.042-0.305c-0.507,0.055-1.013,0.115-1.519,0.177c-0.962,0.118-1.922,0.253-2.88,0.406
			c-4.042,0.646-8.045,1.517-12.089,2.154c-4.014,0.633-8.047,1.133-12.094,1.508c-8.037,0.745-16.141,1.081-24.193,0.383
			c-4.041-0.35-8.087-0.961-12.147-1.042c-3.984-0.079-7.96,0.5-11.937,0.664c-8.148,0.335-16.324,0.211-24.475,0.065
			c-4.62-0.083-9.237-0.211-13.856-0.344c-1.505-0.043-3.007-0.103-4.511-0.171c-1.542-0.069-3.084-0.138-4.625-0.207
			c-0.855-0.038-1.871-0.248-2.72-0.122c-0.542,0.081-1.114,0.382-1.658,0.516c-0.832,0.205-1.68,0.34-2.529,0.452
			c-1.865,0.246-3.748,0.364-5.628,0.438c-4.047,0.159-8.102,0.089-12.146-0.113c-8.116-0.405-16.159-1.733-24.273-2.099
			c-3.763-0.17-7.498,0.133-11.239,0.511c-4.382,0.443-8.762,0.882-13.154,1.214c-8.325,0.63-16.644,0.717-24.988,0.627
			c-8.082-0.088-16.199-0.208-24.269-0.692c-4.02-0.241-8.1-0.432-12.052-1.255c-0.827-0.172-1.645-0.38-2.452-0.629
			c-0.362-0.112-0.721-0.231-1.078-0.357c-0.503-0.177-0.51-0.203-0.904,0.083c-0.761,0.553-1.495,1.065-2.407,1.344
			c-0.908,0.277-1.857,0.31-2.799,0.262c-1.901-0.097-3.743-0.28-5.65-0.148c-3.991,0.277-7.933,1.044-11.929,1.286
			c-4.136,0.251-8.28-0.031-12.418-0.077c-3.696-0.041-7.473,0.486-11.154,0.067c-1.27-0.145-2.75-0.475-3.408-1.695
			c-0.777-1.441,0.168-3.179-0.518-4.613c-0.809-1.692-4.138-1.474-5.563-1.633c-1.817-0.202-3.608-0.632-5.094-1.747
			c-3.938-2.953-4.565-9.153-4.455-13.664c0.092-3.795,1.088-7.575,3.319-10.687c2.121-2.958,5.114-5.253,8.199-7.128
			c6.423-3.904,14.094-6.739,21.702-5.927c3.215,0.343,6.548,1.038,9.47,2.468c1.206,0.59,2.31,1.353,3.302,2.257
			c0.563,0.513,1.089,1.064,1.598,1.63c0.277,0.308,0.527,0.644,0.807,0.948c0.25,0.271,0.21,0.272,0.594,0.305
			c0.805,0.068,1.755-0.181,2.547-0.308c1.024-0.164,2.045-0.349,3.068-0.521c1.012-0.171,2.023-0.355,2.896-0.927
			c0.985-0.646,2.413-2.113,2.593-3.308c0.073-0.482-0.492-1.265-0.666-1.796c-0.484-1.48-0.619-3.068-0.751-4.61
			c-0.234-2.738-0.354-5.579,0.643-8.19c1.237-3.242,3.726-6.075,6.031-8.61c1.896-2.085,4.075-4.387,6.709-5.527
			c1.321-0.571,2.701-0.616,4.065-0.172c3.167,1.032,5.884,3.329,8.808,4.876c3.464,1.833,7.218,2.864,11.014,3.762
			c3.913,0.925,7.771,1.842,11.56,3.207c3.912,1.409,7.803,2.901,11.65,4.479c1.782,0.731,3.559,1.483,5.291,2.326
			c1.365,0.664,2.713,1.441,4.186,1.845c2.835,0.778,5.856,0.242,8.721,0.989c1.946,0.508,3.964,1.414,6.002,0.9
			c1.088-0.274,2.09-0.842,3.205-1.017c1.153-0.18,2.33,0.074,3.481-0.138c2.292-0.422,3.989-2.698,5.513-4.236
			c2.525-2.548,5.349-4.634,8.706-5.954c3.379-1.329,6.998-2.022,10.573-2.575c3.955-0.611,7.962-0.976,11.961-1.123
			c2.979-0.11,5.675,0.125,8.534,0.91c0.89,0.244,1.995-0.095,2.928-0.197c0.897-0.098,1.795-0.173,2.696-0.218
			c1.797-0.09,3.603-0.06,5.392,0.138c3.735,0.415,7.301,1.597,10.699,3.172c6.992,3.241,13.301,7.889,19.102,12.92
			c3.319,2.878,6.48,5.925,9.666,8.948c2.033,1.929,4.115,4.182,6.767,5.251c1.347,0.543,2.721,0.566,4.124,0.196
			c1.602-0.423,3.093-1.193,4.615-1.83c1.648-0.69,3.347-1.149,5.122-1.363c3.862-0.466,7.866-0.265,11.731,0.069
			c3.869,0.334,7.713,0.947,11.484,1.876c7.199,1.774,14.513,4.34,20.783,8.347c1.711-2.87,5.96-2.018,8.585-1.359
			c6.079,1.526,11.321,4.849,16.796,7.754C929.384,349.261,932.357,350.594,934.501,352.779z"/>
	</g>
	<g id="POLYLINE_172_">
		
			<path fill="none" stroke="#FF6B6B" stroke-width="3.5" stroke-linecap="round" stroke-linejoin="round" stroke-miterlimit="10" d="
			M1294.847,137.319c0.247-0.14,0.626-0.11,0.898-0.12c0.949-0.034,1.906,0.021,2.854,0.073c2.24,0.121,4.475,0.309,6.71,0.494
			c3.805,0.314,7.603,0.72,11.403,1.091c8.832,0.863,17.683,1.986,26.555,2.333c2.524,0.099,5.051,0.175,7.574,0.296
			c1.503,0.072,3.076,0.137,4.54,0.514c1.59,0.41,2.064,1.522,2.271,3.06c0.319,2.374,0.578,5.31-0.314,7.609
			c-0.818,2.108-2.79,3.63-4.631,4.811c-1.181,0.758-2.466,1.506-3.834,1.867c-1.093,0.289-2.25,0.235-3.369,0.238
			c-4.721,0.013-9.442,0.049-14.162-0.036c-3.968-0.072-7.953-0.239-11.899-0.674c-2.081-0.229-4.155-0.544-6.202-0.984
			c-0.927-0.199-1.848-0.424-2.76-0.681c-1.091-0.307-2.144-0.051-3.27,0.072c-8.633,0.941-17.299,1.355-25.979,1.45
			c-4.223,0.046-8.447-0.064-12.671-0.064c-4.589-0.001-9.165,0.264-13.746,0.491c-8.106,0.402-16.244,0.467-24.359,0.425
			c-4.671-0.024-9.342-0.039-14.012-0.123c-4.047-0.073-8.31,0.139-12.308-0.596c-1.016-0.187-1.903-0.549-2.826-1.009
			c-0.045,0.916-2.204,0.62-2.648,0.607c-2.897-0.084-5.785-0.381-8.681-0.486c-5.604-0.204-11.233,0.59-16.822,0.896
			c-6.197,0.34-12.395,0.687-18.602,0.763c-2.893,0.035-5.786-0.003-8.671-0.238c-1.543-0.126-3.079-0.31-4.617-0.482
			c-0.706-0.079-1.247-0.161-1.933-0.02c-0.677,0.14-1.359,0.247-2.044,0.335c-5.782,0.75-11.721,0.417-17.533,0.361
			c-4.204-0.041-8.405-0.074-12.609-0.072c-7.818,0.004-15.635,0.008-23.453,0.012c-7.976,0.004-15.952,0.008-23.927,0.013
			c-4.195,0.002-8.387-0.007-12.581-0.107c-0.88-0.021-2.702,0.188-3.278-0.758c-0.309-0.507-0.257-1.404,0.097-1.879
			c0.232-0.311,0.598-0.444,0.965-0.527c-1.785-0.595-0.145-2.631,0.835-3.04c1.725-0.72,3.737-0.65,5.551-1.005
			c2.325-0.455,4.561-1.27,6.752-2.154c2.963-1.194,5.888-2.49,8.705-3.999c0,0.046-2.837-0.953-2.927-0.996
			c-1.318-0.624-2.524-1.45-3.663-2.355c0.053,0.53-0.456,0.975-0.733,1.355c-0.442,0.607-0.774,1.351-1.379,1.823
			c-0.982,0.767-2.411,0.449-3.51,0.16c-2.037-0.536-4.783-1.332-6.25-2.986c-1.096-1.236-1.09-3.269-1.106-4.809
			c-0.018-1.745,0.689-3.864-0.364-5.42c-1.133-1.676-2.227-3.255-2.59-5.3c-0.301-1.695-0.079-3.614,0.575-5.204
			c0.79-1.922,2.404-2.495,4.06-3.529c0.405-0.253,0.744-0.529,0.988-0.943c0.291-0.494,0.386-0.977,0.923-1.26
			c0.841-0.445,2.499-0.44,3.315,0.075c0.183,0.116,0.338,0.268,0.454,0.452c0.934-1.564,1.894-3.101,3.2-4.387
			c1.267-1.247,2.774-2.221,4.33-3.066c3.026-1.643,6.37-2.961,9.76-3.599c1.515-0.285,3.06-0.391,4.596-0.226
			c-0.129-0.813-0.138-1.509,0.733-1.831c1.741-0.643,4.12,0.044,5.816,0.442c1.376,0.323,2.782,0.591,4.149,0.946
			c0.377,0.098,0.808,0.211,1.05,0.542c0.539,0.738,0.231,1.398,1.311,1.651c1.016,0.237,2.109,0.124,3.142,0.214
			c1.281,0.112,2.534,0.401,3.767,0.758c1.397,0.404,2.77,0.892,4.121,1.429c0.792,0.315,1.198,0.448,2.008,0.252
			c0.912-0.22,1.808-0.621,2.571-1.169c0.437-0.314,0.829-0.682,1.1-1.151c0.148-0.257,0.266-0.542,0.344-0.828
			c0.166-0.603-0.037-0.29-0.12-0.69c-0.293-1.398,1.179-4.173,2.659-4.5c0.194-0.043,0.4-0.049,0.597-0.031
			c-1.517-5.644-0.471-12.644,4.002-16.78c3.661-3.385,8.997-2.327,13.08-0.282c1.27,0.636,2.492,1.411,3.532,2.383
			c0.307,0.287,0.568,0.615,0.866,0.91c0.556,0.551,1.37,0.764,2.103,1.064c3.723,1.527,7.72,2.307,11.596,3.341
			c1.825,0.487,3.635,1.044,5.388,1.748c0.896,0.359,1.775,0.755,2.647,1.169c0.72,0.342,1.503,0.916,2.281,0.957
			c0.734,0.039,1.418-0.032,2.156,0.11c1.544,0.296,3.011,0.925,4.455,1.528c3.558,1.488,7.131,3.048,10.901,3.927
			c1.805,0.421,3.647,0.635,5.47,0.962c1.841,0.331,3.653,0.875,5.52,1.045c1.472,0.134,2.836-0.075,4.103-0.856
			c2.228-1.373,3.816-3.481,6.281-4.516c1.731-0.727,3.579-1.129,5.327-1.811c1.887-0.736,3.615-1.805,5.362-2.815
			c0.886-0.512,2.069-1.419,3.128-1.54c0.136-0.016,0.446,0.059,0.512,0.039c0.363-0.111,0.764-0.656,1.056-0.904
			c0.308-0.263,0.622-0.52,0.945-0.764c2.714-2.05,6.135-3.128,9.398-3.936c3.615-0.895,7.427-1.435,11.144-0.943
			c6.74,0.892,12.325,5.481,16.255,10.81c3.103,4.207,5.523,9.521,3.992,14.798c-0.482,1.662-1.279,3.222-2.249,4.651
			c3.405,1.196,6.512,3.08,9.65,4.831c3.148,1.757,6.364,3.322,9.678,4.742c3.404,1.459,6.855,2.808,10.259,4.268
			c3.359,1.441,6.62,3.106,9.994,4.512c1.528,0.637,3.148,1.02,4.669,1.66C1293.849,136.463,1294.428,136.797,1294.847,137.319z"/>
	</g>
</g>
</svg>
