<?xml version="1.0" encoding="utf-8"?>
<!-- Generator: Adobe Illustrator 23.0.4, SVG Export Plug-In . SVG Version: 6.00 Build 0)  -->
<!DOCTYPE svg PUBLIC "-//W3C//DTD SVG 1.1//EN" "http://www.w3.org/Graphics/SVG/1.1/DTD/svg11.dtd" [
	<!ENTITY ns_extend "http://ns.adobe.com/Extensibility/1.0/">
	<!ENTITY ns_ai "http://ns.adobe.com/AdobeIllustrator/10.0/">
	<!ENTITY ns_graphs "http://ns.adobe.com/Graphs/1.0/">
	<!ENTITY ns_vars "http://ns.adobe.com/Variables/1.0/">
	<!ENTITY ns_imrep "http://ns.adobe.com/ImageReplacement/1.0/">
	<!ENTITY ns_sfw "http://ns.adobe.com/SaveForWeb/1.0/">
	<!ENTITY ns_custom "http://ns.adobe.com/GenericCustomNamespace/1.0/">
	<!ENTITY ns_adobe_xpath "http://ns.adobe.com/XPath/1.0/">
]>
<svg version="1.1" xmlns:x="&ns_extend;" xmlns:i="&ns_ai;" xmlns:graph="&ns_graphs;"
	 xmlns="http://www.w3.org/2000/svg" xmlns:xlink="http://www.w3.org/1999/xlink" x="0px" y="0px" viewBox="0 0 1000 500"
	 enable-background="new 0 0 1000 500" xml:space="preserve">
<metadata>
	<sfw  xmlns="&ns_sfw;">
		<slices></slices>
		<sliceSourceBounds  bottomLeftOrigin="true" height="11525" width="3421.606" x="-3597.606" y="-2925"></sliceSourceBounds>
	</sfw>
</metadata>
<g id="FILL-BACKGROUND">
	<rect fill="#FFFFFF" width="1000" height="500"/>
</g>
<g id="N-DIMENSIONS">
	<g>
		<path fill="#FF6B6B" d="M73.146,38.808c-0.587-0.288-1.035-0.664-1.344-1.128c-0.31-0.464-0.475-0.962-0.496-1.496v-0.032
			c0-0.085,0.032-0.154,0.096-0.208c0.064-0.053,0.139-0.08,0.224-0.08h0.784c0.224,0,0.368,0.117,0.432,0.352
			c0.16,0.576,0.456,1.005,0.888,1.288c0.432,0.283,0.93,0.424,1.496,0.424c0.726,0,1.328-0.221,1.808-0.664
			c0.48-0.442,0.72-1.053,0.72-1.832c0-0.714-0.24-1.283-0.72-1.704s-1.083-0.632-1.808-0.632c-0.384,0-0.693,0.048-0.928,0.144
			c-0.235,0.096-0.475,0.234-0.72,0.416c-0.139,0.106-0.253,0.184-0.344,0.232c-0.091,0.048-0.189,0.072-0.296,0.072h-0.768
			c-0.096,0-0.182-0.034-0.256-0.104c-0.075-0.069-0.107-0.152-0.096-0.248l0.496-5.328c0.032-0.267,0.165-0.4,0.4-0.4h5.536
			c0.117,0,0.208,0.032,0.272,0.096s0.096,0.155,0.096,0.272v0.592c0,0.107-0.035,0.192-0.104,0.256s-0.157,0.096-0.264,0.096
			h-4.608l-0.288,3.216c0.512-0.363,1.2-0.544,2.064-0.544c0.714,0,1.365,0.141,1.952,0.424c0.587,0.283,1.053,0.696,1.4,1.24
			c0.346,0.544,0.52,1.189,0.52,1.936c0,0.79-0.174,1.47-0.52,2.04c-0.347,0.571-0.827,1.003-1.44,1.296
			c-0.613,0.293-1.314,0.44-2.104,0.44C74.425,39.24,73.732,39.096,73.146,38.808z"/>
		<path fill="#FF6B6B" d="M81.017,30.671c-0.043-0.058-0.059-0.141-0.048-0.248l0.352-2.24c0.042-0.309,0.192-0.464,0.448-0.464
			h1.024c0.075,0,0.136,0.027,0.184,0.08s0.072,0.117,0.072,0.192c0,0.106-0.016,0.192-0.048,0.256l-0.832,2.16
			c-0.053,0.117-0.112,0.206-0.176,0.264c-0.064,0.059-0.16,0.088-0.288,0.088h-0.496C81.124,30.76,81.06,30.73,81.017,30.671z"/>
		<path fill="#FF6B6B" d="M89.841,38.976c-0.069-0.069-0.104-0.157-0.104-0.264v-2.336h-5.2c-0.106,0-0.194-0.034-0.264-0.104
			c-0.07-0.069-0.104-0.157-0.104-0.264v-0.592c0-0.149,0.059-0.309,0.176-0.48l4.816-6.784c0.053-0.085,0.133-0.152,0.24-0.2
			c0.106-0.048,0.224-0.072,0.352-0.072h1.088c0.117,0,0.208,0.032,0.272,0.096s0.096,0.155,0.096,0.272v6.784h1.456
			c0.106,0,0.194,0.035,0.264,0.104s0.104,0.157,0.104,0.264v0.608c0,0.106-0.035,0.194-0.104,0.264
			c-0.069,0.07-0.157,0.104-0.264,0.104h-1.456v2.336c0,0.107-0.035,0.195-0.104,0.264c-0.07,0.069-0.158,0.104-0.264,0.104h-0.736
			C89.998,39.08,89.91,39.045,89.841,38.976z M85.833,35.063h3.92v-5.568L85.833,35.063z"/>
		<path fill="#FF6B6B" d="M94.529,30.664c-0.048-0.064-0.061-0.144-0.04-0.24l0.352-2.24c0.042-0.309,0.192-0.464,0.448-0.464h1.024
			c0.075,0,0.136,0.027,0.184,0.08s0.072,0.117,0.072,0.192c0,0.106-0.016,0.192-0.048,0.256l-0.832,2.16
			c-0.053,0.117-0.112,0.206-0.176,0.264c-0.064,0.059-0.16,0.088-0.288,0.088h-0.496C94.644,30.76,94.577,30.728,94.529,30.664z
			 M97.041,30.664c-0.048-0.064-0.062-0.144-0.04-0.24l0.352-2.24c0.042-0.309,0.192-0.464,0.448-0.464h1.024
			c0.074,0,0.136,0.027,0.184,0.08c0.048,0.053,0.072,0.117,0.072,0.192c0,0.106-0.016,0.192-0.048,0.256l-0.832,2.16
			c-0.054,0.117-0.112,0.206-0.176,0.264c-0.064,0.059-0.16,0.088-0.288,0.088h-0.496C97.156,30.76,97.089,30.728,97.041,30.664z"/>
		<path fill="#FF6B6B" d="M74.729,56.076c-0.064-0.069-0.096-0.157-0.096-0.264v-9.024l-2.688,2.064
			c-0.075,0.064-0.155,0.096-0.24,0.096c-0.096,0-0.187-0.053-0.272-0.16l-0.384-0.496c-0.054-0.074-0.08-0.149-0.08-0.224
			c0-0.118,0.053-0.213,0.16-0.288l3.472-2.688c0.117-0.075,0.256-0.112,0.416-0.112h0.752c0.106,0,0.194,0.035,0.264,0.104
			c0.069,0.07,0.104,0.158,0.104,0.264v10.464c0,0.107-0.035,0.195-0.104,0.264s-0.157,0.104-0.264,0.104h-0.784
			C74.878,56.18,74.793,56.145,74.729,56.076z"/>
		<path fill="#FF6B6B" d="M78.561,56.076c-0.069-0.069-0.104-0.157-0.104-0.264v-1.104c0-0.106,0.035-0.197,0.104-0.272
			c0.069-0.074,0.157-0.112,0.264-0.112h1.104c0.106,0,0.194,0.038,0.264,0.112c0.069,0.075,0.104,0.166,0.104,0.272v1.104
			c0,0.107-0.035,0.195-0.104,0.264c-0.07,0.069-0.158,0.104-0.264,0.104h-1.104C78.718,56.18,78.63,56.145,78.561,56.076z"/>
		<path fill="#FF6B6B" d="M83.873,55.82c-0.624-0.347-1.099-0.813-1.424-1.4c-0.326-0.587-0.488-1.227-0.488-1.92
			c0-0.917,0.368-1.898,1.104-2.944l3.056-4.256c0.011-0.011,0.04-0.048,0.088-0.112c0.048-0.064,0.109-0.114,0.184-0.152
			c0.075-0.037,0.16-0.056,0.256-0.056h0.784c0.096,0,0.173,0.035,0.232,0.104c0.059,0.07,0.088,0.152,0.088,0.248
			c0,0.054-0.027,0.123-0.08,0.208l-2.336,3.264c0.277-0.064,0.586-0.096,0.928-0.096c0.779,0,1.464,0.174,2.056,0.52
			c0.592,0.347,1.05,0.806,1.376,1.376c0.325,0.571,0.488,1.198,0.488,1.88s-0.163,1.32-0.488,1.912
			c-0.326,0.592-0.797,1.064-1.416,1.416s-1.35,0.528-2.192,0.528C85.236,56.34,84.497,56.167,83.873,55.82z M87.369,54.724
			c0.395-0.192,0.709-0.477,0.944-0.856c0.234-0.378,0.352-0.834,0.352-1.368c0-0.522-0.12-0.973-0.36-1.352
			c-0.24-0.378-0.558-0.667-0.952-0.864s-0.821-0.296-1.28-0.296c-0.459,0-0.885,0.099-1.28,0.296
			c-0.395,0.197-0.709,0.485-0.944,0.864c-0.235,0.379-0.352,0.83-0.352,1.352c0,0.534,0.117,0.99,0.352,1.368
			c0.235,0.379,0.549,0.664,0.944,0.856c0.395,0.192,0.821,0.288,1.28,0.288C86.542,55.012,86.975,54.916,87.369,54.724z"/>
		<path fill="#FF6B6B" d="M93.354,55.932c-0.608-0.272-1.07-0.626-1.384-1.064c-0.314-0.437-0.482-0.891-0.504-1.36
			c0-0.096,0.032-0.173,0.096-0.232s0.144-0.088,0.24-0.088h0.72c0.117,0,0.213,0.024,0.288,0.072
			c0.074,0.048,0.133,0.142,0.176,0.28c0.139,0.544,0.44,0.928,0.904,1.152c0.464,0.224,1.011,0.336,1.64,0.336
			c0.768,0,1.378-0.184,1.832-0.552c0.453-0.368,0.68-0.893,0.68-1.576c0-1.301-0.795-1.952-2.384-1.952h-1.504
			c-0.107,0-0.195-0.035-0.264-0.104s-0.104-0.157-0.104-0.264v-0.416c0-0.16,0.059-0.298,0.176-0.416l3.12-3.456h-4.736
			c-0.106,0-0.195-0.032-0.264-0.096c-0.07-0.064-0.104-0.149-0.104-0.256v-0.576c0-0.117,0.034-0.21,0.104-0.28
			c0.069-0.069,0.157-0.104,0.264-0.104h6.336c0.118,0,0.21,0.035,0.28,0.104c0.069,0.07,0.104,0.163,0.104,0.28v0.528
			c0,0.118-0.054,0.24-0.16,0.368l-3.12,3.504h0.256c1.088,0.032,1.949,0.315,2.584,0.848c0.634,0.533,0.952,1.312,0.952,2.336
			c0,0.704-0.173,1.31-0.52,1.816c-0.347,0.507-0.829,0.896-1.448,1.168s-1.317,0.408-2.096,0.408
			C94.681,56.34,93.961,56.204,93.354,55.932z"/>
		<path fill="#FF6B6B" d="M105.585,56.076c-0.07-0.069-0.104-0.157-0.104-0.264v-7.584c0-0.106,0.034-0.194,0.104-0.264
			c0.069-0.069,0.157-0.104,0.264-0.104h0.672c0.106,0,0.192,0.035,0.256,0.104s0.096,0.157,0.096,0.264v0.544
			c0.576-0.714,1.354-1.072,2.336-1.072c1.173,0,2.005,0.491,2.496,1.472c0.256-0.448,0.622-0.806,1.096-1.072s1.005-0.4,1.592-0.4
			c0.875,0,1.589,0.299,2.144,0.896c0.555,0.598,0.832,1.461,0.832,2.592v4.624c0,0.107-0.035,0.195-0.104,0.264
			s-0.157,0.104-0.264,0.104h-0.688c-0.107,0-0.195-0.035-0.264-0.104s-0.104-0.157-0.104-0.264v-4.48
			c0-0.853-0.176-1.464-0.528-1.832c-0.352-0.368-0.816-0.552-1.392-0.552c-0.512,0-0.952,0.189-1.32,0.568
			c-0.368,0.379-0.552,0.984-0.552,1.816v4.48c0,0.107-0.035,0.195-0.104,0.264s-0.158,0.104-0.264,0.104h-0.704
			c-0.106,0-0.194-0.035-0.264-0.104c-0.07-0.069-0.104-0.157-0.104-0.264v-4.48c0-0.842-0.184-1.45-0.552-1.824
			c-0.368-0.374-0.824-0.56-1.368-0.56c-0.512,0-0.952,0.187-1.32,0.56c-0.368,0.374-0.552,0.976-0.552,1.808v4.496
			c0,0.107-0.035,0.195-0.104,0.264c-0.07,0.069-0.158,0.104-0.264,0.104h-0.704C105.742,56.18,105.654,56.145,105.585,56.076z"/>
	</g>
</g>
<g id="N-TEXT">
</g>
<g id="AG-GUIDE">
	<g id="POLYLINE_468_">
		<g>
			<g>
				
					<line fill="none" stroke="#FF6B6B" stroke-width="2" stroke-linecap="round" stroke-linejoin="round" x1="74.074" y1="66.815" x2="75.574" y2="66.815"/>
				
					<line fill="none" stroke="#FF6B6B" stroke-width="2" stroke-linecap="round" stroke-linejoin="round" stroke-dasharray="2.7598,4.5996" x1="80.174" y1="66.815" x2="107.311" y2="66.815"/>
				
					<line fill="none" stroke="#FF6B6B" stroke-width="2" stroke-linecap="round" stroke-linejoin="round" x1="109.611" y1="66.815" x2="111.111" y2="66.815"/>
			</g>
		</g>
	</g>
</g>
<g id="AG-DIAGRAM">
	<g id="POLYLINE_418_">
		<g>
			<g>
				
					<line fill="none" stroke="#FF6B6B" stroke-width="3" stroke-linecap="round" stroke-linejoin="round" x1="74.074" y1="461.877" x2="76.074" y2="461.877"/>
				
					<line fill="none" stroke="#FF6B6B" stroke-width="3" stroke-linecap="round" stroke-linejoin="round" stroke-dasharray="4.023,7.0403" x1="83.114" y1="461.877" x2="920.406" y2="461.877"/>
				
					<line fill="none" stroke="#FF6B6B" stroke-width="3" stroke-linecap="round" stroke-linejoin="round" x1="923.926" y1="461.877" x2="925.926" y2="461.877"/>
			</g>
		</g>
	</g>
</g>
<g id="AG-PEOPLE">
	<g id="POLYLINE_400_">
		
			<path fill="none" stroke="#FF6B6B" stroke-width="2.5" stroke-linecap="round" stroke-linejoin="round" stroke-miterlimit="10" d="
			M728.469,184.97c-0.483,2.408-2.383,4.345-4.14,5.92c-2.385,2.138-4.964,4.358-8.176,5.042c-2.15,0.458-4.722,0.478-6.642-0.737
			c-2.839-1.796-3.841-5.866-4.911-8.792c-1.628-4.449-3.132-8.963-4.152-13.595c-1.077-4.886-1.392-9.881-1.966-14.84
			c-0.59-5.092-1.55-10.12-2.731-15.106c-1.175-4.962-2.684-9.842-3.818-14.812c-0.504-2.209-1-4.395,0.462-6.325
			c1.054-1.391,2.352-2.552,3.206-4.093c0.939-1.694,1.505-3.573,2.087-5.411c0.455-1.437,0.834-3.045,1.837-4.222
			c1.044-1.224,2.609-2.018,4.017-2.732c1.125-0.571,2.552-1.48,3.865-1.51c0.71-0.016,1.314,0.407,1.835,0.845
			c1.229,1.034,2.441,2.579,2.675,4.21c0.189,1.313-0.302,2.607-0.532,3.881c-0.324,1.793-0.332,3.661-0.91,5.403
			c-0.308,0.926-0.812,1.743-1.42,2.501c-1.447,1.804-3.133,3.362-4.402,5.315c-0.651,1.002-1.296,2.13-1.501,3.327
			c-0.235,1.374,0.335,2.651,0.803,3.911c1.7,4.579,2.604,9.418,4.23,14.026c1.682,4.767,4.002,9.219,6.668,13.504
			c2.652,4.262,5.66,8.269,8.561,12.361c2.064,2.91,4.664,6.26,5.11,9.925C728.607,183.633,728.599,184.31,728.469,184.97z"/>
	</g>
	<g id="POLYLINE_401_">
		
			<path fill="none" stroke="#FF6B6B" stroke-width="2.5" stroke-linecap="round" stroke-linejoin="round" stroke-miterlimit="10" d="
			M706.214,140.737c1.608-1.304,3.104-2.747,4.398-4.365"/>
	</g>
	<g id="POLYLINE_402_">
		
			<path fill="none" stroke="#FF6B6B" stroke-width="2.5" stroke-linecap="round" stroke-linejoin="round" stroke-miterlimit="10" d="
			M724.561,190.68c1.709,1.616,3.34,3.543,4.538,5.571c0.603,1.02,1.089,2.137,1.197,3.328c0.186,2.034-0.642,4.143-1.958,5.675
			c-1.064,1.238-2.499,1.988-4.144,2.001c-1.973,0.016-3.906-0.687-5.82-1.066c-2.462-0.487-4.971-0.28-7.444-0.633
			c-2.334-0.334-4.459-1.426-6.761-1.887c-2.454-0.491-5.007-0.265-7.493-0.324c-6.203-0.146-12.407-0.531-18.605-0.806
			c-4.91-0.218-9.812-0.48-14.693-1.095c-5.258-0.662-10.327-1.872-15.456-3.163c-2.53-0.637-5.105-0.745-7.644-1.274
			c-0.878-0.183-1.796-0.462-2.438-1.123c-0.619-0.637-0.911-1.52-1.132-2.36c-0.663-2.515-1.241-5.099-1.695-7.661
			c-0.175-0.987-0.312-1.981-0.371-2.982"/>
	</g>
	<g id="POLYLINE_403_">
		
			<path fill="none" stroke="#FF6B6B" stroke-width="2.5" stroke-linecap="round" stroke-linejoin="round" stroke-miterlimit="10" d="
			M659.58,180.673c6.076,1.796,12.17,3.481,18.312,5.038c6.07,1.538,12.157,3.036,18.272,4.381c3.623,0.797,7.258,1.53,10.892,2.274
			"/>
	</g>
	<g id="POLYLINE_404_">
		
			<path fill="none" stroke="#FF6B6B" stroke-width="2.5" stroke-linecap="round" stroke-linejoin="round" stroke-miterlimit="10" d="
			M726.543,192.819c1.314-0.551,2.605-1.098,3.458-2.292c1.206-1.688,1.564-4.054,1.681-6.069c0.06-1.033,0.039-2.078-0.173-3.094
			c-0.182-0.874-0.585-1.749-0.496-2.66c0.092-0.951,0.606-1.863,0.951-2.73c0.465-1.169,0.795-2.353,0.95-3.603
			c0.424-3.408,0.011-6.864,0.418-10.272c0.298-2.5,1.635-4.376,2.536-6.675c0.533-1.361,0.816-2.815,1.055-4.252
			c0.318-1.91,0.669-3.828,0.889-5.753c0.279-2.432,0.075-4.871-1.103-7.06c-0.911-1.693-2.373-2.734-3.894-3.86
			c-2.994-2.216-5.899-4.406-9.149-6.247c-0.74-0.419-1.488-0.823-2.242-1.216"/>
	</g>
	<g id="POLYLINE_405_">
		
			<path fill="none" stroke="#FF6B6B" stroke-width="2.5" stroke-linecap="round" stroke-linejoin="round" stroke-miterlimit="10" d="
			M684.213,103.415c-0.025,3.755,0.117,7.266,1.205,10.875c0.75,2.49,1.656,5.084,1.104,7.709c-0.805,3.83-3.706,6.091-7.469,6.562
			c-1.164,0.146-4.62-0.235-4.853,1.608c-0.169,1.334,0.797,2.977-0.414,4.051c-1.039,0.922-2.813,0.943-4.072,0.568
			c-1.595-0.475-2.706-1.812-3.255-3.341c-0.558-1.555-0.536-3.249-0.04-4.817c0.693-2.192,2.295-3.612,3.541-5.474
			c0.742-1.109,0.574-1.97-0.16-3.034c-1.136-1.647-1.799-2.678-1.683-4.714c0.054-0.946,0.184-1.918-0.04-2.854
			c-0.246-1.03-0.892-1.904-1.38-2.824c-0.769-1.45-0.666-2.622,0.033-4.09c0.571-1.201,1.293-2.363,1.566-3.681
			c0.213-1.025,0.111-2.076-0.031-3.103c-0.24-1.733-0.726-3.475,0.51-4.919c1.301-1.52,2.524-2.483,3.154-4.429
			c1.169-3.609,1.116-7.595,1.507-11.33c0.371-3.541,0.991-7.107,2.594-10.321c1.52-3.049,3.89-5.751,6.677-7.706
			c1.477-1.035,3.233-2,5.093-1.962c1.861,0.039,3.538,0.907,5.426,0.777c2.304-0.159,4.064-0.271,6.118,0.946
			c2.677,1.586,4.842,4.059,6.667,6.54c2.446,3.327,4.413,6.979,6.807,10.344c1.015,1.426,2.157,2.635,3.325,3.925
			c0.561,0.62,0.841,1.292,1.018,2.107c0.243,1.117,0.355,2.269,0.802,3.331c0.498,1.184,1.342,2.178,1.965,3.294
			c0.836,1.497,1.082,3.142,0.964,4.841c-0.086,1.244-0.338,2.502-0.821,3.656c-0.489,1.169-1.244,2.204-1.689,3.393
			c-0.635,1.697-0.992,3.786-0.468,5.57c0.276,0.939,0.829,1.755,1.296,2.605c0.479,0.871,0.773,1.755,1.001,2.724
			c0.283,1.201,0.487,2.451,1.029,3.571c0.486,1.003,1.251,1.82,1.917,2.701c1.781,2.355,1.452,4.966-0.814,6.861
			c-0.589,0.493-1.601,1.071-1.596,1.957c0.005,1.029,0.913,2.135,1.32,3.011c0.875,1.883,1.639,4.01,1.212,6.111
			c-0.192,0.946-0.584,1.837-1.033,2.686c-0.411,0.777-0.92,2.239-1.778,2.695c-0.567,0.302-1.206-0.04-1.719-0.3
			c-0.87-0.443-1.716-1.063-2.685-1.287c-0.861-0.199-1.691,0.098-2.553,0.045c-0.808-0.049-1.486-0.506-2.069-1.037
			c-1.384-1.259-2.09-2.928-3.972-3.543c-1.087-0.355-2.288-0.46-3.42-0.302"/>
	</g>
	<g id="POLYLINE_406_">
		
			<path fill="none" stroke="#FF6B6B" stroke-width="2.5" stroke-linecap="round" stroke-linejoin="round" stroke-miterlimit="10" d="
			M660.887,143.712c-0.44,6.101-0.931,12.165-1.599,18.244c-0.277,2.526-0.514,5.078-0.365,7.621
			c0.154,2.622,0.825,5.139,1.466,7.674c0.206,0.816,0.751,2.249,0.027,2.986c-0.819,0.833-2.664,0.726-3.68,0.748
			c-5.593,0.125-11.225-0.523-16.794,0.259c-1.03,0.145-2.058,0.344-3.046,0.674c-1.075,0.359-2.033,0.944-3.08,1.359
			c-1.497,0.594-1.065-1.304-0.913-2.22c0.997-6.007,2.409-11.927,3.302-17.955c0.855-5.77,1.527-11.568,2.376-17.339
			c0.845-5.743,1.637-11.611,3.533-17.122c1.717-4.99,4.615-9.059,9.47-11.389c2.538-1.218,5.197-2.35,7.856-3.273
			c2.156-0.749,4.448-1.035,6.721-0.796c0.658,0.069,1.315,0.182,1.949,0.378"/>
	</g>
	<g id="POLYLINE_407_">
		
			<path fill="none" stroke="#FF6B6B" stroke-width="2.5" stroke-linecap="round" stroke-linejoin="round" stroke-miterlimit="10" d="
			M676.826,128.754c2.571,4.241,5.513,8.232,8.687,12.042c1.901,2.282,4.154,5.483,7.308,6.067c1.255,0.232,2.55-0.011,3.746-0.407"
			/>
	</g>
	<g id="POLYLINE_408_">
		
			<path fill="none" stroke="#FF6B6B" stroke-width="2.5" stroke-linecap="round" stroke-linejoin="round" stroke-miterlimit="10" d="
			M699.086,108.599c-3.511,0.674-7.012,0.129-10.174-1.549c-2.779-1.475-5.259-3.659-6.59-6.55
			c-1.693-3.679-2.877-8.058-2.233-12.111c0.356-2.238,0.729-4.351,0.605-6.625c-0.12-2.203-0.392-4.423-0.137-6.627
			c0.291-2.518,1.36-5.428,3.56-6.894c2.434-1.621,5.528-0.178,8.198-0.338c2.207-0.132,4.927-1.317,6.333,1.025
			c1.002,1.669,1.332,3.679,2.083,5.46c0.951,2.257,2.432,4.214,4.036,6.045c2.371,2.707,5.244,5.447,5.759,9.193
			c0.256,1.863,0.009,3.774-0.373,5.601c-0.47,2.252-1.09,4.55-1.925,6.695c-0.248,0.636-0.537,1.256-0.898,1.836"/>
	</g>
	<g id="POLYLINE_409_">
		
			<path fill="none" stroke="#FF6B6B" stroke-width="2.5" stroke-linecap="round" stroke-linejoin="round" stroke-miterlimit="10" d="
			M715.263,161.333c0.24-1.638,0.591-3.172,1.413-4.621c1.088-1.918,2.479-3.626,3.4-5.642c0.567-1.241,1.006-2.531,1.427-3.827"/>
	</g>
	<g id="POLYLINE_410_">
		
			<path fill="none" stroke="#FF6B6B" stroke-width="2.5" stroke-linecap="round" stroke-linejoin="round" stroke-miterlimit="10" d="
			M649.168,198.603c-1.143,3.795-1.385,7.771-0.208,11.584c0.776,2.514,1.543,4.923,1.757,7.564
			c0.174,2.139,0.029,4.247-0.178,6.377c-0.18,1.854-0.742,4.815,1.758,5.222c1.77,0.289,3.678-0.109,5.448-0.213
			c2.456-0.144,4.919-0.161,7.375-0.015c5.321,0.318,10.559,1.422,15.851,2.015c4.905,0.55,9.746,0.524,14.601-0.434
			c4.966-0.979,9.762-2.661,14.73-3.626c3.958-0.769,8.824-1.043,12.231-3.459c1.643-1.165,2.363-2.758,2.36-4.746
			c-0.002-1.457-0.301-2.914-0.002-4.358c0.363-1.752,0.752-3.322,0.645-5.144c-0.044-0.751-0.187-1.476-0.383-2.201"/>
	</g>
	<g id="POLYLINE_411_">
		
			<path fill="none" stroke="#FF6B6B" stroke-width="2.5" stroke-linecap="round" stroke-linejoin="round" stroke-miterlimit="10" d="
			M652.86,229.406c0.105,8.383,0.21,16.766,0.315,25.148c0.079,6.334,0.23,12.67,0.72,18.987c0.57,7.344,1.688,14.581,3.155,21.796
			c1.431,7.036,3.208,14.035,4.123,21.166c0.47,3.666,0.699,7.355,1.08,11.03c0.304,2.937,0.789,5.893,2.016,8.603
			c0.792,1.75,1.86,3.097,1.987,5.062c0.098,1.512-0.111,3.024-0.048,4.536c0.047,1.123,0.317,2.219,0.388,3.34
			c0.117,1.829-0.433,3.531-1.176,5.186c-1.504,3.352-3.546,6.466-5.372,9.645c-3.419,5.952-6.478,12.091-8.148,18.779
			c-0.907,3.632-1.482,7.334-2.15,11.014c-0.671,3.693-1.522,7.344-2.344,11.006c-0.712,3.173-1.37,6.356-1.849,9.573
			c-0.517,3.473-0.745,7.073-1.596,10.488c-0.158,0.635-0.574,1.3-0.571,1.956c0.002,0.543,0.337,1.068,0.627,1.503
			c1.112,1.668,2.775,3.038,4.487,4.05c2.367,1.399,5.13,2.078,7.865,2.175c1.757,0.063,3.774-0.037,5.35-0.918
			c1.587-0.887,2.108-2.649,2.507-4.306c0.827-3.43,1.269-6.943,2.094-10.377c1.608-6.693,3.823-13.308,6.673-19.575
			c1.467-3.225,2.981-6.406,4.147-9.758c1.201-3.453,2.263-6.957,3.559-10.376c1.181-3.116,2.684-6.036,4.384-8.898
			c1.78-2.998,3.597-5.961,4.843-9.232c2.383-6.256,2.933-13.256,3.434-19.878c0.502-6.645-0.172-13.289-0.735-19.907
			c-0.645-7.577-1.608-15.211-1.379-22.828c0.228-7.571,1.012-15.14,1.716-22.678c0.301-3.225,0.521-6.554,1.171-9.732
			c0.019-0.094,0.11-0.772,0.238-0.783c0.16-0.014,0.182,0.556,0.196,0.667c0.219,1.75,0.203,3.55,0.285,5.309
			c0.352,7.568,1.107,15.101,1.679,22.654c0.244,3.227,0.398,6.466,0.354,9.704c-0.05,3.654-0.227,7.309-0.112,10.964
			c0.224,7.126,1.239,14.237,0.914,21.375c-0.158,3.464-0.696,6.923-0.659,10.394c0.035,3.268,0.654,6.498,0.731,9.764
			c0.06,2.539-1.135,4.727-1.7,7.163c-0.852,3.678-1.08,7.538-1.513,11.278c-0.876,7.568-1.94,15.108-2.99,22.653
			c-1.074,7.721-2.386,15.414-3.588,23.116c-0.446,2.858-0.865,5.724-1.402,8.567c-0.293,1.552-0.756,3.024-1.154,4.546
			c-0.129,0.492-0.2,0.972-0.006,1.458c0.518,1.295,2.169,1.937,3.383,2.339c1.7,0.562,3.48,0.873,5.23,1.231
			c1.588,0.325,3.172,0.699,4.776,0.94c1.286,0.193,3.448,0.577,4.314-0.728c0.257-0.388,0.359-0.866,0.427-1.319
			c0.205-1.358,0.126-2.742,0.333-4.103c0.443-2.9,1.493-5.693,2.405-8.469c1.539-4.688,3.077-9.377,4.616-14.065
			c2.091-6.37,4.08-12.793,5.628-19.319c1.674-7.057,2.717-14.242,3.588-21.436c0.439-3.62,0.886-7.247,1.19-10.881
			c0.291-3.478,0.175-6.949,0.288-10.433c0.246-7.58,1.542-15.17,2.513-22.679c0.975-7.539,1.724-15.099,2.504-22.661
			c0.665-6.447,1.695-12.836,2.785-19.222c1.286-7.534,2.705-15.059,3.393-22.678c0.603-6.672,1.189-13.971-0.752-20.481
			c-0.942-3.161-2.509-6.08-3.831-9.088c-1.425-3.242-2.694-6.554-4.019-9.838"/>
	</g>
	<g id="POLYLINE_412_">
		
			<path fill="none" stroke="#FF6B6B" stroke-width="2.5" stroke-linecap="round" stroke-linejoin="round" stroke-miterlimit="10" d="
			M642.679,442.933c-0.73,0.264-1.495,0.421-1.973,1.077c-0.622,0.852-0.858,2.06-1.103,3.051c-0.511,2.074-0.915,4.18-1.344,6.272
			c-0.264,1.285-0.546,2.614-0.488,3.934c0.23,5.268,8.091,4.653,11.62,4.621c2.968-0.027,6.459,0.012,9.224-1.238
			c1.149-0.52,1.733-1.337,1.612-2.61c-0.134-1.419-0.639-2.801-0.902-4.201c-0.384-2.043-0.652-4.106-1.006-6.154
			c-0.354-2.053-0.733-4.36-2.129-6.007c-2.724-3.211-7.361-1.249-10.54,0.047C644.661,442.129,643.682,442.564,642.679,442.933z"/>
	</g>
	<g id="POLYLINE_413_">
		
			<path fill="none" stroke="#FF6B6B" stroke-width="2.5" stroke-linecap="round" stroke-linejoin="round" stroke-miterlimit="10" d="
			M641.769,443.253c1.249-4.633,2.234-9.306,3.013-14.041"/>
	</g>
	<g id="POLYLINE_414_">
		
			<path fill="none" stroke="#FF6B6B" stroke-width="2.5" stroke-linecap="round" stroke-linejoin="round" stroke-miterlimit="10" d="
			M656.199,441.688c-0.01-2.445,0.327-4.872,0.98-7.227"/>
	</g>
	<g id="POLYLINE_415_">
		
			<path fill="none" stroke="#FF6B6B" stroke-width="2.5" stroke-linecap="round" stroke-linejoin="round" stroke-miterlimit="10" d="
			M692.009,443.06c-2.844-0.721-5.769-0.083-7.609,2.353c-1.185,1.57-1.242,3.535-1.089,5.423c0.157,1.93,0.415,3.844,0.549,5.777
			c0.058,0.828,0.114,1.699,0.419,2.482c0.492,1.266,1.676,1.856,2.927,2.181c3.321,0.864,7.059,0.674,10.463,0.584
			c1.861-0.049,3.759-0.083,5.603-0.355c0.62-0.091,1.267-0.219,1.618-0.791c0.315-0.514,0.329-1.225,0.334-1.808
			c0.016-1.62-0.291-3.263-0.698-4.825c-0.584-2.24-1.526-4.376-3.148-6.056c-1.933-2.002-4.569-3.327-7.153-4.273
			C693.498,443.486,692.759,443.252,692.009,443.06z"/>
	</g>
	<g id="POLYLINE_416_">
		
			<path fill="none" stroke="#FF6B6B" stroke-width="2.5" stroke-linecap="round" stroke-linejoin="round" stroke-miterlimit="10" d="
			M684.826,444.908c0.592-2.958,1.113-5.924,1.586-8.904"/>
	</g>
	<g id="POLYLINE_417_">
		
			<path fill="none" stroke="#FF6B6B" stroke-width="2.5" stroke-linecap="round" stroke-linejoin="round" stroke-miterlimit="10" d="
			M699.297,446.299c0.228-2.364,0.858-4.662,1.874-6.81"/>
	</g>
	<g id="POLYLINE_419_">
		
			<path fill="none" stroke="#FF6B6B" stroke-width="2.5" stroke-linecap="round" stroke-linejoin="round" stroke-miterlimit="10" d="
			M542.59,158.814c-2.288-2.305-4.446-4.726-6.543-7.204c-1.831-2.163-3.739-4.388-5.076-6.903
			c-1.202-2.261-1.115-4.252,0.077-6.507c1.284-2.431,3.317-4.523,4.329-7.088c0.471-1.193,0.393-2.38-0.097-3.548
			c-0.922-2.196-2.629-4.055-4.14-5.859c-1.075-1.284-2.21-2.542-3.2-3.895c-0.287-0.393-0.618-0.826-0.717-1.314
			c-0.196-0.959,0.607-1.938,1.493-2.214c1.223-0.381,2.492,0.581,3.38,1.304c4.855,3.958,8.206,9.501,12.183,14.251
			c0.446,0.533,1.827,2.411,2.521,1.261c0.477-0.79,0.483-1.968,0.676-2.838c0.139-0.626,0.318-1.234,0.578-1.821
			c0.469-1.06,1.158-1.995,1.725-3.001c0.437-0.775,0.653-1.698,1.174-2.42c0.681-0.944,1.856-0.516,2.547,0.226
			c1.134,1.219,0.095,3.01-0.357,4.289c-0.792,2.242-1.074,4.365-0.867,6.737c0.283,3.253,0.536,6.436,0.412,9.707
			c-0.086,2.251-0.633,4.717-0.173,6.95c0.124,0.602,0.355,1.172,0.6,1.734"/>
	</g>
	<g id="POLYLINE_420_">
		
			<path fill="none" stroke="#FF6B6B" stroke-width="2.5" stroke-linecap="round" stroke-linejoin="round" stroke-miterlimit="10" d="
			M573.554,176.145c0.298-6.853,0.806-13.68,1.436-20.51c0.159-1.722,0.356-3.441,0.537-5.161"/>
	</g>
	<g id="POLYLINE_421_">
		
			<path fill="none" stroke="#FF6B6B" stroke-width="2.5" stroke-linecap="round" stroke-linejoin="round" stroke-miterlimit="10" d="
			M582.129,186.719c-3.368-3.687-6.374-7.558-9.298-11.602c-3.081-4.261-6.193-8.498-9.221-12.797
			c-1.425-2.023-2.772-4.096-4.119-6.172c-1.008-1.553-1.994-3.206-3.321-4.514c-0.595-0.586-1.351-1.169-2.229-1.166
			c-1.078,0.003-1.77,0.959-2.431,1.675c-2.577,2.792-6.294,4.119-9.008,6.754c-1.498,1.454-2.601,3.324-2.999,5.384
			c-0.292,1.512-0.185,3.086,0.561,4.456c0.588,1.079,1.509,1.933,2.43,2.726c1.775,1.528,3.65,2.93,5.223,4.677
			c3.255,3.613,5.324,8.186,7.702,12.378c2.275,4.011,5.04,7.612,8.009,11.128c2.063,2.443,4.117,4.895,6.19,7.33
			c1.35,1.585,2.743,3.179,4.323,4.542c0.769,0.664,1.615,1.307,2.598,1.614c1.439,0.449,3.104,0.13,4.539-0.163
			c2.469-0.504,4.858-1.56,6.43-3.596c2.722-3.524,3.414-8.374,4.72-12.52c1.396-4.432,1.577-8.872,1.727-13.486
			c0.166-5.11,0.386-10.205,0.796-15.303c0.422-5.25,1.047-10.508,1.105-15.78c0.042-3.861-0.138-7.955-2.022-11.422
			c-1.859-3.42-5.051-6.368-8.157-8.643c-3.583-2.625-7.719-4.518-11.88-6.028c-1.95-0.708-3.933-1.31-5.948-1.806"/>
	</g>
	<g id="POLYLINE_422_">
		
			<path fill="none" stroke="#FF6B6B" stroke-width="2.5" stroke-linecap="round" stroke-linejoin="round" stroke-miterlimit="10" d="
			M539.855,124.117c3.219,0.735,6.509,0.643,9.689-0.279"/>
	</g>
	<g id="POLYLINE_423_">
		
			<path fill="none" stroke="#FF6B6B" stroke-width="2.5" stroke-linecap="round" stroke-linejoin="round" stroke-miterlimit="10" d="
			M553.862,121.761c2.778-2.055,4.148-5.009,4.769-8.338c0.224-1.201,0.223-4.169,1.631-4.864c0.478-0.236,1.084-0.124,1.449-0.569
			c0.417-0.507,0.362-1.439,0.382-2.047c0.094-2.811,0.433-5.928-0.182-8.705c-0.121-0.547-0.292-1.191-0.785-1.522
			c-0.433-0.29-1-0.187-1.442-0.436c-0.545-0.307-0.676-1.009-0.781-1.573c-0.269-1.435-0.361-2.898-0.632-4.335
			c-0.538-2.857-1.366-5.697-2.622-8.326c-1.408-2.948-4.252-7.479-8.05-7.421c-1.69,0.026-3.208,0.957-4.857,1.219
			c-1.98,0.315-4.015-0.146-5.983,0.284c-3.985,0.871-6.718,4.934-8.379,8.338c-1.271,2.606-2.074,5.413-2.335,8.301
			c-0.16,1.774-0.147,3.556-0.188,5.335c-0.018,0.762,0.026,1.681-0.252,2.413c-0.472,1.241-2.145,0.471-3.155,0.869
			c-1.085,0.427-1.049,1.734-0.959,2.714c0.271,2.929,1.289,5.962,2.338,8.696c0.555,1.447,1.033,2.65,2.691,2.876
			c0.528,0.072,1.081,0.066,1.596-0.081"/>
	</g>
	<g id="POLYLINE_424_">
		
			<path fill="none" stroke="#FF6B6B" stroke-width="2.5" stroke-linecap="round" stroke-linejoin="round" stroke-miterlimit="10" d="
			M556.912,118.414c-0.628,2.226-1.088,4.549-0.894,6.872c0.163,1.949,0.934,3.716,1.661,5.511
			c1.634,4.032,1.785,8.133,0.766,12.366c-0.662,2.751-1.878,5.243-3.488,7.56"/>
	</g>
	<g id="POLYLINE_425_">
		
			<path fill="none" stroke="#FF6B6B" stroke-width="2.5" stroke-linecap="round" stroke-linejoin="round" stroke-miterlimit="10" d="
			M563.39,162.009c2.968-2.254,5.935-5.27,6.377-9.151c0.261-2.29-0.248-4.572-0.14-6.862c0.083-1.751,0.839-2.975,1.678-4.474
			c1.854-3.313-0.149-6.587-1.528-9.725c-1.082-2.463-1.337-4.944-1.956-7.535c-0.664-2.776-1.719-5.449-2.108-8.291
			c-0.351-2.568,0.043-5.108,0.349-7.66c0.297-2.483,0.329-4.871-0.144-7.334c-0.585-3.045-1.61-5.984-2.324-8.999
			c-0.704-2.97-1.127-5.998-1.809-8.972c-1.2-5.232-3.535-10.414-7.462-14.178c-1.186-1.137-2.523-2.079-4.084-2.614
			c-1.762-0.603-3.63-0.673-5.29-1.562c-1.621-0.868-3.098-1.507-4.95-1.697c-2.146-0.22-4.357,0.025-6.398,0.725
			c-4.331,1.486-7.577,5.149-9.881,8.973c-2.798,4.645-4.151,9.782-4.315,15.186c-0.091,2.983,0.044,5.967-0.08,8.949
			c-0.116,2.785-0.414,5.549-0.702,8.32c-0.641,6.182-1.493,12.402-1.324,18.632c0.07,2.601,0.329,5.208,1.016,7.724
			c0.77,2.82,2.022,5.489,2.71,8.333c1.336,5.521-0.217,11.35-1.967,16.602c-0.911,2.735-2.07,5.396-2.855,8.172
			c-0.474,1.673-0.742,3.414-0.462,5.145c0.169,1.047,0.533,2.044,1.034,2.977c1.378,2.565,3.29,4.818,4.733,7.353
			c1.375,2.415,2.562,5.077,4.31,7.26c0.596,0.744,1.534,1.776,2.489,0.991c1.401-1.153,1.925-3.656,2.599-5.223
			c0.994-2.311,2.606-4.238,3.696-6.488c2.197-4.536,1.094-10.094,1.667-14.947c0.314-2.655,1.025-5.227,1.687-7.81"/>
	</g>
	<g id="POLYLINE_426_">
		
			<path fill="none" stroke="#FF6B6B" stroke-width="2.5" stroke-linecap="round" stroke-linejoin="round" stroke-miterlimit="10" d="
			M517.277,161.367c-3.597,1.812-6.89,3.81-9.991,6.39c-1.625,1.352-3.214,2.745-4.848,4.086c-1.536,1.261-3.182,2.325-4.812,3.456
			c-3.238,2.247-5.888,5.08-9.495,6.792c-1.277,0.606-3.887,1.348-3.965,3.163c-0.03,0.692,0.268,1.393,0.549,2.01
			c0.804,1.765,1.925,3.385,2.918,5.045c2.122,3.547,3.95,7.271,6.227,10.725c1.009,1.531,2.118,2.985,3.385,4.313
			c1.349,1.414,2.834,2.699,4.137,4.156c0.425,0.476,1.351,1.344,1.195,2.072c-0.072,0.336-0.42,0.566-0.666,0.768
			c-0.769,0.631-1.573,1.222-2.367,1.82c-1.626,1.225-3.26,2.443-4.968,3.554c-0.925,0.601-1.968,1.331-3.088,1.508
			c-1.689,0.266-2.839-1.35-3.838-2.456c-5.913-6.544-11.358-13.392-16.717-20.396c-2.407-3.146-4.465-6.468-6.268-9.994
			c-0.923-1.804-1.806-3.635-2.573-5.511c-0.389-0.952-0.882-2.021-0.825-3.08c0.124-2.319,2.462-4.492,3.897-6.062
			c2.787-3.05,5.858-5.809,9.021-8.461c6.554-5.495,13.397-10.641,20.044-16.022c3.239-2.622,6.453-5.274,9.483-8.137
			c3.099-2.928,6.03-6.019,9.283-8.781c1.535-1.303,3.117-2.547,4.7-3.792"/>
	</g>
	<g id="POLYLINE_427_">
		
			<path fill="none" stroke="#FF6B6B" stroke-width="2.5" stroke-linecap="round" stroke-linejoin="round" stroke-miterlimit="10" d="
			M494.356,219.858c0.636,0.861,1.437,1.593,2.262,2.268c1.032,0.844,2.148,1.817,3.333,2.428c1.389,0.716,3.455-0.274,4.78-0.624
			c1.554-0.411,3.112-0.731,4.721-0.8c1.568-0.067,3.154,0.051,4.713-0.155c1.46-0.192,2.74-0.782,3.839-1.762
			c1.4-1.248,2.445-2.91,2.998-4.698c0.666-2.151,1.192-4.761,0.954-7.023c-0.154-1.458-0.936-2.027-2.322-2.323
			c-1.738-0.371-3.536-1.049-5.341-0.783c-1.88,0.276-3.635,1.346-5.086,2.515c-1.795,1.446-3.172,3.393-5.264,4.445
			c-0.554,0.278-1.132,0.505-1.711,0.724"/>
	</g>
	<g id="POLYLINE_428_">
		
			<path fill="none" stroke="#FF6B6B" stroke-width="2.5" stroke-linecap="round" stroke-linejoin="round" stroke-miterlimit="10" d="
			M516.566,172.288c0.013,3.113,0.046,6.225,0.216,9.335c0.164,3.009,0.517,6.003,0.691,9.011c0.139,2.409,0.172,4.919-0.603,7.235
			c-0.673,2.01-2.029,3.657-3.436,5.206c-1.696,1.866-3.385,3.65-4.416,5.982"/>
	</g>
	<g id="POLYLINE_429_">
		
			<path fill="none" stroke="#FF6B6B" stroke-width="2.5" stroke-linecap="round" stroke-linejoin="round" stroke-miterlimit="10" d="
			M505.842,223.649c-0.35,2.737-0.699,5.474-1.049,8.211c-0.247,1.935-0.714,4.007-0.716,5.966
			c-0.002,2.615,3.442,4.404,5.263,5.619c4.009,2.673,8.197,5.116,12.606,7.071c4.157,1.843,8.502,3.114,12.989,3.849
			c4.84,0.793,9.747,1.034,14.642,1.191c4.811,0.154,9.643,0.198,14.453-0.025c2.317-0.108,4.649-0.245,6.938-0.635
			c1.179-0.201,2.59-0.432,3.584-1.169c0.686-0.509,0.989-1.249,1.116-2.071c0.29-1.871,0.02-3.872-0.042-5.748
			c-0.166-4.989,0.079-9.989,0.286-14.973c0.199-4.79,0.592-9.57,1.13-14.333c0.124-1.096,0.266-2.191,0.401-3.286"/>
	</g>
	<g id="POLYLINE_430_">
		
			<path fill="none" stroke="#FF6B6B" stroke-width="2.5" stroke-linecap="round" stroke-linejoin="round" stroke-miterlimit="10" d="
			M530.586,273.181c-0.842,5.302-1.731,10.597-2.408,15.923c-1.033,8.131-2.067,16.263-3.1,24.394
			c-0.956,7.521-1.912,15.042-2.867,22.563c-0.69,5.432-1.508,10.91-1.648,16.391c-0.064,2.501-0.003,5.103,0.774,7.504
			c0.78,2.411,2.357,4.438,3.708,6.546c3.303,5.156,5.225,11.224,6.95,17.056c1.858,6.282,3.022,12.726,4.698,19.053
			c1.612,6.088,3.386,12.104,4.18,18.37c0.411,3.244,0.631,6.561,1.338,9.76c0.261,1.181,0.604,2.744,1.702,3.461
			c0.623,0.407,1.404,0.491,2.126,0.57c1.302,0.142,2.619,0.225,3.929,0.195c1.62-0.037,3.323-0.228,4.796-0.952
			c2.756-1.355,3.865-4.61,4.064-7.486c0.22-3.178-0.675-6.367-1.158-9.485c-0.484-3.122-0.859-6.262-1.148-9.408
			c-0.601-6.562-0.255-13.105-0.53-19.674c-0.123-2.947-0.488-5.877-1.238-8.733c-0.79-3.006-1.92-5.903-3.043-8.796
			c-1.092-2.812-2.28-5.621-2.936-8.576c-0.682-3.073-0.917-6.294-1.181-9.423c-0.478-5.666,1.94-10.563,4.263-15.587
			c2.697-5.832,5.666-11.535,8.714-17.189c3.119-5.785,6.33-11.565,8.444-17.814c2.026-5.99,3.067-12.269,3.72-18.543
			c0.641-6.154,1-12.352,1.163-18.537c0.095-3.601,0.19-7.202,0.285-10.803"/>
	</g>
	<g id="POLYLINE_431_">
		
			<path fill="none" stroke="#FF6B6B" stroke-width="2.5" stroke-linecap="round" stroke-linejoin="round" stroke-miterlimit="10" d="
			M542.079,430.094c-2.365,1.671-4.897,2.607-7.795,2.816c-1.74,0.126-4.316,0.307-5.802-0.883
			c-1.403-1.124-1.784-3.444-2.086-5.067c-0.664-3.568-0.806-7.222-1.038-10.837c-0.228-3.557-0.48-7.108-1.107-10.621
			c-0.671-3.765-1.656-7.468-2.486-11.2c-1.591-7.155-2.517-14.442-3.203-21.733c-0.704-7.474-1.156-14.973-1.786-22.454
			c-0.291-3.455-0.675-6.905-1.505-10.277c-0.939-3.815-2.266-7.542-3.467-11.279c-2.235-6.959-4.073-14.021-5.715-21.142
			c-1.608-6.976-3.053-14.014-4.214-21.079c-1.205-7.334-2.268-14.699-2.463-22.14c-0.09-3.445-0.038-6.922,0.422-10.342
			c0.448-3.335,1.586-6.425,2.844-9.529c0.635-1.567,1.306-3.116,2.034-4.642"/>
	</g>
	<g id="POLYLINE_432_">
		
			<path fill="none" stroke="#FF6B6B" stroke-width="2.5" stroke-linecap="round" stroke-linejoin="round" stroke-miterlimit="10" d="
			M543.968,434.235c0.079,5.149,0.112,10.112-0.611,15.219c-0.274,1.934-1.182,5.493,1.67,5.719c1.922,0.152,3.988-0.07,5.894-0.322
			c1.438-0.19,2.943-0.477,4.232-1.178c1.987-1.08,2.706-3.181,2.95-5.31c0.258-2.256,0.123-4.549-0.054-6.806
			c-0.205-2.617-0.41-5.236-0.677-7.847c-0.063-0.613-0.135-1.224-0.207-1.836"/>
	</g>
	<g id="POLYLINE_433_">
		
			<path fill="none" stroke="#FF6B6B" stroke-width="2.5" stroke-linecap="round" stroke-linejoin="round" stroke-miterlimit="10" d="
			M557.776,430.79c0.917,5.684,1.637,11.39,2.06,17.133c0.208,2.822,0.456,5.672,0.371,8.504c-0.036,1.216-0.08,2.737-0.779,3.802
			c-0.68,1.038-1.982,1.233-3.121,1.372c-2.659,0.325-5.389,0.354-8.061,0.215c-2.209-0.115-6.98-0.044-7.33-3.124
			c-0.248-2.18,0.199-4.563,0.633-6.695c0.572-2.808,1.408-5.56,2.073-8.347c0.15-0.626,0.293-1.254,0.438-1.881"/>
	</g>
	<g id="POLYLINE_434_">
		
			<path fill="none" stroke="#FF6B6B" stroke-width="2.5" stroke-linecap="round" stroke-linejoin="round" stroke-miterlimit="10" d="
			M527.769,431.204c-1.542,5.29-3.457,10.413-5.529,15.517c-0.508,1.25-1.034,2.491-1.576,3.727
			c-0.197,0.448-0.495,0.968-0.525,1.473c-0.055,0.918,0.875,1.485,1.6,1.835c1.516,0.732,3.288,0.927,4.947,0.964
			c1.762,0.04,3.681-0.059,5.346-0.698c2.769-1.062,3.226-4.083,3.851-6.649c1.204-4.936,3.541-9.446,4.334-14.497
			c0.091-0.581,0.173-1.163,0.254-1.745"/>
	</g>
	<g id="POLYLINE_435_">
		
			<path fill="none" stroke="#FF6B6B" stroke-width="2.5" stroke-linecap="round" stroke-linejoin="round" stroke-miterlimit="10" d="
			M521.08,449.508c-2.196,1.91-4.455,3.836-6.552,5.852c-0.883,0.849-1.928,1.912-2.095,3.192c-0.43,3.307,5.398,3.035,7.237,3.138
			c2.897,0.163,5.807,0.275,8.707,0.107c2.056-0.119,4.294-0.295,6.184-1.195c3.15-1.5,2.845-5.272,3.133-8.229
			c0.551-5.666,2.495-11.325,5.206-16.315c0.336-0.619,0.693-1.227,1.066-1.824"/>
	</g>
	<g id="POLYLINE_436_">
		
			<path fill="none" stroke="#FF6B6B" stroke-width="2.5" stroke-linecap="round" stroke-linejoin="round" stroke-miterlimit="10" d="
			M379.838,461.846c4.383,0.109,8.827,0.323,13.193-0.185c2.142-0.249,4.926-0.642,6.372-2.475c0.907-1.15,1.096-2.702,0.76-4.099
			c-0.454-1.89-1.872-3.214-3.678-3.808c-1.488-0.49-3.09-0.602-4.643-0.712c-2.317-0.163-4.637-0.278-6.952-0.473
			c-0.542-0.046-1.084-0.097-1.625-0.145"/>
	</g>
	<g id="POLYLINE_437_">
		
			<path fill="none" stroke="#FF6B6B" stroke-width="2.5" stroke-linecap="round" stroke-linejoin="round" stroke-miterlimit="10" d="
			M370.624,448.424c0.986-0.739,1.124-2.054,1.103-3.194c-0.055-3.1-0.973-6.067-0.596-9.186c0.179-1.478,0.456-2.92,0.438-4.414
			c-0.021-1.751-0.257-3.501-0.427-5.241c-0.3-3.067-0.525-6.165-0.188-9.24c0.316-2.893,1.622-5.527,2.018-8.392
			c0.431-3.115-0.161-6.276,0.301-9.393c0.458-3.085,1.427-6.067,1.853-9.162c0.419-3.042,0.587-6.117,0.752-9.181
			c0.367-6.812,0.312-13.886,2.293-20.478c0.932-3.1,2.194-6.116,3.408-9.113c1.193-2.944,2.383-5.89,3.645-8.806
			c2.996-6.923,6.128-13.806,8.817-20.857c2.464-6.462,4.425-13.068,5.815-19.844c1.375-6.704,2.286-13.515,2.845-20.334
			c0.254-3.095,0.397-6.195,0.497-9.298c0.121-3.766,0.365-7.552,0.294-11.321c-0.027-1.43-0.24-2.772-0.551-4.164"/>
	</g>
	<g id="POLYLINE_438_">
		
			<path fill="none" stroke="#FF6B6B" stroke-width="2.5" stroke-linecap="round" stroke-linejoin="round" stroke-miterlimit="10" d="
			M358.268,445.358c4.452,1.291,8.945,2.367,13.487,3.29c1.213,0.247,2.43,0.47,3.648,0.687"/>
	</g>
	<g id="POLYLINE_439_">
		
			<path fill="none" stroke="#FF6B6B" stroke-width="2.5" stroke-linecap="round" stroke-linejoin="round" stroke-miterlimit="10" d="
			M337.66,446.268c-0.693,2.997-0.829,6.121-1.078,9.177c-0.096,1.179-0.24,2.509,0.206,3.645c0.969,2.467,4.789,2.534,6.912,2.66
			c5.853,0.347,11.741-0.07,17.599-0.038c5.91,0.032,11.838,0.449,17.745,0.176c2.953-0.136,7.791-0.171,9.584-3.101
			c1.15-1.88,0.659-4.394-0.701-6.021c-2.203-2.636-6.039-3.413-9.294-3.576c-1.573-0.079-3.306-0.046-4.785,0.567
			c-1.237,0.512-1.922,1.694-3.043,2.374c-1.226,0.744-2.739,0.964-4.135,1.121c-2.534,0.285-5.114,0.242-7.653,0.052
			c-4.544-0.339-9.355-1.073-13.207-3.675c-1.111-0.751-2.109-1.647-3.19-2.438"/>
	</g>
	<g id="POLYLINE_440_">
		
			<path fill="none" stroke="#FF6B6B" stroke-width="2.5" stroke-linecap="round" stroke-linejoin="round" stroke-miterlimit="10" d="
			M376.131,286.695c-0.599,6.986-1.322,13.954-2.213,20.909c-0.904,7.06-1.824,14.135-3.281,21.106
			c-0.674,3.224-1.526,6.392-2.481,9.544c-1.041,3.437-2.167,6.857-2.752,10.41c-0.549,3.332-0.644,6.716-1.054,10.065
			c-0.27,2.208-0.719,4.32-1.885,6.235c-1.543,2.536-3.227,4.794-4.338,7.576c-1.148,2.875-1.824,5.883-2.117,8.963
			c-0.639,6.714-0.294,13.63-0.021,20.357c0.28,6.89,0.691,13.758,1.281,20.628c0.342,3.977,0.667,7.956,1.026,11.931
			c0.241,2.667,1.244,5.34,1.086,8.025c-0.06,1.013-0.315,2.067-1.029,2.826c-1.139,1.211-3.047,1.526-4.612,1.73
			c-3.369,0.44-6.867,0.469-10.254,0.255c-2.339-0.148-4.873-0.396-6.994-1.478c-3.061-1.561-3.764-4.956-3.968-8.129
			c-0.22-3.431,0.034-6.883,0.084-10.315c0.049-3.378-0.08-6.738-0.477-10.094c-0.415-3.505-1.04-6.979-1.78-10.429
			c-0.731-3.409-1.676-6.774-2.279-10.21c-1.141-6.498-0.313-13.06,0.934-19.481c0.712-3.666,1.565-7.299,2.33-10.954
			c0.685-3.27,0.963-6.569,1.298-9.888c0.302-2.992,1.187-5.734,1.82-8.655c0.628-2.896,0.385-5.888,0.135-8.815
			c-0.659-7.716-0.902-15.401-1.125-23.142c-0.185-6.453-0.663-12.839-1.844-19.193c-1.274-6.852-2.813-13.615-3.107-20.603
			c-0.29-6.885,0.274-13.935,1.67-20.685c0.655-3.168,1.676-6.209,2.815-9.23"/>
	</g>
	<g id="POLYLINE_441_">
		
			<path fill="none" stroke="#FF6B6B" stroke-width="2.5" stroke-linecap="round" stroke-linejoin="round" stroke-miterlimit="10" d="
			M338.495,176.221c-1.661,0.844-3.048,2.376-3.947,3.982c-0.903,1.613-0.808,2.981,0.021,4.604
			c0.741,1.451,1.506,2.818,2.042,4.362c0.643,1.852,1.234,3.702,2.211,5.413c1.567,2.745,3.832,5.163,4.968,8.142
			c0.948,2.487,0.779,5.217,0.571,7.821c-0.172,2.142-0.266,4.302-0.478,6.44c-0.091,0.914-0.377,1.756-0.758,2.589
			c-1.713,3.749-4.076,7.191-5.962,10.856c-1.724,3.349-3.362,6.894-4.187,10.588c-0.509,2.28-0.25,3.992,0.404,6.206
			c0.707,2.391,1.065,5.297,2.969,7.111c1.895,1.806,4.852,2.204,7.314,2.612c4.316,0.715,8.653,1.289,12.997,1.801
			c8.118,0.956,16.306,1.399,24.477,1.034c4.275-0.191,8.542-0.497,12.809-0.81c2.722-0.2,5.885-0.179,8.294-1.666
			c4.19-2.586,4.177-8.429,4.382-12.741c0.2-4.215,0.411-8.431,0.453-12.651c0.043-4.304-0.048-8.641,0.404-12.929
			c0.216-2.052,0.548-4.084,0.893-6.117"/>
	</g>
	<g id="POLYLINE_442_">
		
			<path fill="none" stroke="#FF6B6B" stroke-width="2.5" stroke-linecap="round" stroke-linejoin="round" stroke-miterlimit="10" d="
			M335.567,132.294c2.701-0.489,5.335-1.457,7.807-2.636c1.289-0.615,2.727-1.343,3.576-2.546c0.414-0.586,0.655-1.264,0.869-1.943"
			/>
	</g>
	<g id="POLYLINE_443_">
		
			<path fill="none" stroke="#FF6B6B" stroke-width="2.5" stroke-linecap="round" stroke-linejoin="round" stroke-miterlimit="10" d="
			M328.457,136.358c0.341-2.11,2.13-3.093,4.062-3.679c3.469-1.053,7.544,0.059,10.88,1.116c2.22,0.704,4.414,1.616,6.356,2.914"/>
	</g>
	<g id="POLYLINE_444_">
		
			<path fill="none" stroke="#FF6B6B" stroke-width="2.5" stroke-linecap="round" stroke-linejoin="round" stroke-miterlimit="10" d="
			M351.012,141.212c-3.757-3.524-8.728-6.138-13.795-7.133c-2.851-0.56-6.019-0.478-8.21,1.674c-2.8,2.75-3.299,7.337-3.496,11.042
			c-0.288,5.411,0.37,10.876,1.672,16.126c1.353,5.458,3.261,11.012,6.056,15.909c0.349,0.611,0.717,1.211,1.078,1.814"/>
	</g>
	<g id="POLYLINE_445_">
		
			<path fill="none" stroke="#FF6B6B" stroke-width="2.5" stroke-linecap="round" stroke-linejoin="round" stroke-miterlimit="10" d="
			M374.811,115.543c-3.891-0.279-7.784-1.962-11.252-3.645c-1.129-0.548-2.235-1.138-3.333-1.744"/>
	</g>
	<g id="POLYLINE_446_">
		
			<path fill="none" stroke="#FF6B6B" stroke-width="2.5" stroke-linecap="round" stroke-linejoin="round" stroke-miterlimit="10" d="
			M367.163,149.858c3.513,1.215,7.346,1.391,10.971,0.518"/>
	</g>
	<g id="POLYLINE_447_">
		
			<path fill="none" stroke="#FF6B6B" stroke-width="2.5" stroke-linecap="round" stroke-linejoin="round" stroke-miterlimit="10" d="
			M368.829,170.375c0.564-2.6,1.016-5.144,0.451-7.78c-0.671-3.13-2.126-6.106-2.31-9.337c-0.161-2.83,0.781-5.606,0.522-8.438
			c-0.284-3.106-2.025-5.934-3.4-8.656c-1.295-2.563-2.336-5.121-2.328-8.031c0.008-2.975,0.62-5.902-0.207-8.824
			c-0.991-3.502-3.049-6.617-4.525-9.919c-1.504-3.363-2.266-6.889-2.151-10.579c0.104-3.342,0.851-6.614,2.066-9.722
			c1.315-3.362,2.908-6.565,3.948-10.033c1.356-4.523,2.637-11.658,7.81-13.502c4.118-1.468,9.068,1.068,11.9,3.967
			c2.449,2.506,3.978,5.701,5.485,8.819c0.782,1.618,1.514,3.232,1.492,5.057c-0.027,2.231-0.761,4.418-0.28,6.641
			c0.323,1.495,0.859,2.915,1.011,4.448c0.151,1.52,0.073,3.063-0.068,4.581c-0.304,3.272-0.936,6.573-1.967,9.697
			c-0.61,1.849-1.434,3.839-2.986,5.109c-0.573,0.469-1.234,0.817-1.932,1.06"/>
	</g>
	<g id="POLYLINE_448_">
		
			<path fill="none" stroke="#FF6B6B" stroke-width="2.5" stroke-linecap="round" stroke-linejoin="round" stroke-miterlimit="10" d="
			M363.642,199.939c-2.324,1.062-4.259,2.856-6.055,4.635c-0.777,0.77-1.654,1.647-1.904,2.758
			c-0.253,1.123,0.249,2.255,0.805,3.207c1.301,2.228,3.262,4.208,5.229,5.852c2.767,2.312,5.719,3.471,9.324,2.989
			c2.382-0.318,4.724-1.1,6.858-2.198c2.464-1.269,4.441-3.104,6.469-4.959c2.279-2.084,4.406-3.507,7.572-2.979
			c2.94,0.49,5.774,1.583,8.68,2.248c2.986,0.683,6.012,1.188,9.055,1.536c2.899,0.332,5.826,0.559,8.746,0.505
			c2.37-0.044,4.887-0.213,7.095-1.151c3.126-1.328,3.799-4.397,3.637-7.525c-0.287-5.535-2.414-10.697-4.896-15.583
			c-2.773-5.457-5.995-10.72-9.557-15.697c-0.888-1.241-1.801-2.461-2.726-3.674"/>
	</g>
	<g id="POLYLINE_449_">
		
			<path fill="none" stroke="#FF6B6B" stroke-width="2.5" stroke-linecap="round" stroke-linejoin="round" stroke-miterlimit="10" d="
			M410.71,178.962c1.367-3.352,1.854-7.368,0.932-10.898c-0.858-3.283-3.578-4.945-5.606-7.473c-2.344-2.922-2.748-6.842-4.57-10.05
			c-1.099-1.934-2.606-3.591-3.857-5.422c-1.033-1.512-1.823-3.127-2.355-4.88c-0.733-2.414-1.073-4.951-1.182-7.468
			c-0.107-2.456,0.174-4.883,0.251-7.334c0.161-5.149-0.897-10.345-1.592-15.424c-0.651-4.752-0.81-9.476-1.059-14.26
			c-0.255-4.895-1.127-9.738-2.245-14.504c-1.046-4.461-2.131-9.237-4.55-13.186c-2.139-3.492-5.555-6.204-9.378-7.648
			c-2.857-1.079-5.598-1.156-8.438-0.026c-1.827,0.728-3.531,1.77-5.436,2.295c-1.746,0.482-3.595,0.59-5.277,1.298
			c-2.958,1.245-4.985,4.163-6.463,6.885c-2.337,4.305-3.669,9.131-4.497,13.935c-0.792,4.592-1.11,9.267-1.002,13.924
			c0.118,5.089,0.816,10.135,1.631,15.152c0.861,5.299,1.707,10.585,2.453,15.901c0.649,4.621,1.693,9.166,3.266,13.563
			c1.592,4.449,3.754,8.53,6.507,12.367c2.999,4.18,5.892,8.448,8.99,12.554c1.52,2.014,3.072,4.002,4.637,5.98"/>
	</g>
	<g id="POLYLINE_450_">
		
			<path fill="none" stroke="#FF6B6B" stroke-width="2.5" stroke-linecap="round" stroke-linejoin="round" stroke-miterlimit="10" d="
			M410.095,194.355c0.429-3.98,0.628-7.982,0.657-11.985c0.028-3.807,0.024-7.913-1.313-11.531c-0.595-1.61-1.527-3.051-2.917-4.081
			c-1.969-1.46-4.281-2.189-5.925-4.072c-1.483-1.698-2.828-3.479-4.386-5.116c-1.615-1.696-3.294-3.331-4.95-4.987"/>
	</g>
	<g id="POLYLINE_451_">
		
			<path fill="none" stroke="#FF6B6B" stroke-width="2.5" stroke-linecap="round" stroke-linejoin="round" stroke-miterlimit="10" d="
			M388.885,193.903c2.259,0.008,4.526-0.038,6.78,0.141c2.205,0.175,4.377,0.612,6.575,0.846c3.952,0.421,7.482-0.372,11.249-1.512
			c2.104-0.637,4.042-1.014,6.235-1.178"/>
	</g>
	<g id="POLYLINE_452_">
		
			<path fill="none" stroke="#FF6B6B" stroke-width="2.5" stroke-linecap="round" stroke-linejoin="round" stroke-miterlimit="10" d="
			M369.745,178.796c0.839-1.94,1.691-3.821,2.761-5.646c1.029-1.755,2.015-3.525,2.762-5.421c1.604-4.07,2.487-8.496,2.807-12.85
			c0.293-3.986-0.11-7.842-1.395-11.635c-1.428-4.216-3.31-8.169-3.889-12.63c-0.528-4.067,0.155-7.882,1.141-11.818
			c0.312-1.243,0.48-3.252,1.474-4.227c0.579-0.569,1.424-0.623,2.192-0.571c3.574,0.24,7.067,2.302,10.023,4.159
			c1.656,1.041,3.381,2.155,3.998,4.111c0.407,1.291,0.408,2.693,0.397,4.031c-0.014,1.798-0.088,3.595-0.144,5.392
			c-0.182,5.804-0.366,11.608-0.545,17.412c-0.141,4.547,0.18,9.01,0.563,13.538c0.375,4.429,0.736,8.896,0.273,13.333
			c-0.486,4.664-1.818,9.179-2.606,13.792c-0.682,3.992-0.915,8.553-2.779,12.232c-0.833,1.644-2.162,2.871-3.907,3.484
			c-2.643,0.928-5.678,0.688-8.35,0.04c-4.281-1.039-8.023-3.471-11.525-6.058c-3.847-2.842-7.638-5.81-11.296-8.892
			c-3.537-2.981-6.84-6.218-9.767-9.804c-2.945-3.609-5.561-7.49-7.862-11.538c-1.144-2.013-2.198-4.073-3.182-6.168"/>
	</g>
	<g id="POLYLINE_453_">
		
			<path fill="none" stroke="#FF6B6B" stroke-width="2.5" stroke-linecap="round" stroke-linejoin="round" stroke-miterlimit="10" d="
			M168.529,460.716c0.401,0.66,1.306,0.75,1.999,0.818c1.832,0.18,3.693,0.209,5.532,0.279c3.67,0.14,7.584,0.332,11.184-0.542
			c1.515-0.368,3.022-1.023,3.926-2.351c1.317-1.936,1.481-4.611,1.766-6.851c0.494-3.886,0.1-7.676-1.28-11.353"/>
	</g>
	<g id="POLYLINE_454_">
		
			<path fill="none" stroke="#FF6B6B" stroke-width="2.5" stroke-linecap="round" stroke-linejoin="round" stroke-miterlimit="10" d="
			M173.82,445.411c-2.007,1.177-3.409,2.392-4.066,4.685"/>
	</g>
	<g id="POLYLINE_455_">
		
			<path fill="none" stroke="#FF6B6B" stroke-width="2.5" stroke-linecap="round" stroke-linejoin="round" stroke-miterlimit="10" d="
			M148.923,442.614c-0.955,2.035-1.561,3.92-1.701,6.179c-0.178,2.871-0.074,5.851,0.324,8.701c0.16,1.143,0.439,2.346,1.409,3.079
			c1.208,0.913,2.994,1.048,4.432,1.163c2.993,0.24,6.043,0.265,9.04,0.103c1.955-0.106,4.098-0.231,5.915-1.038
			c2.769-1.229,2.519-4.721,2.198-7.253c-0.215-1.696-0.606-3.447-1.464-4.944c-1.081-1.888-2.859-3.364-4.291-4.979
			c-0.425-0.479-0.849-0.957-1.296-1.416"/>
	</g>
	<g id="POLYLINE_456_">
		
			<path fill="none" stroke="#FF6B6B" stroke-width="2.5" stroke-linecap="round" stroke-linejoin="round" stroke-miterlimit="10" d="
			M169.98,64.352c-2.389,1.01-4.239,2.148-5.922,4.157c-1.754,2.093-3.264,4.541-4.066,7.166c-1.659,5.43,1.12,10.301,3.362,15.1
			c0.361,0.773,2.167,3.867,0.366,4.127c-0.933,0.135-3.279-1.056-3.703,0.286c-0.351,1.114,0.617,2.546,1.314,3.335
			c0.677,0.766,1.506,1.386,2.348,1.958c0.92,0.625,1.936,1.557,3.004,1.924c1.383,0.475,2.298-1.29,3.667-1.202
			c1.596,0.102,2.936,1.928,4.167,2.739c4.514,2.974,10.765,3.064,15.918,2.192c3.808-0.644,7.002-2.108,8.217-5.967
			c0.942-2.99,1-6.228,0.884-9.334c-0.122-3.251-0.545-6.55-1.715-9.603c-1.197-3.123-3.1-5.913-5.039-8.614
			c-2.028-2.825-4.251-5.641-6.999-7.804c-3.409-2.683-7.191-3.435-11.343-2.17c-0.666,0.203-1.321,0.438-1.97,0.688
			c-0.347,0.133-0.691,0.273-1.035,0.415C171.067,63.897,170.38,64.352,169.98,64.352z"/>
	</g>
	<g id="POLYLINE_457_">
		
			<path fill="none" stroke="#FF6B6B" stroke-width="2.5" stroke-linecap="round" stroke-linejoin="round" stroke-miterlimit="10" d="
			M174.312,103.804c4.105,3.88,5.611,9.097,4.978,14.64c-0.344,3.006-1.209,6.441-4.647,6.974c-2.176,0.337-4.401-0.111-6.593,0.09
			c-0.676,0.062-3.531,0.775-3.069-0.734c0.7-2.286,3.77-4.245,2.005-6.789c-1.226-1.768-3.163-2.95-4.579-4.559
			c-1.295-1.472-2.071-3.243-2.729-5.073c-1.092-3.039-2.338-5.959-3.645-8.912c-1.016-2.295-1.973-4.644-2.513-7.102
			c-0.665-3.031-0.661-6.145-0.829-9.228c-0.147-2.702-0.762-5.286-1.207-7.946c-0.541-3.236-0.688-8.047,2.206-10.349
			c1.935-1.539,4.371-2.436,6.478-3.715c1.568-0.953,2.794-2.367,4.396-3.248c2.007-1.104,4.39-1.614,6.633-1.95
			c2.327-0.349,4.729-0.452,7.05-0.002c4.545,0.88,8.607,3.863,11.652,7.242c3.665,4.069,6.033,9.117,8.285,14.054
			c1.334,2.926,2.596,5.901,4.103,8.744c1.367,2.578,2.973,5.018,4.313,7.611c2.788,5.395,5.061,11.298,8.709,16.198
			c1.226,1.647,2.655,3.078,4.459,4.082c0.267,0.149,2.11,0.8,2.108,1.258c-0.002,0.396-1.564,0.642-1.88,0.77
			c-2.43,0.979-3.011,3.353-3.268,5.757c-0.146,1.363-0.13,2.735-0.251,4.099c-0.065,0.735-0.218,1.452-0.183,2.192
			c0.117,2.467,1.026,4.855,1.254,7.315c0.034,0.364,0.201,1.303-0.152,1.584c-0.364,0.29-0.863-0.189-1.123-0.423
			c-1.566-1.407-2.688-3.504-3.529-5.395c-1.096-2.465-1.425-5.089-1.932-7.713c-0.251-1.298-0.581-2.617-1.345-3.718
			c-1.138-1.641-2.952-2.661-4.593-3.716c-1.973-1.268-3.712-2.735-5.098-4.642c-1.585-2.181-2.795-4.691-3.469-7.303"/>
	</g>
	<g id="POLYLINE_458_">
		
			<path fill="none" stroke="#FF6B6B" stroke-width="2.5" stroke-linecap="round" stroke-linejoin="round" stroke-miterlimit="10" d="
			M173.482,125.517c-1.771,6.629-2.315,13.253-1.835,20.099c0.227,3.239,0.604,6.581,1.676,9.665
			c0.604,1.737,1.514,3.39,3.087,4.421c1.899,1.245,4.355,1.554,6.562,1.735c3.246,0.266,6.55,0.119,9.758-0.445
			c2.701-0.474,5.42-1.259,7.736-2.767c2.47-1.608,4.267-3.949,5.709-6.484c3.199-5.626,5.691-12.047,6.51-18.489
			c0.084-0.659,0.146-1.321,0.188-1.985"/>
	</g>
	<g id="POLYLINE_459_">
		
			<path fill="none" stroke="#FF6B6B" stroke-width="2.5" stroke-linecap="round" stroke-linejoin="round" stroke-miterlimit="10" d="
			M220.638,250.282c-1.322,0.587-2.688-3.321-2.906-3.923c-1.222-3.372-1.228-6.868-0.934-10.397
			c0.332-3.985,0.666-7.932,0.624-11.935c-0.044-4.146-0.401-8.281-0.668-12.417c-0.098-1.524-0.552-3.953,0.641-5.207
			c0.889-0.934,2.138-1.619,3.216-2.302c1.866-1.183,3.756-2.329,5.632-3.496c3.167-1.971,6.308-3.707,9.666-5.331
			c3.184-1.539,6.276-3.234,9.041-5.457c2.722-2.189,5.248-4.725,7.341-7.525c1.104-1.477,2.284-3.105,1.571-5.005
			c-0.425-1.133-1.197-2.144-1.913-3.105c-1.183-1.586-2.432-3.122-3.717-4.626c-2.65-3.101-5.491-6.031-8.201-9.08
			c-1.14-1.283-2.258-2.593-3.275-3.976c-0.973-1.322-1.666-2.729-2.459-4.158c-0.283-0.51-0.623-1.141-1.285-0.855
			c-0.535,0.232-0.876,0.94-1.08,1.449c-0.973,2.429-0.856,5.137-2.071,7.511c-0.463,0.905-1.236,2.135-2.414,2.022
			c-1.671-0.159-2.406-2.276-2.725-3.638c-0.776-3.312-0.636-6.895-0.607-10.273c0.033-3.981,0.177-7.962,0.319-11.941
			c0.138-3.856,0.236-7.741,0.774-11.567c0.327-2.325,1.049-8.2,4.755-7.277c2.221,0.553,4.103,2.464,5.613,4.054
			c2.255,2.374,4.193,5.029,6.109,7.678c5.114,7.068,10.238,14.116,15.469,21.098c4.631,6.181,9.448,12.28,12.972,19.189
			c1.731,3.393,3.217,6.912,4.488,10.503c0.576,1.626,1.194,3.362,0.936,5.114c-0.528,3.587-3.812,5.424-6.87,6.676
			c-3.459,1.416-6.95,2.672-10.315,4.314c-3.958,1.932-7.852,3.995-11.769,6.01c-3.29,1.693-6.574,3.373-9.937,4.919
			c-1.699,0.781-3.412,1.54-5.146,2.241c-1.704,0.689-3.495,1.265-5.11,2.155c-1.304,0.719-2.308,1.689-2.635,3.181
			c-0.585,2.666,0.262,5.67,0.668,8.298c0.502,3.25,0.624,6.365,0.26,9.634c-0.427,3.831-0.829,7.671-1.669,11.439
			c-0.341,1.528-0.714,3.09-1.346,4.527C221.461,249.305,221.167,250.031,220.638,250.282z"/>
	</g>
	<g id="POLYLINE_460_">
		
			<path fill="none" stroke="#FF6B6B" stroke-width="2.5" stroke-linecap="round" stroke-linejoin="round" stroke-miterlimit="10" d="
			M166.148,125.682c-1.714,5.306-2.962,10.751-3.743,16.273c-0.778,5.499-0.978,11.03-0.529,16.567
			c0.469,5.781,1.617,11.53,1.782,17.331c0.077,2.684-0.189,5.335-0.91,7.925c-0.731,2.626-1.782,5.148-2.634,7.735
			c-0.827,2.509-1.099,4.965-1.403,7.575c-0.231,1.989-0.77,3.787-1.755,5.536c-2.576,4.574-6.039,8.511-8.256,13.314
			c-2.298,4.979-3.793,10.312-5.067,15.632c-1.398,5.836-2.489,11.742-3.596,17.638c-0.976,5.193-1.835,10.407-2.73,15.615
			c-1.208,7.028-2.415,14.055-3.623,21.083c-0.377,2.196-0.851,4.369-1.342,6.542c-0.194,0.861-0.469,1.911-0.046,2.753
			c0.41,0.815,1.383,1.202,2.197,1.479c2.546,0.866,5.34,1.103,7.984,1.503c5.61,0.849,10.998,2.337,16.467,3.814
			c5.265,1.423,10.463,2.273,15.9,2.66c5.892,0.419,11.708,0.935,17.498,2.161c2.696,0.571,5.372,1.255,8.005,2.069
			c2.618,0.809,5.131,1.929,7.754,2.711c1.061,0.316,2.438,0.694,3.463,0.07c0.949-0.578,1.329-1.818,1.592-2.826
			c0.615-2.354,0.841-4.832,1.179-7.237c0.4-2.84,0.826-5.677,1.195-8.521c0.765-5.896,1.54-11.789,2.214-17.696
			c0.717-6.274,1.436-12.544,2.043-18.83c0.265-2.745,0.502-5.493,0.753-8.239"/>
	</g>
	<g id="POLYLINE_461_">
		
			<path fill="none" stroke="#FF6B6B" stroke-width="2.5" stroke-linecap="round" stroke-linejoin="round" stroke-miterlimit="10" d="
			M217.751,206.082c0.456-3.588,1.197-6.919,2.392-10.335c1.295-3.702,2.689-7.37,3.94-11.088
			c2.432-7.228,4.132-14.679,6.675-21.871c1.257-3.555,1.844-7.073,1.739-10.85"/>
	</g>
	<g id="POLYLINE_462_">
		
			<path fill="none" stroke="#FF6B6B" stroke-width="2.5" stroke-linecap="round" stroke-linejoin="round" stroke-miterlimit="10" d="
			M221.857,115.173c1.907-0.075,3.917,0.057,5.791,0.426c1.01,0.199,1.988,0.526,2.679,1.322c0.342,0.394,0.596,0.859,0.831,1.321"
			/>
	</g>
	<g id="POLYLINE_463_">
		
			<path fill="none" stroke="#FF6B6B" stroke-width="2.5" stroke-linecap="round" stroke-linejoin="round" stroke-miterlimit="10" d="
			M161.912,146.175c-0.603-1.536-1.472-3.006-2.785-4.037c-1.921-1.508-4.468-2.065-6.8-2.568
			c-7.666-1.651-15.498-2.473-23.022-4.767c-7.507-2.289-14.48-6.027-21.605-9.255c-4.979-2.256-11.208-4.748-13.528-10.142
			c-1.085-2.522-0.797-4.997,1.334-6.842c0.957-0.828,2.045-1.491,3.106-2.174c2.307-1.485,4.614-2.97,6.921-4.455
			c3.009-1.937,6.009-3.887,9.131-5.64c6.828-3.833,14.148-6.568,21.266-9.789c3.59-1.624,8.209-3.549,8.912-7.912
			c0.54-3.354-0.261-6.792,0.334-10.15c0.496-2.8,2.009-5.102,4.015-7.065c1.32-1.292,3.053-3.17,5.063-3.209
			c1.427-0.027,2.857,0.728,3.976,1.55c0.61,0.448,1.174,0.965,1.646,1.557"/>
	</g>
	<g id="POLYLINE_464_">
		
			<path fill="none" stroke="#FF6B6B" stroke-width="2.5" stroke-linecap="round" stroke-linejoin="round" stroke-miterlimit="10" d="
			M166.496,117.377c-3.264-0.257-6.451-0.596-9.675-1.168c-2.82-0.499-5.6-0.76-8.466-0.668c-3.244,0.104-6.477,0.436-9.721,0.507
			c-2.99,0.066-5.884-0.299-8.807-0.906c-3.239-0.672-6.54-1.035-9.767-1.728c-0.416-0.089-1.262-0.187-1.551-0.558
			c-0.32-0.41,0.084-0.768,0.38-1.072c2.273-2.344,4.735-4.559,7.156-6.753c2.525-2.288,5.123-4.476,7.892-6.464
			c5.346-3.838,11.06-7.211,16.648-10.678c0.751-0.466,1.507-0.924,2.26-1.387"/>
	</g>
	<g id="POLYLINE_465_">
		
			<path fill="none" stroke="#FF6B6B" stroke-width="2.5" stroke-linecap="round" stroke-linejoin="round" stroke-miterlimit="10" d="
			M170.482,306.298c-1.767,5.348-3.396,10.738-4.713,16.215c-1.304,5.422-2.348,10.928-2.904,16.48
			c-0.574,5.73-0.662,11.482-0.877,17.232c-0.206,5.524-0.728,10.914-1.823,16.335c-1.072,5.309-2.244,10.521-2.596,15.941
			c-0.365,5.614-0.301,11.258-0.937,16.854c-0.634,5.581-2.125,10.978-3.61,16.379c-1.444,5.25-2.776,10.501-3.528,15.901
			c-0.384,2.754-0.747,5.556-0.717,8.341c0.015,1.366,0.108,2.806,0.629,4.087c1.213,2.984,4.849,2.713,7.523,2.591
			c2.607-0.12,5.277-0.104,7.855-0.554c0.856-0.149,2.519-0.395,2.657-1.497c0.166-1.325-1.485-2.991-2.101-3.949
			c-0.915-1.422-1.583-2.902-1.872-4.579c-0.39-2.269-0.18-4.601,0.136-6.865c0.368-2.634,0.834-5.264,1.437-7.855
			c1.124-4.832,3.011-9.27,5.367-13.623c2.724-5.033,5.483-10.006,7.709-15.285c2.146-5.091,3.964-10.354,5.3-15.717
			c0.648-2.602,1.185-5.237,1.468-7.906c0.283-2.671,0.295-5.356,0.379-8.038c0.172-5.461,1.288-10.686,2.858-15.905
			c1.663-5.53,3.715-10.928,5.771-16.32c1.95-5.111,4.043-10.17,6.308-15.149c1.131-2.488,2.323-4.944,3.532-7.395"/>
	</g>
	<g id="POLYLINE_466_">
		
			<path fill="none" stroke="#FF6B6B" stroke-width="2.5" stroke-linecap="round" stroke-linejoin="round" stroke-miterlimit="10" d="
			M147.279,300.995c2.706,8.082,5.128,16.243,7.378,24.463c2.192,8.008,4.081,16.033,5.323,24.248
			c0.696,4.603,1.202,9.226,1.585,13.865"/>
	</g>
	<g id="POLYLINE_467_">
		
			<path fill="none" stroke="#FF6B6B" stroke-width="2.5" stroke-linecap="round" stroke-linejoin="round" stroke-miterlimit="10" d="
			M171.415,411.882c1.093,2.321,2.056,4.625,2.645,7.131c0.638,2.713,1.046,5.488,1.351,8.257c0.302,2.735,0.275,5.491,0.57,8.222
			c0.166,1.532,0.611,3.056,0.41,4.607c-0.203,1.563-1.061,2.956-1.893,4.259c-0.925,1.448-2.419,3.173-2.58,4.983
			c-0.101,1.136,0.659,1.631,1.689,1.823c2.327,0.433,4.879,0.17,7.224,0.054c2.246-0.111,4.684-0.071,6.864-0.69
			c0.927-0.263,1.743-0.715,2.323-1.504c0.642-0.874,0.955-1.966,1.179-3.01c0.574-2.671,0.57-5.401,0.201-8.098
			c-0.36-2.63-0.608-5.089-0.604-7.742c0.001-1.075-0.116-2.094-0.558-3.082c-0.814-1.821-2.092-3.38-2.696-5.304
			c-0.719-2.291-0.804-4.767-0.842-7.149c-0.082-5.102-0.188-10.177-0.447-15.272c-0.401-7.889-0.803-15.778-1.204-23.667
			c-0.029-0.564-0.057-1.127-0.086-1.691"/>
	</g>
	<g id="POLYLINE_469_">
		
			<path fill="none" stroke="#FF6B6B" stroke-width="2.5" stroke-linecap="round" stroke-linejoin="round" stroke-miterlimit="10" d="
			M818.684,259.25c-0.312,2.787-0.687,5.586-0.497,8.396c0.192,2.838,0.933,5.618,1.752,8.332
			c1.858,6.156,4.056,12.202,5.852,18.379c1.74,5.984,3.232,12.038,4.347,18.171c1.232,6.776,2.724,13.581,3.434,20.439
			c0.315,3.038,0.138,6.103,0.458,9.135c0.204,1.928,1.082,3.699,1.258,5.626c0.233,2.545-0.391,5.093-0.317,7.643
			c0.086,2.944,0.726,5.832,0.516,8.79c-0.074,1.036-0.195,2.06-0.087,3.098c0.142,1.353,0.545,2.673,0.857,3.993
			c0.643,2.712,0.577,5.481,0.864,8.24c0.625,5.992,2.226,11.928,2.036,17.968c-0.081,2.553,0.667,5.135,1.302,7.584
			c0.811,3.129,1.585,6.297,2.744,9.32c0.83,2.164,2.095,4.18,2.453,6.502c0.42,2.721-0.079,5.506,0.374,8.222
			c0.189,1.134,0.601,2.194,1.022,3.258c0.403,1.017,0.638,2.125,1.118,3.106c0.738,1.506,2.335,1.044,3.718,0.868
			c2.974-0.377,6.002-0.308,8.958-0.84c1.431-0.257,3.116-0.675,3.703-2.172c0.62-1.58,0.145-3.561-0.117-5.151
			c-0.507-3.08-0.922-6.147-1.04-9.27c-0.125-3.288-0.173-6.568-0.458-9.847c-0.276-3.161-0.626-6.318-0.801-9.487
			c-0.357-6.442-0.34-12.859,0.497-19.263c0.402-3.074,0.72-6.097,0.575-9.203c-0.151-3.246-0.57-6.475-0.925-9.702
			c-0.353-3.204-0.752-6.405-0.929-9.625c-0.17-3.096-0.081-6.173,0.049-9.268c0.279-6.675,0.449-13.323,0.264-20.004
			c-0.19-6.855-0.646-13.696-1.056-20.541c-0.383-6.394-0.805-12.782-0.769-19.191c0.017-3.101,0.136-6.201,0.247-9.299"/>
	</g>
	<g id="POLYLINE_470_">
		
			<path fill="none" stroke="#FF6B6B" stroke-width="2.5" stroke-linecap="round" stroke-linejoin="round" stroke-miterlimit="10" d="
			M864.626,433.091c2.604,1.53,5.489,2.272,8.503,2.238c2.218-0.025,5.378-0.213,7.061-1.952c1.743-1.8,0.966-4.692,0.894-6.888
			c-0.044-1.341,0.119-2.675,0.565-3.945c0.49-1.393,1.359-2.503,2.125-3.747c1.155-1.875,0.478-3.871,1.131-5.867
			c0.787-2.405,2.06-4.309,2.076-6.898c0.022-3.455-0.821-6.853-0.23-10.309c0.632-3.692,2.34-7.128,2.794-10.864
			c0.256-2.106-0.547-3.87-0.728-5.934c-0.127-1.452,0.161-2.918,0.275-4.361c0.141-1.79-0.165-3.522-0.298-5.302
			c-0.194-2.593,0.872-5.137,0.518-7.702c-0.184-1.337-0.688-2.606-0.856-3.949c-0.21-1.678-0.111-3.397,0.015-5.077
			c0.638-8.529,1.287-17.13,2.5-25.601c1.233-8.606,3.155-17.033,5.623-25.363c1.207-4.074,2.423-8.144,3.23-12.321
			c0.814-4.218,1.251-8.506,1.503-12.792c0.247-4.186,0.304-8.404,0.027-12.59c-0.255-3.858-1.157-7.524-2.486-11.149
			c-0.709-1.934-1.493-3.838-2.288-5.739"/>
	</g>
	<g id="POLYLINE_471_">
		
			<path fill="none" stroke="#FF6B6B" stroke-width="2.5" stroke-linecap="round" stroke-linejoin="round" stroke-miterlimit="10" d="
			M814.54,177.26c0.769-1.866,1.522-3.706,2.754-5.322c1.387-1.819,3.08-3.389,4.6-5.093c2.826-3.166,4.65-6.736,6.161-10.677
			c1.851-4.825,3.897-9.587,5.646-14.449c1.053-2.927,2.212-6.245,1.576-9.395c-0.415-2.057-2.058-3.443-2.695-5.395
			c-0.498-1.526-0.522-3.201-0.547-4.789c-0.025-1.579-0.365-3.4-0.047-4.965c0.383-1.889,1.821-3.858,3.386-4.958
			c1.656-1.163,3.635-1.078,5.414-0.294c2.487,1.097,6.245,2.38,7.284,5.215c0.532,1.45,0.717,3.173,0.758,4.705
			c0.044,1.673-0.492,3.229-0.789,4.858c-0.466,2.549,0.61,5.195-0.104,7.68c-0.366,1.276-1.197,2.36-1.836,3.503
			c-0.829,1.483-1.347,3.104-1.733,4.753c-1.099,4.697-1.453,9.587-1.999,14.371c-0.563,4.93-1.11,9.862-1.982,14.75
			c-0.8,4.488-1.955,8.913-3.903,13.05c-1.951,4.143-4.672,7.991-7.418,11.639c-0.992,1.318-2.164,2-3.856,1.861
			c-2.955-0.243-6.118-1.902-8.226-3.943c-0.984-0.953-1.722-2.098-2.309-3.331c-0.937-1.968-1.746-3.906-2.88-5.775
			c-1.12-1.845-2.067-3.632-2.626-5.728c-0.703-2.636-1.236-5.324-1.843-7.983c-0.472-2.066-0.919-4.137-1.295-6.223"/>
	</g>
	<g id="POLYLINE_472_">
		
			<path fill="none" stroke="#FF6B6B" stroke-width="2.5" stroke-linecap="round" stroke-linejoin="round" stroke-miterlimit="10" d="
			M825.581,161.725c-0.791-6.229-1.6-12.46-2.668-18.65c-0.293-1.696-0.621-3.386-0.941-5.078"/>
	</g>
	<g id="POLYLINE_473_">
		
			<path fill="none" stroke="#FF6B6B" stroke-width="2.5" stroke-linecap="round" stroke-linejoin="round" stroke-miterlimit="10" d="
			M823.775,164.567c-3.253-0.621-6.181-0.648-9.466-0.177c-2.024,0.29-4.053,0.683-6.093,0.842c-1.358,0.106-2.844,0.288-4.202,0.13
			c-2.083-0.241-1.227-2.451-0.884-3.845c0.906-3.683,1.447-7.433,1.546-11.227c0.1-3.836-0.246-7.693,0.109-11.521
			c0.2-2.156,0.696-4.301,1.9-6.129c2.28-3.461,5.911-3.824,9.793-3.85c3.085-0.02,6.624-0.107,9.593,0.865
			c0.842,0.276,1.529,0.765,2.22,1.309c1.773,1.396,3.495,2.861,5.237,4.295c0.552,0.454,1.103,0.907,1.662,1.351"/>
	</g>
	<g id="POLYLINE_474_">
		
			<path fill="none" stroke="#FF6B6B" stroke-width="2.5" stroke-linecap="round" stroke-linejoin="round" stroke-miterlimit="10" d="
			M844.807,140.985c3.644,0.971,7.41,1.485,11.181,1.148c2.93-0.261,6.079-0.948,8.532-2.665c1.32-0.924,2.329-2.157,3.296-3.43"/>
	</g>
	<g id="POLYLINE_475_">
		
			<path fill="none" stroke="#FF6B6B" stroke-width="2.5" stroke-linecap="round" stroke-linejoin="round" stroke-miterlimit="10" d="
			M848.833,121.992c2.71-0.054,4.589-0.6,6.933-2.033c2.619-1.601,5.66-3.674,7.261-6.367c0.457-0.768,0.701-1.607,0.787-2.496
			c0.192-1.989,0.162-4.049-0.013-6.039c-0.399-4.552-1.276-9.096-1.985-13.608c-0.337-2.148-0.669-4.329-1.323-6.408
			c-0.279-0.887-0.629-1.783-1.228-2.508c-0.831-1.006-2.085-1.559-3.277-2.013c-1.823-0.695-3.759-1.181-5.693-1.435
			c-1.796-0.236-3.579-0.131-5.163,0.818c-2.629,1.575-4.391,4.519-5.685,7.198c-1.637,3.388-2.827,7.162-3.106,10.928
			c-0.264,3.553,1.281,6.7,1.52,10.182c0.071,1.036,0.062,2.075,0.064,3.113"/>
	</g>
	<g id="POLYLINE_476_">
		
			<path fill="none" stroke="#FF6B6B" stroke-width="2.5" stroke-linecap="round" stroke-linejoin="round" stroke-miterlimit="10" d="
			M831.94,118.714c-0.856-3.466-1.387-6.766-1.33-10.347c0.062-3.851,0.402-7.699,0.882-11.52c0.461-3.676,1.054-7.355,1.948-10.952
			c0.865-3.48,2.067-6.976,4.199-9.899c1.689-2.316,3.965-4.172,6.51-5.48c2.675-1.374,5.345-1.774,8.322-1.897
			c2.319-0.096,4.561-1.125,6.872-0.991c1.539,0.089,2.951,0.842,4.17,1.739c5.523,4.062,7.845,10.882,9.2,17.32
			c1.607,7.636,2.72,15.442,3.57,23.196c0.429,3.908,0.632,7.841,1.114,11.743c0.327,2.645,0.838,5.428,2.337,7.687
			c0.71,1.07,1.673,1.939,2.401,2.989c0.357,0.515,0.524,0.932-0.075,1.311c-0.866,0.549-1.983,0.684-2.895,1.179
			c-1.249,0.678-2.281,1.682-3.409,2.532c-1.258,0.948-2.575,1.609-4.16,1.114c-2.223-0.694-4.256-2.624-5.804-4.274
			c-3.721-3.966-4.132-10.128-3.732-15.29c0.141-1.818,0.52-3.578,0.997-5.335"/>
	</g>
	<g id="POLYLINE_477_">
		
			<path fill="none" stroke="#FF6B6B" stroke-width="2.5" stroke-linecap="round" stroke-linejoin="round" stroke-miterlimit="10" d="
			M826.659,129.883c2.309,0.197,4.55-0.471,6.371-1.902"/>
	</g>
	<g id="POLYLINE_478_">
		
			<path fill="none" stroke="#FF6B6B" stroke-width="2.5" stroke-linecap="round" stroke-linejoin="round" stroke-miterlimit="10" d="
			M889.569,153.649c0.255,6.261,0.248,12.501-0.102,18.758c-0.339,6.049-0.874,12.153-1.93,18.123
			c-0.552,3.123-1.506,6.12-2.731,9.044"/>
	</g>
	<g id="POLYLINE_479_">
		
			<path fill="none" stroke="#FF6B6B" stroke-width="2.5" stroke-linecap="round" stroke-linejoin="round" stroke-miterlimit="10" d="
			M902.935,169.787c3.837,2.83,7.517,5.944,11.101,9.089c1.388,1.218,4.505,3.449,3.65,5.69c-0.589,1.544-1.82,2.931-2.848,4.193
			c-1.579,1.94-3.279,3.783-4.995,5.601c-3.31,3.506-6.731,6.915-10.219,10.244c-1.633,1.559-3.254,3.255-5.08,4.591
			c-0.542,0.396-1.245,0.882-1.955,0.696c-1.206-0.316-2.001-2.216-2.568-3.143c-1.118-1.829-2.322-3.607-3.64-5.3
			c-1.399-1.797-2.846-3.873-5.361-3.302c-1.868,0.424-3.652,1.317-5.444,1.981c-0.971,0.36-2.042,0.743-2.8,1.484
			c-1.475,1.441-0.731,3.797-0.191,5.484c0.622,1.941,1.534,3.806,2.007,5.793c0.177,0.744,0.08,2.078,1.069,2.204
			c0.472,0.06,1.017-0.117,1.466-0.232c1.106-0.283,2.191-0.645,3.301-0.914c1.058-0.256,2.171-0.477,3.266-0.379
			c2.567,0.229,4.1,2.383,5.405,4.359c1.278,1.934,2.482,3.21,4.955,2.818c3.748-0.594,7.293-3.103,10.323-5.231
			c3.952-2.775,7.681-5.866,11.341-9.012c3.568-3.067,7.03-6.242,10.126-9.793c1.614-1.851,3.156-3.767,4.811-5.582
			c1.232-1.351,2.72-2.493,3.865-3.916c1.309-1.626,1.326-3.598,0.87-5.565c-0.831-3.587-2.932-6.625-5.401-9.286
			c-3.373-3.636-6.942-7.137-10.562-10.526c-1.704-1.595-3.463-3.124-5.273-4.596"/>
	</g>
	<g id="POLYLINE_480_">
		
			<path fill="none" stroke="#FF6B6B" stroke-width="2.5" stroke-linecap="round" stroke-linejoin="round" stroke-miterlimit="10" d="
			M815.656,192.784c1.352,6.298,2.262,12.717,2.108,19.173c-0.165,6.936-1.316,13.834-2.053,20.722
			c-0.719,6.721-1.186,13.478-1.728,20.215c-0.138,1.716-0.57,3.987,0.163,5.643c0.483,1.091,1.58,1.118,2.63,1.009
			c1.52-0.158,3.014-0.516,4.533-0.692c1.548-0.179,3.108-0.226,4.665-0.217c3.078,0.017,6.14,0.252,9.207,0.487
			c6.789,0.519,13.612,1.234,20.429,0.982c6.383-0.236,12.62-1.469,18.674-3.485c6.116-2.037,12.043-4.667,17.87-7.409
			c2.922-1.375,8.308-3.144,7.926-7.231c-0.254-2.718-0.921-5.66-1.866-8.219c-1.108-2.998-2.667-5.798-4.012-8.689
			c-0.655-1.407-1.224-2.851-1.803-4.29"/>
	</g>
	<g id="POLYLINE_481_">
		
			<path fill="none" stroke="#FF6B6B" stroke-width="2.5" stroke-linecap="round" stroke-linejoin="round" stroke-miterlimit="10" d="
			M889.694,167.488c2.139,1.891,4.677,3.562,7.18,4.925c0.899,0.49,1.964,0.998,2.97,0.524c0.479-0.226,0.868-0.618,1.228-0.996
			c1.023-1.075,1.926-2.259,2.947-3.339c2.403-2.543,4.935-4.967,7.278-7.565c0.864-0.958,1.748-1.94,2.439-3.034
			c0.258-0.408,0.55-0.879,0.58-1.376c0.096-1.561-2.153-3.231-3.131-4.111c-5.058-4.552-10.772-8.374-16.118-12.57
			c-1.339-1.051-2.665-2.11-3.938-3.242c-0.843-0.75-1.667-1.563-2.625-2.17c-1.296-0.822-2.849-1.184-4.361-1.324
			c-0.552-0.051-1.107-0.069-1.661-0.05"/>
	</g>
	<g id="POLYLINE_482_">
		
			<path fill="none" stroke="#FF6B6B" stroke-width="2.5" stroke-linecap="round" stroke-linejoin="round" stroke-miterlimit="10" d="
			M864.827,460.145c0.852,0.989,1.5,1.394,2.801,1.58c2.838,0.407,5.791,0.231,8.654,0.277c2.706,0.043,5.46,0.191,8.149-0.211
			c1.006-0.15,2.111-0.383,2.929-1.033c1.745-1.386,1.38-4.416,0.861-6.278c-0.28-1.002-0.753-1.918-1.445-2.698
			c-1.101-1.24-2.629-2.051-3.561-3.447c-0.816-1.223-1.137-2.729-1.414-4.147c-0.579-2.954-1.061-5.948-1.332-8.946
			c-0.061-0.672-0.104-1.345-0.138-2.018"/>
	</g>
	<g id="POLYLINE_483_">
		
			<path fill="none" stroke="#FF6B6B" stroke-width="2.5" stroke-linecap="round" stroke-linejoin="round" stroke-miterlimit="10" d="
			M848.399,435.853c-0.37,1.46-0.972,2.869-1.199,4.362c-0.25,1.643-0.143,3.32-0.409,4.963c-0.272,1.681-0.985,3.016-2.239,4.162
			c-1.447,1.323-3.236,2.289-4.225,4.041c-0.833,1.475-1.184,3.319-1.116,4.998c0.055,1.359,0.505,2.538,1.863,3.055
			c2.481,0.944,5.648,0.48,8.246,0.467c4.185-0.022,8.496,0.229,12.67-0.209c1.64-0.172,2.718-0.783,3.031-2.476
			c0.471-2.554,0.017-5.423-0.117-7.995c-0.276-5.281-0.552-10.562-0.828-15.843c-0.021-0.403-0.042-0.805-0.063-1.208"/>
	</g>
</g>
<g id="AG-OUTLINE">
	<g id="POLYLINE_7_">
		
			<path fill="none" stroke="#FF6B6B" stroke-width="3.25" stroke-linecap="round" stroke-linejoin="round" stroke-miterlimit="10" d="
			M884.806,199.575c1.567-3.747,2.549-7.54,3.133-11.553c0.621-4.266,1.05-8.57,1.348-12.87c0.177-2.554,0.307-5.106,0.407-7.664
			c1.15,1.016,2.41,1.898,3.696,2.732c1.331,0.864,2.654,1.847,4.104,2.507c1.091,0.497,2.046,0.568,3.001-0.228
			c0.316-0.263,0.596-0.572,0.869-0.878c0.312-0.348,0.61-0.71,0.912-1.067c0.123-0.145,0.24-0.308,0.375-0.443
			c0.327-0.328,0.157-0.296,0.532-0.142c0.763,0.314,1.518,1.148,2.166,1.663c0.655,0.52,1.295,1.058,1.939,1.592
			c2.942,2.441,6.087,4.777,8.748,7.531c1.001,1.036,2.242,2.328,1.627,3.863c-0.472,1.176-1.338,2.241-2.104,3.232
			c-1.189,1.537-2.478,2.996-3.786,4.431c-2.611,2.864-5.333,5.63-8.083,8.36c-2.71,2.689-5.428,5.42-8.334,7.899
			c-1.062,0.906-2.398,2.047-3.624,0.768c-0.976-1.019-1.599-2.411-2.348-3.588c-0.906-1.423-1.874-2.809-2.905-4.144
			C885.946,200.89,885.397,200.213,884.806,199.575z"/>
	</g>
	<g id="POLYLINE_8_">
		
			<path fill="none" stroke="#FF6B6B" stroke-width="3.25" stroke-linecap="round" stroke-linejoin="round" stroke-miterlimit="10" d="
			M892.4,220.781c1.152,0.171,2.339-0.126,3.422-0.497c2.345-0.803,4.529-2.096,6.597-3.442c4.52-2.943,8.718-6.402,12.803-9.913
			c4.066-3.495,7.959-7.106,11.455-11.182c1.793-2.09,3.511-4.275,5.494-6.192c1.047-1.013,2.299-1.973,2.984-3.296
			c1.267-2.448,0.112-5.716-0.972-8.002c-2.171-4.579-6.247-8.027-9.763-11.555c-1.918-1.925-3.853-3.833-5.859-5.667
			c-1.01-0.924-2.036-1.83-3.085-2.71c-0.341-0.286-1.226-0.807-1.291-1.166c-0.02-0.11,0.112-0.343,0.125-0.469
			c0.111-1.069-1.028-2.124-1.691-2.808c-1.77-1.826-3.801-3.415-5.808-4.97c-4.549-3.526-9.234-6.886-13.699-10.519
			c-2.601-2.116-4.529-4.463-7.938-5.048c-0.887-0.152-1.791-0.216-2.691-0.186c0.078-0.496-0.49-1.049-0.772-1.387
			c-0.759-0.908-1.569-1.773-2.189-2.788c-1.205-1.974-1.696-4.309-2.02-6.571c-0.496-3.46-0.675-6.968-0.998-10.446
			c-0.281-3.028-0.675-6.051-1.098-9.062c-0.919-6.543-1.787-13.217-3.492-19.609c-1.424-5.337-3.97-10.801-8.613-14.079
			c-1.026-0.725-2.191-1.348-3.449-1.535c-1.822-0.271-3.544,0.467-5.313,0.759c-2.503,0.413-5.018,0.124-7.479,0.881
			c-2.125,0.653-4.129,1.73-5.891,3.08c-4.678,3.585-6.77,9.144-8.022,14.722c-1.422,6.334-2.215,12.868-2.483,19.351
			c-0.122,2.957-0.117,5.936,0.465,8.849c0.298,1.492,0.821,2.926,0.867,4.454c0.049,1.631,0,3.266,0.161,4.892
			c0.08,0.807,0.199,1.623,0.468,2.391c0.074,0.212,0.231,0.446,0.274,0.662c0.073,0.367,0.029,0.346-0.329,0.597
			c-1.119,0.781-2.39,1.305-3.742,1.501c-0.645,0.094-1.415,0.19-2.062,0.07c-0.556-0.104-1.1-0.366-1.667-0.482
			c-2.918-0.597-6.013-0.652-8.981-0.613c-3.203,0.042-6.375,0.268-8.62,2.782c-2.693,3.016-2.878,7.313-2.865,11.15
			c0.012,3.442,0.171,6.884-0.106,10.321c-0.254,3.154-0.869,6.203-1.597,9.276c-0.246,1.037-0.713,2.608,0.677,2.972
			c0.317,0.083,0.659,0.089,0.985,0.092c0.201,0.002,0.401-0.007,0.601-0.015c0.598-0.026,0.706-0.196,0.896,0.295
			c0.445,1.147,0.514,2.608,0.788,3.825c0.797,3.538,1.438,7.159,2.458,10.643c0.791,2.701,2.459,4.869,3.74,7.337
			c0.65,1.252,1.109,2.592,1.739,3.853c0.245,0.491,0.63,0.957,0.841,1.456c0.279,0.661,0.339,1.585,0.478,2.288
			c0.643,3.252,1.129,6.537,1.404,9.84c0.528,6.347-0.09,12.558-0.81,18.859c-0.791,6.926-1.468,13.837-2.049,20.784
			c-0.277,3.312-0.609,6.626-0.816,9.944c-0.08,1.285-0.383,3.474,0.598,4.556c0.961,1.061,3.077,0.389,4.222,0.196
			c-0.269,2.401-0.591,4.809-0.547,7.23c0.041,2.252,0.445,4.467,1.002,6.645c1.384,5.413,3.377,10.671,5.066,15.994
			c1.576,4.97,3.015,10.002,4.195,15.081c1.344,5.787,2.341,11.642,3.403,17.486c0.887,4.879,1.836,9.793,2.018,14.76
			c0.085,2.323-0.077,4.736,0.424,7.022c0.339,1.543,0.976,2.996,1.067,4.589c0.129,2.269-0.358,4.526-0.349,6.795
			c0.009,2.444,0.501,4.855,0.569,7.297c0.054,1.935-0.359,3.853-0.037,5.777c0.372,2.22,1.117,4.338,1.289,6.595
			c0.201,2.633,0.333,5.243,0.687,7.864c0.38,2.813,0.85,5.612,1.276,8.418c0.336,2.216,0.498,4.323,0.415,6.558
			c-0.077,2.08,0.434,4.144,0.916,6.153c0.637,2.655,1.34,5.304,2.133,7.917c0.746,2.458,1.881,4.695,2.801,7.078
			c1.461,3.783,0.191,7.886,1.278,11.722c0.285,1.006,0.726,1.956,1.084,2.936c0.27,0.738,0.439,1.523,0.776,2.236
			c0.12,0.254,0.203,0.366,0.201,0.631c-0.003,0.528-0.346,1.216-0.505,1.721c-0.272,0.865-0.548,1.724-0.67,2.625
			c-0.411,3.04,0.1,6.21-2.22,8.573c-1.735,1.768-4.032,2.827-5.009,5.217c-0.689,1.685-1.361,4.706-0.139,6.365
			c0.688,0.934,1.957,1.15,3.034,1.271c2.249,0.252,4.577,0.104,6.836,0.092c3.002-0.016,6.008,0.007,9.01-0.053
			c1.552-0.031,3.654,0.181,5.088-0.594c0.277-0.15,0.937-1.077,1.061-1.076c0.167,0.001,0.92,0.986,1.218,1.137
			c1.294,0.657,3.054,0.577,4.447,0.606c2.989,0.062,5.98,0.101,8.969,0.135c1.959,0.022,4.016,0.013,5.934-0.444
			c1.696-0.404,2.855-1.343,3.123-3.124c0.308-2.045-0.107-4.511-1.349-6.204c-1.442-1.966-3.752-2.936-4.653-5.322
			c-0.836-2.211-1.099-4.694-1.461-7.015c-0.202-1.294-0.381-2.592-0.518-3.894c-0.099-0.943-0.438-2.263-0.011-3.088
			c1.302-2.516,0.361-5.082,0.57-7.814c0.124-1.616,0.63-3.173,1.48-4.552c0.841-1.363,1.905-2.533,1.998-4.196
			c0.076-1.359-0.025-2.574,0.462-3.865c0.597-1.581,1.497-3.048,1.791-4.732c0.354-2.028-0.004-4.114-0.176-6.141
			c-0.165-1.947-0.243-3.939,0.08-5.875c0.695-4.165,3.039-8.178,2.885-12.479c-0.049-1.389-0.585-2.68-0.77-4.046
			c-0.23-1.698,0.17-3.417,0.265-5.109c0.122-2.163-0.452-4.286-0.362-6.445c0.077-1.852,0.696-3.671,0.612-5.531
			c-0.066-1.453-0.651-2.821-0.87-4.251c-0.331-2.166-0.115-4.403,0.068-6.572c0.483-5.732,0.989-11.465,1.538-17.191
			c0.504-5.258,1.284-10.492,2.281-15.678c1.015-5.278,2.3-10.48,3.826-15.633c1.565-5.282,3.164-10.545,4.03-15.997
			c0.864-5.435,1.23-10.952,1.279-16.451c0.046-5.101-0.215-10.142-1.75-15.037c-0.77-2.456-1.716-4.859-2.709-7.233
			c-0.091-0.219-0.503-0.869-0.46-1.1c0.03-0.161,0.402-0.313,0.571-0.421c0.341-0.217,0.675-0.445,0.994-0.693
			c0.523-0.406,1.03-0.865,1.392-1.424c0.573-0.883,0.615-1.891,0.47-2.911c-0.329-2.312-0.79-4.725-1.512-6.948
			c-0.734-2.256-1.795-4.397-2.836-6.524C894.501,225.695,893.405,223.278,892.4,220.781z"/>
	</g>
	<g id="POLYLINE_9_">
		
			<path fill="none" stroke="#FF6B6B" stroke-width="3.25" stroke-linecap="round" stroke-linejoin="round" stroke-miterlimit="10" d="
			M502.233,214.071c1.107-0.934-0.867-2.608-1.47-3.23c-2.014-2.079-4.165-3.97-5.876-6.322c-1.642-2.257-3.01-4.697-4.368-7.13
			c-1.606-2.874-3.331-5.671-4.964-8.527c-0.599-1.046-1.6-2.578-1.361-3.884c0.177-0.97,1.111-1.504,1.913-1.923
			c1.255-0.657,2.577-1.174,3.809-1.878c1.25-0.714,2.398-1.591,3.505-2.507c1.232-1.02,2.43-2.091,3.726-3.032
			c1.222-0.887,2.519-1.665,3.731-2.567c2.454-1.826,4.697-3.925,7.066-5.857c2.295-1.872,4.725-3.484,7.355-4.847
			c0.656-0.34,1.319-0.667,1.978-1c-0.258,0-1.078,3.203-1.179,3.584c-0.22,0.831-0.389,1.677-0.449,2.536
			c-0.074,1.046,0.009,2.101,0.281,3.116c0.111,0.414,0.252,0.82,0.42,1.215c0.413,0.97,0.216,2.105,0.228,3.153
			c0.029,2.637,0.101,5.278,0.28,7.909c0.317,4.665,1.45,9.832,0.182,14.432c-1.067,3.873-4.493,6.2-6.694,9.372
			c-0.419,0.603-0.789,1.238-1.109,1.899c-0.434,0.897-1.42,1.563-2.132,2.269c-1.048,1.04-2.079,1.989-3.424,2.623
			C503.208,213.697,502.721,213.886,502.233,214.071z"/>
	</g>
	<g id="POLYLINE_10_">
		
			<path fill="none" stroke="#FF6B6B" stroke-width="3.25" stroke-linecap="round" stroke-linejoin="round" stroke-miterlimit="10" d="
			M577.444,213.317c2.375,0.234,5.161-0.472,7.256-1.591c1.688-0.9,2.903-2.245,3.816-3.911c1.782-3.251,2.466-6.998,3.57-10.505
			c1.135-3.606,1.618-7.09,1.77-10.867c0.328-8.133,0.713-16.21,1.4-24.323c0.321-3.792,0.659-7.591,0.598-11.401
			c-0.049-3.063-0.308-6.235-1.613-9.049c-1.247-2.69-3.368-4.874-5.5-6.885c-2.462-2.324-5.256-4.177-8.269-5.71
			c-3.141-1.598-6.441-2.91-9.815-3.926c-0.775-0.233-1.554-0.45-2.339-0.647c-0.59-0.148-0.531-0.398-0.684-0.969
			c-0.098-0.365-0.203-0.727-0.308-1.09c-0.554-1.901-1.16-3.794-1.5-5.749c-0.572-3.298,0.091-6.495,0.387-9.786
			c0.304-3.373-0.343-6.548-1.237-9.79c-1.122-4.069-1.975-8.114-2.794-12.254c-0.693-3.508-1.695-6.923-3.418-10.073
			c-1.545-2.825-3.594-5.677-6.308-7.486c-1.904-1.269-4.039-1.381-6.166-2.061c-1.035-0.331-1.92-0.975-2.902-1.424
			c-0.936-0.429-1.938-0.679-2.956-0.815c-2.776-0.372-5.7,0.046-8.237,1.243c-5.361,2.531-9.032,8.3-11.016,13.688
			c-2.629,7.139-1.467,14.788-2.062,22.214c-0.619,7.726-1.982,15.431-1.828,23.204c0.019,0.982,0.065,1.964,0.148,2.942
			c0.038,0.444,0.082,0.888,0.136,1.331c0.074,0.603,0.214,0.777-0.227,1.175c-1.556,1.405-3.31,2.617-4.901,3.989
			c-3.038,2.62-5.797,5.53-8.708,8.286c-5.652,5.351-11.889,10.073-17.978,14.908c-6.345,5.038-12.946,9.914-18.652,15.692
			c-1.979,2.003-4.406,4.235-5.529,6.878c-0.839,1.975,0.39,4.09,1.188,5.876c1.576,3.524,3.373,7.001,5.498,10.226
			c2.242,3.402,4.871,6.563,7.366,9.78c2.403,3.098,4.809,6.201,7.378,9.164c1.413,1.63,2.879,3.214,4.325,4.814
			c0.76,0.841,1.508,1.861,2.489,2.461c1.247,0.763,2.532,0.168,3.69-0.503c0.231-0.134,0.693-0.522,0.887-0.458
			c0.109,0.036,0.29,0.364,0.371,0.458c0.412,0.477,0.87,0.913,1.345,1.327c1.146,1,2.447,2.099,3.785,2.823
			c0.44,0.238,0.861,0.289,1.357,0.24c1.554-0.154,3.07-0.757,4.583-1.117c-0.395,3.096-0.791,6.191-1.186,9.287
			c-0.135,1.055-0.27,2.111-0.404,3.166c-0.095,0.743-0.265,1.552-0.135,2.304c0.075,0.432,0.565,0.913,0.596,1.278
			c0.033,0.383-0.62,1.319-0.783,1.684c-0.25,0.558-0.49,1.12-0.725,1.684c-1.046,2.511-2.13,5.05-2.788,7.695
			c-1.174,4.713-1.147,9.761-0.967,14.584c0.205,5.488,0.873,10.939,1.678,16.367c0.779,5.252,1.739,10.491,2.809,15.692
			c1.129,5.484,2.309,10.958,3.679,16.387c1.324,5.251,2.798,10.444,4.454,15.6c1.718,5.351,3.565,10.637,4.253,16.242
			c0.685,5.586,0.989,11.229,1.434,16.837c0.419,5.287,0.787,10.577,1.403,15.846c0.627,5.367,1.435,10.722,2.609,15.998
			c1.217,5.472,2.66,10.864,3.196,16.46c0.511,5.342,0.445,10.779,1.411,16.07c0.187,1.021,0.411,2.045,0.766,3.023
			c0.142,0.391,0.585,0.959,0.631,1.35c0.057,0.489-0.375,1.293-0.52,1.779c-0.209,0.703-0.421,1.405-0.645,2.103
			c-0.395,1.232-0.819,2.455-1.264,3.67c-0.99,2.704-2.049,5.383-3.132,8.051c-0.483,1.19-0.819,2.415-1.784,3.274
			c-0.977,0.871-1.92,1.781-2.901,2.649c-1.536,1.359-5.837,4.025-5.034,6.746c0.253,0.858,1.042,1.294,1.841,1.551
			c2.006,0.643,4.259,0.607,6.342,0.717c2.448,0.13,4.907,0.194,7.357,0.072c2.023-0.101,4.158-0.267,6.063-1.013
			c2.213-0.867,3.033-2.676,3.293-4.922c0.289-2.495,0.376-4.979,0.91-7.442c0.54-2.496,1.33-4.943,2.265-7.317
			c0.938-2.384,2.042-4.712,3.404-6.885c0.025,1.343,0.054,2.687,0.075,4.031c0.021,1.293,0.197,2.735-0.096,4
			c-0.636,2.745-1.386,5.46-2.051,8.198c-0.567,2.334-0.971,4.735-1.007,7.141c-0.018,1.177,0.078,2.31,1.165,2.991
			c1.061,0.664,2.467,0.847,3.673,1.001c2.564,0.329,5.177,0.339,7.757,0.222c1.584-0.072,3.566,0.001,5.021-0.76
			c0.917-0.48,1.286-1.397,1.481-2.36c0.455-2.243,0.223-4.641,0.106-6.908c-0.141-2.727-0.358-5.452-0.622-8.169
			c-0.265-2.726-0.581-5.449-0.969-8.16c-0.108-0.753-0.218-1.506-0.335-2.258c-0.11-0.707-0.431-1.587-0.37-2.296
			c0.052-0.605,0.46-1.284,0.624-1.896c1.187-4.43-0.337-9.151-0.983-13.555c-0.795-5.424-1.297-10.914-1.379-16.397
			c-0.08-5.378,0.282-10.8-0.536-16.14c-0.826-5.396-3.038-10.413-4.971-15.477c-0.823-2.155-1.565-4.337-1.982-6.61
			c-0.501-2.73-0.727-5.543-0.966-8.306c-0.399-4.623,1.045-8.575,2.916-12.743c2.33-5.191,4.857-10.287,7.497-15.328
			c2.598-4.96,5.409-9.817,7.813-14.876c2.308-4.857,4.078-9.887,5.204-15.148c1.156-5.397,1.749-10.897,2.175-16.395
			c0.414-5.345,0.624-10.701,0.765-16.059c0.053-2.016,0.106-4.032,0.159-6.047c0.014-0.517-0.104-1.246,0.046-1.743
			c0.089-0.295,0.073-0.198,0.316-0.422c0.597-0.55,0.957-1.023,1.126-1.84c0.403-1.95,0.066-4.112,0.003-6.073
			c-0.082-2.565-0.045-5.137,0.021-7.702c0.145-5.653,0.408-11.312,0.916-16.945C576.799,218.571,577.119,215.944,577.444,213.317z"
			/>
	</g>
	<g id="POLYLINE_11_">
		
			<path fill="none" stroke="#FF6B6B" stroke-width="3.25" stroke-linecap="round" stroke-linejoin="round" stroke-miterlimit="10" d="
			M232.497,151.937c1.272-1.541,2.081,0.981,2.557,1.888c1.272,2.423,3.103,4.54,4.91,6.577c4.363,4.916,9.221,9.559,12.889,15.048
			c0.795,1.19,1.563,2.546,1.109,4.009c-0.641,2.07-2.455,3.918-3.868,5.481c-4.022,4.448-8.741,7.699-14.115,10.3
			c-5.777,2.797-11.269,6.091-16.603,9.668c-0.554,0.372-1.108,0.75-1.625,1.173c0.456-3.588,1.197-6.919,2.392-10.335
			c1.295-3.702,2.689-7.37,3.94-11.088c2.432-7.228,4.132-14.679,6.675-21.871C232.015,159.233,232.602,155.715,232.497,151.937z"/>
	</g>
	<g id="POLYLINE_12_">
		
			<path fill="none" stroke="#FF6B6B" stroke-width="3.25" stroke-linecap="round" stroke-linejoin="round" stroke-miterlimit="10" d="
			M166.496,117.377c-3.264-0.257-6.451-0.596-9.675-1.168c-2.82-0.499-5.6-0.76-8.466-0.668c-3.244,0.104-6.477,0.436-9.721,0.507
			c-2.99,0.066-5.884-0.299-8.807-0.906c-3.239-0.672-6.54-1.035-9.767-1.728c-0.416-0.089-1.262-0.187-1.551-0.558
			c-0.32-0.41,0.084-0.768,0.38-1.072c2.273-2.344,4.735-4.559,7.156-6.753c2.525-2.288,5.123-4.476,7.892-6.464
			c5.346-3.838,11.06-7.211,16.648-10.678c0.751-0.466,1.507-0.924,2.26-1.387c0.131,2.471,0.363,4.926,1.051,7.313
			c0.614,2.132,1.491,4.175,2.391,6.199c1.137,2.555,2.24,5.085,3.172,7.722c0.597,1.691,1.223,3.395,2.281,4.86
			C163.07,114.435,164.991,115.703,166.496,117.377z"/>
	</g>
	<g id="POLYLINE_13_">
		
			<path fill="none" stroke="#FF6B6B" stroke-width="3.25" stroke-linecap="round" stroke-linejoin="round" stroke-miterlimit="10" d="
			M220.638,250.282c0.542-0.263,0.839-1.007,1.063-1.524c0.642-1.485,1.024-3.095,1.368-4.671c0.808-3.691,1.216-7.455,1.623-11.207
			c0.362-3.334,0.239-6.497-0.278-9.81c-0.404-2.588-1.224-5.54-0.647-8.165c0.323-1.471,1.303-2.437,2.586-3.154
			c1.601-0.894,3.388-1.468,5.082-2.152c1.65-0.665,3.282-1.38,4.898-2.122c7.248-3.329,14.198-7.248,21.361-10.751
			c3.417-1.671,6.92-3.03,10.453-4.428c2.069-0.819,4.278-1.743,5.773-3.462c2.007-2.309,1.902-4.938,0.983-7.7
			c-2.378-7.15-5.794-13.907-10.068-20.105c-4.342-6.297-9.153-12.266-13.676-18.431c-2.797-3.813-5.545-7.663-8.317-11.495
			c-1.959-2.707-3.889-5.444-6.082-7.97c-1.154-1.329-2.382-2.617-3.774-3.7c-0.46-0.358-0.94-0.665-1.429-0.977
			c-0.4-0.256-0.522-0.489-0.772-0.896c-0.921-1.501-2.437-1.904-4.108-2.118c-1.59-0.204-3.219-0.338-4.822-0.274
			c0.2-0.351-2.506-1.572-2.855-1.797c-1.122-0.721-2.087-1.653-2.94-2.672c-2.492-2.977-4.198-6.569-5.91-10.026
			c-2.022-4.081-4.028-8.122-6.339-12.047c-2.185-3.712-3.895-7.639-5.68-11.553c-3.157-6.923-6.675-13.839-13.151-18.224
			c-2.3-1.557-4.832-2.72-7.601-3.097c-3.565-0.486-7.413,0.08-10.8,1.238c-0.92,0.314-1.826,0.692-2.636,1.236
			c-1.213,0.815-2.21,1.89-3.454,2.673c-0.118,0.074-0.497,0.391-0.614,0.373c-0.048-0.007-0.113-0.163-0.157-0.19
			c-0.162-0.098-0.311-0.345-0.449-0.481c-0.311-0.308-0.647-0.592-0.998-0.853c-0.674-0.501-1.414-0.927-2.201-1.221
			c-1.551-0.58-2.909-0.392-4.262,0.579c-2.415,1.734-4.783,4.116-5.933,6.901c-1.424,3.451-0.772,7.218-0.887,10.839
			c-0.053,1.667-0.318,3.323-1.341,4.687c-1.695,2.261-4.643,3.548-7.123,4.694c-3.857,1.783-7.813,3.351-11.702,5.06
			c-3.837,1.686-7.61,3.519-11.239,5.619c-3.761,2.176-7.38,4.592-11.032,6.943c-1.726,1.111-3.464,2.206-5.178,3.337
			c-1.002,0.661-2.033,1.372-2.8,2.311c-0.849,1.039-1.167,2.31-1.026,3.634c0.528,4.956,5.461,8.158,9.473,10.208
			c3.819,1.95,7.793,3.605,11.671,5.434c3.807,1.796,7.612,3.595,11.578,5.018c7.881,2.828,16.212,3.88,24.398,5.438
			c2.783,0.53,5.938,1.043,8.275,2.766c1.253,0.923,2.818,2.737,2.955,4.312c0.086,0.985-0.164,2.099-0.209,3.093
			c-0.046,1.009-0.068,2.02-0.07,3.03c-0.003,2.04,0.09,4.079,0.256,6.112c0.346,4.241,0.959,8.453,1.421,12.682
			c0.44,4.024,0.619,8.057-0.406,12.012c-0.991,3.824-2.824,7.407-3.607,11.285c-0.631,3.124-0.434,6.334-1.881,9.252
			c-1.72,3.469-4.33,6.444-6.344,9.742c-4.093,6.702-6.164,14.456-7.894,22.049c-1.673,7.347-3.029,14.777-4.305,22.202
			c-1.744,10.152-3.448,20.313-5.233,30.458c-0.274,1.555-0.573,3.11-0.921,4.65c-0.25,1.104-0.709,2.342-0.618,3.502
			c0.109,1.39,1.393,1.972,2.573,2.352c3.744,1.209,7.82,1.353,11.672,2.077c0.447,0.084,0.776,0.061,1.012,0.386
			c0.354,0.488,0.467,1.394,0.66,1.97c0.333,0.994,0.656,1.99,0.976,2.988c0.624,1.945,1.238,3.894,1.824,5.852
			c2.486,8.306,4.904,16.662,6.84,25.116c1.878,8.2,3.104,16.596,3.797,24.978c0.323,3.905-0.755,7.99-1.556,11.798
			c-0.896,4.259-1.822,8.496-2.187,12.841c-0.691,8.215-0.363,16.45-2.03,24.566c-1.718,8.365-4.645,16.411-5.961,24.87
			c-0.316,2.032-0.422,4.105-0.757,6.13c-0.22,1.333-1.113,2.587-1.409,3.95c-0.748,3.436-0.451,7.271-0.058,10.735
			c0.185,1.634,0.53,3.228,2.152,3.981c0.945,0.439,2.029,0.593,3.053,0.702c1.962,0.21,3.953,0.236,5.924,0.247
			c3.223,0.019,6.445-0.086,9.539-1.039c0.457-0.141,0.344-0.08,0.72,0.201c0.331,0.247,0.772,0.33,1.17,0.393
			c1.891,0.3,3.892,0.251,5.798,0.328c3.737,0.151,7.737,0.357,11.404-0.533c1.627-0.395,3.198-1.123,4.088-2.606
			c0.45-0.75,0.715-1.598,0.916-2.444c0.449-1.898,0.718-3.898,0.862-5.842c0.13-1.753,0.06-3.499-0.241-5.232
			c-0.308-1.773-1.131-3.497-1.257-5.269c-0.133-1.872-0.511-3.715-0.72-5.578c-0.186-1.656-0.011-3.3-0.116-4.956
			c-0.138-2.171-1.469-3.77-2.438-5.651c-1.438-2.793-1.59-6.001-1.637-9.086c-0.055-3.608-0.038-7.211-0.222-10.816
			c-0.268-5.262-0.535-10.523-0.803-15.785c-0.233-4.586-0.649-9.204-0.702-13.796c-0.017-1.498,0.17-3.019,0.213-4.521
			c0.061-2.158,0.085-4.319,0.281-6.47c0.35-3.842,1.266-7.617,2.352-11.312c2.44-8.3,5.608-16.395,8.877-24.399
			c1.608-3.937,3.346-7.819,5.165-11.663c0.442-0.934,0.9-1.86,1.358-2.787c0.122-0.248,0.342-0.946,0.571-1.018
			c0.366-0.115,1.606,0.599,1.97,0.735c1.256,0.468,2.542,1.003,3.882,1.171c1.767,0.221,2.738-0.725,3.287-2.331
			c0.529-1.548,0.725-3.219,0.96-4.83c0.322-2.207,0.623-4.417,0.934-6.625c1.185-8.411,2.246-16.836,3.21-25.275
			c0.481-4.215,0.961-8.428,1.387-12.649c0.181-1.797,0.363-3.594,0.528-5.393c0.132-1.447,0.265-2.895,0.397-4.342
			C220.376,252.159,220.309,250.433,220.638,250.282z"/>
	</g>
	<g id="POLYLINE_14_">
		
			<path fill="none" stroke="#FF6B6B" stroke-width="3.25" stroke-linecap="round" stroke-linejoin="round" stroke-miterlimit="10" d="
			M726.543,192.819c1.164-0.488,2.343-0.966,3.185-1.944c1.008-1.171,1.435-2.798,1.702-4.285c0.346-1.929,0.426-3.926-0.069-5.833
			c-0.184-0.708-0.432-1.401-0.338-2.142c0.105-0.818,0.518-1.604,0.824-2.353c2.046-5.024,0.517-10.377,1.715-15.527
			c0.483-2.075,1.794-3.789,2.479-5.784c0.964-2.808,1.281-5.925,1.685-8.851c0.483-3.502,0.07-7.336-2.657-9.859
			c-0.913-0.844-1.973-1.517-2.958-2.273c-1.33-1.021-2.645-2.057-4.036-2.996c-1.329-0.896-2.696-1.737-4.087-2.534
			c-0.685-0.392-1.375-0.776-2.073-1.144c-0.531-0.28-0.721-0.626-0.95-1.174c-0.597-1.434,0.568-2.039,1.572-2.906
			c0.858-0.741,1.506-1.596,1.734-2.721c0.547-2.691-1.608-4.167-2.818-6.281c-0.928-1.621-1.005-3.539-1.599-5.28
			c-0.466-1.364-1.435-2.487-1.886-3.854c-0.376-1.141-0.338-2.39-0.151-3.563c0.348-2.175,1.544-3.754,2.331-5.753
			c1.168-2.969,1.086-6.281-0.625-8.985c-0.96-1.517-1.745-2.745-2.09-4.512c-0.179-0.92-0.258-1.952-0.723-2.789
			c-0.388-0.7-1.042-1.216-1.586-1.785c-4.267-4.465-6.623-10.436-10.605-15.138c-2.269-2.68-5.346-5.821-9.132-5.752
			c-1.793,0.033-3.293,0.31-5.038-0.142c-1.34-0.347-2.617-0.644-3.989-0.31c-4.253,1.034-7.998,5.201-10.008,8.89
			c-2.883,5.29-2.872,11.434-3.494,17.268c-0.227,2.131-0.488,4.43-1.48,6.365c-0.671,1.309-1.861,2.105-2.75,3.241
			c-0.711,0.908-0.739,1.926-0.609,3.036c0.217,1.853,0.685,3.668,0.092,5.497c-0.535,1.651-1.859,3.141-2.007,4.906
			c-0.121,1.443,0.943,2.665,1.541,3.873c0.669,1.351,0.56,2.664,0.462,4.14c-5.186-1.607-10.326,1.012-14.979,2.996
			c-3.023,1.289-5.732,2.951-7.74,5.609c-1.604,2.123-2.674,4.595-3.49,7.113c-1.882,5.803-2.709,11.97-3.532,17.996
			c-0.998,7.317-1.868,14.663-3.153,21.937c-0.635,3.593-1.413,7.163-2.11,10.744c-0.121,0.623-1.053,3.775,0.42,3.43
			c0.384-0.09,0.77-0.332,1.117-0.505c0.118,1.975,0.533,3.914,0.967,5.84c0.438,1.941,0.692,4.082,1.465,5.933
			c0.785,1.883,2.556,2.305,4.431,2.551c2.613,0.343,5.108,0.732,7.663,1.397c-0.989,3.287-1.396,6.894-0.577,10.26
			c0.505,2.075,1.342,4.05,1.753,6.152c0.38,1.946,0.512,3.94,0.446,5.921c-0.064,1.905-0.448,3.801-0.412,5.708
			c0.014,0.725,0.078,1.595,0.62,2.14c0.218,0.219,0.494,0.355,0.785,0.451c0.231,0.076,0.832,0.037,0.996,0.168
			c0.184,0.147,0.09,0.778,0.094,1.058c0.013,1.057,0.026,2.114,0.04,3.17c0.083,6.652,0.167,13.305,0.25,19.957
			c0.048,3.868,0.107,7.733,0.265,11.599c0.195,4.778,0.503,9.545,1.019,14.3c0.506,4.66,1.308,9.279,2.214,13.875
			c0.932,4.727,1.992,9.427,2.961,14.146c0.901,4.39,1.612,8.8,2.013,13.265c0.405,4.507,0.494,9.248,1.939,13.577
			c0.815,2.442,2.575,4.436,2.695,7.071c0.08,1.759-0.195,3.518,0.018,5.273c0.155,1.275,0.424,2.524,0.288,3.814
			c-0.362,3.432-2.591,6.648-4.284,9.553c-2.517,4.317-5.042,8.628-7.104,13.187c-1.755,3.88-3.009,7.91-3.892,12.073
			c-0.929,4.379-1.52,8.825-2.5,13.194c-1.073,4.782-2.256,9.559-3.023,14.404c-0.42,2.65-0.768,5.311-1.139,7.968
			c-0.215,1.538-0.384,3.137-0.885,4.614c-0.254,0.75-0.49,1.222-0.163,1.972c0.139,0.319,0.333,0.617,0.533,0.902
			c0.119,0.17,0.253,0.329,0.375,0.496c0.323,0.44,0.249,0.585,0.154,1.161c-0.388,2.358-0.834,4.706-1.345,7.041
			c-0.234,1.067-0.483,2.132-0.747,3.192c-0.197,0.789-0.381,2.553-0.955,3.056c-0.298,0.261-0.632,0.334-0.888,0.682
			c-0.226,0.307-0.374,0.676-0.508,1.03c-0.799,2.093-1.124,4.408-1.584,6.588c-0.475,2.252-1.642,5.501-0.284,7.684
			c1.226,1.971,4.095,2.28,6.16,2.446c4.1,0.33,8.627,0.408,12.642-0.608c1.34-0.339,3.003-0.905,3.107-2.515
			c0.077-1.19-0.418-2.432-0.673-3.564c-0.52-2.301-0.799-4.656-1.184-6.981c-0.269-1.622-0.546-3.3-1.221-4.812
			c-0.146-0.326-0.311-0.645-0.503-0.946c-0.368-0.577-0.475-0.771-0.453-1.521c0.031-1.073,0.128-2.145,0.289-3.207
			c0.122-0.801,0.166-2.239,0.621-2.921c0.2-0.3,0.489-0.218,0.899-0.244c0.323-0.021,0.646-0.051,0.968-0.094
			c0.554-0.075,1.107-0.182,1.641-0.349c2.262-0.706,3.064-2.556,3.59-4.725c1.093-4.51,1.691-9.104,2.924-13.59
			c1.18-4.288,2.585-8.529,4.243-12.656c1.723-4.291,3.912-8.376,5.483-12.73c1.581-4.383,2.832-8.892,4.645-13.19
			c1.751-4.15,4.33-7.821,6.437-11.782c1.929-3.627,3.157-7.444,3.89-11.478c0.827-4.551,1.33-9.219,1.597-13.836
			c0.247-4.267,0.026-8.546-0.304-12.802c-0.44-5.658-0.963-11.311-1.444-16.966c-0.348-4.089-0.572-8.172-0.429-12.278
			c0.164-4.714,0.566-9.429,0.963-14.128c0.396-4.688,0.812-9.384,1.373-14.056c0.052-0.43,0.6-4.639,0.848-4.528
			c0.232,0.104,0.196,1.496,0.204,1.631c0.069,1.109,0.108,2.22,0.159,3.33c0.216,4.658,0.548,9.293,0.929,13.94
			c0.404,4.927,0.908,9.858,1.089,14.8c0.173,4.714-0.152,9.424-0.084,14.138c0.066,4.591,0.534,9.163,0.79,13.744
			c0.259,4.64,0.204,9.192-0.18,13.822c-0.18,2.174-0.387,4.347-0.298,6.531c0.091,2.227,0.41,4.438,0.582,6.659
			c0.112,1.446,0.319,3.028-0.049,4.455c-0.486,1.887-1.28,3.657-1.671,5.578c-0.958,4.713-1.223,9.591-1.802,14.359
			c-0.581,4.787-1.257,9.562-1.921,14.338c-0.549,3.944-1.131,7.877-1.746,11.811c-0.983,6.294-1.965,12.588-2.948,18.882
			c-0.241,1.542-0.484,3.084-0.76,4.62c-0.199,1.11-0.409,2.221-0.683,3.316c-0.205,0.815-0.542,1.604-0.709,2.427
			c-0.205,1.011,0.267,1.429,0.828,2.192c0.213,0.29,0.206,0.149,0.174,0.586c-0.051,0.694-0.218,1.402-0.332,2.09
			c-0.182,1.104-0.378,2.206-0.583,3.306c-0.179,0.955-0.216,2.365-0.678,3.189c-0.148,0.265-0.415,0.493-0.584,0.752
			c-0.436,0.669-0.699,1.415-0.822,2.203c-0.273,1.736,0.017,3.52,0.217,5.247c0.197,1.703,0.141,3.475,0.496,5.153
			c0.339,1.599,1.407,2.447,2.943,2.884c1.821,0.518,3.783,0.57,5.663,0.631c2.26,0.073,4.526,0.048,6.785-0.055
			c1.469-0.067,3.341,0.081,4.727-0.502c0.695-0.292,0.913-0.912,0.999-1.617c0.376-3.075-0.654-6.858-2.185-9.504
			c-0.519-0.898-1.161-1.72-1.908-2.439c-0.188-0.181-0.382-0.355-0.581-0.523c-0.284-0.24-0.998-0.57-1.162-0.881
			c-0.283-0.536,0.239-2.112,0.38-2.715c0.249-1.06,0.586-2.102,0.997-3.11c0.196-0.48,0.275-0.871,0.714-1.041
			c0.193-0.075,0.438-0.062,0.641-0.127c0.723-0.23,1.133-0.744,1.337-1.454c0.383-1.338,0.213-2.803,0.382-4.173
			c0.231-1.875,0.751-3.711,1.33-5.505c1.793-5.552,3.639-11.088,5.458-16.631c1.286-3.919,2.538-7.852,3.687-11.814
			c1.308-4.511,2.495-9.064,3.38-13.678c0.906-4.72,1.597-9.469,2.206-14.236c0.598-4.683,1.215-9.387,1.536-14.099
			c0.304-4.466,0.069-8.937,0.461-13.402c0.414-4.713,1.073-9.405,1.68-14.096c0.585-4.525,1.213-9.047,1.682-13.586
			c0.532-5.155,1.018-10.317,1.596-15.467c0.481-4.286,1.103-8.564,1.829-12.815c0.87-5.097,1.788-10.189,2.607-15.295
			c0.772-4.815,1.42-9.647,1.754-14.514c0.3-4.369,0.473-8.821-0.055-13.18c-0.566-4.673-2.517-8.694-4.439-12.929
			c-0.892-1.966-1.683-3.974-2.49-5.976c-0.553-1.371-1.327-2.795-1.704-4.225c-0.118-0.447-0.014-0.496,0.17-0.927
			c0.875-2.045,0.018-4.292,0.33-6.41c0.168-1.141,0.564-2.219,0.672-3.375c0.139-1.492,0.057-2.936-0.335-4.381
			c2.08-0.373,3.604-2.058,4.449-3.908c0.819-1.792,0.953-3.755,0.208-5.594C729.075,195.848,727.783,194.314,726.543,192.819z"/>
	</g>
	<g id="POLYLINE_15_">
		
			<path fill="none" stroke="#FF6B6B" stroke-width="3.25" stroke-linecap="round" stroke-linejoin="round" stroke-miterlimit="10" d="
			M408.371,212.868c3.379,0.422,6.792,0.736,10.201,0.661c2.516-0.055,5.297-0.235,7.566-1.444c3.88-2.066,3.245-7.332,2.562-10.945
			c-1.247-6.599-4.705-12.782-8.107-18.49c-1.847-3.1-3.795-6.139-5.895-9.074c-0.542-0.757-1.088-1.511-1.646-2.256
			c-0.46-0.614-0.994-1.111-1.136-1.859c-0.179-0.949-0.357-1.871-0.74-2.765c-1.015-2.366-3.197-3.842-4.836-5.737
			c-1.74-2.013-2.494-4.55-3.382-7.009c-1.039-2.875-2.599-5.112-4.425-7.546c-1.722-2.295-2.965-4.677-3.638-7.478
			c-0.81-3.372-0.981-6.859-0.761-10.31c0.224-3.524,0.157-6.892-0.285-10.4c-0.476-3.773-1.084-7.53-1.514-11.309
			c-0.407-3.57-0.477-7.149-0.647-10.735c-0.333-7.027-1.816-14.042-3.804-20.777c-0.87-2.948-1.923-5.892-3.727-8.411
			c-1.727-2.41-4.096-4.34-6.722-5.698c-2.043-1.056-4.364-1.844-6.691-1.756c-2.521,0.096-4.723,1.349-6.97,2.357
			c-2.349,1.053-4.938,1.096-7.302,2.047c-1.869,0.752-3.352,2.204-4.562,3.779c-4.134,5.38-5.906,12.507-6.839,19.106
			c-0.953,6.742-0.87,13.548-0.044,20.298c0.462,3.775,1.114,7.522,1.739,11.272c0.296,1.776,0.586,3.549,0.844,5.33
			c0.124,0.854,0.263,1.399-0.046,2.2c-0.105,0.272-0.22,0.54-0.363,0.794c-0.795,1.414-2.335,2.227-3.742,2.905
			c-2.504,1.207-5.6,2.62-8.418,2.674c-1.604,0.03-3.186,0.465-4.575,1.273c-0.58,0.337-1.174,0.749-1.538,1.326
			c-0.327,0.518-0.33,1.15-0.619,1.657c-0.393,0.69-0.85,1.291-1.175,2.033c-0.559,1.278-0.906,2.645-1.154,4.015
			c-0.575,3.17-0.627,6.435-0.439,9.644c0.403,6.893,2.13,13.647,4.658,20.057c0.657,1.667,1.368,3.318,2.174,4.919
			c0.345,0.685,0.713,1.358,1.101,2.019c0.394,0.671,0.928,1.113,0.655,1.842c-0.603,1.615,0.006,2.932,0.784,4.373
			c1.506,2.793,2.169,5.908,3.665,8.692c1.454,2.705,3.575,5.022,4.883,7.808c0.828,1.765,1.076,3.647,1.053,5.587
			c-0.021,1.757-0.192,3.509-0.333,5.259c-0.119,1.49-0.127,3.031-0.335,4.51c-0.342,2.429-1.958,4.67-3.145,6.752
			c-1.847,3.239-3.707,6.47-5.226,9.88c-1.214,2.724-2.435,5.653-2.77,8.642c-0.08,0.717-0.083,1.436,0.024,2.15
			c0.056,0.373,0.267,0.819,0.261,1.182c-0.011,0.695-0.629,1.743-0.864,2.405c-2.4,6.781-3.32,14.014-3.606,21.176
			c-0.282,7.052,0.573,13.915,1.911,20.822c1.402,7.24,2.621,14.379,2.907,21.765c0.286,7.383,0.236,14.796,0.864,22.161
			c0.312,3.658,0.873,7.436,0.59,11.114c-0.242,3.143-1.526,6.089-1.954,9.208c-0.462,3.37-0.591,6.771-1.209,10.121
			c-0.662,3.588-1.569,7.129-2.285,10.707c-1.381,6.896-2.501,13.957-1.31,20.965c0.606,3.57,1.605,7.059,2.351,10.6
			c0.754,3.574,1.406,7.167,1.81,10.799c0.389,3.502,0.475,7.008,0.401,10.529c-0.077,3.662-0.398,7.412,0.097,11.059
			c0.238,1.758,0.703,3.625,1.905,4.991c0.507,0.576,1.128,1.037,1.805,1.394c0.271,0.143,1.026,0.295,1.188,0.513
			c0.228,0.307-0.315,2.043-0.381,2.527c-0.271,1.968-0.397,3.958-0.563,5.936c-0.091,1.087-0.229,2.196-0.106,3.286
			c0.122,1.079,0.566,1.973,1.508,2.554c1.768,1.091,4.175,1.134,6.169,1.231c3.799,0.183,7.62,0.034,11.421-0.014
			c7.315-0.093,14.636,0.352,21.946,0.174c3.588-0.088,7.173,0.074,10.763,0.008c2.878-0.053,6.029-0.118,8.748-1.174
			c2.532-0.983,3.787-3.388,2.977-6.018c-1.315-4.268-6.638-4.083-10.214-4.315c-1.868-0.121-3.735-0.233-5.599-0.4
			c-1.577-0.141-3.095-0.628-4.682-0.779c-1.324-0.126-2.591-0.042-3.91,0.037c-1.584,0.095-3.487-0.562-5.041-0.871
			c1.578-1.183,1.122-3.801,0.91-5.434c-0.261-2.013-0.637-4.012-0.49-6.05c0.13-1.8,0.552-3.552,0.525-5.366
			c-0.063-4.182-0.916-8.291-0.753-12.491c0.067-1.737,0.289-3.447,0.759-5.124c0.49-1.749,1.166-3.453,1.406-5.263
			c0.266-2.003,0.089-4.039,0.085-6.051c-0.003-1.856,0.219-3.644,0.627-5.451c0.919-4.065,1.657-8.031,1.946-12.198
			c0.298-4.295,0.437-8.599,0.726-12.894c0.273-4.064,0.72-8.1,1.942-12.001c1.286-4.106,3.021-8.099,4.653-12.077
			c1.669-4.068,3.432-8.094,5.178-12.129c1.753-4.051,3.534-8.09,5.156-12.196c1.538-3.896,2.946-7.848,4.127-11.868
			c1.228-4.178,2.202-8.432,2.978-12.716c0.768-4.238,1.387-8.501,1.852-12.783c0.45-4.151,0.749-8.313,0.899-12.485
			c0.161-4.498,0.517-9.066,0.324-13.568c-0.035-0.816-0.13-1.619-0.296-2.419c-0.08-0.387-0.292-0.832-0.125-1.146
			c0.056-0.106,0.242-0.215,0.331-0.301c0.522-0.505,0.962-1.089,1.328-1.715c1.643-2.81,1.719-6.258,1.876-9.419
			c0.215-4.324,0.425-8.65,0.483-12.98c0.059-4.405-0.057-8.839,0.399-13.227C407.686,216.99,408.022,214.93,408.371,212.868z"/>
	</g>
</g>
</svg>
