<?xml version="1.0" encoding="utf-8"?>
<!-- Generator: Adobe Illustrator 23.0.1, SVG Export Plug-In . SVG Version: 6.00 Build 0)  -->
<!DOCTYPE svg PUBLIC "-//W3C//DTD SVG 1.1//EN" "http://www.w3.org/Graphics/SVG/1.1/DTD/svg11.dtd" [
	<!ENTITY ns_flows "http://ns.adobe.com/Flows/1.0/">
	<!ENTITY ns_extend "http://ns.adobe.com/Extensibility/1.0/">
	<!ENTITY ns_ai "http://ns.adobe.com/AdobeIllustrator/10.0/">
	<!ENTITY ns_graphs "http://ns.adobe.com/Graphs/1.0/">
	<!ENTITY ns_vars "http://ns.adobe.com/Variables/1.0/">
	<!ENTITY ns_imrep "http://ns.adobe.com/ImageReplacement/1.0/">
	<!ENTITY ns_sfw "http://ns.adobe.com/SaveForWeb/1.0/">
	<!ENTITY ns_custom "http://ns.adobe.com/GenericCustomNamespace/1.0/">
	<!ENTITY ns_adobe_xpath "http://ns.adobe.com/XPath/1.0/">
]>
<svg version="1.1" xmlns:x="&ns_extend;" xmlns:i="&ns_ai;" xmlns:graph="&ns_graphs;"
	 xmlns="http://www.w3.org/2000/svg" xmlns:xlink="http://www.w3.org/1999/xlink" xmlns:a="http://ns.adobe.com/AdobeSVGViewerExtensions/3.0/"
	 x="0px" y="0px" viewBox="0 0 750 750" enable-background="new 0 0 750 750" xml:space="preserve">
<metadata>
	<sfw  xmlns="&ns_sfw;">
		<slices></slices>
		<sliceSourceBounds  bottomLeftOrigin="true" height="8135" width="3173.451" x="0" y="-7385"></sliceSourceBounds>
	</sfw>
</metadata>
<g id="FILL-BACKGROUND">
	<rect fill="#FFFFFF" width="750" height="750"/>
</g>
<g id="N-TEXT">
</g>
<g id="AG-FURNITURE">
	<g id="POLYLINE_506_">
		<g>
			
				<path fill="none" stroke="#FF6B6B" stroke-width="2.25" stroke-linecap="round" stroke-linejoin="round" stroke-dasharray="2.998,4.9967" d="
				M111.111,101.281c0.007-7.632,6.337-13.828,13.916-13.889c1.542-0.012,3.084,0,4.626,0c3.987,0,7.974,0,11.962,0
				c6.142,0,12.285,0,18.427,0c8.008,0,16.016,0,24.024,0c9.584,0,19.168,0,28.752,0c10.87,0,21.74,0,32.61,0
				c11.866,0,23.733,0,35.599,0c12.573,0,25.146,0,37.719,0c13.057,0,26.113,0,39.17,0c13.117,0,26.234,0,39.351,0
				c12.953,0,25.906,0,38.859,0c12.499,0,24.999,0,37.498,0c11.756,0,23.512,0,35.268,0c10.723,0,21.446,0,32.169,0
				c9.4,0,18.8,0,28.2,0c7.787,0,15.575,0,23.362,0c5.885,0,11.77,0,17.655,0c3.706,0,7.411,0,11.117,0
				c1.589,0,3.215-0.086,4.801,0.052c7.172,0.621,12.64,6.762,12.692,13.9c0.011,1.576,0,3.153,0,4.73c0,3.897,0,7.794,0,11.691
				c0,5.958,0,11.915,0,17.872c0,7.758,0,15.516,0,23.273c0,9.298,0,18.596,0,27.894c0,10.578,0,21.156,0,31.734
				c0,11.598,0,23.196,0,34.794c0,12.422,0,24.844,0,37.266c0,12.859,0,25.719,0,38.578c0,13.098,0,26.195,0,39.293
				c0,13.076,0,26.152,0,39.228c0,12.794,0,25.588,0,38.382c0,12.252,0,24.504,0,36.756c0,11.45,0,22.9,0,34.35
				c0,10.388,0,20.776,0,31.163c0,9.065,0,18.131,0,27.196c0,7.516,0,15.033,0,22.549c0,5.63,0,11.261,0,16.891
				c0,3.526,0,7.053,0,10.579c0,1.477,0.069,2.977-0.033,4.452c-0.503,7.267-6.687,12.877-13.912,12.931
				c-1.634,0.012-3.268,0-4.902,0c-4.069,0-8.137,0-12.206,0c-6.214,0-12.427,0-18.641,0c-8.069,0-16.138,0-24.207,0
				c-9.687,0-19.374,0-29.061,0c-10.916,0-21.832,0-32.748,0c-11.901,0-23.801,0-35.702,0c-12.596,0-25.191,0-37.787,0
				c-13.001,0-26.002,0-39.002,0c-13.116,0-26.233,0-39.349,0c-12.942,0-25.884,0-38.826,0c-12.478,0-24.956,0-37.434,0
				c-11.724,0-23.449,0-35.173,0c-10.681,0-21.362,0-32.042,0c-9.391,0-18.782,0-28.174,0c-7.716,0-15.431,0-23.147,0
				c-5.802,0-11.603,0-17.405,0c-3.598,0-7.196,0-10.793,0c-1.771,0-3.617,0.11-5.374-0.15c-6.834-1.01-11.814-6.998-11.858-13.842
				c-0.011-1.663,0-3.327,0-4.99c0-3.975,0-7.949,0-11.924c0-6.026,0-12.052,0-18.078c0-7.861,0-15.721,0-23.582
				c0-9.355,0-18.71,0-28.065c0-10.625,0-21.249,0-31.873c0-11.634,0-23.268,0-34.902c0-12.383,0-24.766,0-37.15
				c0-12.872,0-25.745,0-38.617c0-13.101,0-26.203,0-39.304c0-13.07,0-26.141,0-39.211c0-12.779,0-25.559,0-38.338
				c0-12.288,0-24.577,0-36.865c0-11.412,0-22.824,0-34.236c0-10.339,0-20.678,0-31.017c0-9.006,0-18.012,0-27.019
				c0-7.413,0-14.826,0-22.24c0-5.56,0-11.12,0-16.68c0-3.447,0-6.894,0-10.341C111.111,103.443,111.111,102.362,111.111,101.281z"
				/>
		</g>
	</g>
	<g id="POLYLINE_505_">
		<g>
			<g>
				
					<line fill="none" stroke="#FF6B6B" stroke-width="2.25" stroke-linecap="round" stroke-linejoin="round" x1="111.111" y1="236.698" x2="112.611" y2="236.698"/>
				
					<line fill="none" stroke="#FF6B6B" stroke-width="2.25" stroke-linecap="round" stroke-linejoin="round" stroke-dasharray="2.9884,4.9807" x1="117.592" y1="236.698" x2="178.855" y2="236.698"/>
				
					<line fill="none" stroke="#FF6B6B" stroke-width="2.25" stroke-linecap="round" stroke-linejoin="round" x1="181.345" y1="236.698" x2="182.845" y2="236.698"/>
			</g>
		</g>
	</g>
	<g id="POLYLINE_504_">
		<g>
			<g>
				
					<line fill="none" stroke="#FF6B6B" stroke-width="2.25" stroke-linecap="round" stroke-linejoin="round" x1="319.429" y1="217.601" x2="320.929" y2="217.601"/>
				
					<line fill="none" stroke="#FF6B6B" stroke-width="2.25" stroke-linecap="round" stroke-linejoin="round" stroke-dasharray="2.76,4.5999" x1="325.529" y1="217.601" x2="337.948" y2="217.601"/>
				
					<line fill="none" stroke="#FF6B6B" stroke-width="2.25" stroke-linecap="round" stroke-linejoin="round" x1="340.248" y1="217.601" x2="341.748" y2="217.601"/>
			</g>
		</g>
	</g>
	<g id="POLYLINE_503_">
		<g>
			<g>
				<path fill="none" stroke="#FF6B6B" stroke-width="2.25" stroke-linecap="round" stroke-linejoin="round" d="M363.796,213.869
					c0.24-0.462,0.408-0.929,0.525-1.403"/>
				
					<path fill="none" stroke="#FF6B6B" stroke-width="2.25" stroke-linecap="round" stroke-linejoin="round" stroke-dasharray="2.9853,4.9754" d="
					M364.583,207.508c0-2.364,0-4.727,0-7.091c0-5.296,0-10.593,0-15.889c0-6.496,0-12.992,0-19.488c0-6.651,0-13.301,0-19.952
					c0-5.735,0-11.47,0-17.206c0-3.836,0-7.671,0-11.507c0-1.449,0.151-3.03-0.168-4.458c-0.446-1.995-1.785-3.726-3.603-4.66
					c-1.163-0.598-2.397-0.768-3.683-0.768c-1.478,0-2.956,0-4.435,0c-2.833,0-5.667,0-8.5,0c-3.988,0-7.976,0-11.964,0
					c-4.942,0-9.883,0-14.825,0c-5.695,0-11.39,0-17.085,0c-6.216,0-12.431,0-18.647,0c-6.598,0-13.196,0-19.794,0
					c-6.75,0-13.5,0-20.251,0c-6.702,0-13.404,0-20.105,0c-6.453,0-12.905,0-19.358,0c-6.003,0-12.006,0-18.009,0
					c-5.353,0-10.705,0-16.058,0c-4.502,0-9.003,0-13.505,0c-3.45,0-6.9,0-10.35,0c-2.198,0-4.395,0-6.593,0
					c-0.804,0-1.612-0.024-2.416,0.003c-2.038,0.068-3.974,1.013-5.25,2.612c-1.067,1.337-1.51,2.937-1.515,4.626
					c-0.008,2.427,0,4.853,0,7.28c0,4.898,0,9.797,0,14.695c0,6.325,0,12.649,0,18.974c0,6.706,0,13.412,0,20.117
					c0,6.042,0,12.083,0,18.125c0,4.332,0,8.664,0,12.996c0,1.656-0.061,3.324,0.004,4.979c0.081,2.047,1.061,3.986,2.681,5.245
					c1.419,1.102,3.063,1.46,4.821,1.46c3.788,0,7.577,0,11.365,0c6.428,0,12.857,0,19.285,0c6.007,0,12.014,0,18.021,0
					c1.206,0,2.413,0,3.619,0"/>
				<path fill="none" stroke="#FF6B6B" stroke-width="2.25" stroke-linecap="round" stroke-linejoin="round" d="M190.758,217.601
					c0.5,0,1,0,1.5,0"/>
			</g>
		</g>
	</g>
	<g id="POLYLINE_502_">
		<g>
			<g>
				<path fill="none" stroke="#FF6B6B" stroke-width="2.25" stroke-linecap="round" stroke-linejoin="round" d="M427.967,217.601
					c-0.5,0-1,0-1.5,0"/>
				
					<path fill="none" stroke="#FF6B6B" stroke-width="2.25" stroke-linecap="round" stroke-linejoin="round" stroke-dasharray="3.0131,5.0219" d="
					M421.445,217.601c-1.991,0-3.982,0-5.973,0c-6.452,0-12.904,0-19.357,0c-2.249,0-4.733,0.313-6.821-0.714
					c-1.936-0.953-3.345-2.8-3.753-4.92c-0.306-1.593-0.125-3.352-0.125-4.958c0-4.33,0-8.661,0-12.991c0-6.31,0-12.621,0-18.931
					c0-7.066,0-14.132,0-21.197c0-6.597,0-13.193,0-19.79c0-4.885,0-9.771,0-14.657c0-2-0.034-4.002,0-6.002
					c0.036-2.101,0.943-4.09,2.591-5.417c1.306-1.051,2.887-1.523,4.546-1.534c1.324-0.009,2.649,0,3.973,0c2.858,0,5.716,0,8.574,0
					c4.156,0,8.312,0,12.469,0c5.22,0,10.439,0,15.659,0c6.048,0,12.096,0,18.143,0c6.641,0,13.282,0,19.923,0
					c6.999,0,13.998,0,20.997,0c7.122,0,14.244,0,21.366,0c7.01,0,14.02,0,21.03,0c6.663,0,13.326,0,19.989,0
					c6.081,0,12.161,0,18.242,0c5.263,0,10.527,0,15.79,0c4.194,0,8.389,0,12.583,0c2.93,0,5.861,0,8.791,0
					c1.409,0,2.818-0.005,4.227,0c1.576,0.006,3.076,0.394,4.365,1.334c1.757,1.281,2.792,3.326,2.852,5.491
					c0.051,1.856,0.001,3.719,0.001,5.575c0,4.794,0,9.587,0,14.381c0,6.545,0,13.089,0,19.634c0,7.071,0,14.142,0,21.213
					c0,6.373,0,12.746,0,19.119c0,4.45,0,8.9,0,13.351c0,1.66,0.169,3.432-0.075,5.084c-0.315,2.135-1.643,4.041-3.537,5.077
					c-2.025,1.108-4.344,0.852-6.567,0.852c-6.405,0-12.809,0-19.214,0c-2.669,0-5.337,0-8.006,0"/>
				<path fill="none" stroke="#FF6B6B" stroke-width="2.25" stroke-linecap="round" stroke-linejoin="round" d="M581.619,217.601
					c-0.5,0-1,0-1.5,0"/>
			</g>
		</g>
	</g>
	<g id="POLYLINE_501_">
		<g>
			<g>
				
					<line fill="none" stroke="#FF6B6B" stroke-width="2.25" stroke-linecap="round" stroke-linejoin="round" x1="370.979" y1="236.698" x2="372.479" y2="236.698"/>
				
					<line fill="none" stroke="#FF6B6B" stroke-width="2.25" stroke-linecap="round" stroke-linejoin="round" stroke-dasharray="2.8645,4.7741" x1="377.253" y1="236.698" x2="435.974" y2="236.698"/>
				
					<line fill="none" stroke="#FF6B6B" stroke-width="2.25" stroke-linecap="round" stroke-linejoin="round" x1="438.361" y1="236.698" x2="439.861" y2="236.698"/>
			</g>
		</g>
	</g>
	<g id="POLYLINE_500_">
		<g>
			<g>
				
					<line fill="none" stroke="#FF6B6B" stroke-width="2.25" stroke-linecap="round" stroke-linejoin="round" x1="564.741" y1="236.698" x2="566.241" y2="236.698"/>
				
					<line fill="none" stroke="#FF6B6B" stroke-width="2.25" stroke-linecap="round" stroke-linejoin="round" stroke-dasharray="3.0934,5.1556" x1="571.397" y1="236.698" x2="634.811" y2="236.698"/>
				
					<line fill="none" stroke="#FF6B6B" stroke-width="2.25" stroke-linecap="round" stroke-linejoin="round" x1="637.389" y1="236.698" x2="638.889" y2="236.698"/>
			</g>
		</g>
	</g>
</g>
<g id="AG-PEOPLE">
	<g id="POLYLINE_499_">
		
			<path fill="none" stroke="#FF6B6B" stroke-width="2.75" stroke-linecap="round" stroke-linejoin="round" stroke-miterlimit="10" d="
			M250.2,386.809c4.302,1.375,8.619,2.708,12.849,4.297c3.496,1.313,6.967,2.695,10.418,4.124c4.142,1.715,8.285,3.43,12.427,5.145
			c6.246,2.586,12.492,5.172,18.738,7.757c3.863,1.599,7.73,3.192,11.59,4.798c3.551,1.478,7.066,3.045,10.475,4.829
			c1.916,1.003,3.815,2.056,5.635,3.227c1.047,0.674,2.586,1.434,2.45,2.883c-0.138,1.472-0.976,2.882-1.605,4.185
			c-1.018,2.109-2.049,4.211-2.965,6.367c-1.615,3.798-2.823,7.74-3.48,11.819c-0.665,4.129-0.732,8.287-0.428,12.452
			c0.326,4.464,0.881,8.905,1.028,13.382c0.147,4.445,0.036,8.897-0.173,13.338c-0.206,4.38-0.389,8.812-1.116,13.142
			c-0.673,4.005-2.138,7.299-4.829,10.345c-2.138,2.42-4.823,4.932-5.715,8.149c-0.401,1.447-0.305,2.984,0.252,4.377
			c0.687,1.72,2.001,3.112,3.488,4.18c3.427,2.461,7.714,3.096,11.423,4.99c3.344,1.707,5.719,4.678,8.282,7.329
			c2.987,3.089,6.389,5.822,9.956,8.211c3.395,2.275,7.184,4.04,11.128,5.14c0.924,0.258,1.939,0.459,2.893,0.247
			c1.383-0.308,2.374-1.498,1.792-2.907c-1.124-2.724-4.201-3.967-6.413-5.568c-1.126-0.815-2.027-1.951-2.87-3.04
			c-1.17-1.511-2.252-3.115-3.125-4.816c-0.955-1.86-1.538-3.864-2.324-5.794c-0.799-1.962-1.854-3.808-2.775-5.713
			c-1.796-3.719-2.841-7.54-3.142-11.661c-0.298-4.09-0.1-8.269,0.604-12.309c0.803-4.606,2.246-9.107,3.494-13.606
			c1.192-4.297,2.292-8.624,3.346-12.957c1.03-4.233,1.999-8.484,2.875-12.752c0.944-4.602,1.774-9.227,2.636-13.845
			c0.843-4.516,1.631-9.045,2.583-13.54c0.925-4.364,1.993-8.724,3.459-12.94c0.953-2.739,2.391-5.502,2.095-8.485
			c-0.318-3.216-2.089-6.217-3.938-8.783c-2.46-3.413-5.469-6.409-8.611-9.191c-3.436-3.043-7.068-5.851-10.748-8.59
			c-3.619-2.694-7.324-5.276-11.053-7.814c-3.688-2.51-7.403-4.983-11.173-7.369c-3.934-2.49-7.887-4.951-11.928-7.264
			c-3.852-2.205-7.79-4.248-11.733-6.285"/>
	</g>
	<g id="POLYLINE_498_">
		
			<path fill="none" stroke="#FF6B6B" stroke-width="2.75" stroke-linecap="round" stroke-linejoin="round" stroke-miterlimit="10" d="
			M246.191,457.525c-3.503-0.559-6.934-0.924-10.486-0.905c-3.651,0.02-7.303,0.208-10.939,0.542
			c-7.255,0.667-14.364,1.953-21.249,4.374c-6.93,2.437-13.587,5.502-20.645,7.595c-3.061,0.908-6.246,1.831-9.462,1.879
			c-2.413,0.036-4.604-0.631-6.768-1.658c-3.525-1.674-7.069-4.038-10.953-2.081c-1.633,0.823-3.064,2.113-4.103,3.613
			c-1.252,1.807-1.65,3.86-1.846,6.017c-0.171,1.878-0.321,3.719-0.856,5.537c-0.504,1.712-1.224,3.353-1.97,4.97
			c-1.554,3.37-3.194,6.711-5.007,9.95c-1.428,2.553-3.412,4.958-4.333,7.758c-0.962,2.922-0.871,6.273-1.024,9.306
			c-0.098,1.939-0.334,5.118,2.28,5.367c1.294,0.123,2.669-0.31,3.782-0.947c2.11-1.208,3.371-3.421,4.632-5.411
			c1.616-2.55,3.401-4.973,5.61-7.045c2.472-2.319,5.394-4.07,8.171-5.987c3.075-2.123,5.911-4.571,8.994-6.68
			c5.738-3.923,12.637-5.792,19.442-6.82c7.885-1.191,15.939-1.196,23.89-1.505c6.784-0.263,13.571-0.714,20.325-1.406
			c7.82-0.801,15.71-1.439,23.471-2.721c3.46-0.571,6.985-1.243,10.249-2.56c1.87-0.755,3.642-1.773,4.994-3.294
			c1.501-1.689,2.376-3.832,2.955-5.992c0.742-2.77,1.113-5.785,0.676-8.637c-0.501-3.265-2.131-6.304-3.161-9.423
			c-1.227-3.716-2.404-7.44-3.844-11.081c-2.709-6.849-5.733-13.565-8.383-20.44c-2.779-7.209-5.52-14.442-8.054-21.741
			c-1.207-3.477-2.337-6.97-3.353-10.507"/>
	</g>
	<g id="POLYLINE_497_">
		
			<path fill="none" stroke="#FF6B6B" stroke-width="2.75" stroke-linecap="round" stroke-linejoin="round" stroke-miterlimit="10" d="
			M247.195,465.554c-0.106-4.551-0.815-8.638-2.99-12.69c-2.061-3.841-4.683-7.373-7.275-10.867
			c-4.281-5.772-8.562-11.543-12.842-17.314c-2.781-3.749-5.574-7.485-8.254-11.307c-3.245-4.626-6.206-9.396-9.12-14.236
			c-0.236-0.392-0.472-0.784-0.708-1.176"/>
	</g>
	<g id="POLYLINE_496_">
		
			<path fill="none" stroke="#FF6B6B" stroke-width="2.75" stroke-linecap="round" stroke-linejoin="round" stroke-miterlimit="10" d="
			M249.705,383.153c5.689-1.145,11.153-3.015,16.182-5.94c5.437-3.163,10.085-7.29,14.665-11.556
			c2.056-1.915,4.117-3.843,6.41-5.477c2.328-1.659,4.775-2.676,7.513-3.432c0.539-0.149,2.547-0.467,1.403-1.134
			c-0.888-0.518-1.865-0.863-2.743-1.408c-2.065-1.281-3.877-2.996-5.442-4.846c-1.832-2.166-3.186-4.646-4.728-7.014
			c-1.436-2.207-3.185-4.038-5.321-5.583c-0.6-0.434-1.217-0.843-1.835-1.252"/>
	</g>
	<g id="POLYLINE_495_">
		
			<path fill="none" stroke="#FF6B6B" stroke-width="2.75" stroke-linecap="round" stroke-linejoin="round" stroke-miterlimit="10" d="
			M197.508,345.209c-1.075,3.789-1.926,7.451-1.912,11.413c0.015,4.166,0.515,8.342,1.15,12.454
			c0.63,4.078,1.459,8.113,2.508,12.104c0.574,2.18,1.195,4.355,1.652,6.564c0.411,1.984,0.651,4.004,1.135,5.972
			c0.327,1.329,0.796,2.884,2.005,3.674c0.751,0.491,1.68,0.58,2.554,0.604c4.049,0.108,8.301-0.182,12.309-0.766
			c8.285-1.209,15.7-5.123,23.572-7.721c1.892-0.624,3.846-0.982,5.75-1.553c1.024-0.307,2.126-0.749,2.186-1.977
			c0.065-1.328-0.662-2.749-1.163-3.93c-0.829-1.953-1.794-3.853-2.786-5.728c-0.457-0.865-0.936-1.719-1.424-2.567"/>
	</g>
	<g id="POLYLINE_494_">
		
			<path fill="none" stroke="#FF6B6B" stroke-width="2.75" stroke-linecap="round" stroke-linejoin="round" stroke-miterlimit="10" d="
			M294.96,237.345c1.843,0.462,3.686,0.912,5.535,1.35"/>
	</g>
	<g id="POLYLINE_493_">
		
			<path fill="none" stroke="#FF6B6B" stroke-width="2.75" stroke-linecap="round" stroke-linejoin="round" stroke-miterlimit="10" d="
			M204.481,303.412c0.143-2.156,2.64-2.097,3.393-3.89c0.763-1.818-0.921-2.809-1.381-4.388c-0.569-1.952,0.812-3.116,1.262-4.86
			c0.453-1.754,0.224-3.778-0.17-5.51c-0.146-0.642-0.325-1.311-0.647-1.89c-0.56-1.006-1.804-1.231-2.376-2.183
			c-0.483-0.805,0.061-1.67,0.401-2.421c0.376-0.831,0.604-1.588,0.347-2.493c-0.375-1.323-1.353-2.417-0.88-3.85
			c0.246-0.744,0.57-1.39,0.67-2.179c0.104-0.827,0.056-1.676-0.012-2.503c-0.23-2.819-0.815-5.598-1.142-8.405
			c-0.34-2.921-0.448-5.856-0.574-8.792c-0.027-0.635-0.055-1.27-0.082-1.904"/>
	</g>
	<g id="POLYLINE_492_">
		
			<path fill="none" stroke="#FF6B6B" stroke-width="2.75" stroke-linecap="round" stroke-linejoin="round" stroke-miterlimit="10" d="
			M283.336,250.125c1.021,3.305,1.194,6.738,0.983,10.172c-0.215,3.493-0.768,7.002-2.186,10.225
			c-1.361,3.093-3.71,5.885-4.442,9.223c-0.626,2.858-0.247,5.928-1.361,8.686c-0.729,1.804-2.256,3.113-2.933,4.953
			c-0.621,1.688-1.027,3.46-1.585,5.171c-0.633,1.941-1.295,3.879-1.794,5.86c-0.549,2.179-0.781,4.244-0.186,6.431
			c0.738,2.709,1.727,5.122,3.498,7.277c1.406,1.712,1.567,4.191,1.566,6.316c-0.001,1.411-0.115,2.796,0.188,4.185
			c0.343,1.569,1.046,3.054,1.322,4.637c0.238,1.363-0.498,2.261-1.473,3.129c-1.295,1.152-2.776,2.106-4.26,2.994
			c-3.039,1.818-6.278,3.356-9.68,4.359c-7.862,2.317-16.226,1.422-24.307,1.635c-8.507,0.224-17.007,0.754-25.517,0.885
			c-3.867,0.059-7.934,0.27-11.76-0.41c-1.154-0.205-2.42-0.563-2.636-1.885c-0.171-1.044,0.155-2.2,0.414-3.197
			c0.463-1.784,1.047-3.547,1.234-5.39c0.18-1.766-0.094-3.506-0.345-5.251c-0.363-2.529-0.514-4.813,0.359-7.245
			c0.599-1.668,1.468-3.227,2.289-4.792"/>
	</g>
	<g id="POLYLINE_491_">
		
			<path fill="none" stroke="#FF6B6B" stroke-width="2.75" stroke-linecap="round" stroke-linejoin="round" stroke-miterlimit="10" d="
			M182.408,285.168c2.238-4.279,4.502-8.544,6.675-12.857c2.614-5.191,5.149-10.431,7.923-15.539
			c1.353-2.491,2.866-4.879,4.375-7.277"/>
	</g>
	<g id="POLYLINE_490_">
		
			<path fill="none" stroke="#FF6B6B" stroke-width="2.75" stroke-linecap="round" stroke-linejoin="round" stroke-miterlimit="10" d="
			M206.171,205.048c-1.685-0.106-3.392-0.171-4.945,0.593c-2.151,1.058-3.72,3.238-5.025,5.164c-1.701,2.509-3.156,5.184-4.494,7.9
			c-2.03,4.123-4.061,8.245-6.091,12.368c-3.431,6.967-6.88,13.926-10.242,20.927c-1.602,3.335-3.189,6.686-4.647,10.087
			c-1.423,3.319-2.689,6.701-4.168,9.996c-2.536,5.65-6.373,12.343-4.946,18.761c1.086,4.886,4.879,7.656,9.019,9.985
			c6.658,3.746,13.547,7.07,20.198,10.829c3.161,1.787,6.31,3.648,9.185,5.875c2.712,2.101,4.774,4.537,6.687,7.364
			c3.98,5.883,10.023,9.909,16.154,13.293c3.243,1.79,6.566,3.724,10.009,5.103c1.058,0.424,2.415,0.473,2.598-1.003
			c0.125-1.002-0.975-1.481-1.726-1.848c-1.251-0.611-2.595-1.092-3.764-1.862c-0.256-0.168-1.324-0.881-0.823-1.062
			c0.331-0.12,1.202,0.399,1.503,0.527c3.416,1.454,6.784,3.101,10.403,4.007c0.805,0.202,1.973,0.557,2.797,0.227
			c0.546-0.219,0.838-0.754,0.962-1.305c0.121-0.54-0.094-1.001,0.556-1.068c0.535-0.055,1.046,0.258,1.578,0.014
			c0.491-0.226,0.713-0.792,0.821-1.286c0.237-1.085-0.005-2.239-0.986-2.859c-1.399-0.885-3.11-1.428-4.599-2.162
			c-1.612-0.795-3.21-1.622-4.794-2.473c-1.34-0.72-2.838-1.394-4.036-2.342c-0.596-0.471-0.215-0.485,0.343-0.369
			c0.682,0.142,1.351,0.368,2.01,0.589c3.468,1.163,6.769,2.805,10.267,3.88c0.736,0.226,1.898,0.621,2.505-0.059
			c0.804-0.901-0.092-2.627-0.767-3.321c-1.01-1.039-2.633-1.382-3.902-1.987c-1.763-0.842-3.458-1.83-5.177-2.756
			c-2.813-1.516-5.962-2.698-8.533-4.624c-0.592-0.443-2.038-1.859-0.43-1.734c1.154,0.09,2.321,0.558,3.401,0.939
			c2.629,0.928,5.162,2.291,7.993,2.464c0.862,0.053,2.157,0.083,2.762-0.658c0.785-0.963-0.332-2.182-1.145-2.646
			c-1.203-0.687-2.591-1.005-3.824-1.646c-1.693-0.879-3.273-1.977-4.878-3.004c-2.167-1.386-4.536-2.87-7.128-3.247
			c-3.188-0.464-6.424-0.186-9.614-0.794c-3.085-0.588-5.846-1.926-8.475-3.618c-3.194-2.056-6.335-4.174-9.635-6.058
			c-3.281-1.873-6.829-3.598-9.71-6.08c-2.58-2.222-4.171-5.107-6.161-7.813c-2.038-2.771-4.776-4.989-7.782-6.639"/>
	</g>
	<g id="POLYLINE_489_">
		
			<path fill="none" stroke="#FF6B6B" stroke-width="2.75" stroke-linecap="round" stroke-linejoin="round" stroke-miterlimit="10" d="
			M278.022,209.57c4.136-1.045,8.224-1.427,12.484-1.087c4.223,0.337,8.367,1.23,12.378,2.584c4.338,1.464,8.492,3.39,12.734,5.097
			c3.861,1.553,7.762,2.775,11.891,3.358c4.52,0.638,9.107,1.026,13.667,1.213c0.51,0.021,1.02,0.035,1.53,0.051"/>
	</g>
	<g id="POLYLINE_488_">
		
			<path fill="none" stroke="#FF6B6B" stroke-width="2.75" stroke-linecap="round" stroke-linejoin="round" stroke-miterlimit="10" d="
			M272.529,223.844c0.419,3.405,1.348,6.761,2.556,9.967c0.61,1.62,1.304,3.214,2.176,4.712c0.94,1.616,2.05,3.126,2.984,4.747
			c1.083,1.879,2.033,3.843,2.766,5.885"/>
	</g>
	<g id="POLYLINE_487_">
		
			<path fill="none" stroke="#FF6B6B" stroke-width="2.75" stroke-linecap="round" stroke-linejoin="round" stroke-miterlimit="10" d="
			M261.757,212.084c2.053,3.463,4.651,6.723,7.658,9.409c3.036,2.712,6.585,3.991,10.25,5.617c2.523,1.12,5.089,2.613,6.522,5.066
			c0.95,1.626,1.203,3.469,1.078,5.33c-0.268,3.974-1.852,7.904-3.984,11.229c-0.241,0.376-0.519,0.746-0.725,1.145
			c-0.163,0.316-0.312,0.498,0.074,0.545c0.401,0.05,1.17-0.557,1.493-0.765c1.645-1.055,3.132-2.405,4.295-3.977
			c0.685-0.927,1.251-1.94,1.64-3.026c0.316-0.882,0.487-1.795,0.737-2.696c0.236-0.851,0.387-0.385,0.485,0.227
			c0.628,3.92,0.223,8.105-0.403,11.995c-0.069,0.426-1.175,4.936-0.014,4.782c0.787-0.104,1.633-1.478,2.032-2.09
			c1.803-2.766,2.375-6.199,2.56-9.439c0.194-3.384,0.104-7.038-1.144-10.235c-0.541-1.386-1.308-2.663-2.18-3.864
			c-1.08-1.488-2.476-2.844-3.359-4.462c-0.933-1.71,2.116-0.054,2.673,0.291c1.5,0.929,2.883,2.074,4.085,3.365
			c1.37,1.47,2.441,3.179,3.373,4.951c0.3,0.57,2,5.007,2.818,4.689c0.747-0.291,0.472-2.689,0.409-3.284
			c-0.147-1.377-0.523-2.727-1.125-3.974c-0.861-1.784-2.099-3.332-3.329-4.87c-0.25-0.313-1.231-1.389-0.249-0.98
			c0.739,0.308,1.425,0.828,2.085,1.275c1.794,1.213,3.534,2.523,5.167,3.946c0.8,0.697,1.552,1.456,2.379,2.121
			c0.727,0.585,1.05,0.47,0.829-0.46c-0.682-2.883-2.547-5.897-4.665-7.947c-2.839-2.748-6.71-4.205-10.243-5.82
			c-3.763-1.72-7.503-3.492-10.657-6.22c-1.552-1.343-2.937-2.852-4.298-4.384"/>
	</g>
	<g id="POLYLINE_486_">
		
			<path fill="none" stroke="#FF6B6B" stroke-width="2.75" stroke-linecap="round" stroke-linejoin="round" stroke-miterlimit="10" d="
			M225.536,216.835c-0.659,3.297-0.534,6.755-0.009,10.062c0.476,2.997,1.258,6.09,3.095,8.562
			c3.909,5.263,11.089,7.694,17.239,9.023c3.695,0.798,7.513,1.286,11.297,1.199c2.298-0.052,4.796-0.305,6.778-1.582
			c4.092-2.637,4.38-8.657,3.624-12.942c-0.68-3.854-2.229-7.488-3.659-11.109c-1.182-2.994-2.29-5.74-2.123-9.01
			c0.035-0.691,0.112-1.38,0.244-2.059"/>
	</g>
	<g id="POLYLINE_485_">
		
			<path fill="none" stroke="#FF6B6B" stroke-width="2.75" stroke-linecap="round" stroke-linejoin="round" stroke-miterlimit="10" d="
			M254.745,202.928c2.553,2.705,5.463,5.017,8.666,6.909c2.647,1.563,5.618,3.014,8.715,3.336c1.699,0.177,3.496-0.071,4.739-1.347
			c0.827-0.849,1.224-1.886,1.178-3.057c-0.018-0.471-0.162-1.048,0.018-1.506c0.257-0.652,1.054-0.914,1.534-1.373
			c0.422-0.404,0.733-0.925,0.841-1.502c0.118-0.633-0.05-1.274,0.327-1.839c0.625-0.937,1.779-1.216,2.004-2.444
			c0.159-0.869-0.196-2.179,0.724-2.708c0.896-0.516,2.09,0.005,2.921-0.739c0.841-0.752,0.702-2.135,0.564-3.145
			c-0.246-1.789-0.899-3.479-1.269-5.24c-0.363-1.73-0.101-3.147,0.549-4.775c0.483-1.207,0.734-2.446,1.163-3.664
			c0.286-0.813,0.779-1.509,0.971-2.358c0.69-3.043,0.361-6.499,0.236-9.589c-0.039-0.96-0.107-1.916-0.189-2.873"/>
	</g>
	<g id="POLYLINE_484_">
		
			<path fill="none" stroke="#FF6B6B" stroke-width="2.75" stroke-linecap="round" stroke-linejoin="round" stroke-miterlimit="10" d="
			M201.381,249.495c0.951-0.218,1.813-1.231,2.455-1.912c1.074-1.138,2.05-2.371,2.982-3.626c1.954-2.632,3.699-5.415,5.322-8.262
			c1.639-2.874,3.163-5.817,4.6-8.797c1.133-2.349,2.144-4.919,3.94-6.86c3.875-4.187,10.132-4.648,15.149-6.637
			c4.643-1.841,7.472-6.779,9.926-10.844c1.71-2.833,3.272-5.753,4.767-8.704c1.482-2.925,2.818-5.957,4.598-8.719
			c1.584-2.458,3.586-4.4,5.928-6.136c2.11-1.564,4.552-2.943,6.251-4.989c1.494-1.799,2.108-4.104,3.229-6.123
			c1.197-2.155,2.84-4.039,4.968-5.315c2.458-1.474,5.511-2.178,8.369-2.059c1.781,0.074,3.105,0.648,3.595,2.473
			c0.104,0.387,0.647,2.55,1.139,1.809c0.22-0.332,0.064-1.306,0.054-1.674c-0.02-0.743-0.06-1.486-0.049-2.23
			c0.04-2.816,0.993-5.538,0.822-8.369c-0.097-1.612-0.544-3.251-1.407-4.627c-1.151-1.835-3.097-2.45-4.981-3.295
			c-3.032-1.359-5.888-3.074-8.895-4.481c-2.433-1.139-5.041-1.609-7.696-1.902c-6.307-0.697-12.964-0.78-19.047,1.245
			c-5.807,1.933-10.873,5.556-14.112,10.798c-3.407,5.515-5.162,12.053-5.995,18.434c-0.418,3.2-0.576,6.428-0.533,9.654
			c0.04,2.994,0.428,6.015,0.123,9.005c-0.273,2.675-1.214,5.221-2.463,7.589c-1.193,2.262-2.679,4.523-4.653,6.185
			c-3.796,3.196-9.29,2.924-13.883,3.991c-3.71,0.862-7.168,2.602-8.47,6.418c-0.849,2.487-0.938,5.233-0.812,7.833
			c0.114,2.352,0.789,4.733,0.474,7.087c-0.371,2.775-1.096,5.297-0.885,8.128c0.216,2.892,0.905,5.751,1.806,8.501
			c0.465,1.42,0.992,2.825,1.614,4.184C199.886,247.866,200.487,249.691,201.381,249.495z"/>
	</g>
	<g id="POLYLINE_483_">
		
			<path fill="none" stroke="#FF6B6B" stroke-width="2.75" stroke-linecap="round" stroke-linejoin="round" stroke-miterlimit="10" d="
			M350.556,229.096c-3.79-2.467-7.381-5.972-8.552-10.447c-0.734-2.803-1.231-5.637-2.171-8.386
			c-0.928-2.711-2.055-5.358-3.238-7.966c-2.531-5.578-5.222-11.109-8.003-16.567c-2.412-4.732-5.044-10.105-9.432-13.334
			c-2.019-1.486-4.276-2.505-6.21-4.143c-2.007-1.699-3.761-3.665-5.35-5.755c-1.659-2.183-3.208-4.497-4.48-6.93
			c-0.828-1.584-1.544-3.201-1.388-5.018c0.162-1.891-0.278-3.577-0.383-5.457c-0.043-0.766,0.026-1.585,0.442-2.251
			c0.28-0.448,0.694-0.763,1.171-0.977c0.488-0.219,0.617-0.088,0.618-0.618c0.003-1.588-0.201-3.459,0.518-4.929
			c0.564-1.152,1.753-1.906,2.897-2.399c4.218-1.814,8.773-0.67,12.653,1.425c1.093,0.59,2.129,1.281,3.097,2.06
			c1.076,0.866,1.856,1.835,2.745,2.874c1.012,1.183,2.239,2.07,2.915,3.505c1.131,2.398,1.7,5.114,2.515,7.634
			c0.864,2.671,1.896,5.368,2.242,8.171c0.291,2.356,0.544,4.438,1.473,6.644c1.085,2.576,2.471,5.031,3.909,7.425
			c3.447,5.739,7.375,11.197,11.128,16.736c3.137,4.63,6.158,9.359,8.935,14.214c3.031,5.3,6.161,10.614,8.92,16.064
			c1.297,2.562,2.313,5.242,2.979,8.038c0.528,2.219,0.972,4.621,0.689,6.91c-0.433,3.499-3.882,4.497-6.845,5.323
			c-5.647,1.575-11.583,2.17-17.429,2.287c-6.016,0.12-12.032-0.32-18.025-0.79c-6.07-0.476-12.143-1.014-18.173-1.871
			c-2.881-0.41-5.74-0.921-8.589-1.511"/>
	</g>
	<g id="POLYLINE_482_">
		
			<path fill="none" stroke="#FF6B6B" stroke-width="2.75" stroke-linecap="round" stroke-linejoin="round" stroke-miterlimit="10" d="
			M524.863,571.462c-0.266,2.991-0.342,6.012-1.167,8.914c-0.743,2.612-1.641,5.211-1.779,7.946c-0.174,3.433,1.1,6.119,4.061,7.858
			c4.18,2.455,9.279,3.094,12.649,6.835c1.981,2.2,3.404,4.889,4.792,7.483c1.586,2.963,3.065,5.985,4.713,8.914
			c1.303,2.317,2.751,4.63,4.768,6.398c1.839,1.612,4.057,2.547,6.338,3.36c2.078,0.741,4.635,1.299,6.298,2.864
			c1.309,1.231,2.092,2.533,3.776,3.294c3.279,1.481,7.946,1.544,8.979-2.722c0.96-3.966-1.908-8.006-4.062-11.035
			c-3.768-5.296-8.632-9.708-12.293-15.08c-3.565-5.231-5.791-11.071-7.699-17.065c-0.508-1.595-1.01-3.192-1.541-4.78"/>
	</g>
	<g id="POLYLINE_481_">
		
			<path fill="none" stroke="#FF6B6B" stroke-width="2.75" stroke-linecap="round" stroke-linejoin="round" stroke-miterlimit="10" d="
			M487.696,171.719c-0.608-0.933-1.229-1.85-2.454-1.877c-0.774-0.017-1.567,0.25-2.26,0.577c-1.749,0.826-3.139,2.295-3.153,4.33
			c-0.015,2.214,1.09,4.454,2.13,6.336c1.036,1.875,2.346,3.89,4.153,5.116c1.812,1.23,4.229,1,5.44-0.964"/>
	</g>
	<g id="POLYLINE_480_">
		
			<path fill="none" stroke="#FF6B6B" stroke-width="2.75" stroke-linecap="round" stroke-linejoin="round" stroke-miterlimit="10" d="
			M485.69,185.888c2.239,6.898,1.517,14.449,0.92,21.579c-0.183,2.191-0.439,4.372-0.731,6.55"/>
	</g>
	<g id="POLYLINE_479_">
		
			<path fill="none" stroke="#FF6B6B" stroke-width="2.75" stroke-linecap="round" stroke-linejoin="round" stroke-miterlimit="10" d="
			M487.003,201.171c-0.699,0.168-1.704,0.197-2.281-0.31c-0.614-0.539-0.836-1.606-1.369-2.263c-1.19-1.47-3.352-2.832-3.914-4.736
			c-0.269-0.912,0.093-1.681-0.435-2.556c-0.482-0.799-1.169-1.477-1.811-2.146c-0.677-0.704-1.398-1.367-1.617-2.355
			c-0.174-0.786-0.188-1.481-0.676-2.157c-0.858-1.186-2.197-2.014-2.241-3.629c-0.023-0.852,0.397-1.731,0.238-2.576
			c-0.183-0.974-1.359-1.199-1.705-2.098c-0.429-1.117,0.008-2.684,0.44-3.736c0.312-0.761,0.697-1.408,0.695-2.252
			c-0.003-1.035-0.283-2.069-0.429-3.088c-0.199-1.385-0.268-2.902,0.345-4.203c0.433-0.918,1.42-1.189,1.852-2.084
			c0.383-0.794,0.579-1.546,1.317-2.106c0.634-0.482,1.752-0.773,2.066-1.571c0.308-0.782-0.173-1.712,0.04-2.538
			c0.282-1.091,1.27-1.993,2.13-2.659c0.644-0.499,1.315-0.816,2.032-1.183c0.773-0.397,0.843-1.051,1.189-1.782
			c0.809-1.708,2.903-1.928,4.23-3.105c1.425-1.263,3.099-1.31,4.936-1.277c1.005,0.018,2.094,0.166,3.089-0.07
			c1.004-0.238,1.351-1.013,2.139-1.563c0.663-0.464,1.281-0.131,2.009-0.081c0.785,0.054,1.259-0.401,1.731-0.977
			c1.115-1.363,2.164-1.988,3.891-2.273c0.626-0.104,1.262-0.158,1.897-0.133c0.695,0.027,1.447,0.219,2.13-0.005
			c1.3-0.427,1.98-1.753,3.513-1.592c0.911,0.096,1.701,0.667,2.526,1.012c0.799,0.334,1.527,0.411,2.385,0.263
			c0.802-0.138,1.667-0.516,2.368,0.063c0.807,0.666,1.067,1.047,2.181,0.915c0.776-0.092,1.669-0.394,2.457-0.202
			c0.921,0.224,1.281,1.189,1.704,1.933c0.446,0.786,1.157,1.227,1.657,1.943c0.49,0.701-0.032,1.272-0.322,1.939
			c-0.315,0.723-0.236,1.421,0.59,1.695c0.973,0.323,1.621,0.366,2.009,1.452c0.412,1.153,0.055,2.407-0.504,3.448
			c-0.547,1.019-1.436,1.352-2.436,1.799c-0.719,0.322-1.501,0.687-1.531,1.572c-0.031,0.918,0.533,1.765,0.561,2.682
			c0.025,0.829-0.378,1.53-1.182,0.885c-1.68-1.349-2.653-3.514-4.214-5.015c-0.663-0.637-1.397-1.149-2.267-1.459
			c-1.846-0.657-3.938-0.677-5.871-0.776c-2.7-0.138-5.424-0.197-8.124-0.032c-0.833,0.051-1.695,0.096-2.508,0.299
			c-1.297,0.324-0.6,0.892,0.141,1.456c1.397,1.063,1.605,2.426,1.521,4.097c-0.074,1.461-0.335,3.019-1.008,4.337
			c-0.762,1.491-2.6,2.146-3.211,3.67c-0.575,1.436-0.149,3.086-0.569,4.571c-0.253,0.898-0.714,1.71-1.133,2.537
			c-0.325,0.642-0.686,1.86-1.389,2.231c-0.833,0.439-1.893-0.392-2.457-0.932c-0.607-0.582-0.847-1.25-1.258-1.951
			c-0.587-1.003-1.727-1.415-2.812-1.644c-0.881-0.186-1.813-0.251-2.704-0.096"/>
	</g>
	<g id="POLYLINE_478_">
		
			<path fill="none" stroke="#FF6B6B" stroke-width="2.75" stroke-linecap="round" stroke-linejoin="round" stroke-miterlimit="10" d="
			M517.287,212.263c-0.16-2.789,0.254-5.591,1.243-8.203"/>
	</g>
	<g id="POLYLINE_477_">
		
			<path fill="none" stroke="#FF6B6B" stroke-width="2.75" stroke-linecap="round" stroke-linejoin="round" stroke-miterlimit="10" d="
			M498.369,194.923c2.441,2.697,5.153,4.83,8.513,6.269c3.41,1.46,7.109,2.413,10.798,2.794c1.799,0.186,5.348,0.606,6.39-1.362
			c0.591-1.116,0.417-2.687,0.462-3.888c0.06-1.587,0.148-3.195,0.444-4.758c0.185-0.979,0.577-1.832,0.883-2.773
			c0.309-0.95,0.114-1.791-0.026-2.752c-0.096-0.658-0.161-1.331-0.052-1.992c0.258-1.561,1.384-2.165,2.585-2.973
			c1.105-0.743,1.359-1.526,0.884-2.754c-0.561-1.452-1.356-2.801-1.876-4.273c-0.312-0.882-0.542-1.773-0.422-2.716
			c0.109-0.857,0.359-1.676,0.414-2.542c0.124-1.946-0.543-3.733-0.53-5.663c0.011-1.721-0.135-3.32-0.956-4.861
			c-0.176-0.331-0.375-0.65-0.596-0.953"/>
	</g>
	<g id="POLYLINE_476_">
		
			<path fill="none" stroke="#FF6B6B" stroke-width="2.75" stroke-linecap="round" stroke-linejoin="round" stroke-miterlimit="10" d="
			M486.379,209.936c-1.365,0.091-3.275,0.958-3.621,2.401c-0.47,1.959,3.342,1.69,4.388,1.774c2.271,0.182,4.522,0.497,6.709,1.155
			c2.506,0.754,4.832,1.966,7.247,2.953c1.207,0.493,2.822,1.231,4.175,0.925c1.515-0.343,2.182-2.16,3.326-3.086
			c1.171-0.948,2.632-1.5,4.034-2.002c2.377-0.851,4.739-1.747,7.023-2.827c0.607-0.287,3.828-1.661,3.549-2.695
			c-0.293-1.085-4.034-0.65-4.664-0.588c-0.36,0.035-0.718,0.082-1.073,0.149"/>
	</g>
	<g id="POLYLINE_475_">
		
			<path fill="none" stroke="#FF6B6B" stroke-width="2.75" stroke-linecap="round" stroke-linejoin="round" stroke-miterlimit="10" d="
			M486.455,209.187c-2.104,0.143-3.644,0.769-5.545,1.708c-2.918,1.441-5.813,2.79-9.131,2.859
			c-5.322,0.109-11.084-2.203-14.684-6.128c-2.012-2.193-3.665-4.737-5.264-7.237c-1.858-2.906-3.655-5.852-5.398-8.828
			c-3.377-5.767-6.399-11.812-10.25-17.286c-1.676-2.382-3.001-5.092-5.081-7.16c-1.812-1.803-4.064-3.201-6.403-4.21
			c-0.597-0.257-1.204-0.488-1.822-0.689"/>
	</g>
	<g id="POLYLINE_474_">
		
			<path fill="none" stroke="#FF6B6B" stroke-width="2.75" stroke-linecap="round" stroke-linejoin="round" stroke-miterlimit="10" d="
			M435.041,172.633c1.334-0.533,2.672-1.076,3.922-1.789c1.151-0.656,2.114-1.529,3.166-2.325c1.778-1.345,3.847-1.98,5.994-2.5
			c2.611-0.631,5.545-0.971,7.957-2.239c1.903-1.001,2.434-2.737,2.051-4.753c-0.515-2.706-1.883-5.294-3.187-7.69
			c-1.626-2.987-3.487-5.842-5.083-8.846c-1.3-2.447-3.879-11.531-8.326-8.296c-1,0.727-1.809,1.701-2.708,2.541
			c-0.971,0.906-2.06,1.638-3.214,2.29c-2.953,1.669-5.907,3.399-8.924,4.948c-2.924,1.501-6.006,2.729-8.787,4.497
			c-2.483,1.579-4.252,3.941-6.627,5.629c-2.035,1.447-4.333,2.303-6.057,4.183c-0.903,0.984-1.644,2.156-1.927,3.475
			c-0.398,1.852,0.088,3.786,0.668,5.543c1.025,3.104,2.444,6.089,3.835,9.042c3.141,6.665,6.384,13.283,9.584,19.921
			c2.982,6.187,5.838,12.458,9.056,18.529c3.245,6.121,7.319,11.665,10.954,17.545c1.705,2.758,3.031,5.733,4.757,8.476
			c1.228,1.951,3.099,3.349,4.331,5.28c1.326,2.078,1.877,4.626,2.347,7.012c0.577,2.923,0.956,5.888,1.297,8.847
			c0.971,8.405,1.871,16.818,2.807,25.227c0.669,6.012,1.31,12.035,1.67,18.074c0.417,6.986,0.402,13.952-0.107,20.933
			c-0.498,6.822-1.345,13.642-2.492,20.385c-0.589,3.465-1.419,6.868-2.107,10.312c-0.174,0.87-0.522,2.108-0.221,3
			c0.311,0.921,1.355,0.967,2.186,0.967c1.537,0,3.07-0.271,4.598-0.41c1.618-0.147,3.239-0.17,4.862-0.102
			c3.232,0.134,6.446,0.538,9.669,0.802c7.366,0.604,14.733,1.132,22.116,1.482c6.833,0.324,13.644,0.396,20.459-0.269
			c6.843-0.668,13.683-1.604,20.461-2.758c6.714-1.143,13.486-2.507,19.777-5.192c2.21-0.943,4.792-2.018,6.475-3.809
			c0.777-0.827,0.881-1.602,0.498-2.65c-0.526-1.438-1.135-2.838-1.621-4.293c-0.496-1.485-0.954-2.992-1.274-4.526
			c-0.304-1.46-0.415-2.955-0.768-4.406c-0.714-2.932-2.192-5.699-3.556-8.37c-1.509-2.955-3.309-5.891-4.201-9.111
			c-0.821-2.963-0.761-6.102-0.57-9.145c0.417-6.632,1.433-13.239,2.469-19.797c1.176-7.44,2.365-14.872,3.745-22.278
			c1.232-6.608,2.511-13.339,4.742-19.695c0.985-2.805,2.229-5.512,3.865-7.999c1.887-2.868,4.202-5.427,6.426-8.033
			c4.522-5.3,8.755-10.809,12.829-16.459c4.108-5.697,7.995-11.552,11.692-17.523c3.59-5.8,6.865-11.798,9.956-17.876
			c2.364-4.649,4.817-9.833,3.497-15.175c-0.637-2.576-2.311-4.382-4.826-5.204c-2.896-0.947-6.107-0.762-9.109-0.997
			c-3.757-0.294-7.497-0.826-11.237-1.279c-3.163-0.383-6.33-0.659-9.503-0.948c-1.748-0.159-3.289-0.294-4.797-1.207
			c-2.858-1.732-5.464-3.865-8.405-5.466c-0.723-0.394-1.552-0.858-2.387-0.962c-1.21-0.151-1.429,0.965-1.718,1.892
			c-2.319,7.451-5.088,14.779-7.648,22.149c-0.886,2.55-1.752,5.112-2.762,7.616c-0.246,0.61-1.46,2.455-1.036,3.172
			c0.457,0.773,3.068,0.36,3.713,0.359c6.727-0.007,13.495,0.816,20.198,1.298"/>
	</g>
	<g id="POLYLINE_473_">
		
			<path fill="none" stroke="#FF6B6B" stroke-width="2.75" stroke-linecap="round" stroke-linejoin="round" stroke-miterlimit="10" d="
			M517.767,206.523c1.492-0.071,2.989-0.166,4.481-0.045c1.363,0.111,2.672,0.476,4.013,0.721c1.19,0.217,2.306,0.263,3.459-0.138
			c1.561-0.542,2.912-1.258,4.591-1.288c2.872-0.05,5.699,0.868,8.503,1.355c1.321,0.229,2.738,0.413,4.042-0.015
			c1.317-0.433,2.346-1.443,3.247-2.457c2.196-2.473,3.992-5.29,6.028-7.892c2.009-2.568,4.145-5.039,6.392-7.401
			c4.485-4.716,9.44-8.779,15.127-11.964c0.725-0.406,1.459-0.796,2.191-1.189"/>
	</g>
	<g id="POLYLINE_472_">
		
			<path fill="none" stroke="#FF6B6B" stroke-width="2.75" stroke-linecap="round" stroke-linejoin="round" stroke-miterlimit="10" d="
			M525.764,186.575c1.152-0.548,2.314-1.086,3.344-1.848c1.011-0.748,1.919-1.681,3.105-2.16c2.013-0.813,4.405-0.549,6.522-0.815
			c2.014-0.253,4.018-0.589,6.024-0.894"/>
	</g>
	<g id="POLYLINE_471_">
		
			<path fill="none" stroke="#FF6B6B" stroke-width="2.75" stroke-linecap="round" stroke-linejoin="round" stroke-miterlimit="10" d="
			M526.835,165.499c2.982,0.171,5.915,0.113,8.87-0.36c3.55-0.569,7.051-1.447,10.551-2.262c1.828-0.425,3.643-0.898,5.457-1.378"/>
	</g>
	<g id="POLYLINE_470_">
		
			<path fill="none" stroke="#FF6B6B" stroke-width="2.75" stroke-linecap="round" stroke-linejoin="round" stroke-miterlimit="10" d="
			M456.031,153.433c3.562-2.459,7.203-4.801,10.789-7.223c2.832-1.913,5.704-4.357,8.983-5.484c2.433-0.836,5.027-0.272,7.525-0.143
			c3.884,0.201,7.576-0.568,11.144-2.095c3.437-1.47,6.968-3.465,9.622-6.136c0.912-0.918,1.645-1.928,1.873-3.229
			c0.193-1.098,0.373-1.876,1.087-2.752c1.136-1.393,2.286-2.754,3.247-4.279c0.644-1.021,1.509-2.379,1.058-3.625
			c-0.412-1.136-1.636-1.727-1.876-2.953c-0.226-1.151,0.098-2.5-0.675-3.497c-1.053-1.361-2.5-0.122-3.194,0.913
			c-1.022,1.524-1.862,3.094-3.087,4.477c-0.599,0.676-1.233,1.33-1.922,1.915c-0.218,0.185-0.782,0.757-1.077,0.734
			c-0.787-0.06,1.027-2.755,1.226-3.042c1.162-1.682,4.269-4.789,1.896-6.83c-1.371-1.179-2.243,0.702-2.881,1.711
			c-0.936,1.483-1.874,2.959-3.099,4.225c-0.987,1.02-2.106,1.913-3.31,2.664c-0.816,0.51-2.489,1.653-3.417,0.87
			c-1.232-1.04,0.808-2.413,1.519-2.98c1.446-1.154,2.791-2.434,3.872-3.944c0.554-0.774,1.074-1.628,1.308-2.56
			c0.287-1.146-0.013-2.959-1.563-2.879c-1.176,0.06-2.193,1.447-2.882,2.258c-1.28,1.504-2.491,3.093-4.015,4.364
			c-2.154,1.798-4.832,2.439-7.527,2.982c-1.481,0.298-2.93,0.637-4.273,1.354c-1.501,0.801-2.844,1.902-4.125,3.012
			c-2.803,2.43-5.384,4.953-8.78,6.537c-3.76,1.753-7.597,3.385-11.443,4.942c-1.987,0.805-3.987,1.573-6.008,2.29"/>
	</g>
	<g id="POLYLINE_469_">
		
			<path fill="none" stroke="#FF6B6B" stroke-width="2.75" stroke-linecap="round" stroke-linejoin="round" stroke-miterlimit="10" d="
			M454.18,360.682c-0.637,1.234-1.185,2.879-0.77,4.274c0.376,1.266,1.554,2.105,1.826,3.423c0.134,0.649,0.076,1.332-0.046,1.978
			c-0.45,2.4-2.086,4.199-2.827,6.464c-0.587,1.794-0.561,3.696-1.591,5.33c-0.869,1.378-2.08,2.548-3.159,3.754
			c-1.288,1.438-2.528,2.917-3.748,4.412c-2.448,3.001-4.773,6.101-7.013,9.259c-4.601,6.487-8.741,13.277-12.388,20.345
			c-3.588,6.954-6.769,14.131-9.594,21.427c-2.934,7.577-5.333,15.28-7.562,23.089c-0.875,3.065-1.764,5.865-1.462,9.094
			c0.247,2.63,1.07,5.114,2.541,7.311c1.932,2.887,4.577,5.236,7.063,7.631c3.059,2.947,6.179,5.84,9.073,8.952
			c2.992,3.217,5.844,6.571,8.753,9.862c2.387,2.7,4.804,5.378,7.039,8.207c2.178,2.757,4.009,5.633,5.467,8.831
			c1.119,2.453,2.213,4.89,4.308,6.669c3.635,3.086,9.078,4.372,13.64,2.962c1.473-0.455,2.907-0.848,4.45-0.966
			c1.916-0.146,3.841-0.097,5.76-0.194c2.743-0.139,5.338-0.633,7.703-2.083c2.729-1.672,5.166-4.108,7.255-6.512
			c1.161-1.336,2.314-2.873,2.591-4.67c0.262-1.7-0.277-3.421-1.116-4.888c-1.776-3.102-4.723-5.584-7.172-8.126
			c-5.245-5.445-9.517-11.69-13.38-18.168c-4.043-6.782-7.796-13.789-11.37-20.828c-1.926-3.792-1.99-8.934,0.415-12.563
			c1.385-2.09,3.941-3.566,4.668-6.05c0.267-0.913,0.388-1.798,0.955-2.59c0.576-0.804,1.349-1.464,2.097-2.1
			c6.171-5.249,12.208-10.623,17.825-16.471c2.727-2.84,5.352-5.778,7.819-8.847c1.298-1.615,2.547-3.269,3.81-4.912
			c0.457-0.595,0.905-1.203,1.402-1.765c0.385-0.435,0.706-0.753,1.011-0.102c0.285,0.607,0.346,1.411,0.475,2.056
			c0.18,0.901,0.371,1.799,0.595,2.69c0.452,1.8,0.979,3.582,1.535,5.353c1.165,3.714,2.435,7.394,3.671,11.085
			c2.547,7.609,4.796,15.486,8.131,22.802c1.314,2.882,3.365,5.427,4.362,8.445c1.06,3.207,1.194,6.728,1.341,10.075
			c0.368,8.395,0.152,16.823,0.218,25.224c0.06,7.681,0.858,15.298,1.701,22.925c0.833,7.533,1.149,14.965,0.569,22.531
			c-0.315,4.108-0.814,8.194-1.31,12.283c-0.362,2.987-1.057,6.229-0.608,9.24c0.469,3.141,3.938,3.913,6.474,4.925
			c3.558,1.419,7.209,2.773,10.468,4.819c2.946,1.849,5.369,4.466,8.447,6.106c2.195,1.169,4.705,1.854,7.19,1.959
			c3.241,0.137,6.038-1,7.254-4.161c1.203-3.126,1.236-6.69,1.379-9.99c0.102-2.36,0.196-4.72,0.294-7.08
			c0.462-11.15,0.925-22.301,1.387-33.451c0.273-6.587,0.614-13.177,0.604-19.772c-0.006-3.805-0.073-7.628-0.584-11.404
			c-0.228-1.686-0.549-3.366-1.058-4.992c-0.436-1.391-1.084-2.743-1.365-4.179c-0.405-2.073,0.946-3.133,1.736-4.883
			c1.001-2.216-0.078-4.877-0.888-6.969c-1.328-3.429-2.755-6.75-2.641-10.501c0.113-3.727,1.038-7.382,1.298-11.099
			c0.258-3.697,0.147-7.434,0.155-11.137c0.01-4.271,0.078-8.547-0.015-12.817c-0.179-8.219-1.359-16.382-2.302-24.536
			c-0.428-3.7-0.673-7.393-0.845-11.111c-0.168-3.632-0.613-7.103-1.708-10.579c-1.031-3.27-2.653-6.603-3.045-10.041
			c-0.079-0.691-0.077-1.397,0.098-2.075c0.354-1.374,1.401-2.273,2.202-3.381c1.244-1.72,0.795-3.492,0.14-5.347
			c-1.135-3.213-2.272-6.303-2.542-9.727"/>
	</g>
	<g id="POLYLINE_468_">
		
			<path fill="none" stroke="#FF6B6B" stroke-width="2.75" stroke-linecap="round" stroke-linejoin="round" stroke-miterlimit="10" d="
			M473.313,532.824c5.158,4.918,9.517,10.726,12.649,17.141c1.53,3.133,2.674,6.415,3.211,9.866
			c0.515,3.312,0.482,6.674,0.921,9.992c0.436,3.293,1.288,6.449,1.264,9.795c-0.021,2.885-0.201,6.038-1.137,8.792
			c-0.356,1.048-0.986,1.948-1.485,2.93c-0.646,1.269-1.162,2.626-1.517,4.006c-0.45,1.748-0.876,4.583,1.529,5.025
			c1.966,0.361,3.632-1.217,4.826-2.558c2.181-2.45,4.304-5.123,5.931-7.978c3.348-5.877,5.65-12.441,7.129-19.023
			c0.738-3.282,1.335-6.686,2.957-9.675c1.673-3.084,4.199-5.589,6.322-8.351c2.427-3.157,4.584-7.277,3.595-11.381
			c-0.914-3.792-4.335-5.699-7.753-6.966c-3.294-1.221-6.832-1.899-9.899-3.674c-3.041-1.76-5.589-4.388-7.79-7.095
			c-0.965-1.187-1.849-2.436-2.652-3.737"/>
	</g>
</g>
<g id="AG-OUTLINE">
	<g id="POLYLINE_70_">
		
			<path fill="none" stroke="#FF6B6B" stroke-width="3.5" stroke-linecap="round" stroke-linejoin="round" stroke-miterlimit="10" d="
			M473.313,532.824c4.412,4.206,8.165,9.023,11.166,14.331c2.953,5.222,4.68,10.629,5.127,16.608
			c0.239,3.19,0.482,6.287,1.077,9.434c0.513,2.716,0.768,5.373,0.622,8.139c-0.126,2.385-0.32,4.953-1.135,7.219
			c-0.327,0.909-0.864,1.703-1.314,2.553c-0.579,1.092-1.043,2.252-1.408,3.432c-0.443,1.432-1.136,3.761-0.06,5.073
			c1.162,1.417,3.269,0.731,4.491-0.184c1.906-1.427,3.327-3.574,4.784-5.419c1.758-2.226,3.178-4.631,4.405-7.185
			c2.608-5.428,4.46-11.089,5.778-16.954c0.62-2.76,1.176-5.572,2.433-8.13c1.357-2.762,3.465-5.084,5.411-7.436
			c2.533-3.06,5.037-6.651,5.056-10.792c0.012-2.512-1.05-4.862-3.005-6.452c-4.111-3.342-9.813-3.575-14.382-6.016
			c-2.745-1.466-5.044-3.67-7.101-5.975c-0.91-1.019-1.768-2.084-2.561-3.197c-0.368-0.517-0.79-1.051-1.082-1.616
			c-0.23-0.445-0.111-0.689-0.074-1.184c0.306-4.144-3.356-7.418-5.965-10.107c-4.389-4.524-8.378-9.193-11.876-14.45
			c-3.489-5.244-6.619-10.724-9.576-16.282c-1.452-2.73-2.842-5.493-4.323-8.207c-1.051-1.926-2.233-3.843-2.585-6.043
			c-0.517-3.233,0.045-6.972,2.073-9.615c1.29-1.682,3.372-3.037,4.124-5.085c0.486-1.324,0.605-2.512,1.59-3.589
			c1.877-2.054,4.257-3.683,6.338-5.526c2.422-2.145,4.828-4.308,7.163-6.548c4.575-4.389,9.016-8.94,13.027-13.855
			c1.955-2.396,3.735-4.934,5.713-7.309c0.185-0.222,0.573-0.831,0.904-0.754c0.33,0.077,0.417,0.783,0.483,1.054
			c0.339,1.389,0.559,2.804,0.91,4.192c1.545,6.114,3.752,12.077,5.751,18.051c1.982,5.921,3.846,11.906,6.139,17.717
			c1.087,2.755,2.338,5.357,3.865,7.894c1.14,1.894,2.01,3.793,2.452,5.966c1.09,5.353,0.926,10.967,0.951,16.406
			c0.032,7.013-0.069,14.04,0.182,21.051c0.232,6.483,0.953,12.916,1.665,19.359c0.65,5.883,1.031,11.749,0.758,17.669
			c-0.302,6.557-1.157,13.054-1.936,19.565c-0.245,2.05-0.559,4.232-0.227,6.291c0.394,2.439,2.477,3.23,4.529,4.066
			c0.237,0.097,1.059,0.263,1.19,0.479c0.063,0.103-0.046,0.521-0.056,0.629c-0.096,1.082-0.193,2.164-0.289,3.246
			c-0.102,1.142-0.164,2.287-0.405,3.41c-0.581,2.706-1.648,5.283-2.042,8.035c-0.427,2.975-0.121,6.199,2.289,8.266
			c3.617,3.103,8.802,3.446,12.55,6.36c3.946,3.069,6.078,8.236,8.329,12.55c2.386,4.571,4.631,9.975,9.081,12.94
			c2.223,1.481,4.841,2.225,7.33,3.12c1.734,0.623,3.314,1.29,4.531,2.71c1.066,1.244,2.018,2.168,3.562,2.781
			c1.436,0.571,3.062,0.903,4.608,0.721c3.846-0.452,4.657-4.582,3.713-7.697c-0.645-2.13-1.852-4.064-3.091-5.893
			c-1.575-2.324-3.325-4.53-5.174-6.64c-4.041-4.612-8.03-9.081-10.863-14.567c-2.763-5.351-4.339-11.104-6.241-16.788
			c2.029-0.065,4.034-0.681,5.298-2.357c2.039-2.704,2.101-6.782,2.27-10.001c0.203-3.868,0.328-7.741,0.488-11.61
			c0.32-7.725,0.641-15.449,0.961-23.174c0.234-5.648,0.468-11.296,0.703-16.944c0.182-4.378,0.272-8.771,0.196-13.153
			c-0.083-4.769-0.278-9.743-1.846-14.292c-0.501-1.454-1.381-3.126-1.231-4.725c0.122-1.295,1.112-2.27,1.685-3.377
			c1.637-3.163-0.781-7.267-1.901-10.187c-0.846-2.204-1.479-4.483-1.497-6.858c-0.018-2.497,0.447-4.987,0.801-7.45
			c0.683-4.744,0.647-9.469,0.658-14.25c0.013-5.656,0.153-11.329-0.116-16.981c-0.257-5.405-0.935-10.771-1.56-16.142
			c-0.621-5.337-1.22-10.647-1.457-16.018c-0.112-2.538-0.246-5.073-0.766-7.566c-0.504-2.416-1.348-4.742-2.142-7.073
			c-0.941-2.763-2.924-6.675-1.399-9.589c0.813-1.553,2.545-2.612,2.651-4.495c0.066-1.188-0.366-2.384-0.759-3.48
			c-0.818-2.279-1.713-4.558-2.152-6.948c-0.094-0.511-0.164-1.026-0.22-1.542c-0.025-0.23-0.108-0.521-0.071-0.748
			c0.066-0.402,0.185-0.354,0.6-0.512c1.171-0.445,2.328-0.93,3.461-1.465c1.605-0.757,3.288-1.599,4.61-2.807
			c1.602-1.464,0.892-2.723,0.196-4.478c-0.885-2.232-1.657-4.547-2.188-6.891c-0.483-2.13-0.6-4.302-1.325-6.377
			c-1.655-4.735-4.508-8.921-6.446-13.525c-1.934-4.596-1.637-9.546-1.18-14.406c0.463-4.92,1.115-9.833,1.886-14.714
			c0.91-5.761,1.804-11.522,2.8-17.269c0.925-5.34,1.922-10.663,3.073-15.96c1.047-4.816,2.24-9.699,4.249-14.216
			c1.948-4.379,4.914-7.977,7.999-11.592c3.469-4.065,6.838-8.19,10.042-12.469c3.16-4.221,6.224-8.517,9.167-12.892
			c3.001-4.46,5.911-8.989,8.618-13.634c2.686-4.609,5.239-9.288,7.657-14.043c2.039-4.008,4.074-8.207,3.833-12.823
			c-0.113-2.17-0.7-4.477-2.359-5.989c-1.964-1.792-4.782-2.125-7.319-2.281c-5.713-0.351-11.352-1.019-17.035-1.707
			c-2.32-0.281-4.647-0.489-6.975-0.689c-1.581-0.135-3.326-0.114-4.835-0.666c-1.589-0.581-3.004-1.777-4.389-2.716
			c-2-1.356-3.996-2.844-6.199-3.861c-1.239-0.572-2.434-0.896-2.976,0.654c-0.812,2.326-1.56,4.675-2.378,7
			c-0.6,1.706-1.201,3.413-1.801,5.119c-0.084,0.239-0.171,0.841-0.359,1.021c-0.365,0.35-1.621,0.433-2.12,0.562
			c-2.421,0.627-4.861,1.19-7.301,1.737c-4.746,1.063-9.409,1.988-14.297,1.764c-0.257-0.012-0.685,0.04-0.915-0.048
			c-0.331-0.127-0.242-0.19-0.244-0.594c-0.002-0.38-0.011-0.76-0.044-1.139c-0.042-0.471-0.117-0.937-0.239-1.394
			c-0.254-0.953-0.691-1.864-1.272-2.661c1.327,0.53,0.514-2.432,0.409-2.828c-0.361-1.358,0.032-1.975,1.302-2.548
			c1.292-0.584,2.179-1.021,2.751-2.396c0.273-0.657,0.479-1.347,0.417-2.067c-0.047-0.538-0.223-1.122-0.57-1.545
			c-0.484-0.592-1.072-0.481-1.719-0.743c-1.209-0.49-0.456-1.594-0.115-2.397c0.532-1.254-0.844-1.802-1.459-2.732
			c-0.615-0.931-0.944-2.264-2.237-2.391c-1.053-0.103-2.162,0.523-3.197,0.244c-0.664-0.179-0.893-0.895-1.491-1.152
			c-0.487-0.209-1.079-0.019-1.572,0.08c-1.19,0.239-2.092,0.183-3.196-0.328c-1.119-0.519-2.19-1.184-3.441-0.663
			c-0.784,0.326-1.336,1.043-2.122,1.355c-0.867,0.344-1.861,0.027-2.763,0.048c-0.898,0.021-1.811,0.169-2.669,0.432
			c-1.185,0.363-1.855,1.068-2.632,2.008c-0.801,0.97-1.368,0.963-2.524,0.806c-1.318-0.179-1.659,1.007-2.678,1.551
			c-1.161,0.621-2.792,0.311-4.033,0.301c-1.098-0.01-2.331-0.017-3.37,0.393c-1.074,0.423-1.824,1.429-2.889,1.935
			c-1.17,0.555-2.179,1.026-2.711,2.28c-0.215,0.507-0.323,1.062-0.79,1.404c-0.411,0.301-0.969,0.439-1.412,0.704
			c-0.763,0.458-1.481,1.03-2.08,1.691c-0.583,0.643-1.042,1.376-1.052,2.271c-0.007,0.576,0.245,1.225,0.065,1.789
			c-0.183,0.574-0.785,0.855-1.269,1.14c-1.202,0.706-1.556,1.435-2.148,2.635c-0.31,0.628-0.811,0.811-1.296,1.27
			c-0.475,0.449-0.713,1.104-0.86,1.726c-0.527,2.227,0.49,4.329,0.395,6.542c-0.045,1.046-0.706,1.928-0.986,2.919
			c-0.216,0.767-0.389,1.654-0.257,2.451c0.218,1.312,1.841,1.551,1.831,2.916c-0.009,1.296-0.543,2.368,0.149,3.604
			c0.456,0.815,1.201,1.392,1.763,2.124c0.66,0.861,0.51,1.831,0.905,2.783c0.516,1.245,1.838,2.131,2.677,3.156
			c0.372,0.454,0.782,0.96,0.93,1.538c0.146,0.571-0.065,1.156,0.072,1.728c0.274,1.145,1.406,2.156,2.184,2.959
			c1.038,1.07,2.019,2.034,2.657,3.39c0.521,1.108,1.565,1.34,2.719,1.074c-0.089,0.021-0.175,3.821-0.203,4.214
			c-0.056,0.803-0.115,1.605-0.184,2.406c-0.028,0.329,0.002,0.744-0.097,1.056c-0.147,0.463-0.192,0.337-0.757,0.38
			c-1.535,0.117-2.824,0.673-4.201,1.353c-2.605,1.287-5.193,2.65-8.113,3.039c-2.429,0.323-4.896-0.005-7.241-0.67
			c-2.149-0.609-4.26-1.496-6.116-2.749c-2.193-1.48-3.879-3.525-5.411-5.654c-3.166-4.4-5.978-9.097-8.673-13.796
			c-3.102-5.408-5.98-11.058-9.568-16.169c-0.457-0.651-0.918-1.298-1.363-1.957c1.779-0.71,3.589-1.442,5.147-2.577
			c1.272-0.927,2.394-2.019,3.827-2.705c3.665-1.754,7.939-1.689,11.628-3.359c1.276-0.578,2.369-1.483,2.585-2.951
			c0.199-1.359-0.223-2.783-0.668-4.051c-0.383-1.091-0.969-2.108-1.351-3.192c-0.128-0.364-0.183-0.229,0.003-0.49
			c0.197-0.277,0.737-0.511,1.022-0.706c0.21-0.143,0.422-0.284,0.634-0.425c2.698-1.798,5.396-3.596,8.093-5.394
			c3.139-2.092,6.286-4.869,9.915-6.081c3.05-1.019,6.408-0.011,9.541-0.08c4.613-0.102,9.063-1.84,13.016-4.124
			c2.767-1.599,6.983-3.989,7.551-7.482c0.269-1.654,0.891-2.407,1.955-3.69c1.163-1.403,2.365-2.937,3.129-4.603
			c0.697-1.52,0.329-2.502-0.709-3.679c-0.539-0.611-0.851-1.141-0.93-1.964c-0.07-0.736-0.013-1.502-0.219-2.221
			c-0.588-2.054-2.452-1.548-3.461-0.127c-1.215,1.711-2.134,3.51-3.576,5.066c-0.594,0.641-1.219,1.278-1.915,1.809
			c-0.401,0.306-1.119,0.815-0.914-0.053c0.403-1.702,1.978-3.287,2.946-4.661c0.688-0.977,1.476-2.183,1.157-3.438
			c-0.172-0.676-0.744-1.485-1.458-1.655c-0.717-0.171-1.158,0.483-1.518,1.003c-1.196,1.729-2.17,3.581-3.617,5.126
			c-1.174,1.253-2.552,2.341-4.046,3.187c-0.789,0.447-3.32,1.577-3.223-0.302c0.037-0.723,0.793-1.26,1.302-1.678
			c0.859-0.705,1.729-1.378,2.518-2.162c1.106-1.099,2.169-2.34,2.847-3.757c0.552-1.153,0.982-3.251-0.595-3.834
			c-1.389-0.513-2.692,1.264-3.454,2.159c-1.373,1.614-2.673,3.339-4.361,4.646c-2.797,2.165-6.265,2.25-9.518,3.258
			c-4.014,1.244-6.956,4.74-10.094,7.339c-3.331,2.758-7.448,4.248-11.384,5.932c-2.33,0.997-4.661,1.991-7.026,2.904
			c-0.621,0.24-1.242,0.48-1.866,0.714c-0.375,0.14-1.499,0.75-1.886,0.681c-0.334-0.06-0.918-0.857-1.287-1.072
			c-0.342-0.199-0.715-0.346-1.109-0.398c-1.213-0.162-2.178,0.614-3.005,1.39c-1.533,1.439-2.895,2.838-4.726,3.903
			c-4.383,2.55-8.854,4.962-13.422,7.162c-1.9,0.915-3.807,1.856-5.529,3.083c-1.836,1.309-3.285,3.031-5.008,4.469
			c-2.446,2.042-5.56,2.94-7.495,5.623c-1.333,1.849-1.56,3.949-1.084,6.145c0.961,4.437,3.267,8.69,5.207,12.759
			c2.012,4.22,4.061,8.424,6.091,12.635c2.869,5.951,5.738,11.903,8.607,17.854c1.717,3.563,3.504,7.094,5.508,10.506
			c2.562,4.362,5.549,8.45,8.239,12.73c1.346,2.142,2.521,4.372,3.716,6.6c0.837,1.56,1.702,3.124,2.889,4.449
			c1.042,1.162,2.209,2.194,3.006,3.553c0.875,1.492,1.359,3.199,1.759,4.871c0.94,3.927,1.393,7.968,1.839,11.975
			c0.737,6.622,1.474,13.243,2.21,19.865c0.513,4.613,1.007,9.224,1.46,13.844c0.47,4.787,0.807,9.591,0.939,14.399
			c0.138,5.004-0.024,10.007-0.397,14.998c-0.374,5.009-0.955,10.005-1.663,14.977c-0.71,4.986-1.685,9.892-2.765,14.808
			c-0.227,1.034-0.929,3.098-0.209,4.099c0.787,1.094,3.257,0.551,4.339,0.44c-0.82,1.59-1.338,3.556-0.341,5.183
			c0.674,1.1,1.465,1.953,1.47,3.314c0.003,0.81-0.185,1.621-0.436,2.387c-0.488,1.49-1.353,2.756-2.047,4.148
			c-0.632,1.267-0.786,2.615-1.088,3.984c-0.54,2.451-2.23,4.102-3.871,5.925c-2.867,3.185-5.557,6.537-8.117,9.973
			c-2.599,3.489-5.103,7.05-7.449,10.715c-2.368,3.698-4.6,7.482-6.658,11.362c-2.174,4.098-4.195,8.27-6.101,12.498
			c-1.813,4.022-3.483,8.106-5.075,12.219c-1.542,3.984-2.969,8.021-4.244,12.099c-1.382,4.42-2.647,8.882-3.884,13.345
			c-0.855,3.085-0.731,6.404,0.278,9.444c1.039,3.129,3.225,5.654,5.506,7.962c3.13,3.168,6.454,6.141,9.601,9.293
			c3.167,3.171,6.084,6.566,9.051,9.923c2.96,3.348,5.99,6.65,8.807,10.121c2.577,3.177,4.704,6.462,6.401,10.185
			c1.161,2.546,2.385,4.965,4.665,6.676c2.471,1.854,5.727,2.928,8.799,3.122c2.777,0.175,5.185-1.16,7.892-1.488
			C469.315,532.831,471.326,532.885,473.313,532.824z"/>
	</g>
	<g id="POLYLINE_69_">
		
			<path fill="none" stroke="#FF6B6B" stroke-width="3.5" stroke-linecap="round" stroke-linejoin="round" stroke-miterlimit="10" d="
			M544.759,180.859c-0.164,0.395-0.432,0.966-0.053,1.309c0.346,0.314,1.091,0.233,1.523,0.237c1.637,0.013,3.264-0.022,4.9,0.058
			c3.972,0.193,7.939,0.543,11.905,0.828c1.817,0.131,3.634,0.261,5.452,0.392c-4.267,3.646-8.12,7.789-11.628,12.164
			c-1.845,2.301-3.529,4.721-5.324,7.06c-1.044,1.361-2.182,2.858-3.684,3.75c-2.582,1.533-6.003,0.289-8.668-0.26
			c-1.818-0.374-3.742-0.782-5.608-0.581c-1.441,0.155-2.669,0.868-4.029,1.305c-0.933,0.3-1.861,0.301-2.823,0.156
			c-2.353-0.355-4.485-0.911-6.889-0.845c-0.689,0.019-1.377,0.058-2.065,0.091c0.081-0.343,0.171-0.683,0.272-1.02
			c0.087-0.292,0.237-1.227,0.476-1.403c0.205-0.151,0.977,0.009,1.276,0.011c0.416,0.002,0.832-0.009,1.246-0.046
			c0.767-0.069,1.61-0.201,2.272-0.623c1.277-0.815,1.157-2.559,1.199-3.884c0.061-1.919,0.122-3.872,0.504-5.759
			c0.224-1.106,0.85-2.116,1.007-3.224c0.152-1.072-0.269-2.141-0.292-3.212c-0.015-0.71,0.043-0.789,0.695-1.102
			c0.429-0.206,0.857-0.414,1.275-0.642c0.562-0.308,1.096-0.65,1.605-1.039c1.063-0.814,2.04-1.767,3.35-2.166
			c1.287-0.392,2.682-0.364,4.009-0.455c2.271-0.157,4.521-0.557,6.769-0.898C543.873,180.993,544.316,180.926,544.759,180.859z"/>
	</g>
	<g id="POLYLINE_68_">
		
			<path fill="none" stroke="#FF6B6B" stroke-width="3.5" stroke-linecap="round" stroke-linejoin="round" stroke-miterlimit="10" d="
			M246.191,457.525c-7.95-1.27-15.92-0.998-23.907-0.111c-7.781,0.864-15.243,2.641-22.525,5.528
			c-7.541,2.989-15.217,6.417-23.272,7.767c-2.681,0.449-5.337,0.426-7.906-0.526c-2.835-1.05-5.384-3.019-8.389-3.575
			c-3.573-0.661-6.962,1.686-8.822,4.602c-1.515,2.375-1.534,5.13-1.823,7.848c-0.436,4.11-2.359,7.821-4.123,11.495
			c-1.685,3.509-3.509,6.949-5.576,10.249c-1.637,2.613-2.663,4.868-2.942,7.96c-0.183,2.032-0.302,4.083-0.379,6.122
			c-0.042,1.12-0.099,2.399,0.312,3.469c0.74,1.925,3.139,1.585,4.697,0.995c2.007-0.76,3.376-2.357,4.542-4.099
			c1.972-2.947,3.762-5.913,6.31-8.417c2.703-2.656,5.985-4.58,9.075-6.736c3.28-2.289,6.286-4.97,9.669-7.112
			c6.591-4.171,14.666-5.796,22.321-6.58c8.272-0.847,16.618-0.792,24.916-1.235c8.758-0.468,17.473-1.407,26.193-2.32
			c3.774-0.395,7.553-0.799,11.305-1.376c3.802-0.584,7.69-1.266,11.287-2.671c2.109-0.824,4.095-1.967,5.537-3.746
			c1.723-2.125,2.583-4.868,3.077-7.519c0.605-3.246,0.6-6.492-0.489-9.631c-0.656-1.89-1.457-3.726-2.109-5.618
			c-0.707-2.052-1.354-4.125-2.039-6.185c-2.545-7.655-6.062-14.945-9.007-22.448c-3.174-8.087-6.237-16.219-9.144-24.407
			c-0.656-1.848-1.292-3.704-1.905-5.567c-0.307-0.935-0.608-1.872-0.895-2.813c-0.166-0.545-0.328-1.091-0.489-1.638
			c-0.104-0.356-0.536-1.211-0.441-1.534c0.057-0.194,0.446-0.387,0.671-0.55c0.358-0.26,0.138-0.252,0.578-0.216
			c0.499,0.041,1.075,0.332,1.551,0.482c0.774,0.243,1.547,0.488,2.32,0.734c1.98,0.629,3.953,1.271,5.914,1.958
			c6.417,2.249,12.682,4.919,18.962,7.519c10.616,4.395,21.232,8.79,31.848,13.185c6.279,2.6,12.563,5.17,18.489,8.527
			c1.477,0.837,3.041,1.686,4.353,2.773c1.031,0.855,0.956,1.795,0.551,3c-0.587,1.749-1.534,3.403-2.333,5.058
			c-0.804,1.665-1.578,3.346-2.281,5.056c-2.916,7.095-4.097,14.619-3.651,22.267c0.238,4.078,0.776,8.131,1.003,12.21
			c0.228,4.098,0.196,8.204,0.066,12.305c-0.131,4.138-0.33,8.288-0.727,12.41c-0.348,3.608-0.81,7.408-2.549,10.649
			c-1.783,3.324-4.853,5.704-6.951,8.808c-0.999,1.478-1.808,3.138-1.817,4.956c-0.02,3.921,3.302,6.739,6.569,8.275
			c3.251,1.529,6.878,2.214,9.959,4.116c3.022,1.866,5.233,4.777,7.714,7.259c2.772,2.773,5.867,5.245,9.106,7.451
			c3.246,2.211,6.688,3.726,10.389,5.015c1.682,0.586,4.954,1.462,5.816-0.863c0.85-2.293-3.124-4.98-4.619-5.91
			c-0.911-0.566-1.831-1.003-2.618-1.74c-1.224-1.146-2.26-2.526-3.216-3.898c-0.986-1.414-1.884-2.895-2.582-4.474
			c-0.765-1.732-1.29-3.558-2.05-5.292c-1.556-3.55-3.636-6.822-4.657-10.596c-0.967-3.573-1.192-7.329-1.098-11.016
			c0.201-7.843,2.662-15.088,4.626-22.607c2.149-8.229,4.249-16.47,5.929-24.811c1.688-8.381,3.057-16.824,4.774-25.199
			c0.807-3.937,1.713-7.858,2.878-11.707c0.601-1.985,1.326-3.917,2.038-5.864c0.431-1.178,0.824-2.385,0.95-3.639
			c0.231-2.291-0.521-4.556-1.526-6.585c-1.69-3.41-4.177-6.408-6.813-9.127c-5.789-5.971-12.585-10.914-19.316-15.755
			c-6.817-4.902-13.86-9.494-20.961-13.971c-6.672-4.206-13.562-7.981-20.567-11.598c0.983-0.418-0.858-1.046-1.18-1.199
			c-0.674-0.321-1.326-0.668-1.952-1.076c-1.575-1.025-2.993-2.296-4.271-3.67c-2.845-3.057-4.489-6.909-7.121-10.108
			c-1.58-1.921-3.583-3.369-5.642-4.731c1.536-1.85-0.156-4.567-0.642-6.531c-0.567-2.293-0.125-4.662-0.426-6.991
			c-0.212-1.642-0.623-2.962-1.718-4.216c-1.349-1.545-2.042-3.42-2.694-5.348c-0.55-1.629-0.979-3.246-0.855-4.974
			c0.194-2.71,1.187-5.367,2.023-7.929c0.771-2.364,1.207-5.041,2.385-7.242c0.752-1.405,1.947-2.509,2.515-4.022
			c0.881-2.346,0.785-4.934,1.103-7.383c0.334-2.572,1.629-4.696,2.875-6.927c1.34-2.399,2.478-4.828,3.107-7.516
			c0.674-2.879,0.926-5.882,0.922-8.835c-0.002-1.255-0.073-2.51-0.242-3.754c-0.091-0.67-0.211-1.336-0.361-1.996
			c-0.095-0.416-0.544-1.484-0.368-1.774c0.142-0.234,0.806-0.486,1.042-0.647c0.595-0.404,1.164-0.847,1.703-1.322
			c0.964-0.85,1.84-1.81,2.561-2.876c0.451-0.666,0.841-1.374,1.145-2.119c0.432-1.056,0.464-2.398,0.974-3.387
			c0.289-0.559,0.327-0.077,0.403,0.346c0.089,0.502,0.127,1.015,0.164,1.523c0.112,1.532,0.123,3.073,0.075,4.607
			c-0.098,3.123-0.794,6.123-1.125,9.216c-0.092,0.856-0.098,2.09,1.018,1.231c0.502-0.386,0.913-0.923,1.275-1.437
			c2.743-3.895,3.039-9.282,2.791-13.881c-0.072-1.337-0.206-2.675-0.498-3.983c0.935,0.234,1.869,0.475,2.805,0.703
			c0.831,0.202,2.347,0.239,2.858,0.897c0.237,0.305,0.376,0.971,0.751,1.159c0.587,0.294,0.706-0.611,0.761-1.047
			c0,0.168,3.987,0.78,4.394,0.852c1.362,0.24,2.729,0.45,4.099,0.646c2.95,0.42,5.913,0.76,8.878,1.06
			c5.825,0.589,11.669,1.066,17.515,1.389c5.692,0.314,11.412,0.397,17.089-0.203c2.796-0.295,5.586-0.731,8.325-1.369
			c2.145-0.499,4.414-1.066,6.345-2.159c2.78-1.574,2.679-4.698,2.301-7.519c-0.705-5.264-2.87-9.954-5.423-14.547
			c-3.081-5.545-6.108-11.125-9.392-16.554c-2.904-4.8-6.043-9.447-9.189-14.09c-3.453-5.096-7.031-10.126-10.038-15.505
			c-1.2-2.147-2.374-4.379-3.116-6.732c-0.668-2.121-0.586-4.358-1.072-6.516c-0.657-2.913-1.732-5.735-2.636-8.575
			c-0.618-1.941-1.032-4.075-2.024-5.877c-0.805-1.463-2.241-2.46-3.26-3.768c-1.517-1.947-3.644-3.429-5.841-4.536
			c-3.776-1.903-8.104-2.87-12.131-1.118c-1.08,0.47-2.186,1.17-2.775,2.221c-0.746,1.332-0.732,3.331-0.627,4.82
			c0.009,0.124,0.069,0.318,0.041,0.437c-0.071,0.304,0.01,0.128-0.253,0.307c-0.386,0.261-0.84,0.33-1.197,0.678
			c-0.608,0.593-0.803,1.452-0.812,2.274c-0.019,1.678,0.607,3.297,0.486,4.982c-0.116,1.618-0.066,2.882,0.573,4.394
			c1.015,2.403,2.49,4.639,3.98,6.769c3.045,4.353,6.612,7.952,11.237,10.597c4.248,2.429,6.934,6.787,9.226,10.972
			c2.961,5.406,5.536,11.037,8.21,16.588c2.3,4.774,4.549,9.7,5.84,14.856c0.578,2.308,0.88,4.753,1.819,6.954
			c-4.502-0.143-9.005-0.499-13.477-1.04c-4.109-0.497-8.037-1.428-11.905-2.91c-4.376-1.677-8.619-3.685-13.029-5.276
			c-3.998-1.442-8.11-2.476-12.34-2.938c-4.166-0.455-8.329-0.369-12.423,0.577c-0.505,0.117-1.007,0.245-1.51,0.372
			c0.079-0.622-0.084-1.232-0.038-1.849c0.067-0.916,0.844-1.169,1.469-1.705c0.58-0.497,0.94-1.145,1.017-1.903
			c0.088-0.87,0.037-1.381,0.715-2.007c0.502-0.464,1.143-0.827,1.434-1.476c0.239-0.533,0.185-1.13,0.217-1.696
			c0.106-1.851,1.259-1.559,2.678-1.863c3.424-0.733,0.406-7.423,0.1-9.298c-0.422-2.58,0.966-4.762,1.596-7.195
			c0.269-1.04,0.888-1.922,1.149-2.957c0.39-1.547,0.349-3.23,0.35-4.812c0-2.412-0.025-4.827-0.221-7.232
			c-0.06-0.735,0.188-1.557,0.168-2.386c-0.026-1.047-0.087-2.094-0.019-3.141c0.24-3.71,1.526-7.197,0.054-10.83
			c-0.291-0.718-0.666-1.415-1.161-2.014c-1.143-1.384-2.912-1.901-4.491-2.609c-3.958-1.774-7.657-4.461-11.877-5.577
			c-4.331-1.146-9.066-1.288-13.521-1.201c-4.486,0.087-8.896,0.888-13.013,2.71c-4.102,1.816-7.756,4.588-10.366,8.258
			c-2.594,3.647-4.272,7.913-5.44,12.21c-1.253,4.611-1.892,9.37-2.036,14.142c-0.131,4.327,0.638,8.773-0.01,13.066
			c-0.615,4.074-2.699,8.119-5.348,11.239c-1.65,1.944-3.64,3.25-6.104,3.92c-2.316,0.63-4.731,0.88-7.091,1.282
			c-1.086,0.185-2.036,0.381-3.138,0.34c-0.607-0.022-1.217-0.019-1.82,0.057c-2.324,0.295-4.025,1.842-5.466,3.593
			c-2.525,3.067-4.427,6.673-6.175,10.222c-2.808,5.701-5.616,11.402-8.423,17.103c-1.989,4.039-3.969,8.083-5.937,12.133
			c-2.177,4.482-4.355,8.966-6.346,13.535c-2.007,4.606-3.838,9.277-5.897,13.862c-1.713,3.815-3.586,7.949-3.708,12.195
			c-0.079,2.74,0.719,5.444,2.327,7.669c1.986,2.749,5.064,4.437,7.981,6.026c4.726,2.576,9.514,5.035,14.264,7.566
			c4.058,2.162,8.132,4.38,11.925,6.988c0.824,0.567,1.997,1.182,2.648,1.95c0.276,0.325,0.214,0.118,0.105,0.503
			c-0.111,0.389-0.415,0.788-0.602,1.148c-0.234,0.451-0.465,0.903-0.684,1.361c-0.67,1.399-1.249,2.857-1.457,4.403
			c-0.475,3.533,1.02,7.003,0.538,10.551c-0.284,2.093-1.062,4.071-1.46,6.139c-0.099,0.512-0.184,1.045-0.165,1.569
			c0.011,0.316,0.047,0.641,0.176,0.933c0.15,0.34,0.483,0.536,0.52,0.858c0.071,0.623-0.421,1.583-0.588,2.192
			c-0.133,0.485-0.26,0.972-0.378,1.461c-0.241,0.997-0.441,2.003-0.583,3.018c-0.32,2.283-0.337,4.593-0.226,6.893
			c0.23,4.775,0.9,9.54,1.78,14.236c0.914,4.881,2.422,9.604,3.438,14.456c0.469,2.243,0.697,4.552,1.336,6.756
			c0.471,1.625,1.281,3.145,3.077,3.507c0.248,0.05,0.573,0.03,0.759,0.167c0.357,0.263,0.651,1.082,0.877,1.456
			c0.876,1.454,1.751,2.908,2.627,4.363c1.157,1.922,2.378,3.808,3.626,5.672c2.263,3.382,4.636,6.696,7.06,9.964
			c3.874,5.223,7.748,10.447,11.623,15.67c2.622,3.535,5.29,7.042,7.832,10.635C242.256,449.42,244.898,453.234,246.191,457.525z"/>
	</g>
	<g id="POLYLINE_67_">
		
			<path fill="none" stroke="#FF6B6B" stroke-width="3.5" stroke-linecap="round" stroke-linejoin="round" stroke-miterlimit="10" d="
			M203.289,248.142c0.126,2.917,0.204,5.839,0.457,8.749c0.247,2.837,0.752,5.637,1.13,8.457c0.24,1.793,0.55,3.783-0.044,5.541
			c-0.238,0.704-0.629,1.341-0.542,2.109c0.079,0.697,0.445,1.347,0.716,1.978c0.282,0.657,0.519,1.335,0.398,2.062
			c-0.152,0.913-0.786,1.661-0.988,2.556c-0.252,1.118,0.655,1.637,1.47,2.184c0.766,0.514,1.168,1.196,1.448,2.058
			c0.565,1.736,0.773,3.694,0.58,5.509c-0.172,1.61-1.398,2.799-1.553,4.363c-0.09,0.914,0.171,1.763,0.661,2.526
			c0.41,0.639,0.953,1.23,1.047,2.014c0.115,0.955-0.38,1.878-1.124,2.447c-0.676,0.517-1.634,0.775-2.124,1.508
			c-0.237,0.354-0.317,0.79-0.341,1.209c-4.129-2.668-8.569-4.832-12.659-7.549c-1.815-1.206-3.454-2.611-4.836-4.3
			c-1.421-1.737-2.522-3.698-3.865-5.491c-0.188-0.252-0.674-0.691-0.68-0.966c-0.006-0.273,0.43-0.823,0.554-1.059
			c0.798-1.526,1.596-3.052,2.394-4.578c0.93-1.778,1.876-3.548,2.779-5.34c2.508-4.979,4.968-9.985,7.545-14.929
			c1.117-2.142,2.275-4.264,3.542-6.322c0.274-0.444,0.555-0.884,0.832-1.326c0.37-0.588,0.73-1.487,1.236-1.965
			c0.307-0.29,0.838-0.462,1.201-0.755C202.791,248.617,203.043,248.382,203.289,248.142z"/>
	</g>
</g>
</svg>
